<?xml version="1.0" encoding="UTF-8"?>
<!DOCTYPE svg PUBLIC "-//W3C//DTD SVG 1.1//EN" "http://www.w3.org/Graphics/SVG/1.1/DTD/svg11.dtd">
<svg xmlns="http://www.w3.org/2000/svg" version="1.1" width="500px" height="500px" style="shape-rendering:geometricPrecision; text-rendering:geometricPrecision; image-rendering:optimizeQuality; fill-rule:evenodd; clip-rule:evenodd" xmlns:xlink="http://www.w3.org/1999/xlink">
<g><path style="opacity:0.223" fill="#171a3c" d="M 229.5,-0.5 C 234.167,-0.5 238.833,-0.5 243.5,-0.5C 253.653,0.494227 263.986,0.82756 274.5,0.5C 258.167,1.83333 241.833,1.83333 225.5,0.5C 227.099,0.767809 228.432,0.434475 229.5,-0.5 Z"/></g>
<g><path style="opacity:1" fill="#727bde" d="M 225.5,0.5 C 241.833,1.83333 258.167,1.83333 274.5,0.5C 279.71,0.608435 284.71,1.2751 289.5,2.5C 264.164,2.33336 238.831,2.50003 213.5,3C 205.923,4.69082 198.256,5.85749 190.5,6.5C 201.781,2.9806 213.447,0.980597 225.5,0.5 Z"/></g>
<g><path style="opacity:1" fill="#5365f6" d="M 289.5,2.5 C 291.621,2.32526 293.621,2.65859 295.5,3.5C 302.632,5.36805 309.632,7.70138 316.5,10.5C 322.287,12.2487 328.287,13.582 334.5,14.5C 334.833,14.5 335.167,14.5 335.5,14.5C 335.47,15.4972 335.97,16.1639 337,16.5C 340.4,17.9556 343.9,18.9556 347.5,19.5C 349.686,22.3005 352.686,23.6338 356.5,23.5C 356.5,24.5 356.5,25.5 356.5,26.5C 359.206,26.5751 361.873,26.9084 364.5,27.5C 364.5,28.5 364.5,29.5 364.5,30.5C 368.099,31.6988 371.765,32.6988 375.5,33.5C 378.004,34.5839 380.337,35.9172 382.5,37.5C 384.396,41.708 387.729,44.0413 392.5,44.5C 392.833,44.5 393.167,44.5 393.5,44.5C 393.709,45.9217 394.209,47.255 395,48.5C 399.851,53.5366 405.351,57.5366 411.5,60.5C 412.246,61.7362 412.579,63.0695 412.5,64.5C 417.269,64.4325 420.102,66.7659 421,71.5C 422.011,72.3366 423.178,72.67 424.5,72.5C 424.351,73.552 424.517,74.552 425,75.5C 425.333,75.1667 425.667,74.8333 426,74.5C 427.506,76.1742 429.339,77.1742 431.5,77.5C 432.08,79.7488 433.413,81.4154 435.5,82.5C 436.5,82.8333 437.167,83.5 437.5,84.5C 438.08,86.7488 439.413,88.4154 441.5,89.5C 442.08,91.7488 443.413,93.4154 445.5,94.5C 452.663,102.335 458.663,111.002 463.5,120.5C 463.977,124.794 465.977,128.127 469.5,130.5C 469.953,135.081 471.286,139.414 473.5,143.5C 474.183,143.863 474.85,144.196 475.5,144.5C 477.603,150.163 480.27,155.496 483.5,160.5C 483.5,160.833 483.5,161.167 483.5,161.5C 483.749,164.002 484.083,166.502 484.5,169C 484.604,171.145 483.937,172.979 482.5,174.5C 482.833,174.833 483.167,175.167 483.5,175.5C 484.167,174.833 484.833,174.167 485.5,173.5C 488.569,177.772 489.235,182.439 487.5,187.5C 488.274,188.711 489.107,188.711 490,187.5C 490.313,192.507 491.48,197.173 493.5,201.5C 493.687,203.564 494.187,205.564 495,207.5C 495.667,234.833 495.667,262.167 495,289.5C 493.866,297.219 492.7,304.885 491.5,312.5C 490.076,314.515 489.41,316.848 489.5,319.5C 489.768,321.099 489.434,322.432 488.5,323.5C 487.503,323.47 486.836,323.97 486.5,325C 484.449,328.928 483.449,333.095 483.5,337.5C 483.5,337.833 483.5,338.167 483.5,338.5C 482.85,338.804 482.183,339.137 481.5,339.5C 479.964,342.739 478.297,345.906 476.5,349C 475.678,351.434 475.344,353.934 475.5,356.5C 475.34,358.153 474.674,359.486 473.5,360.5C 472.257,362.164 470.59,363.331 468.5,364C 468.957,364.414 469.291,364.914 469.5,365.5C 468.482,366.852 467.149,367.852 465.5,368.5C 466.326,369.451 466.492,370.451 466,371.5C 465.282,370.549 464.449,370.383 463.5,371C 464.954,374.61 463.954,377.443 460.5,379.5C 459.571,380.689 459.238,382.022 459.5,383.5C 455.673,383.56 455.006,382.393 457.5,380C 456.01,378.366 454.676,378.699 453.5,381C 454.651,383.464 455.651,385.964 456.5,388.5C 455.713,390.104 454.38,390.771 452.5,390.5C 452.5,392.167 452.5,393.833 452.5,395.5C 451.292,396.234 449.959,396.567 448.5,396.5C 448.67,397.822 448.337,398.989 447.5,400C 445.5,399.667 443.5,399.333 441.5,399C 443.291,401.106 443.958,403.606 443.5,406.5C 439.814,406.13 438.814,407.463 440.5,410.5C 440.5,410.833 440.5,411.167 440.5,411.5C 438.856,411.714 437.356,411.38 436,410.5C 435.798,412.256 435.298,413.922 434.5,415.5C 433.914,415.291 433.414,414.957 433,414.5C 432.667,416.167 432.333,417.833 432,419.5C 427.423,420.241 425.256,422.908 425.5,427.5C 423.5,427.5 421.5,427.5 419.5,427.5C 419.5,428.5 419.5,429.5 419.5,430.5C 418.5,430.5 417.5,430.5 416.5,430.5C 416.5,432.167 416.5,433.833 416.5,435.5C 414.801,435.34 413.134,435.506 411.5,436C 411.957,436.414 412.291,436.914 412.5,437.5C 410.668,438.248 409.001,439.248 407.5,440.5C 406.391,439.41 405.391,439.41 404.5,440.5C 405.025,441.192 405.692,441.692 406.5,442C 405.207,442.49 403.873,442.657 402.5,442.5C 402.5,443.833 402.5,445.167 402.5,446.5C 400.123,446.784 397.956,446.784 396,446.5C 395.308,447.025 394.808,447.692 394.5,448.5C 396.011,450.838 395.677,451.504 393.5,450.5C 392.304,450.846 392.304,451.346 393.5,452C 392.552,452.483 391.552,452.649 390.5,452.5C 390.5,453.5 390.5,454.5 390.5,455.5C 389.833,455.833 389.167,456.167 388.5,456.5C 385.522,457.661 382.522,458.995 379.5,460.5C 378.873,461.417 378.539,462.417 378.5,463.5C 375.873,464.105 373.207,464.605 370.5,465C 370.833,465.333 371.167,465.667 371.5,466C 366.764,467.214 363.098,469.714 360.5,473.5C 358.658,473.723 356.825,474.057 355,474.5C 345.478,478.738 335.978,482.738 326.5,486.5C 318.798,488.026 311.131,489.359 303.5,490.5C 303.5,491.5 303.5,492.5 303.5,493.5C 298.167,494.167 292.833,494.833 287.5,495.5C 260.831,495.667 234.165,495.5 207.5,495C 201.963,493.299 196.296,492.466 190.5,492.5C 188.485,491.076 186.152,490.41 183.5,490.5C 179.498,488.39 175.165,487.057 170.5,486.5C 170.389,485.883 170.056,485.383 169.5,485C 166.522,484.304 163.522,483.804 160.5,483.5C 158.824,481.166 156.491,480.166 153.5,480.5C 150.461,477.462 146.794,475.795 142.5,475.5C 139.515,474.674 136.849,473.341 134.5,471.5C 134.631,470.624 134.298,469.957 133.5,469.5C 127.261,467.085 122.427,463.085 119,457.5C 118.692,458.308 118.192,458.975 117.5,459.5C 115.382,458.054 113.049,457.387 110.5,457.5C 109.738,455.738 108.404,454.738 106.5,454.5C 106.027,453.094 105.027,452.427 103.5,452.5C 101.179,449.679 99.5124,446.512 98.5,443C 95.5149,443.307 92.5149,442.807 89.5,441.5C 88.4154,439.413 86.7488,438.08 84.5,437.5C 83.5,437.167 82.8333,436.5 82.5,435.5C 82.0269,434.094 81.0269,433.427 79.5,433.5C 78.8617,431.54 78.8617,429.707 79.5,428C 76.7206,427.439 74.054,426.606 71.5,425.5C 71.5123,422.858 70.179,421.525 67.5,421.5C 65.3685,418.554 64.3685,415.221 64.5,411.5C 62.0971,411.552 59.7638,411.219 57.5,410.5C 54.5,406.5 51.5,402.5 48.5,398.5C 47.9029,395.509 46.5695,392.843 44.5,390.5C 43.5832,389.873 42.5832,389.539 41.5,389.5C 41.5,389.167 41.5,388.833 41.5,388.5C 41.3227,385.163 40.3227,382.163 38.5,379.5C 37.5,379.5 36.5,379.5 35.5,379.5C 35.5,379.167 35.5,378.833 35.5,378.5C 35.2155,375.746 34.5488,373.08 33.5,370.5C 30.2703,366.273 27.937,361.607 26.5,356.5C 25.5,356.5 24.5,356.5 23.5,356.5C 22.3263,355.486 21.6596,354.153 21.5,352.5C 21.821,349.423 20.821,347.09 18.5,345.5C 18.5358,342.539 17.5358,340.206 15.5,338.5C 14.8902,337.609 14.5569,336.609 14.5,335.5C 14.6621,333.473 14.4955,331.473 14,329.5C 12.1885,325.278 10.6885,320.944 9.5,316.5C 9.25284,315.287 8.58617,314.62 7.5,314.5C 7.5,313.833 7.5,313.167 7.5,312.5C 7.94649,309.99 7.27983,307.99 5.5,306.5C 5.5,305.833 5.5,305.167 5.5,304.5C 5.57968,301.219 4.91301,298.219 3.5,295.5C 3.81946,290.637 3.48612,285.97 2.5,281.5C 2.5,260.167 2.5,238.833 2.5,217.5C 2.99805,212.848 3.33139,208.181 3.5,203.5C 4.91301,200.781 5.57968,197.781 5.5,194.5C 5.5,194.167 5.5,193.833 5.5,193.5C 6.92381,191.485 7.59047,189.152 7.5,186.5C 8.05633,181.273 9.38966,176.273 11.5,171.5C 13.0814,169.326 14.5814,166.993 16,164.5C 18.7077,158.755 20.541,152.755 21.5,146.5C 22.3257,143.515 23.659,140.849 25.5,138.5C 26.3764,138.631 27.0431,138.298 27.5,137.5C 30.0806,133.014 32.0806,128.347 33.5,123.5C 35.4077,122.514 36.4077,120.848 36.5,118.5C 37.9063,118.027 38.573,117.027 38.5,115.5C 39.8333,115.5 41.1667,115.5 42.5,115.5C 43.8333,111.5 45.1667,107.5 46.5,103.5C 47.8333,103.5 49.1667,103.5 50.5,103.5C 52.3459,99.1643 54.3459,94.831 56.5,90.5C 59.2427,88.7607 61.2427,86.4274 62.5,83.5C 65.5725,81.4309 67.9059,78.7642 69.5,75.5C 72.5,74.5 74.5,72.5 75.5,69.5C 78.4274,68.2427 80.7607,66.2427 82.5,63.5C 85.4274,62.2427 87.7607,60.2427 89.5,57.5C 93.5952,55.6308 97.4286,53.2975 101,50.5C 104.366,52.1168 107.2,51.4501 109.5,48.5C 108.624,47.7492 107.624,47.2492 106.5,47C 109.003,44.9164 111.669,43.0831 114.5,41.5C 115.127,40.5832 115.461,39.5832 115.5,38.5C 119.122,37.3749 122.789,36.3749 126.5,35.5C 127.429,34.3112 127.762,32.9778 127.5,31.5C 130.678,28.7417 134.345,26.7417 138.5,25.5C 142.277,25.4451 145.777,24.4451 149,22.5C 150.882,23.606 152.716,23.606 154.5,22.5C 153.624,21.7492 152.624,21.2492 151.5,21C 153.5,20.6667 155.5,20.3333 157.5,20C 160.569,17.8111 163.569,15.6444 166.5,13.5C 169.152,13.5905 171.485,12.9238 173.5,11.5C 177.162,11.2766 180.495,10.2766 183.5,8.5C 185.515,7.07619 187.848,6.40953 190.5,6.5C 198.256,5.85749 205.923,4.69082 213.5,3C 238.831,2.50003 264.164,2.33336 289.5,2.5 Z M 307.5,111.5 C 320.513,114.337 333.513,117.671 346.5,121.5C 346.833,121.5 347.167,121.5 347.5,121.5C 350.939,123.204 354.605,124.538 358.5,125.5C 364.65,128.403 370.984,131.07 377.5,133.5C 378.604,135.389 379.937,137.055 381.5,138.5C 383.11,142.1 385.11,145.434 387.5,148.5C 389.93,153.037 392.597,157.37 395.5,161.5C 395.5,161.833 395.5,162.167 395.5,162.5C 399.864,170.566 404.197,178.566 408.5,186.5C 408.707,189.241 409.707,191.574 411.5,193.5C 411.5,193.833 411.5,194.167 411.5,194.5C 412.463,197.744 413.796,200.744 415.5,203.5C 417.235,210.476 419.568,217.143 422.5,223.5C 423.675,230.401 425.342,237.067 427.5,243.5C 427.232,245.099 427.566,246.432 428.5,247.5C 434.241,278.682 435.408,310.015 432,341.5C 430.955,342.373 430.122,343.373 429.5,344.5C 427.147,345.34 425.147,346.674 423.5,348.5C 420.802,348.845 418.802,350.178 417.5,352.5C 411.995,354.749 406.995,357.749 402.5,361.5C 393.128,366.186 383.795,370.853 374.5,375.5C 370.873,376.321 367.54,377.654 364.5,379.5C 356.455,382.459 348.289,385.126 340,387.5C 337.622,385.292 335.456,382.958 333.5,380.5C 330.664,374.822 327.331,369.489 323.5,364.5C 323.34,362.847 322.674,361.514 321.5,360.5C 321.461,359.417 321.127,358.417 320.5,357.5C 321.243,356.818 321.909,356.151 322.5,355.5C 327.25,354.257 331.584,352.257 335.5,349.5C 341.086,347.707 346.086,344.873 350.5,341C 348.792,338.957 346.792,337.29 344.5,336C 342.119,335.262 340.119,335.762 338.5,337.5C 335.458,337.733 332.792,338.733 330.5,340.5C 326.605,341.462 322.939,342.796 319.5,344.5C 313.95,345.796 308.617,347.463 303.5,349.5C 298.908,349.882 294.575,350.882 290.5,352.5C 286.613,352.646 282.946,353.313 279.5,354.5C 271.656,354.82 263.989,355.487 256.5,356.5C 247.494,356.3 238.494,355.966 229.5,355.5C 228.833,355.5 228.167,355.5 227.5,355.5C 214.211,353.242 200.878,350.576 187.5,347.5C 185.786,346.262 183.786,345.595 181.5,345.5C 179.786,344.262 177.786,343.595 175.5,343.5C 169.721,340.792 163.721,338.459 157.5,336.5C 157.083,335.876 156.416,335.543 155.5,335.5C 152.112,336.348 149.779,338.348 148.5,341.5C 148.747,342.713 149.414,343.38 150.5,343.5C 153.515,345.674 156.849,347.341 160.5,348.5C 165.978,351.741 171.645,354.741 177.5,357.5C 174.807,362.886 172.14,368.22 169.5,373.5C 166.759,375.975 164.759,378.975 163.5,382.5C 161.413,383.585 160.08,385.251 159.5,387.5C 156.167,386.833 152.833,386.167 149.5,385.5C 147.786,384.262 145.786,383.595 143.5,383.5C 139.478,381.266 135.144,379.599 130.5,378.5C 126.355,376.264 122.022,374.264 117.5,372.5C 115.574,370.707 113.241,369.707 110.5,369.5C 109.486,368.326 108.153,367.66 106.5,367.5C 102.836,364.665 98.8362,362.332 94.5,360.5C 90.8362,357.665 86.8362,355.332 82.5,353.5C 80.0246,350.759 77.0246,348.759 73.5,347.5C 73.0269,346.094 72.0269,345.427 70.5,345.5C 69.7377,343.738 68.4044,342.738 66.5,342.5C 62.7351,308.918 64.4018,275.585 71.5,242.5C 73.6115,236.393 75.2782,230.059 76.5,223.5C 77.9459,220.746 78.9459,217.746 79.5,214.5C 81.0719,211.785 82.0719,208.785 82.5,205.5C 83.3382,205.158 83.6716,204.492 83.5,203.5C 85.0198,201.11 86.0198,198.443 86.5,195.5C 88.5918,192.912 89.9251,189.912 90.5,186.5C 92.341,184.151 93.6743,181.485 94.5,178.5C 96.9569,175.249 98.6236,171.582 99.5,167.5C 105.666,158.508 111.333,149.174 116.5,139.5C 118.179,138 119.512,136.167 120.5,134C 125.396,132.101 130.063,129.935 134.5,127.5C 153.696,120.548 173.363,115.214 193.5,111.5C 194.5,111.667 195.5,111.833 196.5,112C 198.314,114.479 199.981,116.979 201.5,119.5C 202.592,124.031 204.925,127.697 208.5,130.5C 211.53,129.831 214.53,129.165 217.5,128.5C 235.487,127.671 253.487,127.338 271.5,127.5C 278.021,128.815 284.688,129.649 291.5,130C 294.163,126.507 296.163,122.673 297.5,118.5C 298.492,116.544 299.492,114.544 300.5,112.5C 302.39,110.805 304.723,110.472 307.5,111.5 Z"/></g>
<g><path style="opacity:0.922" fill="#9ea5ec" d="M 295.5,3.5 C 305.931,4.93939 315.931,7.60606 325.5,11.5C 322.518,11.0371 319.518,10.7038 316.5,10.5C 309.632,7.70138 302.632,5.36805 295.5,3.5 Z"/></g>
<g><path style="opacity:0.886" fill="#9099e5" d="M 183.5,8.5 C 180.495,10.2766 177.162,11.2766 173.5,11.5C 176.505,9.7234 179.838,8.7234 183.5,8.5 Z"/></g>
<g><path style="opacity:1" fill="#777fea" d="M 316.5,10.5 C 319.518,10.7038 322.518,11.0371 325.5,11.5C 328.854,11.7475 331.854,12.7475 334.5,14.5C 328.287,13.582 322.287,12.2487 316.5,10.5 Z"/></g>
<g><path style="opacity:0.761" fill="#acb1f0" d="M 173.5,11.5 C 171.485,12.9238 169.152,13.5905 166.5,13.5C 168.515,12.0762 170.848,11.4095 173.5,11.5 Z"/></g>
<g><path style="opacity:0.663" fill="#9aa0ee" d="M 335.5,14.5 C 339.901,15.4056 343.901,17.0723 347.5,19.5C 343.9,18.9556 340.4,17.9556 337,16.5C 335.97,16.1639 335.47,15.4972 335.5,14.5 Z"/></g>
<g><path style="opacity:1" fill="#6974ea" d="M 166.5,13.5 C 163.569,15.6444 160.569,17.8111 157.5,20C 155.5,20.3333 153.5,20.6667 151.5,21C 152.624,21.2492 153.624,21.7492 154.5,22.5C 152.716,23.606 150.882,23.606 149,22.5C 145.777,24.4451 142.277,25.4451 138.5,25.5C 147.301,20.4375 156.634,16.4375 166.5,13.5 Z"/></g>
<g><path style="opacity:1" fill="#838ae8" d="M 347.5,19.5 C 350.912,20.0421 353.912,21.3754 356.5,23.5C 352.686,23.6338 349.686,22.3005 347.5,19.5 Z"/></g>
<g><path style="opacity:1" fill="#8283e7" d="M 356.5,23.5 C 359.485,24.3257 362.151,25.659 364.5,27.5C 361.873,26.9084 359.206,26.5751 356.5,26.5C 356.5,25.5 356.5,24.5 356.5,23.5 Z"/></g>
<g><path style="opacity:1" fill="#8e91ed" d="M 364.5,27.5 C 368.655,28.7417 372.322,30.7417 375.5,33.5C 371.765,32.6988 368.099,31.6988 364.5,30.5C 364.5,29.5 364.5,28.5 364.5,27.5 Z"/></g>
<g><path style="opacity:1" fill="#7379ea" d="M 127.5,31.5 C 127.762,32.9778 127.429,34.3112 126.5,35.5C 122.789,36.3749 119.122,37.3749 115.5,38.5C 118.976,35.3768 122.976,33.0435 127.5,31.5 Z"/></g>
<g><path style="opacity:1" fill="#888cea" d="M 382.5,37.5 C 386.221,39.3535 389.554,41.6869 392.5,44.5C 387.729,44.0413 384.396,41.708 382.5,37.5 Z"/></g>
<g><path style="opacity:1" fill="#6c76ec" d="M 115.5,38.5 C 115.461,39.5832 115.127,40.5832 114.5,41.5C 111.669,43.0831 109.003,44.9164 106.5,47C 107.624,47.2492 108.624,47.7492 109.5,48.5C 107.2,51.4501 104.366,52.1168 101,50.5C 97.4286,53.2975 93.5952,55.6308 89.5,57.5C 97.0937,49.7027 105.76,43.3693 115.5,38.5 Z"/></g>
<g><path style="opacity:0.882" fill="#8d93e6" d="M 89.5,57.5 C 87.7607,60.2427 85.4274,62.2427 82.5,63.5C 84.2393,60.7573 86.5726,58.7573 89.5,57.5 Z"/></g>
<g><path style="opacity:0.702" fill="#a9b2f2" d="M 82.5,63.5 C 80.7607,66.2427 78.4274,68.2427 75.5,69.5C 77.2393,66.7573 79.5726,64.7573 82.5,63.5 Z"/></g>
<g><path style="opacity:1" fill="#727aeb" d="M 393.5,44.5 C 407.374,54.0359 420.041,65.0359 431.5,77.5C 429.339,77.1742 427.506,76.1742 426,74.5C 425.667,74.8333 425.333,75.1667 425,75.5C 424.517,74.552 424.351,73.552 424.5,72.5C 423.178,72.67 422.011,72.3366 421,71.5C 420.102,66.7659 417.269,64.4325 412.5,64.5C 412.579,63.0695 412.246,61.7362 411.5,60.5C 405.351,57.5366 399.851,53.5366 395,48.5C 394.209,47.255 393.709,45.9217 393.5,44.5 Z"/></g>
<g><path style="opacity:0.839" fill="#9da3ec" d="M 75.5,69.5 C 74.5,72.5 72.5,74.5 69.5,75.5C 71.1667,73.1667 73.1667,71.1667 75.5,69.5 Z"/></g>
<g><path style="opacity:0.631" fill="#babef3" d="M 431.5,77.5 C 433.587,78.5846 434.92,80.2512 435.5,82.5C 433.413,81.4154 432.08,79.7488 431.5,77.5 Z"/></g>
<g><path style="opacity:0.635" fill="#b2b9f4" d="M 69.5,75.5 C 67.9059,78.7642 65.5725,81.4309 62.5,83.5C 64.0941,80.2358 66.4275,77.5691 69.5,75.5 Z"/></g>
<g><path style="opacity:0.824" fill="#abade9" d="M 437.5,84.5 C 439.587,85.5846 440.92,87.2512 441.5,89.5C 439.413,88.4154 438.08,86.7488 437.5,84.5 Z"/></g>
<g><path style="opacity:0.769" fill="#a2abec" d="M 62.5,83.5 C 61.2427,86.4274 59.2427,88.7607 56.5,90.5C 57.7573,87.5726 59.7573,85.2393 62.5,83.5 Z"/></g>
<g><path style="opacity:0.875" fill="#9ea3e7" d="M 441.5,89.5 C 443.587,90.5846 444.92,92.2512 445.5,94.5C 443.413,93.4154 442.08,91.7488 441.5,89.5 Z"/></g>
<g><path style="opacity:1" fill="#8188ea" d="M 56.5,90.5 C 54.3459,94.831 52.3459,99.1643 50.5,103.5C 49.1667,103.5 47.8333,103.5 46.5,103.5C 49.0745,98.591 52.4078,94.2577 56.5,90.5 Z"/></g>
<g><path style="opacity:0.369" fill="#b8bef5" d="M 307.5,111.5 C 304.723,110.472 302.39,110.805 300.5,112.5C 302.19,108.835 304.523,108.502 307.5,111.5 Z"/></g>
<g><path style="opacity:0.965" fill="#a1a3ea" d="M 307.5,111.5 C 310.167,111.5 312.833,111.5 315.5,111.5C 323.136,112.893 330.802,114.726 338.5,117C 341.419,118.287 344.086,119.787 346.5,121.5C 333.513,117.671 320.513,114.337 307.5,111.5 Z"/></g>
<g><path style="opacity:1" fill="#757ce9" d="M 46.5,103.5 C 45.1667,107.5 43.8333,111.5 42.5,115.5C 41.1667,115.5 39.8333,115.5 38.5,115.5C 40.1775,110.803 42.8442,106.803 46.5,103.5 Z"/></g>
<g><path style="opacity:0.612" fill="#acb0ed" d="M 201.5,119.5 C 199.981,116.979 198.314,114.479 196.5,112C 195.5,111.833 194.5,111.667 193.5,111.5C 173.363,115.214 153.696,120.548 134.5,127.5C 138.346,124.487 142.68,122.321 147.5,121C 157.036,118.455 166.37,115.622 175.5,112.5C 182.863,111.548 190.196,110.715 197.5,110C 200.489,112.483 201.822,115.65 201.5,119.5 Z"/></g>
<g><path style="opacity:0.773" fill="#b1b3ea" d="M 300.5,112.5 C 299.492,114.544 298.492,116.544 297.5,118.5C 297.087,115.68 298.087,113.68 300.5,112.5 Z"/></g>
<g><path style="opacity:0.49" fill="#acb5f5" d="M 38.5,115.5 C 38.573,117.027 37.9063,118.027 36.5,118.5C 36.427,116.973 37.0937,115.973 38.5,115.5 Z"/></g>
<g><path style="opacity:0.698" fill="#b4b7ec" d="M 347.5,121.5 C 351.708,121.677 355.374,123.01 358.5,125.5C 354.605,124.538 350.939,123.204 347.5,121.5 Z"/></g>
<g><path style="opacity:0.973" fill="#9198e6" d="M 36.5,118.5 C 36.4077,120.848 35.4077,122.514 33.5,123.5C 33.7497,121.326 34.7497,119.659 36.5,118.5 Z"/></g>
<g><path style="opacity:1" fill="#5c64ea" d="M 315.5,111.5 C 312.833,111.5 310.167,111.5 307.5,111.5C 304.523,108.502 302.19,108.835 300.5,112.5C 298.087,113.68 297.087,115.68 297.5,118.5C 295.15,121.349 293.15,124.515 291.5,128C 284.837,128.168 278.171,128.001 271.5,127.5C 265.034,126.17 258.201,125.503 251,125.5C 239.768,125.379 228.601,126.046 217.5,127.5C 214.482,127.665 211.482,127.498 208.5,127C 206.036,124.531 203.703,122.031 201.5,119.5C 201.822,115.65 200.489,112.483 197.5,110C 190.196,110.715 182.863,111.548 175.5,112.5C 175.611,111.883 175.944,111.383 176.5,111C 179.882,110.824 183.215,110.324 186.5,109.5C 186.291,108.914 185.957,108.414 185.5,108C 192.746,106.194 199.079,107.694 204.5,112.5C 202.816,113.854 202.316,115.521 203,117.5C 204.065,120.152 205.898,121.985 208.5,123C 214.52,123.301 220.52,123.801 226.5,124.5C 237.7,121.035 248.866,120.702 260,123.5C 270.514,124.526 281.014,125.526 291.5,126.5C 292.151,124.174 292.818,121.841 293.5,119.5C 292.733,115.765 291.566,115.765 290,119.5C 289.703,117.224 290.203,115.057 291.5,113C 290.464,110.592 290.464,108.259 291.5,106C 293.259,105.202 294.926,105.369 296.5,106.5C 294.244,107.421 293.244,109.088 293.5,111.5C 297.41,110.749 301.243,109.749 305,108.5C 308.704,109.24 312.204,110.24 315.5,111.5 Z"/></g>
<g><path style="opacity:1" fill="#8b90eb" d="M 463.5,120.5 C 466,123.494 468,126.827 469.5,130.5C 465.977,128.127 463.977,124.794 463.5,120.5 Z"/></g>
<g><path style="opacity:0.732" fill="#a2a5e3" d="M 271.5,127.5 C 253.487,127.338 235.487,127.671 217.5,128.5C 217.5,128.167 217.5,127.833 217.5,127.5C 228.601,126.046 239.768,125.379 251,125.5C 258.201,125.503 265.034,126.17 271.5,127.5 Z"/></g>
<g><path style="opacity:0.949" fill="#9797e0" d="M 201.5,119.5 C 203.703,122.031 206.036,124.531 208.5,127C 211.482,127.498 214.482,127.665 217.5,127.5C 217.5,127.833 217.5,128.167 217.5,128.5C 214.53,129.165 211.53,129.831 208.5,130.5C 204.925,127.697 202.592,124.031 201.5,119.5 Z"/></g>
<g><path style="opacity:0.859" fill="#a5a9e7" d="M 358.5,125.5 C 365.657,126.246 371.99,128.913 377.5,133.5C 370.984,131.07 364.65,128.403 358.5,125.5 Z"/></g>
<g><path style="opacity:0.58" fill="#bcc3f3" d="M 297.5,118.5 C 296.163,122.673 294.163,126.507 291.5,130C 284.688,129.649 278.021,128.815 271.5,127.5C 278.171,128.001 284.837,128.168 291.5,128C 293.15,124.515 295.15,121.349 297.5,118.5 Z"/></g>
<g><path style="opacity:0.992" fill="#8288e9" d="M 33.5,123.5 C 32.0806,128.347 30.0806,133.014 27.5,137.5C 27.0431,138.298 26.3764,138.631 25.5,138.5C 27.4068,133.016 30.0734,128.016 33.5,123.5 Z"/></g>
<g><path style="opacity:0.337" fill="#b8baf4" d="M 134.5,127.5 C 130.063,129.935 125.396,132.101 120.5,134C 119.512,136.167 118.179,138 116.5,139.5C 116.797,136.441 118.13,133.941 120.5,132C 125.004,130.063 129.671,128.563 134.5,127.5 Z"/></g>
<g><path style="opacity:0.329" fill="#b6baf6" d="M 377.5,133.5 C 379.997,134.129 381.33,135.796 381.5,138.5C 379.937,137.055 378.604,135.389 377.5,133.5 Z"/></g>
<g><path style="opacity:1" fill="#7178e7" d="M 469.5,130.5 C 472.008,134.182 474.008,138.182 475.5,142.5C 475.5,143.167 475.5,143.833 475.5,144.5C 474.85,144.196 474.183,143.863 473.5,143.5C 471.286,139.414 469.953,135.081 469.5,130.5 Z"/></g>
<g><path style="opacity:1" fill="#989ce8" d="M 381.5,138.5 C 382.708,139.234 384.041,139.567 385.5,139.5C 386.406,142.436 387.072,145.436 387.5,148.5C 385.11,145.434 383.11,142.1 381.5,138.5 Z"/></g>
<g><path style="opacity:0.973" fill="#9499eb" d="M 475.5,142.5 C 478.731,148.173 481.398,154.173 483.5,160.5C 480.27,155.496 477.603,150.163 475.5,144.5C 475.5,143.833 475.5,143.167 475.5,142.5 Z"/></g>
<g><path style="opacity:0.576" fill="#b9bbf3" d="M 116.5,139.5 C 111.333,149.174 105.666,158.508 99.5,167.5C 101.393,162.753 103.56,158.086 106,153.5C 108.887,148.214 112.387,143.547 116.5,139.5 Z"/></g>
<g><path style="opacity:1" fill="#878dea" d="M 21.5,146.5 C 20.541,152.755 18.7077,158.755 16,164.5C 14.5814,166.993 13.0814,169.326 11.5,171.5C 14.0709,162.772 17.4042,154.439 21.5,146.5 Z"/></g>
<g><path style="opacity:0.373" fill="#bdc3f6" d="M 387.5,148.5 C 391.363,151.852 394.03,156.186 395.5,161.5C 392.597,157.37 389.93,153.037 387.5,148.5 Z"/></g>
<g><path style="opacity:0.498" fill="#b9c2ee" d="M 99.5,167.5 C 98.6236,171.582 96.9569,175.249 94.5,178.5C 95.2205,174.311 96.8872,170.645 99.5,167.5 Z"/></g>
<g><path style="opacity:0.325" fill="#b2b5f2" d="M 395.5,162.5 C 396.496,162.414 397.329,162.748 398,163.5C 402.06,170.95 405.56,178.617 408.5,186.5C 404.197,178.566 399.864,170.566 395.5,162.5 Z"/></g>
<g><path style="opacity:0.235" fill="#c4cbf9" d="M 94.5,178.5 C 93.6743,181.485 92.341,184.151 90.5,186.5C 90.7936,183.246 92.127,180.579 94.5,178.5 Z"/></g>
<g><path style="opacity:0.796" fill="#9ca7ec" d="M 489.5,179.5 C 490.924,181.515 491.59,183.848 491.5,186.5C 490.076,184.485 489.41,182.152 489.5,179.5 Z"/></g>
<g><path style="opacity:1" fill="#646eea" d="M 483.5,161.5 C 486.41,167.117 488.41,173.117 489.5,179.5C 489.41,182.152 490.076,184.485 491.5,186.5C 491.41,189.152 492.076,191.485 493.5,193.5C 493.5,193.833 493.5,194.167 493.5,194.5C 493.5,196.833 493.5,199.167 493.5,201.5C 491.48,197.173 490.313,192.507 490,187.5C 489.107,188.711 488.274,188.711 487.5,187.5C 489.235,182.439 488.569,177.772 485.5,173.5C 484.833,174.167 484.167,174.833 483.5,175.5C 483.167,175.167 482.833,174.833 482.5,174.5C 483.937,172.979 484.604,171.145 484.5,169C 484.083,166.502 483.749,164.002 483.5,161.5 Z"/></g>
<g><path style="opacity:1" fill="#5c66e9" d="M 385.5,139.5 C 389.978,142.476 393.144,146.476 395,151.5C 396.011,152.337 397.178,152.67 398.5,152.5C 400.686,158.245 402.186,164.245 403,170.5C 407.175,175.457 409.675,180.457 410.5,185.5C 411.5,185.5 412.5,185.5 413.5,185.5C 413.5,187.5 413.5,189.5 413.5,191.5C 414.822,191.67 415.989,191.337 417,190.5C 417.249,191.624 417.749,192.624 418.5,193.5C 423.929,194.895 424.595,197.229 420.5,200.5C 418.803,199.636 417.637,198.303 417,196.5C 416.064,199.352 416.73,201.685 419,203.5C 419.497,205.81 419.663,208.143 419.5,210.5C 418.539,207.945 417.206,205.612 415.5,203.5C 415.308,199.898 413.974,196.898 411.5,194.5C 411.5,194.167 411.5,193.833 411.5,193.5C 411.448,190.654 410.448,188.32 408.5,186.5C 405.56,178.617 402.06,170.95 398,163.5C 397.329,162.748 396.496,162.414 395.5,162.5C 395.5,162.167 395.5,161.833 395.5,161.5C 394.03,156.186 391.363,151.852 387.5,148.5C 387.072,145.436 386.406,142.436 385.5,139.5 Z"/></g>
<g><path style="opacity:0.188" fill="#c6cdfa" d="M 90.5,186.5 C 89.9251,189.912 88.5918,192.912 86.5,195.5C 87.1667,192.833 87.8333,190.167 88.5,187.5C 89.1667,187.167 89.8333,186.833 90.5,186.5 Z"/></g>
<g><path style="opacity:0.435" fill="#a4aae0" d="M 408.5,186.5 C 410.448,188.32 411.448,190.654 411.5,193.5C 409.707,191.574 408.707,189.241 408.5,186.5 Z"/></g>
<g><path style="opacity:0.408" fill="#b7bdfb" d="M 7.5,186.5 C 7.59047,189.152 6.92381,191.485 5.5,193.5C 5.40953,190.848 6.07619,188.515 7.5,186.5 Z"/></g>
<g><path style="opacity:0.435" fill="#b7bcfb" d="M 491.5,186.5 C 492.924,188.515 493.59,190.848 493.5,193.5C 492.076,191.485 491.41,189.152 491.5,186.5 Z"/></g>
<g><path style="opacity:0.686" fill="#b2b8f7" d="M 5.5,194.5 C 5.57968,197.781 4.91301,200.781 3.5,203.5C 3.42032,200.219 4.08699,197.219 5.5,194.5 Z"/></g>
<g><path style="opacity:0.282" fill="#c3c5f9" d="M 86.5,195.5 C 86.0198,198.443 85.0198,201.11 83.5,203.5C 83.4152,200.351 84.4152,197.684 86.5,195.5 Z"/></g>
<g><path style="opacity:0.325" fill="#babaf7" d="M 411.5,194.5 C 413.974,196.898 415.308,199.898 415.5,203.5C 413.796,200.744 412.463,197.744 411.5,194.5 Z"/></g>
<g><path style="opacity:1" fill="#5e69e5" d="M 88.5,187.5 C 87.8333,190.167 87.1667,192.833 86.5,195.5C 84.4152,197.684 83.4152,200.351 83.5,203.5C 83.6716,204.492 83.3382,205.158 82.5,205.5C 80.446,208.008 79.446,211.008 79.5,214.5C 79.1667,214.5 78.8333,214.5 78.5,214.5C 79.0169,209.551 79.3502,204.717 79.5,200C 80.6426,197.549 81.6426,195.049 82.5,192.5C 84.8366,191.157 86.8366,189.49 88.5,187.5 Z"/></g>
<g><path style="opacity:0.827" fill="#b4bcf3" d="M 3.5,203.5 C 3.33139,208.181 2.99805,212.848 2.5,217.5C 1.83333,219.5 1.16667,221.5 0.5,223.5C 0.77146,216.593 1.77146,209.926 3.5,203.5 Z"/></g>
<g><path style="opacity:0.314" fill="#b6bcf0" d="M 82.5,205.5 C 82.0719,208.785 81.0719,211.785 79.5,214.5C 79.446,211.008 80.446,208.008 82.5,205.5 Z"/></g>
<g><path style="opacity:0.953" fill="#9c9ce4" d="M 78.5,214.5 C 78.8333,214.5 79.1667,214.5 79.5,214.5C 78.9459,217.746 77.9459,220.746 76.5,223.5C 76.3359,220.813 76.5026,218.146 77,215.5C 77.3826,214.944 77.8826,214.611 78.5,214.5 Z"/></g>
<g><path style="opacity:0.71" fill="#9b9fe6" d="M 415.5,203.5 C 417.206,205.612 418.539,207.945 419.5,210.5C 421.141,214.608 422.141,218.941 422.5,223.5C 419.568,217.143 417.235,210.476 415.5,203.5 Z"/></g>
<g><path style="opacity:1" fill="#5d67e5" d="M 419.5,210.5 C 420.815,211.476 422.148,212.476 423.5,213.5C 424.327,217.459 424.827,221.459 425,225.5C 425.739,223.779 426.573,222.113 427.5,220.5C 428.5,220.833 429.167,221.5 429.5,222.5C 428.306,224.623 427.64,226.957 427.5,229.5C 427.505,236.119 428.839,242.286 431.5,248C 432.225,253.143 432.559,258.31 432.5,263.5C 431.799,258.029 430.466,252.695 428.5,247.5C 427.566,246.432 427.232,245.099 427.5,243.5C 426.78,238.166 425.947,232.832 425,227.5C 424.066,226.142 423.232,224.808 422.5,223.5C 422.141,218.941 421.141,214.608 419.5,210.5 Z"/></g>
<g><path style="opacity:0.613" fill="#a0a3e5" d="M 195.5,227.5 C 188.349,227.109 181.349,227.775 174.5,229.5C 181.233,225.43 188.233,224.763 195.5,227.5 Z"/></g>
<g><path style="opacity:0.665" fill="#a1a4e5" d="M 329.5,232.5 C 325.815,230.989 322.148,229.489 318.5,228C 311.355,227.109 304.355,227.609 297.5,229.5C 305.48,225.018 313.814,224.518 322.5,228C 325.239,229.026 327.572,230.526 329.5,232.5 Z"/></g>
<g><path style="opacity:0.255" fill="#b1b2eb" d="M 196.5,227.5 C 199.721,227.896 202.388,229.229 204.5,231.5C 202.5,230.833 200.5,230.167 198.5,229.5C 197.5,229.167 196.833,228.5 196.5,227.5 Z"/></g>
<g><path style="opacity:1" fill="#6e73d9" d="M 198.5,229.5 C 200.5,230.167 202.5,230.833 204.5,231.5C 207.473,232.81 209.807,234.81 211.5,237.5C 209.4,237.523 207.567,236.856 206,235.5C 203.553,233.369 201.053,231.369 198.5,229.5 Z"/></g>
<g><path style="opacity:1" fill="#5464f4" d="M 329.5,232.5 C 330.539,234.531 332.205,235.864 334.5,236.5C 335.906,236.973 336.573,237.973 336.5,239.5C 338.31,244.453 340.643,249.12 343.5,253.5C 343.666,259.842 343.5,266.175 343,272.5C 341.961,276.472 340.461,280.139 338.5,283.5C 337.5,283.5 336.5,283.5 335.5,283.5C 335.657,284.873 335.49,286.207 335,287.5C 333.198,288.789 332.031,290.456 331.5,292.5C 328.302,294.014 324.968,295.348 321.5,296.5C 320.702,296.957 320.369,297.624 320.5,298.5C 319.167,298.5 317.833,298.5 316.5,298.5C 312.486,298.666 308.486,298.499 304.5,298C 300.868,296.643 297.202,295.476 293.5,294.5C 291.205,291.703 288.705,289.036 286,286.5C 284.295,284.423 283.128,282.09 282.5,279.5C 279.61,270.416 278.777,261.082 280,251.5C 282.681,247.809 284.515,243.809 285.5,239.5C 287.833,237.833 289.833,235.833 291.5,233.5C 293.147,231.674 295.147,230.34 297.5,229.5C 304.355,227.609 311.355,227.109 318.5,228C 322.148,229.489 325.815,230.989 329.5,232.5 Z"/></g>
<g><path style="opacity:0.557" fill="#9fa0ea" d="M 329.5,232.5 C 331.754,233.124 333.421,234.457 334.5,236.5C 332.205,235.864 330.539,234.531 329.5,232.5 Z"/></g>
<g><path style="opacity:0.02" fill="#acb0f0" d="M 422.5,223.5 C 423.232,224.808 424.066,226.142 425,227.5C 425.947,232.832 426.78,238.166 427.5,243.5C 425.342,237.067 423.675,230.401 422.5,223.5 Z"/></g>
<g><path style="opacity:0.718" fill="#8d8ddf" d="M 174.5,229.5 C 168.845,233.489 163.845,238.156 159.5,243.5C 162.561,236.772 167.561,232.106 174.5,229.5 Z"/></g>
<g><path style="opacity:1" fill="#5464f4" d="M 195.5,227.5 C 195.833,227.5 196.167,227.5 196.5,227.5C 196.833,228.5 197.5,229.167 198.5,229.5C 201.053,231.369 203.553,233.369 206,235.5C 207.567,236.856 209.4,237.523 211.5,237.5C 212.288,241.438 214.288,244.438 217.5,246.5C 219.963,254.616 220.963,262.95 220.5,271.5C 218.747,274.146 217.747,277.146 217.5,280.5C 214.196,281.144 212.862,283.144 213.5,286.5C 212.292,287.234 210.959,287.567 209.5,287.5C 209.649,288.552 209.483,289.552 209,290.5C 206.156,291.926 203.322,293.426 200.5,295C 199.748,295.671 199.414,296.504 199.5,297.5C 199.158,298.338 198.492,298.672 197.5,298.5C 192.195,299.194 186.862,299.528 181.5,299.5C 178.245,297.331 174.911,295.165 171.5,293C 170.207,292.51 168.873,292.343 167.5,292.5C 163.808,286.17 159.808,280.17 155.5,274.5C 154.496,263.788 155.829,253.455 159.5,243.5C 163.845,238.156 168.845,233.489 174.5,229.5C 181.349,227.775 188.349,227.109 195.5,227.5 Z"/></g>
<g><path style="opacity:0.71" fill="#b4b8eb" d="M 76.5,223.5 C 75.2782,230.059 73.6115,236.393 71.5,242.5C 71.7466,235.709 73.4132,229.376 76.5,223.5 Z"/></g>
<g><path style="opacity:0.478" fill="#b5b5ee" d="M 291.5,233.5 C 289.833,235.833 287.833,237.833 285.5,239.5C 286.5,236.5 288.5,234.5 291.5,233.5 Z"/></g>
<g><path style="opacity:1" fill="#727ddb" d="M 493.5,194.5 C 495.786,201.877 497.119,209.544 497.5,217.5C 496.167,238.833 496.167,260.167 497.5,281.5C 496.76,292.195 494.76,302.529 491.5,312.5C 492.7,304.885 493.866,297.219 495,289.5C 495.667,262.167 495.667,234.833 495,207.5C 494.187,205.564 493.687,203.564 493.5,201.5C 493.5,199.167 493.5,196.833 493.5,194.5 Z"/></g>
<g><path style="opacity:0.957" fill="#8b88e1" d="M 211.5,237.5 C 214.737,239.63 216.737,242.63 217.5,246.5C 214.288,244.438 212.288,241.438 211.5,237.5 Z"/></g>
<g><path style="opacity:0.941" fill="#898fda" d="M 336.5,239.5 C 340.409,243.317 342.742,247.984 343.5,253.5C 340.643,249.12 338.31,244.453 336.5,239.5 Z"/></g>
<g><path style="opacity:0.888" fill="#0e0e17" d="M 497.5,235.5 C 498.167,235.833 498.833,236.167 499.5,236.5C 499.5,245.167 499.5,253.833 499.5,262.5C 498.833,262.833 498.167,263.167 497.5,263.5C 497.5,254.167 497.5,244.833 497.5,235.5 Z"/></g>
<g><path style="opacity:0.912" fill="#121557" d="M 497.5,217.5 C 497.708,223.38 497.708,229.38 497.5,235.5C 497.5,244.833 497.5,254.167 497.5,263.5C 497.5,269.5 497.5,275.5 497.5,281.5C 496.167,260.167 496.167,238.833 497.5,217.5 Z"/></g>
<g><path style="opacity:1" fill="#4b55b0" d="M 2.5,217.5 C 2.5,238.833 2.5,260.167 2.5,281.5C 2.16667,281.5 1.83333,281.5 1.5,281.5C 0.685403,262.324 0.35207,242.99 0.5,223.5C 1.16667,221.5 1.83333,219.5 2.5,217.5 Z"/></g>
<g><path style="opacity:0.625" fill="#a2a7e7" d="M 343.5,253.5 C 347.13,267.162 344.297,279.496 335,290.5C 333.887,291.305 332.721,291.972 331.5,292.5C 332.031,290.456 333.198,288.789 335,287.5C 335.49,286.207 335.657,284.873 335.5,283.5C 336.5,283.5 337.5,283.5 338.5,283.5C 340.461,280.139 341.961,276.472 343,272.5C 343.5,266.175 343.666,259.842 343.5,253.5 Z"/></g>
<g><path style="opacity:0.79" fill="#989de2" d="M 159.5,243.5 C 155.829,253.455 154.496,263.788 155.5,274.5C 152.589,265.135 153.089,255.802 157,246.5C 157.377,245.058 158.21,244.058 159.5,243.5 Z"/></g>
<g><path style="opacity:0.282" fill="#afb5ef" d="M 217.5,246.5 C 219.328,249.135 220.495,252.135 221,255.5C 221.817,261.016 221.651,266.35 220.5,271.5C 220.963,262.95 219.963,254.616 217.5,246.5 Z"/></g>
<g><path style="opacity:0.916" fill="#7e80da" d="M 285.5,239.5 C 284.515,243.809 282.681,247.809 280,251.5C 278.777,261.082 279.61,270.416 282.5,279.5C 281.347,277.364 280.014,275.364 278.5,273.5C 276.894,264.75 277.394,256.084 280,247.5C 281.306,244.379 283.14,241.713 285.5,239.5 Z"/></g>
<g><path style="opacity:0.286" fill="#babcf8" d="M 220.5,271.5 C 220.253,274.854 219.253,277.854 217.5,280.5C 217.747,277.146 218.747,274.146 220.5,271.5 Z"/></g>
<g><path style="opacity:0.455" fill="#abafec" d="M 278.5,273.5 C 280.014,275.364 281.347,277.364 282.5,279.5C 283.128,282.09 284.295,284.423 286,286.5C 288.705,289.036 291.205,291.703 293.5,294.5C 285.828,289.518 280.828,282.518 278.5,273.5 Z"/></g>
<g><path style="opacity:0.957" fill="#9093e3" d="M 155.5,274.5 C 159.808,280.17 163.808,286.17 167.5,292.5C 161.045,288.29 157.045,282.29 155.5,274.5 Z"/></g>
<g><path style="opacity:0.859" fill="#959adf" d="M 217.5,280.5 C 216.66,282.853 215.326,284.853 213.5,286.5C 212.862,283.144 214.196,281.144 217.5,280.5 Z"/></g>
<g><path style="opacity:0.937" fill="#939bed" d="M 1.5,281.5 C 1.83333,281.5 2.16667,281.5 2.5,281.5C 3.48612,285.97 3.81946,290.637 3.5,295.5C 2.19854,291.057 1.53188,286.391 1.5,281.5 Z"/></g>
<g><path style="opacity:1" fill="#5d67dd" d="M 432.5,264.5 C 434.055,270.279 435.222,276.279 436,282.5C 436.829,300.338 436.662,318.005 435.5,335.5C 436.179,311.741 435.179,288.075 432.5,264.5 Z"/></g>
<g><path style="opacity:1" fill="#8488de" d="M 167.5,292.5 C 168.873,292.343 170.207,292.51 171.5,293C 174.911,295.165 178.245,297.331 181.5,299.5C 175.984,298.742 171.317,296.409 167.5,292.5 Z"/></g>
<g><path style="opacity:0.878" fill="#8b8fe0" d="M 213.5,286.5 C 210.355,292.076 205.688,295.743 199.5,297.5C 199.414,296.504 199.748,295.671 200.5,295C 203.322,293.426 206.156,291.926 209,290.5C 209.483,289.552 209.649,288.552 209.5,287.5C 210.959,287.567 212.292,287.234 213.5,286.5 Z"/></g>
<g><path style="opacity:0.843" fill="#8e93df" d="M 331.5,292.5 C 328.6,295.786 324.933,297.786 320.5,298.5C 320.369,297.624 320.702,296.957 321.5,296.5C 324.968,295.348 328.302,294.014 331.5,292.5 Z"/></g>
<g><path style="opacity:0.078" fill="#c5cafa" d="M 3.5,295.5 C 4.91301,298.219 5.57968,301.219 5.5,304.5C 4.08699,301.781 3.42032,298.781 3.5,295.5 Z"/></g>
<g><path style="opacity:0.826" fill="#7277d3" d="M 293.5,294.5 C 297.202,295.476 300.868,296.643 304.5,298C 308.486,298.499 312.486,298.666 316.5,298.5C 312.702,299.483 308.702,299.817 304.5,299.5C 300.148,299.154 296.481,297.488 293.5,294.5 Z"/></g>
<g><path style="opacity:0.141" fill="#cbd0f9" d="M 197.5,298.5 C 194.45,299.935 191.117,300.602 187.5,300.5C 185.304,300.495 183.304,300.162 181.5,299.5C 186.862,299.528 192.195,299.194 197.5,298.5 Z"/></g>
<g><path style="opacity:0.2" fill="#ccd0fc" d="M 316.5,298.5 C 317.833,298.5 319.167,298.5 320.5,298.5C 317.644,300.006 314.477,300.672 311,300.5C 308.639,300.496 306.473,300.163 304.5,299.5C 308.702,299.817 312.702,299.483 316.5,298.5 Z"/></g>
<g><path style="opacity:0.151" fill="#bdc2f5" d="M 71.5,242.5 C 64.4018,275.585 62.7351,308.918 66.5,342.5C 65.8333,342.167 65.1667,341.833 64.5,341.5C 62.1253,311.262 63.4586,281.262 68.5,251.5C 69.1049,248.873 69.6049,246.207 70,243.5C 70.3826,242.944 70.8826,242.611 71.5,242.5 Z"/></g>
<g><path style="opacity:0.862" fill="#646cdc" d="M 68.5,251.5 C 63.4586,281.262 62.1253,311.262 64.5,341.5C 63.8826,341.389 63.3826,341.056 63,340.5C 61.7743,311.744 62.6077,283.077 65.5,254.5C 66.1411,253.007 67.1411,252.007 68.5,251.5 Z"/></g>
<g><path style="opacity:0.698" fill="#a4b0ed" d="M 5.5,306.5 C 7.27983,307.99 7.94649,309.99 7.5,312.5C 6.26162,310.786 5.59495,308.786 5.5,306.5 Z"/></g>
<g><path style="opacity:0.635" fill="#a2aaeb" d="M 491.5,312.5 C 491.59,315.152 490.924,317.485 489.5,319.5C 489.41,316.848 490.076,314.515 491.5,312.5 Z"/></g>
<g><path style="opacity:0.882" fill="#979de9" d="M 7.5,314.5 C 8.58617,314.62 9.25284,315.287 9.5,316.5C 10.6885,320.944 12.1885,325.278 14,329.5C 14.4955,331.473 14.6621,333.473 14.5,335.5C 11.5949,328.785 9.26153,321.785 7.5,314.5 Z"/></g>
<g><path style="opacity:0.914" fill="#8c93e7" d="M 488.5,323.5 C 487.602,328.535 485.935,333.201 483.5,337.5C 483.449,333.095 484.449,328.928 486.5,325C 486.836,323.97 487.503,323.47 488.5,323.5 Z"/></g>
<g><path style="opacity:0.475" fill="#b3b8e9" d="M 157.5,336.5 C 154.226,337.14 151.559,338.807 149.5,341.5C 149.863,342.183 150.196,342.85 150.5,343.5C 149.414,343.38 148.747,342.713 148.5,341.5C 149.779,338.348 152.112,336.348 155.5,335.5C 156.416,335.543 157.083,335.876 157.5,336.5 Z"/></g>
<g><path style="opacity:1" fill="#6d74d9" d="M 157.5,336.5 C 159.364,338.014 161.364,339.347 163.5,340.5C 161.152,340.33 158.818,339.997 156.5,339.5C 154.681,339.342 153.348,340.009 152.5,341.5C 155.521,343.527 158.188,345.861 160.5,348.5C 156.849,347.341 153.515,345.674 150.5,343.5C 150.196,342.85 149.863,342.183 149.5,341.5C 151.559,338.807 154.226,337.14 157.5,336.5 Z"/></g>
<g><path style="opacity:0.875" fill="#a5aae1" d="M 338.5,337.5 C 336.383,339.655 333.716,340.655 330.5,340.5C 332.792,338.733 335.458,337.733 338.5,337.5 Z"/></g>
<g><path style="opacity:1" fill="#8a8be0" d="M 335.5,349.5 C 337.118,348.549 338.451,347.216 339.5,345.5C 341.5,344.833 343.5,344.167 345.5,343.5C 345.833,343 346.167,342.5 346.5,342C 345.571,340.923 344.904,339.756 344.5,338.5C 342.735,337.539 340.735,337.205 338.5,337.5C 340.119,335.762 342.119,335.262 344.5,336C 346.792,337.29 348.792,338.957 350.5,341C 346.086,344.873 341.086,347.707 335.5,349.5 Z"/></g>
<g><path style="opacity:0.831" fill="#a5a9e9" d="M 428.5,247.5 C 430.466,252.695 431.799,258.029 432.5,263.5C 432.5,263.833 432.5,264.167 432.5,264.5C 435.179,288.075 436.179,311.741 435.5,335.5C 434.539,337.265 434.205,339.265 434.5,341.5C 433.078,342.925 431.411,343.925 429.5,344.5C 430.122,343.373 430.955,342.373 432,341.5C 435.408,310.015 434.241,278.682 428.5,247.5 Z"/></g>
<g><path style="opacity:0.251" fill="#bbbcf3" d="M 157.5,336.5 C 163.721,338.459 169.721,340.792 175.5,343.5C 171.385,342.905 167.385,341.905 163.5,340.5C 161.364,339.347 159.364,338.014 157.5,336.5 Z"/></g>
<g><path style="opacity:0.039" fill="#c3c4f3" d="M 66.5,342.5 C 68.4044,342.738 69.7377,343.738 70.5,345.5C 68.5956,345.262 67.2623,344.262 66.5,342.5 Z"/></g>
<g><path style="opacity:0.325" fill="#b1b6f4" d="M 15.5,338.5 C 17.5358,340.206 18.5358,342.539 18.5,345.5C 16.9348,343.491 15.9348,341.157 15.5,338.5 Z"/></g>
<g><path style="opacity:0.643" fill="#aaafea" d="M 330.5,340.5 C 327.374,342.99 323.708,344.323 319.5,344.5C 322.939,342.796 326.605,341.462 330.5,340.5 Z"/></g>
<g><path style="opacity:0.565" fill="#aeb4ee" d="M 175.5,343.5 C 177.786,343.595 179.786,344.262 181.5,345.5C 178.99,345.946 176.99,345.28 175.5,343.5 Z"/></g>
<g><path style="opacity:0.686" fill="#a1a4ea" d="M 181.5,345.5 C 183.786,345.595 185.786,346.262 187.5,347.5C 184.99,347.946 182.99,347.28 181.5,345.5 Z"/></g>
<g><path style="opacity:0.69" fill="#a5a8e6" d="M 319.5,344.5 C 314.633,347.343 309.3,349.009 303.5,349.5C 308.617,347.463 313.95,345.796 319.5,344.5 Z"/></g>
<g><path style="opacity:1" fill="#797cdb" d="M 434.5,341.5 C 434.489,343.017 433.823,344.184 432.5,345C 429.745,346.953 426.745,348.12 423.5,348.5C 425.147,346.674 427.147,345.34 429.5,344.5C 431.411,343.925 433.078,342.925 434.5,341.5 Z"/></g>
<g><path style="opacity:0.949" fill="#999ee8" d="M 187.5,347.5 C 200.878,350.576 214.211,353.242 227.5,355.5C 214.696,354.406 202.03,352.406 189.5,349.5C 188.287,349.253 187.62,348.586 187.5,347.5 Z"/></g>
<g><path style="opacity:1" fill="#5a65f2" d="M 344.5,338.5 C 344.904,339.756 345.571,340.923 346.5,342C 346.167,342.5 345.833,343 345.5,343.5C 343.5,344.167 341.5,344.833 339.5,345.5C 338.451,347.216 337.118,348.549 335.5,349.5C 333.418,349.472 331.584,350.139 330,351.5C 329.667,350.5 329.333,349.5 329,348.5C 327.268,350.195 325.268,351.528 323,352.5C 320.61,351.722 318.443,350.555 316.5,349C 317.167,348.333 317.833,347.667 318.5,347C 328.101,344.63 336.768,341.796 344.5,338.5 Z"/></g>
<g><path style="opacity:1" fill="#868beb" d="M 483.5,338.5 C 481.344,344.804 478.678,350.804 475.5,356.5C 475.344,353.934 475.678,351.434 476.5,349C 478.297,345.906 479.964,342.739 481.5,339.5C 482.183,339.137 482.85,338.804 483.5,338.5 Z"/></g>
<g><path style="opacity:0.694" fill="#9fa4ec" d="M 18.5,345.5 C 20.821,347.09 21.821,349.423 21.5,352.5C 19.9348,350.491 18.9348,348.157 18.5,345.5 Z"/></g>
<g><path style="opacity:1" fill="#666ce2" d="M 338.5,337.5 C 340.735,337.205 342.735,337.539 344.5,338.5C 336.768,341.796 328.101,344.63 318.5,347C 317.833,347.667 317.167,348.333 316.5,349C 318.443,350.555 320.61,351.722 323,352.5C 325.268,351.528 327.268,350.195 329,348.5C 329.333,349.5 329.667,350.5 330,351.5C 331.584,350.139 333.418,349.472 335.5,349.5C 331.584,352.257 327.25,354.257 322.5,355.5C 321.909,356.151 321.243,356.818 320.5,357.5C 321.127,358.417 321.461,359.417 321.5,360.5C 322.674,361.514 323.34,362.847 323.5,364.5C 323.5,365.833 323.5,367.167 323.5,368.5C 321.539,366.633 320.206,364.299 319.5,361.5C 318.796,358.296 318.13,355.129 317.5,352C 314.689,351.371 311.856,350.871 309,350.5C 305.511,351.276 302.011,351.942 298.5,352.5C 300.072,351.313 301.739,350.313 303.5,349.5C 309.3,349.009 314.633,347.343 319.5,344.5C 323.708,344.323 327.374,342.99 330.5,340.5C 333.716,340.655 336.383,339.655 338.5,337.5 Z"/></g>
<g><path style="opacity:0.498" fill="#b2aff0" d="M 423.5,348.5 C 421.966,350.369 419.966,351.702 417.5,352.5C 418.802,350.178 420.802,348.845 423.5,348.5 Z"/></g>
<g><path style="opacity:1" fill="#9a99ea" d="M 73.5,347.5 C 77.0246,348.759 80.0246,350.759 82.5,353.5C 80.2362,352.781 77.9029,352.448 75.5,352.5C 75.6085,350.486 74.9418,348.82 73.5,347.5 Z"/></g>
<g><path style="opacity:0.925" fill="#9297e8" d="M 303.5,349.5 C 301.739,350.313 300.072,351.313 298.5,352.5C 295.833,352.5 293.167,352.5 290.5,352.5C 294.575,350.882 298.908,349.882 303.5,349.5 Z"/></g>
<g><path style="opacity:1" fill="#5b66e8" d="M 163.5,340.5 C 167.385,341.905 171.385,342.905 175.5,343.5C 176.99,345.28 178.99,345.946 181.5,345.5C 182.99,347.28 184.99,347.946 187.5,347.5C 187.62,348.586 188.287,349.253 189.5,349.5C 202.03,352.406 214.696,354.406 227.5,355.5C 228.167,355.5 228.833,355.5 229.5,355.5C 238.46,357.439 247.46,357.773 256.5,356.5C 262.509,356.666 268.509,356.499 274.5,356C 276.382,355.802 278.048,355.302 279.5,354.5C 282.85,354.665 286.183,354.498 289.5,354C 290.056,353.617 290.389,353.117 290.5,352.5C 293.167,352.5 295.833,352.5 298.5,352.5C 294.032,353.939 289.365,355.106 284.5,356C 257.695,359.79 231.195,359.29 205,354.5C 200.973,354.357 197.306,355.357 194,357.5C 192.338,357.612 191.171,356.946 190.5,355.5C 191.714,353.931 193.381,353.098 195.5,353C 193.406,351.648 191.073,351.148 188.5,351.5C 188.5,352.5 188.5,353.5 188.5,354.5C 187.5,354.5 186.5,354.5 185.5,354.5C 185.5,356.167 185.5,357.833 185.5,359.5C 181.838,358.637 179.672,359.97 179,363.5C 178.329,364.252 177.496,364.586 176.5,364.5C 176.807,361.72 177.807,359.22 179.5,357C 177.685,354.594 175.352,352.927 172.5,352C 168.562,350.526 164.562,349.359 160.5,348.5C 158.188,345.861 155.521,343.527 152.5,341.5C 153.348,340.009 154.681,339.342 156.5,339.5C 158.818,339.997 161.152,340.33 163.5,340.5 Z"/></g>
<g><path style="opacity:0.929" fill="#848adc" d="M 290.5,352.5 C 290.389,353.117 290.056,353.617 289.5,354C 286.183,354.498 282.85,354.665 279.5,354.5C 282.946,353.313 286.613,352.646 290.5,352.5 Z"/></g>
<g><path style="opacity:1" fill="#9a98e8" d="M 82.5,353.5 C 86.8362,355.332 90.8362,357.665 94.5,360.5C 90.2186,359.864 86.2186,358.364 82.5,356C 83.5981,355.23 83.5981,354.397 82.5,353.5 Z"/></g>
<g><path style="opacity:0.816" fill="#8c93e3" d="M 279.5,354.5 C 278.048,355.302 276.382,355.802 274.5,356C 268.509,356.499 262.509,356.666 256.5,356.5C 263.989,355.487 271.656,354.82 279.5,354.5 Z"/></g>
<g><path style="opacity:0.231" fill="#bfc6fb" d="M 322.5,355.5 C 321.909,356.151 321.243,356.818 320.5,357.5C 321.127,358.417 321.461,359.417 321.5,360.5C 319.787,359.365 319.12,357.698 319.5,355.5C 320.5,355.5 321.5,355.5 322.5,355.5 Z"/></g>
<g><path style="opacity:0.575" fill="#818cde" d="M 229.5,355.5 C 238.494,355.966 247.494,356.3 256.5,356.5C 247.46,357.773 238.46,357.439 229.5,355.5 Z"/></g>
<g><path style="opacity:1" fill="#9599e5" d="M 417.5,352.5 C 416.032,353.806 414.699,355.306 413.5,357C 410.075,359.044 406.408,360.544 402.5,361.5C 406.995,357.749 411.995,354.749 417.5,352.5 Z"/></g>
<g><path style="opacity:1" fill="#9ea1e3" d="M 94.5,360.5 C 98.8362,362.332 102.836,364.665 106.5,367.5C 101.294,367.009 97.2941,364.676 94.5,360.5 Z"/></g>
<g><path style="opacity:1" fill="#7c80ea" d="M 23.5,356.5 C 24.5,356.5 25.5,356.5 26.5,356.5C 27.937,361.607 30.2703,366.273 33.5,370.5C 34.5488,373.08 35.2155,375.746 35.5,378.5C 30.4875,371.815 26.4875,364.482 23.5,356.5 Z"/></g>
<g><path style="opacity:0.867" fill="#9699e3" d="M 160.5,348.5 C 164.562,349.359 168.562,350.526 172.5,352C 175.352,352.927 177.685,354.594 179.5,357C 177.807,359.22 176.807,361.72 176.5,364.5C 174.886,368.061 172.553,371.061 169.5,373.5C 172.14,368.22 174.807,362.886 177.5,357.5C 171.645,354.741 165.978,351.741 160.5,348.5 Z"/></g>
<g><path style="opacity:0.973" fill="#7c81de" d="M 402.5,361.5 C 400.789,363.493 398.789,365.327 396.5,367C 392.017,368.406 388.017,370.572 384.5,373.5C 381.247,374.598 377.914,375.264 374.5,375.5C 383.795,370.853 393.128,366.186 402.5,361.5 Z"/></g>
<g><path style="opacity:0.247" fill="#b8beef" d="M 110.5,369.5 C 113.241,369.707 115.574,370.707 117.5,372.5C 114.759,372.293 112.426,371.293 110.5,369.5 Z"/></g>
<g><path style="opacity:0.875" fill="#8e97e1" d="M 323.5,364.5 C 327.331,369.489 330.664,374.822 333.5,380.5C 332.279,379.972 331.113,379.305 330,378.5C 328.058,374.931 325.892,371.598 323.5,368.5C 323.5,367.167 323.5,365.833 323.5,364.5 Z"/></g>
<g><path style="opacity:1" fill="#676be5" d="M 176.5,364.5 C 176.196,367.522 175.696,370.522 175,373.5C 173.187,372.391 172.354,373.058 172.5,375.5C 171.5,375.5 170.5,375.5 169.5,375.5C 169.579,377.666 170.246,379.666 171.5,381.5C 171.167,382.167 170.833,382.833 170.5,383.5C 169.672,382.585 168.672,381.919 167.5,381.5C 165.959,382.286 164.626,383.286 163.5,384.5C 163.5,383.833 163.5,383.167 163.5,382.5C 164.759,378.975 166.759,375.975 169.5,373.5C 172.553,371.061 174.886,368.061 176.5,364.5 Z"/></g>
<g><path style="opacity:0.482" fill="#a2a7e8" d="M 117.5,372.5 C 122.022,374.264 126.355,376.264 130.5,378.5C 125.407,377.782 121.074,375.782 117.5,372.5 Z"/></g>
<g><path style="opacity:1" fill="#7d86d4" d="M 374.5,375.5 C 372.109,378.917 368.775,380.25 364.5,379.5C 367.54,377.654 370.873,376.321 374.5,375.5 Z"/></g>
<g><path style="opacity:0.792" fill="#969be4" d="M 130.5,378.5 C 135.144,379.599 139.478,381.266 143.5,383.5C 139.494,383.252 135.661,382.252 132,380.5C 130.97,380.164 130.47,379.497 130.5,378.5 Z"/></g>
<g><path style="opacity:1" fill="#7078ed" d="M 473.5,360.5 C 469.627,369.349 464.96,377.683 459.5,385.5C 458.094,385.973 457.427,386.973 457.5,388.5C 457.167,388.5 456.833,388.5 456.5,388.5C 455.651,385.964 454.651,383.464 453.5,381C 454.676,378.699 456.01,378.366 457.5,380C 455.006,382.393 455.673,383.56 459.5,383.5C 459.238,382.022 459.571,380.689 460.5,379.5C 463.954,377.443 464.954,374.61 463.5,371C 464.449,370.383 465.282,370.549 466,371.5C 466.492,370.451 466.326,369.451 465.5,368.5C 467.149,367.852 468.482,366.852 469.5,365.5C 469.291,364.914 468.957,364.414 468.5,364C 470.59,363.331 472.257,362.164 473.5,360.5 Z"/></g>
<g><path style="opacity:0.961" fill="#868be9" d="M 35.5,379.5 C 36.5,379.5 37.5,379.5 38.5,379.5C 40.3227,382.163 41.3227,385.163 41.5,388.5C 39.2651,385.709 37.2651,382.709 35.5,379.5 Z"/></g>
<g><path style="opacity:0.831" fill="#8588dc" d="M 364.5,379.5 C 364.389,380.117 364.056,380.617 363.5,381C 355.521,383.937 347.521,386.77 339.5,389.5C 337.971,389.471 336.804,388.804 336,387.5C 334.097,385.559 333.264,383.226 333.5,380.5C 335.456,382.958 337.622,385.292 340,387.5C 348.289,385.126 356.455,382.459 364.5,379.5 Z"/></g>
<g><path style="opacity:0.718" fill="#9ca2e3" d="M 143.5,383.5 C 145.786,383.595 147.786,384.262 149.5,385.5C 146.99,385.946 144.99,385.28 143.5,383.5 Z"/></g>
<g><path style="opacity:0.522" fill="#acb9f0" d="M 163.5,382.5 C 163.5,383.167 163.5,383.833 163.5,384.5C 162.167,385.5 160.833,386.5 159.5,387.5C 160.08,385.251 161.413,383.585 163.5,382.5 Z"/></g>
<g><path style="opacity:0.318" fill="#b0b7f0" d="M 149.5,385.5 C 152.833,386.167 156.167,386.833 159.5,387.5C 159.083,388.124 158.416,388.457 157.5,388.5C 155.181,387.936 152.847,387.436 150.5,387C 149.944,386.617 149.611,386.117 149.5,385.5 Z"/></g>
<g><path style="opacity:0.118" fill="#cdd2fa" d="M 459.5,385.5 C 459.573,387.027 458.906,388.027 457.5,388.5C 457.427,386.973 458.094,385.973 459.5,385.5 Z"/></g>
<g><path style="opacity:0.902" fill="#9296ed" d="M 41.5,389.5 C 42.5832,389.539 43.5832,389.873 44.5,390.5C 46.5695,392.843 47.9029,395.509 48.5,398.5C 45.9362,395.72 43.6029,392.72 41.5,389.5 Z"/></g>
<g><path style="opacity:1" fill="#9398f2" d="M 456.5,388.5 C 456.833,388.5 457.167,388.5 457.5,388.5C 456.214,391.117 454.547,393.45 452.5,395.5C 452.5,393.833 452.5,392.167 452.5,390.5C 454.38,390.771 455.713,390.104 456.5,388.5 Z"/></g>
<g><path style="opacity:1" fill="#7d82ed" d="M 452.5,395.5 C 449.253,401.083 445.253,406.083 440.5,410.5C 438.814,407.463 439.814,406.13 443.5,406.5C 443.958,403.606 443.291,401.106 441.5,399C 443.5,399.333 445.5,399.667 447.5,400C 448.337,398.989 448.67,397.822 448.5,396.5C 449.959,396.567 451.292,396.234 452.5,395.5 Z"/></g>
<g><path style="opacity:1" fill="#8086eb" d="M 57.5,410.5 C 59.7638,411.219 62.0971,411.552 64.5,411.5C 64.3685,415.221 65.3685,418.554 67.5,421.5C 64.1951,417.859 60.8617,414.192 57.5,410.5 Z"/></g>
<g><path style="opacity:0.992" fill="#8387ee" d="M 440.5,411.5 C 436.205,417.463 431.205,422.796 425.5,427.5C 425.256,422.908 427.423,420.241 432,419.5C 432.333,417.833 432.667,416.167 433,414.5C 433.414,414.957 433.914,415.291 434.5,415.5C 435.298,413.922 435.798,412.256 436,410.5C 437.356,411.38 438.856,411.714 440.5,411.5 Z"/></g>
<g><path style="opacity:1" fill="#9095ec" d="M 67.5,421.5 C 70.179,421.525 71.5123,422.858 71.5,425.5C 69.8333,424.5 68.5,423.167 67.5,421.5 Z"/></g>
<g><path style="opacity:1" fill="#777ee9" d="M 71.5,425.5 C 74.054,426.606 76.7206,427.439 79.5,428C 78.8617,429.707 78.8617,431.54 79.5,433.5C 76.5,431.167 73.8333,428.5 71.5,425.5 Z"/></g>
<g><path style="opacity:1" fill="#848aed" d="M 425.5,427.5 C 423.1,430.903 420.1,433.57 416.5,435.5C 416.5,433.833 416.5,432.167 416.5,430.5C 417.5,430.5 418.5,430.5 419.5,430.5C 419.5,429.5 419.5,428.5 419.5,427.5C 421.5,427.5 423.5,427.5 425.5,427.5 Z"/></g>
<g><path style="opacity:0.58" fill="#bcc6f2" d="M 79.5,433.5 C 81.0269,433.427 82.0269,434.094 82.5,435.5C 80.9731,435.573 79.9731,434.906 79.5,433.5 Z"/></g>
<g><path style="opacity:0.82" fill="#a8abe9" d="M 84.5,437.5 C 86.7488,438.08 88.4154,439.413 89.5,441.5C 87.2512,440.92 85.5846,439.587 84.5,437.5 Z"/></g>
<g><path style="opacity:1" fill="#7b80ea" d="M 89.5,441.5 C 92.5149,442.807 95.5149,443.307 98.5,443C 99.5124,446.512 101.179,449.679 103.5,452.5C 98.2539,449.589 93.5873,445.922 89.5,441.5 Z"/></g>
<g><path style="opacity:1" fill="#767ced" d="M 416.5,435.5 C 409.119,443.357 400.785,450.024 391.5,455.5C 391.167,455.5 390.833,455.5 390.5,455.5C 390.5,454.5 390.5,453.5 390.5,452.5C 391.552,452.649 392.552,452.483 393.5,452C 392.304,451.346 392.304,450.846 393.5,450.5C 395.677,451.504 396.011,450.838 394.5,448.5C 394.808,447.692 395.308,447.025 396,446.5C 397.956,446.784 400.123,446.784 402.5,446.5C 402.5,445.167 402.5,443.833 402.5,442.5C 403.873,442.657 405.207,442.49 406.5,442C 405.692,441.692 405.025,441.192 404.5,440.5C 405.391,439.41 406.391,439.41 407.5,440.5C 409.001,439.248 410.668,438.248 412.5,437.5C 412.291,436.914 411.957,436.414 411.5,436C 413.134,435.506 414.801,435.34 416.5,435.5 Z"/></g>
<g><path style="opacity:0.573" fill="#a5adee" d="M 103.5,452.5 C 105.027,452.427 106.027,453.094 106.5,454.5C 104.973,454.573 103.973,453.906 103.5,452.5 Z"/></g>
<g><path style="opacity:0.596" fill="#adb3f2" d="M 106.5,454.5 C 108.404,454.738 109.738,455.738 110.5,457.5C 108.596,457.262 107.262,456.262 106.5,454.5 Z"/></g>
<g><path style="opacity:0.008" fill="#d7ddfb" d="M 390.5,455.5 C 390.833,455.5 391.167,455.5 391.5,455.5C 391.027,456.906 390.027,457.573 388.5,457.5C 388.5,457.167 388.5,456.833 388.5,456.5C 389.167,456.167 389.833,455.833 390.5,455.5 Z"/></g>
<g><path style="opacity:1" fill="#777eec" d="M 110.5,457.5 C 113.049,457.387 115.382,458.054 117.5,459.5C 118.192,458.975 118.692,458.308 119,457.5C 122.427,463.085 127.261,467.085 133.5,469.5C 134.298,469.957 134.631,470.624 134.5,471.5C 125.836,467.839 117.836,463.173 110.5,457.5 Z"/></g>
<g><path style="opacity:1" fill="#7c80e5" d="M 388.5,456.5 C 388.5,456.833 388.5,457.167 388.5,457.5C 385.506,460 382.173,462 378.5,463.5C 378.539,462.417 378.873,461.417 379.5,460.5C 382.522,458.995 385.522,457.661 388.5,456.5 Z"/></g>
<g><path style="opacity:1" fill="#8a8ced" d="M 378.5,463.5 C 373.153,467.844 367.153,471.177 360.5,473.5C 363.098,469.714 366.764,467.214 371.5,466C 371.167,465.667 370.833,465.333 370.5,465C 373.207,464.605 375.873,464.105 378.5,463.5 Z"/></g>
<g><path style="opacity:1" fill="#8d91ea" d="M 360.5,473.5 C 349.909,479.79 338.576,484.457 326.5,487.5C 326.5,487.167 326.5,486.833 326.5,486.5C 335.978,482.738 345.478,478.738 355,474.5C 356.825,474.057 358.658,473.723 360.5,473.5 Z"/></g>
<g><path style="opacity:0.957" fill="#9297eb" d="M 142.5,475.5 C 146.794,475.795 150.461,477.462 153.5,480.5C 149.407,479.618 145.74,477.951 142.5,475.5 Z"/></g>
<g><path style="opacity:0.804" fill="#9fa6ef" d="M 153.5,480.5 C 156.491,480.166 158.824,481.166 160.5,483.5C 157.843,483.065 155.509,482.065 153.5,480.5 Z"/></g>
<g><path style="opacity:0.976" fill="#8b90e7" d="M 160.5,483.5 C 163.522,483.804 166.522,484.304 169.5,485C 170.056,485.383 170.389,485.883 170.5,486.5C 166.838,486.277 163.505,485.277 160.5,483.5 Z"/></g>
<g><path style="opacity:0.906" fill="#8f94e5" d="M 170.5,486.5 C 175.165,487.057 179.498,488.39 183.5,490.5C 178.835,489.943 174.502,488.61 170.5,486.5 Z"/></g>
<g><path style="opacity:1" fill="#767fea" d="M 326.5,486.5 C 326.5,486.833 326.5,487.167 326.5,487.5C 319.351,490.121 312.018,492.121 304.5,493.5C 304.167,493.5 303.833,493.5 303.5,493.5C 303.5,492.5 303.5,491.5 303.5,490.5C 311.131,489.359 318.798,488.026 326.5,486.5 Z"/></g>
<g><path style="opacity:0.647" fill="#a3a8f2" d="M 183.5,490.5 C 186.152,490.41 188.485,491.076 190.5,492.5C 187.848,492.59 185.515,491.924 183.5,490.5 Z"/></g>
<g><path style="opacity:0.994" fill="#555db3" d="M 190.5,492.5 C 196.296,492.466 201.963,493.299 207.5,495C 234.165,495.5 260.831,495.667 287.5,495.5C 285.833,496.167 284.167,496.833 282.5,497.5C 258.164,497.667 233.831,497.5 209.5,497C 202.935,495.925 196.602,494.425 190.5,492.5 Z"/></g>
<g><path style="opacity:0.235" fill="#b7bef4" d="M 303.5,493.5 C 303.833,493.5 304.167,493.5 304.5,493.5C 297.446,495.678 290.113,497.011 282.5,497.5C 284.167,496.833 285.833,496.167 287.5,495.5C 292.833,494.833 298.167,494.167 303.5,493.5 Z"/></g>
</svg>
