<?xml version="1.0" encoding="UTF-8"?>
<!DOCTYPE svg PUBLIC "-//W3C//DTD SVG 1.1//EN" "http://www.w3.org/Graphics/SVG/1.1/DTD/svg11.dtd">
<svg xmlns="http://www.w3.org/2000/svg" version="1.1" width="500px" height="500px" style="shape-rendering:geometricPrecision; text-rendering:geometricPrecision; image-rendering:optimizeQuality; fill-rule:evenodd; clip-rule:evenodd" xmlns:xlink="http://www.w3.org/1999/xlink">
<g><path style="opacity:0.771" fill="#72ad88" d="M 289.5,94.5 C 289.5,94.8333 289.5,95.1667 289.5,95.5C 261.498,95.3334 233.498,95.5 205.5,96C 203.091,97.7068 200.425,98.5402 197.5,98.5C 201,95.9406 205,94.4406 209.5,94C 236.197,93.1932 262.863,93.3599 289.5,94.5 Z"/></g>
<g><path style="opacity:0.11" fill="#a9d6b6" d="M 289.5,95.5 C 289.5,95.1667 289.5,94.8333 289.5,94.5C 292.228,94.1706 294.562,94.8372 296.5,96.5C 294.194,96.0074 291.861,95.6741 289.5,95.5 Z"/></g>
<g><path style="opacity:1" fill="#008029" d="M 292.5,111.5 C 291.668,114.827 290.168,117.827 288,120.5C 284,123.833 280,127.167 276,130.5C 276.763,132.391 277.597,134.391 278.5,136.5C 277.178,136.67 276.011,136.337 275,135.5C 272.54,136.755 271.373,138.755 271.5,141.5C 272.5,141.5 273.5,141.5 274.5,141.5C 274.435,143.696 273.768,145.696 272.5,147.5C 269.243,149.385 266.41,151.719 264,154.5C 263.667,153.833 263.333,153.167 263,152.5C 261.851,155.018 261.018,157.684 260.5,160.5C 259.675,161.386 258.675,161.719 257.5,161.5C 257.666,157.154 257.499,152.821 257,148.5C 254.995,154.345 255.162,160.178 257.5,166C 256.179,170.39 255.012,174.89 254,179.5C 253.51,178.207 253.343,176.873 253.5,175.5C 252.5,175.5 251.5,175.5 250.5,175.5C 250.833,178.5 249.5,179.833 246.5,179.5C 246.833,176.5 245.5,175.167 242.5,175.5C 241.009,170.692 239.675,165.858 238.5,161C 238.833,160.667 239.167,160.333 239.5,160C 238.167,159.667 236.833,159.333 235.5,159C 238.596,154.395 237.596,150.895 232.5,148.5C 231.749,149.376 231.249,150.376 231,151.5C 228.567,148.643 226.4,145.477 224.5,142C 223.932,140.128 223.265,138.295 222.5,136.5C 223.296,133.731 223.629,131.064 223.5,128.5C 221.403,125.466 219.903,122.132 219,118.5C 216.356,119.747 213.689,119.747 211,118.5C 209.5,117.333 208,116.167 206.5,115C 206.339,112.208 206.006,109.375 205.5,106.5C 204.094,107.668 202.928,107.335 202,105.5C 201.28,103.888 201.446,102.388 202.5,101C 200.866,100.506 199.199,100.34 197.5,100.5C 197.5,100.167 197.5,99.8333 197.5,99.5C 200.724,99.2035 203.724,99.8702 206.5,101.5C 207.452,99.9547 207.785,98.288 207.5,96.5C 232.836,96.3334 258.169,96.5 283.5,97C 282.833,97.3333 282.167,97.6667 281.5,98C 283.028,99.3613 284.695,100.528 286.5,101.5C 287.842,99.9951 289.508,99.3285 291.5,99.5C 291.5,100.833 291.5,102.167 291.5,103.5C 290.167,103.5 288.833,103.5 287.5,103.5C 287.934,106.934 289.6,109.601 292.5,111.5 Z"/></g>
<g><path style="opacity:1" fill="#70a470" d="M 296.5,96.5 C 299.241,96.7073 301.574,97.7073 303.5,99.5C 302.833,99.5 302.167,99.5 301.5,99.5C 299.336,99.2785 297.67,98.2785 296.5,96.5 Z"/></g>
<g><path style="opacity:1" fill="#e1c86c" d="M 301.5,99.5 C 302.167,99.5 302.833,99.5 303.5,99.5C 305.404,99.7376 306.738,100.738 307.5,102.5C 305.565,101.85 303.565,101.517 301.5,101.5C 301.5,101.167 301.5,100.833 301.5,100.5C 301.5,100.167 301.5,99.8333 301.5,99.5 Z"/></g>
<g><path style="opacity:1" fill="#067d2e" d="M 289.5,95.5 C 291.861,95.6741 294.194,96.0074 296.5,96.5C 297.67,98.2785 299.336,99.2785 301.5,99.5C 301.5,99.8333 301.5,100.167 301.5,100.5C 299.629,100.859 298.129,101.859 297,103.5C 296.22,106.743 294.72,109.41 292.5,111.5C 289.6,109.601 287.934,106.934 287.5,103.5C 288.833,103.5 290.167,103.5 291.5,103.5C 291.5,102.167 291.5,100.833 291.5,99.5C 289.508,99.3285 287.842,99.9951 286.5,101.5C 284.695,100.528 283.028,99.3613 281.5,98C 282.167,97.6667 282.833,97.3333 283.5,97C 258.169,96.5 232.836,96.3334 207.5,96.5C 207.785,98.288 207.452,99.9547 206.5,101.5C 203.724,99.8702 200.724,99.2035 197.5,99.5C 197.5,99.1667 197.5,98.8333 197.5,98.5C 200.425,98.5402 203.091,97.7068 205.5,96C 233.498,95.5 261.498,95.3334 289.5,95.5 Z"/></g>
<g><path style="opacity:1" fill="#01ad42" d="M 197.5,102.5 C 197.833,102.5 198.167,102.5 198.5,102.5C 198.192,104.924 198.526,107.257 199.5,109.5C 201.167,109.833 202.167,110.833 202.5,112.5C 203.108,115.145 203.608,117.812 204,120.5C 206.93,123.648 209.097,126.814 210.5,130C 209.354,130.759 208.354,131.426 207.5,132C 208.482,133.054 209.649,133.554 211,133.5C 211.667,132.833 212.333,132.167 213,131.5C 214.408,134.112 215.742,136.779 217,139.5C 218.431,144.485 218.931,149.485 218.5,154.5C 219.002,155.521 219.668,155.688 220.5,155C 219.269,153.817 219.269,152.651 220.5,151.5C 222.234,153.234 224.234,154.568 226.5,155.5C 228.373,159.626 230.706,163.459 233.5,167C 233.167,167.333 232.833,167.667 232.5,168C 232.856,180.602 233.856,193.102 235.5,205.5C 234.811,207.444 234.311,209.444 234,211.5C 226.083,205.927 224.583,207.594 229.5,216.5C 228.052,218.667 226.885,221 226,223.5C 225.667,223.167 225.333,222.833 225,222.5C 224.889,225.944 223.223,228.277 220,229.5C 218.711,232.351 218.211,235.351 218.5,238.5C 218.211,241.412 216.711,243.412 214,244.5C 210.661,250.929 207.494,258.095 204.5,266C 203.355,268.473 201.855,270.64 200,272.5C 199.506,274.134 199.34,275.801 199.5,277.5C 198.5,277.5 197.5,277.5 196.5,277.5C 196.737,278.791 196.404,279.791 195.5,280.5C 194.504,280.414 193.671,280.748 193,281.5C 191.89,279.963 190.39,279.297 188.5,279.5C 188.448,282.219 187.782,284.719 186.5,287C 187.167,288 187.833,289 188.5,290C 188.041,292.874 186.707,295.208 184.5,297C 151.167,297.667 117.833,297.667 84.5,297C 83.565,294.619 83.2317,292.119 83.5,289.5C 84.8333,289.5 86.1667,289.5 87.5,289.5C 88.6913,283.785 90.1913,278.119 92,272.5C 95.0476,268.908 98.381,265.575 102,262.5C 102.497,260.19 102.663,257.857 102.5,255.5C 103.301,253.958 103.634,252.292 103.5,250.5C 106.621,249.712 108.288,247.712 108.5,244.5C 109.5,244.5 110.5,244.5 111.5,244.5C 111.5,241.833 111.5,239.167 111.5,236.5C 114.538,234.888 117.371,232.888 120,230.5C 120.333,230.833 120.667,231.167 121,231.5C 121.289,226.493 122.456,221.826 124.5,217.5C 126.433,215.404 128.767,213.904 131.5,213C 132.09,211.491 132.756,209.991 133.5,208.5C 136.402,207.43 138.902,205.764 141,203.5C 141.576,201.623 141.409,199.789 140.5,198C 140.63,196.941 141.13,196.108 142,195.5C 143,196.5 144,197.5 145,198.5C 148.264,193.748 149.097,188.582 147.5,183C 147.891,179.823 149.057,176.99 151,174.5C 151.495,176.473 151.662,178.473 151.5,180.5C 155.841,180.481 157.175,178.481 155.5,174.5C 157.898,171.195 160.231,170.862 162.5,173.5C 163.696,173.154 163.696,172.654 162.5,172C 163.5,171.333 164.5,171.333 165.5,172C 164.664,173.243 164.997,174.41 166.5,175.5C 167.354,174.478 168.354,173.645 169.5,173C 168.833,172.667 168.167,172.333 167.5,172C 169.623,170.227 171.623,169.06 173.5,168.5C 172.756,165.557 172.256,162.557 172,159.5C 171.667,160.5 171.333,161.5 171,162.5C 169.168,160.712 167.002,159.378 164.5,158.5C 165.373,156.587 166.373,154.753 167.5,153C 165.557,151.807 165.724,150.307 168,148.5C 168.497,146.19 168.663,143.857 168.5,141.5C 170.01,140.272 171.51,140.272 173,141.5C 173.202,139.744 173.702,138.078 174.5,136.5C 175.167,137.167 175.833,137.833 176.5,138.5C 178.143,135.186 180.143,132.186 182.5,129.5C 182.872,134.843 183.872,140.343 185.5,146C 186.763,148.464 188.763,149.63 191.5,149.5C 191.5,148.5 191.5,147.5 191.5,146.5C 189.641,146.539 188.308,145.706 187.5,144C 189.099,142.934 190.099,141.434 190.5,139.5C 188.737,134.664 188.07,129.831 188.5,125C 187.464,123.383 186.297,123.216 185,124.5C 181.668,122.557 181.834,121.39 185.5,121C 186.736,118.109 186.736,114.942 185.5,111.5C 188.069,112.45 190.236,113.45 192,114.5C 193.427,112.295 193.927,110.128 193.5,108C 192.833,107.667 192.167,107.333 191.5,107C 193.095,104.898 195.095,103.398 197.5,102.5 Z"/></g>
<g><path style="opacity:0.012" fill="#fff2a2" d="M 307.5,102.5 C 309.833,102.833 311.167,104.167 311.5,106.5C 309.833,105.5 308.5,104.167 307.5,102.5 Z"/></g>
<g><path style="opacity:1" fill="#b0c225" d="M 301.5,101.5 C 301.002,104.326 299.669,106.66 297.5,108.5C 298.079,105.669 299.412,103.336 301.5,101.5 Z"/></g>
<g><path style="opacity:0.62" fill="#86daa9" d="M 192.5,101.5 C 190.833,103.833 188.833,105.833 186.5,107.5C 187.5,104.5 189.5,102.5 192.5,101.5 Z"/></g>
<g><path style="opacity:1" fill="#feb901" d="M 301.5,101.5 C 303.565,101.517 305.565,101.85 307.5,102.5C 308.5,104.167 309.833,105.5 311.5,106.5C 311.343,107.873 311.51,109.207 312,110.5C 314.466,113.128 316.299,116.128 317.5,119.5C 318.642,120.826 319.976,121.826 321.5,122.5C 322.844,126.872 324.511,131.205 326.5,135.5C 328.153,137.965 330.153,139.965 332.5,141.5C 333.338,141.842 333.672,142.508 333.5,143.5C 334.392,148.955 337.059,153.288 341.5,156.5C 342.674,157.514 343.34,158.847 343.5,160.5C 344.628,164.989 346.295,169.322 348.5,173.5C 351.236,177.296 353.736,181.296 356,185.5C 356.759,187.063 357.926,188.063 359.5,188.5C 359.536,192.2 361.203,194.867 364.5,196.5C 364.144,202.446 366.477,206.78 371.5,209.5C 371.343,210.873 371.51,212.207 372,213.5C 373.777,216.059 375.277,218.726 376.5,221.5C 376.983,227.339 379.65,232.005 384.5,235.5C 385.799,237.758 386.799,240.092 387.5,242.5C 388.5,242.5 389.5,242.5 390.5,242.5C 390.338,244.527 390.505,246.527 391,248.5C 395.259,251.353 397.092,255.353 396.5,260.5C 399.635,260.548 401.302,262.215 401.5,265.5C 403.209,267.876 405.209,269.876 407.5,271.5C 407.942,274.343 408.942,277.009 410.5,279.5C 410.957,280.298 411.624,280.631 412.5,280.5C 412.343,281.873 412.51,283.207 413,284.5C 414.982,286.998 416.482,289.665 417.5,292.5C 417.739,294.467 417.406,296.301 416.5,298C 381.998,298.168 347.664,298.668 313.5,299.5C 313.167,299.5 312.833,299.5 312.5,299.5C 312.167,299.5 311.833,299.5 311.5,299.5C 311.167,298.833 310.833,298.167 310.5,297.5C 309.003,292.509 306.837,287.842 304,283.5C 302.961,282.29 301.794,281.29 300.5,280.5C 300.767,275.664 298.767,272.331 294.5,270.5C 291.723,262.723 288.057,255.39 283.5,248.5C 281.328,241.47 277.661,235.47 272.5,230.5C 272.245,227.984 271.411,225.65 270,223.5C 266.248,218.982 262.748,214.316 259.5,209.5C 258.019,205.204 256.019,201.204 253.5,197.5C 253.227,194.863 252.894,192.53 252.5,190.5C 252.833,190.167 253.167,189.833 253.5,189.5C 254.167,190.167 254.833,190.833 255.5,191.5C 255.833,191 256.167,190.5 256.5,190C 255.833,189 255.167,188 254.5,187C 255.414,185.594 256.08,184.094 256.5,182.5C 258.012,178.484 260.179,174.818 263,171.5C 263.49,170.207 263.657,168.873 263.5,167.5C 266.622,165.874 268.288,163.208 268.5,159.5C 269.15,159.196 269.817,158.863 270.5,158.5C 271.401,154.953 272.734,151.62 274.5,148.5C 274.75,146.326 275.75,144.659 277.5,143.5C 281.833,137.658 286,131.658 290,125.5C 290.608,123.846 291.108,122.179 291.5,120.5C 291.5,119.833 291.5,119.167 291.5,118.5C 295.698,116.533 297.698,113.2 297.5,108.5C 299.669,106.66 301.002,104.326 301.5,101.5 Z"/></g>
<g><path style="opacity:1" fill="#c9ba1e" d="M 297.5,108.5 C 297.698,113.2 295.698,116.533 291.5,118.5C 293.98,115.376 295.98,112.043 297.5,108.5 Z"/></g>
<g><path style="opacity:1" fill="#f5cb57" d="M 311.5,106.5 C 315.831,111.152 319.165,116.486 321.5,122.5C 319.976,121.826 318.642,120.826 317.5,119.5C 316.299,116.128 314.466,113.128 312,110.5C 311.51,109.207 311.343,107.873 311.5,106.5 Z"/></g>
<g><path style="opacity:1" fill="#09ab49" d="M 197.5,98.5 C 197.5,98.8333 197.5,99.1667 197.5,99.5C 197.5,99.8333 197.5,100.167 197.5,100.5C 196.494,100.938 196.494,101.604 197.5,102.5C 195.095,103.398 193.095,104.898 191.5,107C 192.167,107.333 192.833,107.667 193.5,108C 193.927,110.128 193.427,112.295 192,114.5C 190.236,113.45 188.069,112.45 185.5,111.5C 186.736,114.942 186.736,118.109 185.5,121C 181.834,121.39 181.668,122.557 185,124.5C 186.297,123.216 187.464,123.383 188.5,125C 188.07,129.831 188.737,134.664 190.5,139.5C 190.099,141.434 189.099,142.934 187.5,144C 188.308,145.706 189.641,146.539 191.5,146.5C 191.5,147.5 191.5,148.5 191.5,149.5C 188.763,149.63 186.763,148.464 185.5,146C 183.872,140.343 182.872,134.843 182.5,129.5C 180.143,132.186 178.143,135.186 176.5,138.5C 175.833,137.833 175.167,137.167 174.5,136.5C 173.702,138.078 173.202,139.744 173,141.5C 171.51,140.272 170.01,140.272 168.5,141.5C 170.023,138.655 171.023,135.655 171.5,132.5C 178.301,127.247 182.301,120.247 183.5,111.5C 183.738,109.596 184.738,108.262 186.5,107.5C 188.833,105.833 190.833,103.833 192.5,101.5C 193.659,99.7497 195.326,98.7497 197.5,98.5 Z"/></g>
<g><path style="opacity:1" fill="#41b16d" d="M 183.5,111.5 C 182.301,120.247 178.301,127.247 171.5,132.5C 174.745,125.004 178.745,118.004 183.5,111.5 Z"/></g>
<g><path style="opacity:1" fill="#bebb1c" d="M 291.5,120.5 C 291.108,122.179 290.608,123.846 290,125.5C 286,131.658 281.833,137.658 277.5,143.5C 280.618,134.753 285.285,127.087 291.5,120.5 Z"/></g>
<g><path style="opacity:1" fill="#f5cd52" d="M 321.5,122.5 C 324.335,126.164 326.668,130.164 328.5,134.5C 328.427,136.027 329.094,137.027 330.5,137.5C 331.674,138.514 332.34,139.847 332.5,141.5C 330.153,139.965 328.153,137.965 326.5,135.5C 324.511,131.205 322.844,126.872 321.5,122.5 Z"/></g>
<g><path style="opacity:0.369" fill="#fee8a4" d="M 328.5,134.5 C 329.906,134.973 330.573,135.973 330.5,137.5C 329.094,137.027 328.427,136.027 328.5,134.5 Z"/></g>
<g><path style="opacity:1" fill="#f9d570" d="M 333.5,143.5 C 336.916,147.323 339.582,151.657 341.5,156.5C 337.059,153.288 334.392,148.955 333.5,143.5 Z"/></g>
<g><path style="opacity:1" fill="#00882b" d="M 197.5,100.5 C 199.199,100.34 200.866,100.506 202.5,101C 201.446,102.388 201.28,103.888 202,105.5C 202.928,107.335 204.094,107.668 205.5,106.5C 206.006,109.375 206.339,112.208 206.5,115C 208,116.167 209.5,117.333 211,118.5C 213.689,119.747 216.356,119.747 219,118.5C 219.903,122.132 221.403,125.466 223.5,128.5C 223.629,131.064 223.296,133.731 222.5,136.5C 223.265,138.295 223.932,140.128 224.5,142C 226.4,145.477 228.567,148.643 231,151.5C 231.249,150.376 231.749,149.376 232.5,148.5C 237.596,150.895 238.596,154.395 235.5,159C 236.833,159.333 238.167,159.667 239.5,160C 239.167,160.333 238.833,160.667 238.5,161C 239.675,165.858 241.009,170.692 242.5,175.5C 245.5,175.167 246.833,176.5 246.5,179.5C 245.562,181.756 245.562,184.09 246.5,186.5C 248.993,186.131 249.66,186.797 248.5,188.5C 247.357,188.092 246.357,187.425 245.5,186.5C 242.935,180.718 240.435,175.052 238,169.5C 235.3,167.766 233.3,165.432 232,162.5C 229.546,158.378 227.546,154.045 226,149.5C 221.802,144.938 218.802,139.604 217,133.5C 209.632,123.69 203.466,113.356 198.5,102.5C 198.167,102.5 197.833,102.5 197.5,102.5C 196.494,101.604 196.494,100.938 197.5,100.5 Z"/></g>
<g><path style="opacity:1" fill="#3bb066" d="M 171.5,132.5 C 171.023,135.655 170.023,138.655 168.5,141.5C 166.87,145.352 165.37,149.352 164,153.5C 161.054,154.633 158.554,156.3 156.5,158.5C 160.998,149.499 165.998,140.832 171.5,132.5 Z"/></g>
<g><path style="opacity:1" fill="#c7ba1c" d="M 274.5,148.5 C 272.734,151.62 271.401,154.953 270.5,158.5C 269.817,158.863 269.15,159.196 268.5,159.5C 269.475,155.223 271.475,151.557 274.5,148.5 Z"/></g>
<g><path style="opacity:1" fill="#03ab49" d="M 168.5,141.5 C 168.663,143.857 168.497,146.19 168,148.5C 165.724,150.307 165.557,151.807 167.5,153C 166.373,154.753 165.373,156.587 164.5,158.5C 167.002,159.378 169.168,160.712 171,162.5C 171.333,161.5 171.667,160.5 172,159.5C 172.256,162.557 172.756,165.557 173.5,168.5C 171.623,169.06 169.623,170.227 167.5,172C 168.167,172.333 168.833,172.667 169.5,173C 168.354,173.645 167.354,174.478 166.5,175.5C 164.997,174.41 164.664,173.243 165.5,172C 164.5,171.333 163.5,171.333 162.5,172C 163.696,172.654 163.696,173.154 162.5,173.5C 160.231,170.862 157.898,171.195 155.5,174.5C 157.175,178.481 155.841,180.481 151.5,180.5C 151.662,178.473 151.495,176.473 151,174.5C 149.057,176.99 147.891,179.823 147.5,183C 149.097,188.582 148.264,193.748 145,198.5C 144,197.5 143,196.5 142,195.5C 141.13,196.108 140.63,196.941 140.5,198C 141.409,199.789 141.576,201.623 141,203.5C 138.902,205.764 136.402,207.43 133.5,208.5C 132.756,209.991 132.09,211.491 131.5,213C 128.767,213.904 126.433,215.404 124.5,217.5C 125.694,214.549 126.694,211.549 127.5,208.5C 128.552,208.649 129.552,208.483 130.5,208C 133.754,203.016 136.087,197.516 137.5,191.5C 138.496,191.586 139.329,191.252 140,190.5C 142.854,185.765 145.02,180.765 146.5,175.5C 148.736,174.611 150.736,173.278 152.5,171.5C 153.991,167.2 155.324,162.867 156.5,158.5C 158.554,156.3 161.054,154.633 164,153.5C 165.37,149.352 166.87,145.352 168.5,141.5 Z"/></g>
<g><path style="opacity:1" fill="#c4bb1b" d="M 268.5,159.5 C 268.288,163.208 266.622,165.874 263.5,167.5C 264.195,164.085 265.862,161.418 268.5,159.5 Z"/></g>
<g><path style="opacity:1" fill="#f6ce5c" d="M 343.5,160.5 C 349.336,169.5 354.669,178.833 359.5,188.5C 357.926,188.063 356.759,187.063 356,185.5C 353.736,181.296 351.236,177.296 348.5,173.5C 346.295,169.322 344.628,164.989 343.5,160.5 Z"/></g>
<g><path style="opacity:1" fill="#43b371" d="M 156.5,158.5 C 155.324,162.867 153.991,167.2 152.5,171.5C 150.736,173.278 148.736,174.611 146.5,175.5C 149.08,169.332 152.414,163.665 156.5,158.5 Z"/></g>
<g><path style="opacity:1" fill="#19801f" d="M 301.5,100.5 C 301.5,100.833 301.5,101.167 301.5,101.5C 299.412,103.336 298.079,105.669 297.5,108.5C 295.98,112.043 293.98,115.376 291.5,118.5C 291.5,119.167 291.5,119.833 291.5,120.5C 285.285,127.087 280.618,134.753 277.5,143.5C 275.75,144.659 274.75,146.326 274.5,148.5C 271.475,151.557 269.475,155.223 268.5,159.5C 265.862,161.418 264.195,164.085 263.5,167.5C 259.377,172.641 256.044,178.308 253.5,184.5C 251.412,186.336 250.079,188.669 249.5,191.5C 249.167,191.5 248.833,191.5 248.5,191.5C 248.5,190.5 248.5,189.5 248.5,188.5C 249.66,186.797 248.993,186.131 246.5,186.5C 245.562,184.09 245.562,181.756 246.5,179.5C 249.5,179.833 250.833,178.5 250.5,175.5C 251.5,175.5 252.5,175.5 253.5,175.5C 253.343,176.873 253.51,178.207 254,179.5C 255.012,174.89 256.179,170.39 257.5,166C 255.162,160.178 254.995,154.345 257,148.5C 257.499,152.821 257.666,157.154 257.5,161.5C 258.675,161.719 259.675,161.386 260.5,160.5C 261.018,157.684 261.851,155.018 263,152.5C 263.333,153.167 263.667,153.833 264,154.5C 266.41,151.719 269.243,149.385 272.5,147.5C 273.768,145.696 274.435,143.696 274.5,141.5C 273.5,141.5 272.5,141.5 271.5,141.5C 271.373,138.755 272.54,136.755 275,135.5C 276.011,136.337 277.178,136.67 278.5,136.5C 277.597,134.391 276.763,132.391 276,130.5C 280,127.167 284,123.833 288,120.5C 290.168,117.827 291.668,114.827 292.5,111.5C 294.72,109.41 296.22,106.743 297,103.5C 298.129,101.859 299.629,100.859 301.5,100.5 Z"/></g>
<g><path style="opacity:1" fill="#afb923" d="M 263.5,167.5 C 263.657,168.873 263.49,170.207 263,171.5C 260.179,174.818 258.012,178.484 256.5,182.5C 255.5,183.167 254.5,183.833 253.5,184.5C 256.044,178.308 259.377,172.641 263.5,167.5 Z"/></g>
<g><path style="opacity:1" fill="#53b37d" d="M 146.5,175.5 C 145.02,180.765 142.854,185.765 140,190.5C 139.329,191.252 138.496,191.586 137.5,191.5C 139.997,185.835 142.997,180.502 146.5,175.5 Z"/></g>
<g><path style="opacity:1" fill="#e2bb23" d="M 256.5,182.5 C 256.08,184.094 255.414,185.594 254.5,187C 255.167,188 255.833,189 256.5,190C 256.167,190.5 255.833,191 255.5,191.5C 254.833,190.833 254.167,190.167 253.5,189.5C 253.167,189.833 252.833,190.167 252.5,190.5C 252.894,192.53 253.227,194.863 253.5,197.5C 253.167,197.5 252.833,197.5 252.5,197.5C 252.346,195.03 251.346,193.03 249.5,191.5C 250.079,188.669 251.412,186.336 253.5,184.5C 254.5,183.833 255.5,183.167 256.5,182.5 Z"/></g>
<g><path style="opacity:0.455" fill="#efe986" d="M 248.5,191.5 C 248.833,191.5 249.167,191.5 249.5,191.5C 251.346,193.03 252.346,195.03 252.5,197.5C 251.527,195.861 250.194,194.527 248.5,193.5C 248.5,192.833 248.5,192.167 248.5,191.5 Z"/></g>
<g><path style="opacity:1" fill="#f4d665" d="M 359.5,188.5 C 361.664,190.822 363.331,193.489 364.5,196.5C 361.203,194.867 359.536,192.2 359.5,188.5 Z"/></g>
<g><path style="opacity:1" fill="#04a947" d="M 198.5,102.5 C 203.466,113.356 209.632,123.69 217,133.5C 218.802,139.604 221.802,144.938 226,149.5C 227.546,154.045 229.546,158.378 232,162.5C 233.3,165.432 235.3,167.766 238,169.5C 240.435,175.052 242.935,180.718 245.5,186.5C 246.357,187.425 247.357,188.092 248.5,188.5C 248.5,189.5 248.5,190.5 248.5,191.5C 248.5,192.167 248.5,192.833 248.5,193.5C 248.5,194.167 248.167,194.5 247.5,194.5C 245.97,195.067 244.47,195.733 243,196.5C 242.755,198.663 241.755,200.33 240,201.5C 239.505,203.473 239.338,205.473 239.5,207.5C 238.5,207.5 237.5,207.5 236.5,207.5C 235.503,212.355 233.336,216.688 230,220.5C 227.321,224.854 225.488,229.521 224.5,234.5C 222.06,235.238 220.06,236.571 218.5,238.5C 218.211,235.351 218.711,232.351 220,229.5C 223.223,228.277 224.889,225.944 225,222.5C 225.333,222.833 225.667,223.167 226,223.5C 226.885,221 228.052,218.667 229.5,216.5C 224.583,207.594 226.083,205.927 234,211.5C 234.311,209.444 234.811,207.444 235.5,205.5C 233.856,193.102 232.856,180.602 232.5,168C 232.833,167.667 233.167,167.333 233.5,167C 230.706,163.459 228.373,159.626 226.5,155.5C 224.234,154.568 222.234,153.234 220.5,151.5C 219.269,152.651 219.269,153.817 220.5,155C 219.668,155.688 219.002,155.521 218.5,154.5C 218.931,149.485 218.431,144.485 217,139.5C 215.742,136.779 214.408,134.112 213,131.5C 212.333,132.167 211.667,132.833 211,133.5C 209.649,133.554 208.482,133.054 207.5,132C 208.354,131.426 209.354,130.759 210.5,130C 209.097,126.814 206.93,123.648 204,120.5C 203.608,117.812 203.108,115.145 202.5,112.5C 202.167,110.833 201.167,109.833 199.5,109.5C 198.526,107.257 198.192,104.924 198.5,102.5 Z"/></g>
<g><path style="opacity:0.898" fill="#f8d979" d="M 252.5,197.5 C 252.833,197.5 253.167,197.5 253.5,197.5C 256.019,201.204 258.019,205.204 259.5,209.5C 256.665,205.836 254.332,201.836 252.5,197.5 Z"/></g>
<g><path style="opacity:1" fill="#f5cd4e" d="M 364.5,196.5 C 367.593,200.347 369.926,204.68 371.5,209.5C 366.477,206.78 364.144,202.446 364.5,196.5 Z"/></g>
<g><path style="opacity:1" fill="#3ead68" d="M 137.5,191.5 C 136.087,197.516 133.754,203.016 130.5,208C 129.552,208.483 128.552,208.649 127.5,208.5C 130.08,202.332 133.414,196.665 137.5,191.5 Z"/></g>
<g><path style="opacity:1" fill="#53b979" d="M 247.5,194.5 C 240.335,208.168 232.669,221.501 224.5,234.5C 225.488,229.521 227.321,224.854 230,220.5C 233.336,216.688 235.503,212.355 236.5,207.5C 237.5,207.5 238.5,207.5 239.5,207.5C 239.338,205.473 239.505,203.473 240,201.5C 241.755,200.33 242.755,198.663 243,196.5C 244.47,195.733 245.97,195.067 247.5,194.5 Z"/></g>
<g><path style="opacity:1" fill="#f8d36a" d="M 371.5,209.5 C 375.251,213.995 378.251,218.995 380.5,224.5C 378.859,223.853 377.526,222.853 376.5,221.5C 375.277,218.726 373.777,216.059 372,213.5C 371.51,212.207 371.343,210.873 371.5,209.5 Z"/></g>
<g><path style="opacity:1" fill="#f8d46b" d="M 259.5,209.5 C 262.748,214.316 266.248,218.982 270,223.5C 271.411,225.65 272.245,227.984 272.5,230.5C 273.441,232.05 274.107,233.716 274.5,235.5C 268.998,227.168 263.998,218.501 259.5,209.5 Z"/></g>
<g><path style="opacity:1" fill="#f4c335" d="M 376.5,221.5 C 377.526,222.853 378.859,223.853 380.5,224.5C 384.337,230.17 387.67,236.17 390.5,242.5C 389.5,242.5 388.5,242.5 387.5,242.5C 386.799,240.092 385.799,237.758 384.5,235.5C 379.65,232.005 376.983,227.339 376.5,221.5 Z"/></g>
<g><path style="opacity:1" fill="#31ac5f" d="M 127.5,208.5 C 126.694,211.549 125.694,214.549 124.5,217.5C 122.456,221.826 121.289,226.493 121,231.5C 120.667,231.167 120.333,230.833 120,230.5C 117.371,232.888 114.538,234.888 111.5,236.5C 116.331,226.833 121.664,217.5 127.5,208.5 Z"/></g>
<g><path style="opacity:1" fill="#f0bf2f" d="M 272.5,230.5 C 277.661,235.47 281.328,241.47 283.5,248.5C 281.833,246.5 280.167,244.5 278.5,242.5C 278.002,239.674 276.669,237.34 274.5,235.5C 274.107,233.716 273.441,232.05 272.5,230.5 Z"/></g>
<g><path style="opacity:0.298" fill="#fbe68b" d="M 274.5,235.5 C 276.669,237.34 278.002,239.674 278.5,242.5C 276.412,240.664 275.079,238.331 274.5,235.5 Z"/></g>
<g><path style="opacity:1" fill="#3eae69" d="M 111.5,236.5 C 111.5,239.167 111.5,241.833 111.5,244.5C 110.5,244.5 109.5,244.5 108.5,244.5C 108.288,247.712 106.621,249.712 103.5,250.5C 105.664,245.5 108.331,240.833 111.5,236.5 Z"/></g>
<g><path style="opacity:0.518" fill="#f9e084" d="M 278.5,242.5 C 280.167,244.5 281.833,246.5 283.5,248.5C 288.057,255.39 291.723,262.723 294.5,270.5C 288.664,261.5 283.331,252.167 278.5,242.5 Z"/></g>
<g><path style="opacity:1" fill="#39b163" d="M 224.5,234.5 C 216.558,249.097 208.225,263.431 199.5,277.5C 199.34,275.801 199.506,274.134 200,272.5C 201.855,270.64 203.355,268.473 204.5,266C 207.494,258.095 210.661,250.929 214,244.5C 216.711,243.412 218.211,241.412 218.5,238.5C 220.06,236.571 222.06,235.238 224.5,234.5 Z"/></g>
<g><path style="opacity:1" fill="#f7c94c" d="M 390.5,242.5 C 396.558,251.902 402.224,261.569 407.5,271.5C 405.209,269.876 403.209,267.876 401.5,265.5C 401.302,262.215 399.635,260.548 396.5,260.5C 397.092,255.353 395.259,251.353 391,248.5C 390.505,246.527 390.338,244.527 390.5,242.5 Z"/></g>
<g><path style="opacity:1" fill="#43af70" d="M 103.5,250.5 C 103.634,252.292 103.301,253.958 102.5,255.5C 100.989,257.476 100.156,259.809 100,262.5C 97.3774,263.741 95.2107,265.408 93.5,267.5C 96.0804,261.332 99.4137,255.665 103.5,250.5 Z"/></g>
<g><path style="opacity:1" fill="#1aaa54" d="M 102.5,255.5 C 102.663,257.857 102.497,260.19 102,262.5C 98.381,265.575 95.0476,268.908 92,272.5C 90.1913,278.119 88.6913,283.785 87.5,289.5C 86.1667,289.5 84.8333,289.5 83.5,289.5C 85.9429,284.783 87.9429,279.783 89.5,274.5C 90.0787,271.669 91.412,269.336 93.5,267.5C 95.2107,265.408 97.3774,263.741 100,262.5C 100.156,259.809 100.989,257.476 102.5,255.5 Z"/></g>
<g><path style="opacity:1" fill="#f8d263" d="M 294.5,270.5 C 298.767,272.331 300.767,275.664 300.5,280.5C 298,277.506 296,274.173 294.5,270.5 Z"/></g>
<g><path style="opacity:1" fill="#f7d471" d="M 407.5,271.5 C 409.924,274.008 411.59,277.008 412.5,280.5C 411.624,280.631 410.957,280.298 410.5,279.5C 408.942,277.009 407.942,274.343 407.5,271.5 Z"/></g>
<g><path style="opacity:0.937" fill="#5ec187" d="M 199.5,277.5 C 197.336,282.5 194.669,287.167 191.5,291.5C 192.554,287.727 193.887,284.06 195.5,280.5C 196.404,279.791 196.737,278.791 196.5,277.5C 197.5,277.5 198.5,277.5 199.5,277.5 Z"/></g>
<g><path style="opacity:0.945" fill="#fbd97a" d="M 300.5,280.5 C 301.794,281.29 302.961,282.29 304,283.5C 306.837,287.842 309.003,292.509 310.5,297.5C 310.167,297.5 309.833,297.5 309.5,297.5C 306.233,291.965 303.233,286.298 300.5,280.5 Z"/></g>
<g><path style="opacity:1" fill="#3bac6a" d="M 89.5,274.5 C 87.9429,279.783 85.9429,284.783 83.5,289.5C 82.2248,292.396 82.2248,295.396 83.5,298.5C 81.631,296.365 80.9644,293.698 81.5,290.5C 83.1263,284.581 85.7929,279.247 89.5,274.5 Z"/></g>
<g><path style="opacity:0.58" fill="#f9dd81" d="M 412.5,280.5 C 415.707,283.768 417.373,287.768 417.5,292.5C 416.482,289.665 414.982,286.998 413,284.5C 412.51,283.207 412.343,281.873 412.5,280.5 Z"/></g>
<g><path style="opacity:1" fill="#0ea852" d="M 195.5,280.5 C 193.887,284.06 192.554,287.727 191.5,291.5C 191.025,293.784 190.025,295.784 188.5,297.5C 187.833,297.833 187.167,298.167 186.5,298.5C 152.167,298.5 117.833,298.5 83.5,298.5C 82.2248,295.396 82.2248,292.396 83.5,289.5C 83.2317,292.119 83.565,294.619 84.5,297C 117.833,297.667 151.167,297.667 184.5,297C 186.707,295.208 188.041,292.874 188.5,290C 187.833,289 187.167,288 186.5,287C 187.782,284.719 188.448,282.219 188.5,279.5C 190.39,279.297 191.89,279.963 193,281.5C 193.671,280.748 194.504,280.414 195.5,280.5 Z"/></g>
<g><path style="opacity:1" fill="#0d9e79" d="M 81.5,290.5 C 80.9644,293.698 81.631,296.365 83.5,298.5C 117.833,298.5 152.167,298.5 186.5,298.5C 186.5,298.833 186.5,299.167 186.5,299.5C 151.167,299.5 115.833,299.5 80.5,299.5C 80.19,296.287 80.5233,293.287 81.5,290.5 Z"/></g>
<g><path style="opacity:0.075" fill="#99efe6" d="M 188.5,297.5 C 188.833,298.167 189.167,298.833 189.5,299.5C 188.5,299.5 187.5,299.5 186.5,299.5C 186.5,299.167 186.5,298.833 186.5,298.5C 187.167,298.167 187.833,297.833 188.5,297.5 Z"/></g>
<g><path style="opacity:0.063" fill="#eefadd" d="M 309.5,297.5 C 309.833,297.5 310.167,297.5 310.5,297.5C 310.833,298.167 311.167,298.833 311.5,299.5C 310.5,299.5 309.5,299.5 308.5,299.5C 308.833,298.833 309.167,298.167 309.5,297.5 Z"/></g>
<g><path style="opacity:1" fill="#ffac38" d="M 417.5,292.5 C 418.833,297.167 418.833,301.833 417.5,306.5C 417.5,304.167 417.5,301.833 417.5,299.5C 383.167,299.5 348.833,299.5 314.5,299.5C 314.167,299.5 313.833,299.5 313.5,299.5C 347.664,298.668 381.998,298.168 416.5,298C 417.406,296.301 417.739,294.467 417.5,292.5 Z"/></g>
<g><path style="opacity:1" fill="#1e7dad" d="M 80.5,299.5 C 115.833,299.5 151.167,299.5 186.5,299.5C 186.5,299.833 186.5,300.167 186.5,300.5C 186.167,300.5 185.833,300.5 185.5,300.5C 150.833,300.5 116.167,300.5 81.5,300.5C 81.5524,304.198 81.8857,307.865 82.5,311.5C 80.7501,307.817 80.0834,303.817 80.5,299.5 Z"/></g>
<g><path style="opacity:0.739" fill="#4b8acf" d="M 186.5,300.5 C 186.5,300.167 186.5,299.833 186.5,299.5C 187.5,299.5 188.5,299.5 189.5,299.5C 229.167,299.5 268.833,299.5 308.5,299.5C 309.5,299.5 310.5,299.5 311.5,299.5C 311.833,299.5 312.167,299.5 312.5,299.5C 313.11,300.391 313.443,301.391 313.5,302.5C 312.833,302.5 312.167,302.5 311.5,302.5C 270.18,300.506 228.513,299.839 186.5,300.5 Z"/></g>
<g><path style="opacity:1" fill="#056acb" d="M 185.5,300.5 C 185.5,300.833 185.5,301.167 185.5,301.5C 185.167,301.5 184.833,301.5 184.5,301.5C 151.063,301.401 117.73,301.568 84.5,302C 83.4258,302.739 82.7591,303.739 82.5,305C 84.0734,309.955 85.7401,314.789 87.5,319.5C 87.1667,319.5 86.8333,319.5 86.5,319.5C 85.8333,319.5 85.5,319.167 85.5,318.5C 85.2927,315.759 84.2927,313.426 82.5,311.5C 81.8857,307.865 81.5524,304.198 81.5,300.5C 116.167,300.5 150.833,300.5 185.5,300.5 Z"/></g>
<g><path style="opacity:1" fill="#2a84e9" d="M 185.5,301.5 C 185.5,301.167 185.5,300.833 185.5,300.5C 185.833,300.5 186.167,300.5 186.5,300.5C 228.513,299.839 270.18,300.506 311.5,302.5C 271.196,301.351 230.862,301.184 190.5,302C 188.947,303.303 187.28,303.136 185.5,301.5 Z"/></g>
<g><path style="opacity:1" fill="#0265de" d="M 184.5,301.5 C 168.186,331.147 151.686,360.48 135,389.5C 133.005,387.253 130.505,386.253 127.5,386.5C 126.738,384.738 125.404,383.738 123.5,383.5C 123.167,382.833 122.833,382.167 122.5,381.5C 122.446,379.368 121.446,378.035 119.5,377.5C 119.5,377.167 119.5,376.833 119.5,376.5C 118.921,373.669 117.588,371.336 115.5,369.5C 114.172,364.835 111.839,360.835 108.5,357.5C 108.13,354.733 106.796,352.733 104.5,351.5C 104.5,351.167 104.5,350.833 104.5,350.5C 103.602,345.37 101.602,340.704 98.5,336.5C 97.675,335.614 96.675,335.281 95.5,335.5C 94.6618,335.158 94.3284,334.492 94.5,333.5C 93.5903,330.008 91.9236,327.008 89.5,324.5C 89.1075,322.716 88.4408,321.05 87.5,319.5C 85.7401,314.789 84.0734,309.955 82.5,305C 82.7591,303.739 83.4258,302.739 84.5,302C 117.73,301.568 151.063,301.401 184.5,301.5 Z"/></g>
<g><path style="opacity:1" fill="#2285fe" d="M 184.5,301.5 C 184.833,301.5 185.167,301.5 185.5,301.5C 187.28,303.136 188.947,303.303 190.5,302C 230.862,301.184 271.196,301.351 311.5,302.5C 312.167,302.5 312.833,302.5 313.5,302.5C 313.12,304.698 313.787,306.365 315.5,307.5C 317.624,309.059 319.291,311.059 320.5,313.5C 320.343,314.873 320.51,316.207 321,317.5C 323.786,319.774 325.953,322.44 327.5,325.5C 327.833,326.833 328.167,328.167 328.5,329.5C 329.08,331.749 330.413,333.415 332.5,334.5C 332.5,335.167 332.5,335.833 332.5,336.5C 334.089,341.685 336.256,346.685 339,351.5C 339.759,353.063 340.926,354.063 342.5,354.5C 343.272,355.694 344.272,356.694 345.5,357.5C 345.427,359.027 346.094,360.027 347.5,360.5C 347.427,362.027 348.094,363.027 349.5,363.5C 349.733,365.062 350.4,366.395 351.5,367.5C 351.627,372.232 353.293,376.232 356.5,379.5C 357.167,380.167 357.833,380.833 358.5,381.5C 359.997,384.627 360.997,387.96 361.5,391.5C 359.941,393.25 357.941,394.25 355.5,394.5C 285.166,394.667 214.833,394.5 144.5,394C 141.753,392.396 138.753,391.562 135.5,391.5C 134.833,391.5 134.167,391.5 133.5,391.5C 131.973,391.573 130.973,390.906 130.5,389.5C 130.027,388.094 129.027,387.427 127.5,387.5C 127.5,387.167 127.5,386.833 127.5,386.5C 130.505,386.253 133.005,387.253 135,389.5C 151.686,360.48 168.186,331.147 184.5,301.5 Z"/></g>
<g><path style="opacity:1" fill="#ed4231" d="M 314.5,299.5 C 348.833,299.5 383.167,299.5 417.5,299.5C 417.5,301.833 417.5,304.167 417.5,306.5C 416.443,309.587 414.609,312.254 412,314.5C 411.506,316.134 411.34,317.801 411.5,319.5C 410.194,320.968 408.694,322.301 407,323.5C 406.464,325.869 405.297,327.869 403.5,329.5C 402.534,331.396 402.201,333.396 402.5,335.5C 401.178,335.33 400.011,335.663 399,336.5C 398.108,339.952 396.442,342.952 394,345.5C 393.506,347.134 393.34,348.801 393.5,350.5C 393.5,350.833 393.5,351.167 393.5,351.5C 391.319,352.291 389.653,353.791 388.5,356C 386.654,359.848 384.987,363.682 383.5,367.5C 382.325,367.281 381.325,367.614 380.5,368.5C 379.391,373.687 377.391,378.354 374.5,382.5C 374.5,382.833 374.5,383.167 374.5,383.5C 372.833,383.5 371.167,383.5 369.5,383.5C 369.254,386.47 367.588,387.803 364.5,387.5C 363.833,386.167 362.833,385.167 361.5,384.5C 361.167,383.833 360.833,383.167 360.5,382.5C 359.833,380.833 359.167,379.167 358.5,377.5C 357.889,374.279 356.722,371.279 355,368.5C 353.441,365.227 351.274,362.56 348.5,360.5C 348.92,358.906 349.586,357.406 350.5,356C 349.968,353.98 348.635,353.147 346.5,353.5C 348.477,350.107 347.81,347.441 344.5,345.5C 343.702,343.922 343.202,342.256 343,340.5C 342.346,339.304 341.846,339.304 341.5,340.5C 342.179,342.588 342.512,344.588 342.5,346.5C 342.03,347.463 341.363,347.463 340.5,346.5C 340.275,342.635 338.942,339.302 336.5,336.5C 337.813,334.608 337.646,332.941 336,331.5C 335.667,332.167 335.333,332.833 335,333.5C 334.51,332.207 334.343,330.873 334.5,329.5C 333.167,329.5 331.833,329.5 330.5,329.5C 330.5,329.167 330.5,328.833 330.5,328.5C 329.71,323.434 327.544,319.1 324,315.5C 323.872,312.486 323.872,309.486 324,306.5C 322.615,307.551 321.615,308.884 321,310.5C 320.546,308.464 319.713,306.63 318.5,305C 319.923,303.588 319.756,302.421 318,301.5C 317.667,301.833 317.333,302.167 317,302.5C 316.302,301.309 315.469,300.309 314.5,299.5 Z"/></g>
<g><path style="opacity:1" fill="#746ead" d="M 313.5,302.5 C 315.213,303.635 315.88,305.302 315.5,307.5C 313.787,306.365 313.12,304.698 313.5,302.5 Z"/></g>
<g><path style="opacity:0.357" fill="#8ab6e3" d="M 82.5,311.5 C 84.2927,313.426 85.2927,315.759 85.5,318.5C 83.7073,316.574 82.7073,314.241 82.5,311.5 Z"/></g>
<g><path style="opacity:1" fill="#de7265" d="M 417.5,306.5 C 416.829,311.506 414.829,315.839 411.5,319.5C 411.34,317.801 411.506,316.134 412,314.5C 414.609,312.254 416.443,309.587 417.5,306.5 Z"/></g>
<g><path style="opacity:1" fill="#dc4b44" d="M 312.5,299.5 C 312.833,299.5 313.167,299.5 313.5,299.5C 313.833,299.5 314.167,299.5 314.5,299.5C 315.469,300.309 316.302,301.309 317,302.5C 317.333,302.167 317.667,301.833 318,301.5C 319.756,302.421 319.923,303.588 318.5,305C 319.713,306.63 320.546,308.464 321,310.5C 321.615,308.884 322.615,307.551 324,306.5C 323.872,309.486 323.872,312.486 324,315.5C 327.544,319.1 329.71,323.434 330.5,328.5C 329.9,327.1 328.9,326.1 327.5,325.5C 325.989,320.996 323.656,316.996 320.5,313.5C 319.291,311.059 317.624,309.059 315.5,307.5C 315.88,305.302 315.213,303.635 313.5,302.5C 313.443,301.391 313.11,300.391 312.5,299.5 Z"/></g>
<g><path style="opacity:0.341" fill="#86b6e7" d="M 86.5,319.5 C 86.8333,319.5 87.1667,319.5 87.5,319.5C 88.4408,321.05 89.1075,322.716 89.5,324.5C 87.7497,323.341 86.7497,321.674 86.5,319.5 Z"/></g>
<g><path style="opacity:0.875" fill="#d96659" d="M 411.5,319.5 C 409.003,325.165 406.003,330.498 402.5,335.5C 402.201,333.396 402.534,331.396 403.5,329.5C 405.297,327.869 406.464,325.869 407,323.5C 408.694,322.301 410.194,320.968 411.5,319.5 Z"/></g>
<g><path style="opacity:1" fill="#9f5e85" d="M 320.5,313.5 C 323.656,316.996 325.989,320.996 327.5,325.5C 325.953,322.44 323.786,319.774 321,317.5C 320.51,316.207 320.343,314.873 320.5,313.5 Z"/></g>
<g><path style="opacity:0.435" fill="#88b9e6" d="M 89.5,324.5 C 91.9236,327.008 93.5903,330.008 94.5,333.5C 92.0764,330.992 90.4097,327.992 89.5,324.5 Z"/></g>
<g><path style="opacity:1" fill="#b7556d" d="M 327.5,325.5 C 328.9,326.1 329.9,327.1 330.5,328.5C 330.5,328.833 330.5,329.167 330.5,329.5C 330.5,329.833 330.5,330.167 330.5,330.5C 329.833,330.167 329.167,329.833 328.5,329.5C 328.167,328.167 327.833,326.833 327.5,325.5 Z"/></g>
<g><path style="opacity:1" fill="#846799" d="M 328.5,329.5 C 329.167,329.833 329.833,330.167 330.5,330.5C 331.6,331.605 332.267,332.938 332.5,334.5C 330.413,333.415 329.08,331.749 328.5,329.5 Z"/></g>
<g><path style="opacity:1" fill="#dd4947" d="M 330.5,329.5 C 331.833,329.5 333.167,329.5 334.5,329.5C 334.343,330.873 334.51,332.207 335,333.5C 335.333,332.833 335.667,332.167 336,331.5C 337.646,332.941 337.813,334.608 336.5,336.5C 338.942,339.302 340.275,342.635 340.5,346.5C 339.167,344.833 337.833,343.167 336.5,341.5C 335.662,341.158 335.328,340.492 335.5,339.5C 335.25,337.326 334.25,335.659 332.5,334.5C 332.267,332.938 331.6,331.605 330.5,330.5C 330.5,330.167 330.5,329.833 330.5,329.5 Z"/></g>
<g><path style="opacity:1" fill="#5a8dce" d="M 95.5,335.5 C 96.675,335.281 97.675,335.614 98.5,336.5C 101.602,340.704 103.602,345.37 104.5,350.5C 101.11,345.767 98.1101,340.767 95.5,335.5 Z"/></g>
<g><path style="opacity:1" fill="#a05e82" d="M 332.5,334.5 C 334.25,335.659 335.25,337.326 335.5,339.5C 334.1,338.9 333.1,337.9 332.5,336.5C 332.5,335.833 332.5,335.167 332.5,334.5 Z"/></g>
<g><path style="opacity:1" fill="#8f638f" d="M 336.5,341.5 C 337.833,343.167 339.167,344.833 340.5,346.5C 340.833,347.833 341.167,349.167 341.5,350.5C 338.681,348.299 337.015,345.299 336.5,341.5 Z"/></g>
<g><path style="opacity:1" fill="#df4837" d="M 348.5,360.5 C 348.167,360.5 347.833,360.5 347.5,360.5C 347.573,358.973 346.906,357.973 345.5,357.5C 345.784,354.143 344.451,351.809 341.5,350.5C 341.167,349.167 340.833,347.833 340.5,346.5C 341.363,347.463 342.03,347.463 342.5,346.5C 342.512,344.588 342.179,342.588 341.5,340.5C 341.846,339.304 342.346,339.304 343,340.5C 343.202,342.256 343.702,343.922 344.5,345.5C 347.81,347.441 348.477,350.107 346.5,353.5C 348.635,353.147 349.968,353.98 350.5,356C 349.586,357.406 348.92,358.906 348.5,360.5 Z"/></g>
<g><path style="opacity:1" fill="#d9624f" d="M 402.5,335.5 C 400.251,341.005 397.251,346.005 393.5,350.5C 393.34,348.801 393.506,347.134 394,345.5C 396.442,342.952 398.108,339.952 399,336.5C 400.011,335.663 401.178,335.33 402.5,335.5 Z"/></g>
<g><path style="opacity:1" fill="#5377cd" d="M 332.5,336.5 C 333.1,337.9 334.1,338.9 335.5,339.5C 335.328,340.492 335.662,341.158 336.5,341.5C 337.015,345.299 338.681,348.299 341.5,350.5C 341.833,351.833 342.167,353.167 342.5,354.5C 340.926,354.063 339.759,353.063 339,351.5C 336.256,346.685 334.089,341.685 332.5,336.5 Z"/></g>
<g><path style="opacity:0.8" fill="#7aa7de" d="M 104.5,351.5 C 106.796,352.733 108.13,354.733 108.5,357.5C 106.684,355.882 105.351,353.882 104.5,351.5 Z"/></g>
<g><path style="opacity:1" fill="#af5672" d="M 341.5,350.5 C 344.451,351.809 345.784,354.143 345.5,357.5C 344.272,356.694 343.272,355.694 342.5,354.5C 342.167,353.167 341.833,351.833 341.5,350.5 Z"/></g>
<g><path style="opacity:1" fill="#98617e" d="M 345.5,357.5 C 346.906,357.973 347.573,358.973 347.5,360.5C 346.094,360.027 345.427,359.027 345.5,357.5 Z"/></g>
<g><path style="opacity:1" fill="#a45c76" d="M 347.5,360.5 C 347.833,360.5 348.167,360.5 348.5,360.5C 349.11,361.391 349.443,362.391 349.5,363.5C 348.094,363.027 347.427,362.027 347.5,360.5 Z"/></g>
<g><path style="opacity:1" fill="#d04c51" d="M 348.5,360.5 C 351.274,362.56 353.441,365.227 355,368.5C 356.722,371.279 357.889,374.279 358.5,377.5C 357.833,376.833 357.167,376.167 356.5,375.5C 355.073,373.852 354.24,371.852 354,369.5C 353.292,368.619 352.458,367.953 351.5,367.5C 350.4,366.395 349.733,365.062 349.5,363.5C 349.443,362.391 349.11,361.391 348.5,360.5 Z"/></g>
<g><path style="opacity:0.341" fill="#72a7df" d="M 108.5,357.5 C 111.839,360.835 114.172,364.835 115.5,369.5C 112.377,366.024 110.043,362.024 108.5,357.5 Z"/></g>
<g><path style="opacity:0.467" fill="#80b5e6" d="M 115.5,369.5 C 117.588,371.336 118.921,373.669 119.5,376.5C 117.412,374.664 116.079,372.331 115.5,369.5 Z"/></g>
<g><path style="opacity:0.922" fill="#de6a5f" d="M 393.5,351.5 C 387.905,362.37 381.572,372.704 374.5,382.5C 377.391,378.354 379.391,373.687 380.5,368.5C 381.325,367.614 382.325,367.281 383.5,367.5C 384.987,363.682 386.654,359.848 388.5,356C 389.653,353.791 391.319,352.291 393.5,351.5 Z"/></g>
<g><path style="opacity:1" fill="#746daf" d="M 351.5,367.5 C 352.458,367.953 353.292,368.619 354,369.5C 354.24,371.852 355.073,373.852 356.5,375.5C 356.5,376.833 356.5,378.167 356.5,379.5C 353.293,376.232 351.627,372.232 351.5,367.5 Z"/></g>
<g><path style="opacity:0.796" fill="#7cb1e1" d="M 119.5,377.5 C 121.446,378.035 122.446,379.368 122.5,381.5C 121.026,380.564 120.026,379.23 119.5,377.5 Z"/></g>
<g><path style="opacity:1" fill="#946584" d="M 356.5,375.5 C 357.167,376.167 357.833,376.833 358.5,377.5C 359.167,379.167 359.833,380.833 360.5,382.5C 359.833,382.167 359.167,381.833 358.5,381.5C 357.833,380.833 357.167,380.167 356.5,379.5C 356.5,378.167 356.5,376.833 356.5,375.5 Z"/></g>
<g><path style="opacity:0.722" fill="#7aabe2" d="M 123.5,383.5 C 125.404,383.738 126.738,384.738 127.5,386.5C 127.5,386.833 127.5,387.167 127.5,387.5C 125.833,386.5 124.5,385.167 123.5,383.5 Z"/></g>
<g><path style="opacity:1" fill="#de6057" d="M 374.5,383.5 C 372.451,386.55 369.784,388.883 366.5,390.5C 365.094,390.027 364.427,389.027 364.5,387.5C 367.588,387.803 369.254,386.47 369.5,383.5C 371.167,383.5 372.833,383.5 374.5,383.5 Z"/></g>
<g><path style="opacity:0.431" fill="#85b9e2" d="M 127.5,387.5 C 129.027,387.427 130.027,388.094 130.5,389.5C 128.973,389.573 127.973,388.906 127.5,387.5 Z"/></g>
<g><path style="opacity:1" fill="#5f74bf" d="M 358.5,381.5 C 359.167,381.833 359.833,382.167 360.5,382.5C 360.833,383.167 361.167,383.833 361.5,384.5C 362.688,386.722 363.688,389.055 364.5,391.5C 363.5,391.5 362.5,391.5 361.5,391.5C 360.997,387.96 359.997,384.627 358.5,381.5 Z"/></g>
<g><path style="opacity:1" fill="#ab6582" d="M 361.5,384.5 C 362.833,385.167 363.833,386.167 364.5,387.5C 364.427,389.027 365.094,390.027 366.5,390.5C 366.158,391.338 365.492,391.672 364.5,391.5C 363.688,389.055 362.688,386.722 361.5,384.5 Z"/></g>
<g><path style="opacity:0.545" fill="#81b6ed" d="M 133.5,391.5 C 134.167,391.5 134.833,391.5 135.5,391.5C 138.345,392.538 141.012,393.872 143.5,395.5C 139.642,395.23 136.309,393.897 133.5,391.5 Z"/></g>
<g><path style="opacity:1" fill="#4f8fe2" d="M 135.5,391.5 C 138.753,391.562 141.753,392.396 144.5,394C 214.833,394.5 285.166,394.667 355.5,394.5C 355.5,394.833 355.5,395.167 355.5,395.5C 284.736,396.831 214.069,396.831 143.5,395.5C 141.012,393.872 138.345,392.538 135.5,391.5 Z"/></g>
<g><path style="opacity:0.302" fill="#8bbcec" d="M 361.5,391.5 C 362.5,391.5 363.5,391.5 364.5,391.5C 362.102,393.974 359.102,395.308 355.5,395.5C 355.5,395.167 355.5,394.833 355.5,394.5C 357.941,394.25 359.941,393.25 361.5,391.5 Z"/></g>
</svg>
