<?xml version="1.0" encoding="UTF-8"?>
<!DOCTYPE svg PUBLIC "-//W3C//DTD SVG 1.1//EN" "http://www.w3.org/Graphics/SVG/1.1/DTD/svg11.dtd">
<svg xmlns="http://www.w3.org/2000/svg" version="1.1" width="499px" height="500px" style="shape-rendering:geometricPrecision; text-rendering:geometricPrecision; image-rendering:optimizeQuality; fill-rule:evenodd; clip-rule:evenodd" xmlns:xlink="http://www.w3.org/1999/xlink">
<g><path style="opacity:0.537" fill="#d88b8e" d="M 91.5,109.5 C 92.1667,109.5 92.8333,109.5 93.5,109.5C 97.0419,109.187 100.375,109.521 103.5,110.5C 98.4635,110.413 93.4635,110.746 88.5,111.5C 89.5,110.833 90.5,110.167 91.5,109.5 Z"/></g>
<g><path style="opacity:0.508" fill="#fde9a6" d="M 411.5,110.5 C 411.5,110.833 411.5,111.167 411.5,111.5C 401.43,109.986 391.43,110.319 381.5,112.5C 391.142,108.016 401.142,107.349 411.5,110.5 Z"/></g>
<g><path style="opacity:0.298" fill="#fad6da" d="M 91.5,109.5 C 90.5,110.167 89.5,110.833 88.5,111.5C 87.8333,111.5 87.1667,111.5 86.5,111.5C 85.8333,111.5 85.1667,111.5 84.5,111.5C 86.5145,110.076 88.8478,109.41 91.5,109.5 Z"/></g>
<g><path style="opacity:0.2" fill="#fcd4d1" d="M 84.5,111.5 C 83.713,113.104 82.3797,113.771 80.5,113.5C 81.287,111.896 82.6203,111.229 84.5,111.5 Z"/></g>
<g><path style="opacity:1" fill="#feb900" d="M 417.5,115.5 C 420.987,116.745 423.987,118.745 426.5,121.5C 426.343,122.873 426.51,124.207 427,125.5C 429.364,128.266 431.364,131.266 433,134.5C 434.205,150.473 435.039,166.473 435.5,182.5C 435.5,182.833 435.5,183.167 435.5,183.5C 430.555,184.904 426.555,187.57 423.5,191.5C 423.167,191.5 422.833,191.5 422.5,191.5C 420.295,191.148 418.462,190.148 417,188.5C 416.667,189.833 416.333,191.167 416,192.5C 414.657,191.786 413.324,192.12 412,193.5C 411.187,195.436 410.687,197.436 410.5,199.5C 408.362,199.297 406.695,198.297 405.5,196.5C 404.914,196.709 404.414,197.043 404,197.5C 403.764,199.764 403.264,201.931 402.5,204C 399.776,205.335 397.11,205.502 394.5,204.5C 394.5,206.167 394.5,207.833 394.5,209.5C 392.833,209.5 391.167,209.5 389.5,209.5C 389.5,210.5 389.5,211.5 389.5,212.5C 390.675,212.281 391.675,212.614 392.5,213.5C 389.427,214.197 387.427,216.03 386.5,219C 382.767,219.066 379.267,219.899 376,221.5C 375.28,219.888 375.446,218.388 376.5,217C 375.251,215.176 374.085,215.343 373,217.5C 372.125,218.873 371.625,220.373 371.5,222C 372.78,224.36 373.447,226.86 373.5,229.5C 372.167,229.5 370.833,229.5 369.5,229.5C 367.841,228.166 366.508,226.499 365.5,224.5C 366.407,221.579 366.74,218.579 366.5,215.5C 367.93,215.421 369.264,215.754 370.5,216.5C 371.062,213.771 372.728,212.271 375.5,212C 374.833,211.667 374.167,211.333 373.5,211C 374.833,209.667 374.833,208.333 373.5,207C 376.07,204.933 378.07,202.433 379.5,199.5C 376.563,198.197 373.897,196.53 371.5,194.5C 369.803,194.899 368.137,195.399 366.5,196C 364.95,198.525 362.783,200.359 360,201.5C 359.667,205.5 359.333,209.5 359,213.5C 358.407,210.073 357.574,206.406 356.5,202.5C 357.125,199.815 358.125,197.315 359.5,195C 357.738,191.429 358.738,189.262 362.5,188.5C 362.336,185.813 362.503,183.146 363,180.5C 364.299,180.966 365.799,180.966 367.5,180.5C 367.799,178.396 367.466,176.396 366.5,174.5C 361.386,171.087 361.22,167.42 366,163.5C 366.333,163.833 366.667,164.167 367,164.5C 368.084,160.944 370.584,159.277 374.5,159.5C 374.563,154.797 374.229,150.13 373.5,145.5C 370.5,145.833 369.167,144.5 369.5,141.5C 371.167,141.5 372.833,141.5 374.5,141.5C 374.675,138.671 373.342,137.004 370.5,136.5C 371.325,135.614 372.325,135.281 373.5,135.5C 373.528,131.47 373.194,127.803 372.5,124.5C 374.339,123.492 375.672,121.992 376.5,120C 381.295,117.964 385.962,115.631 390.5,113C 396.5,112.333 402.5,112.333 408.5,113C 411.312,114.549 414.312,115.382 417.5,115.5 Z"/></g>
<g><path style="opacity:0.804" fill="#f8d66b" d="M 411.5,111.5 C 413.819,111.992 415.819,112.992 417.5,114.5C 414.911,114.539 412.911,113.539 411.5,111.5 Z"/></g>
<g><path style="opacity:1" fill="#b8332e" d="M 103.5,110.5 C 111.258,111.192 117.924,114.192 123.5,119.5C 115.416,116.329 107.249,113.995 99,112.5C 94.0186,112.347 89.1852,113.014 84.5,114.5C 85.1667,113.5 85.8333,112.5 86.5,111.5C 87.1667,111.5 87.8333,111.5 88.5,111.5C 93.4635,110.746 98.4635,110.413 103.5,110.5 Z"/></g>
<g><path style="opacity:0.137" fill="#fbd2ce" d="M 80.5,113.5 C 78.0869,115.887 75.4202,118.054 72.5,120C 71.035,121.774 69.7017,123.608 68.5,125.5C 67.5,126.167 66.5,126.833 65.5,127.5C 68.5769,120.791 73.5769,116.125 80.5,113.5 Z"/></g>
<g><path style="opacity:1" fill="#c52119" d="M 123.5,119.5 C 125.071,123.475 128.071,125.809 132.5,126.5C 132.539,127.583 132.873,128.583 133.5,129.5C 136.844,131.185 140.177,132.852 143.5,134.5C 145.754,135.124 147.421,136.457 148.5,138.5C 146.507,173.484 145.84,208.818 146.5,244.5C 143.071,240.921 139.071,238.254 134.5,236.5C 133.167,235.833 132.167,234.833 131.5,233.5C 130.101,232.11 128.434,231.11 126.5,230.5C 125.078,229.075 123.411,228.075 121.5,227.5C 120.415,225.413 118.749,224.08 116.5,223.5C 115.738,221.738 114.404,220.738 112.5,220.5C 111.833,220.5 111.5,220.167 111.5,219.5C 111.027,218.094 110.027,217.427 108.5,217.5C 107.415,215.413 105.749,214.08 103.5,213.5C 103.027,212.094 102.027,211.427 100.5,211.5C 99.4154,209.413 97.7488,208.08 95.5,207.5C 95.5,206.167 95.5,204.833 95.5,203.5C 94.5,203.5 93.5,203.5 92.5,203.5C 92.5,202.5 92.5,201.5 92.5,200.5C 91.1667,200.5 89.8333,200.5 88.5,200.5C 88.5,199.5 88.5,198.5 88.5,197.5C 90.1667,197.5 91.8333,197.5 93.5,197.5C 93.5,196.167 93.5,194.833 93.5,193.5C 91.269,192.376 88.9357,191.876 86.5,192C 87.5,192.833 88.5,193.667 89.5,194.5C 89.1131,195.72 88.2798,196.387 87,196.5C 83.2993,194.82 79.466,193.487 75.5,192.5C 73.632,189.236 70.9653,186.902 67.5,185.5C 66.4324,184.566 65.099,184.232 63.5,184.5C 63.5,183.833 63.5,183.167 63.5,182.5C 62.5192,169.246 62.1858,155.913 62.5,142.5C 62.9926,140.194 63.3259,137.861 63.5,135.5C 63.4326,134.041 63.7659,132.708 64.5,131.5C 67.0858,130.513 68.4191,128.513 68.5,125.5C 72.6367,122.533 76.6367,119.366 80.5,116C 81.9007,115.59 83.234,115.09 84.5,114.5C 89.1852,113.014 94.0186,112.347 99,112.5C 107.249,113.995 115.416,116.329 123.5,119.5 Z"/></g>
<g><path style="opacity:0.267" fill="#fdefb8" d="M 411.5,111.5 C 411.5,111.167 411.5,110.833 411.5,110.5C 414.016,110.755 416.35,111.589 418.5,113C 421.167,115 423.833,117 426.5,119C 427.823,119.816 428.489,120.983 428.5,122.5C 427.833,122.167 427.167,121.833 426.5,121.5C 423.987,118.745 420.987,116.745 417.5,115.5C 417.5,115.167 417.5,114.833 417.5,114.5C 415.819,112.992 413.819,111.992 411.5,111.5 Z"/></g>
<g><path style="opacity:1" fill="#b8433d" d="M 84.5,111.5 C 85.1667,111.5 85.8333,111.5 86.5,111.5C 85.8333,112.5 85.1667,113.5 84.5,114.5C 83.234,115.09 81.9007,115.59 80.5,116C 76.6367,119.366 72.6367,122.533 68.5,125.5C 69.7017,123.608 71.035,121.774 72.5,120C 75.4202,118.054 78.0869,115.887 80.5,113.5C 82.3797,113.771 83.713,113.104 84.5,111.5 Z"/></g>
<g><path style="opacity:1" fill="#f0c755" d="M 375.5,118.5 C 373.557,121.471 370.891,123.471 367.5,124.5C 369.8,122.016 372.467,120.016 375.5,118.5 Z"/></g>
<g><path style="opacity:1" fill="#f1be29" d="M 411.5,111.5 C 412.911,113.539 414.911,114.539 417.5,114.5C 417.5,114.833 417.5,115.167 417.5,115.5C 414.312,115.382 411.312,114.549 408.5,113C 402.5,112.333 396.5,112.333 390.5,113C 385.962,115.631 381.295,117.964 376.5,120C 375.672,121.992 374.339,123.492 372.5,124.5C 369.828,126.338 366.828,127.505 363.5,128C 359.888,131.461 356.221,134.628 352.5,137.5C 352.167,137.5 351.833,137.5 351.5,137.5C 351.5,137.167 351.5,136.833 351.5,136.5C 355.095,133.351 358.762,130.184 362.5,127C 364.078,125.906 365.745,125.072 367.5,124.5C 370.891,123.471 373.557,121.471 375.5,118.5C 377.5,116.5 379.5,114.5 381.5,112.5C 391.43,110.319 401.43,109.986 411.5,111.5 Z"/></g>
<g><path style="opacity:1" fill="#b1312d" d="M 123.5,119.5 C 126.81,121.482 129.81,123.815 132.5,126.5C 128.071,125.809 125.071,123.475 123.5,119.5 Z"/></g>
<g><path style="opacity:1" fill="#fdbd02" d="M 372.5,124.5 C 373.194,127.803 373.528,131.47 373.5,135.5C 372.325,135.281 371.325,135.614 370.5,136.5C 373.342,137.004 374.675,138.671 374.5,141.5C 372.833,141.5 371.167,141.5 369.5,141.5C 369.167,144.5 370.5,145.833 373.5,145.5C 374.229,150.13 374.563,154.797 374.5,159.5C 370.584,159.277 368.084,160.944 367,164.5C 366.667,164.167 366.333,163.833 366,163.5C 361.22,167.42 361.386,171.087 366.5,174.5C 367.466,176.396 367.799,178.396 367.5,180.5C 365.799,180.966 364.299,180.966 363,180.5C 362.503,183.146 362.336,185.813 362.5,188.5C 358.738,189.262 357.738,191.429 359.5,195C 358.125,197.315 357.125,199.815 356.5,202.5C 357.574,206.406 358.407,210.073 359,213.5C 359.333,209.5 359.667,205.5 360,201.5C 362.783,200.359 364.95,198.525 366.5,196C 368.137,195.399 369.803,194.899 371.5,194.5C 373.897,196.53 376.563,198.197 379.5,199.5C 378.07,202.433 376.07,204.933 373.5,207C 374.833,208.333 374.833,209.667 373.5,211C 374.167,211.333 374.833,211.667 375.5,212C 372.728,212.271 371.062,213.771 370.5,216.5C 369.264,215.754 367.93,215.421 366.5,215.5C 366.74,218.579 366.407,221.579 365.5,224.5C 366.508,226.499 367.841,228.166 369.5,229.5C 367.824,230.183 367.157,231.517 367.5,233.5C 363.608,234.39 360.941,236.723 359.5,240.5C 357.486,240.392 355.82,241.058 354.5,242.5C 354.5,241.5 354.5,240.5 354.5,239.5C 355.675,239.719 356.675,239.386 357.5,238.5C 355.533,235.988 355.2,233.321 356.5,230.5C 354.855,199.478 353.522,168.478 352.5,137.5C 356.221,134.628 359.888,131.461 363.5,128C 366.828,127.505 369.828,126.338 372.5,124.5 Z"/></g>
<g><path style="opacity:0.235" fill="#fff0c1" d="M 428.5,122.5 C 430.914,123.911 432.581,125.911 433.5,128.5C 431.086,127.089 429.419,125.089 428.5,122.5 Z"/></g>
<g><path style="opacity:0.471" fill="#feecb7" d="M 381.5,112.5 C 379.5,114.5 377.5,116.5 375.5,118.5C 372.467,120.016 369.8,122.016 367.5,124.5C 365.745,125.072 364.078,125.906 362.5,127C 358.762,130.184 355.095,133.351 351.5,136.5C 351.167,136.5 350.833,136.5 350.5,136.5C 350.5,136.167 350.5,135.833 350.5,135.5C 360.29,127.105 370.623,119.438 381.5,112.5 Z"/></g>
<g><path style="opacity:1" fill="#b63831" d="M 132.5,126.5 C 136.707,128.435 140.373,131.102 143.5,134.5C 140.177,132.852 136.844,131.185 133.5,129.5C 132.873,128.583 132.539,127.583 132.5,126.5 Z"/></g>
<g><path style="opacity:1" fill="#ba4745" d="M 68.5,125.5 C 68.4191,128.513 67.0858,130.513 64.5,131.5C 64.8333,130.167 65.1667,128.833 65.5,127.5C 66.5,126.833 67.5,126.167 68.5,125.5 Z"/></g>
<g><path style="opacity:0.898" fill="#fcde7e" d="M 433.5,128.5 C 434.537,129.93 435.204,131.597 435.5,133.5C 435.5,134.833 435.5,136.167 435.5,137.5C 434.343,134.727 433.676,131.727 433.5,128.5 Z"/></g>
<g><path style="opacity:1" fill="#c26061" d="M 63.5,135.5 C 63.3259,137.861 62.9926,140.194 62.5,142.5C 61.5044,155.656 61.1711,168.99 61.5,182.5C 60.5043,169.01 60.171,155.344 60.5,141.5C 60.5,141.167 60.5,140.833 60.5,140.5C 61.6873,138.928 62.6873,137.261 63.5,135.5 Z"/></g>
<g><path style="opacity:0.263" fill="#fff3be" d="M 435.5,133.5 C 437.074,135.102 437.741,137.102 437.5,139.5C 436.833,138.833 436.167,138.167 435.5,137.5C 435.5,136.167 435.5,134.833 435.5,133.5 Z"/></g>
<g><path style="opacity:0.239" fill="#f8cdcc" d="M 65.5,127.5 C 65.1667,128.833 64.8333,130.167 64.5,131.5C 63.7659,132.708 63.4326,134.041 63.5,135.5C 62.6873,137.261 61.6873,138.928 60.5,140.5C 60.8242,135.539 62.4909,131.206 65.5,127.5 Z"/></g>
<g><path style="opacity:0.247" fill="#fed0ca" d="M 350.5,135.5 C 350.5,135.833 350.5,136.167 350.5,136.5C 349.167,137.167 348.167,138.167 347.5,139.5C 345.251,140.08 343.585,141.413 342.5,143.5C 339.339,144.913 336.339,146.58 333.5,148.5C 338.877,143.79 344.543,139.457 350.5,135.5 Z"/></g>
<g><path style="opacity:1" fill="#d8605f" d="M 347.5,139.5 C 346.415,141.587 344.749,142.92 342.5,143.5C 343.585,141.413 345.251,140.08 347.5,139.5 Z"/></g>
<g><path style="opacity:1" fill="#d95249" d="M 148.5,138.5 C 155.756,142.762 162.423,147.762 168.5,153.5C 161.693,150.233 155.36,146.233 149.5,141.5C 148.873,140.583 148.539,139.583 148.5,138.5 Z"/></g>
<g><path style="opacity:0.976" fill="#d5675f" d="M 342.5,143.5 C 339.725,146.605 336.392,148.938 332.5,150.5C 332.833,149.833 333.167,149.167 333.5,148.5C 336.339,146.58 339.339,144.913 342.5,143.5 Z"/></g>
<g><path style="opacity:1" fill="#ee4131" d="M 148.5,138.5 C 148.539,139.583 148.873,140.583 149.5,141.5C 155.36,146.233 161.693,150.233 168.5,153.5C 168.833,153.5 169.167,153.5 169.5,153.5C 170.523,155.846 171.523,158.179 172.5,160.5C 173.873,160.343 175.207,160.51 176.5,161C 178.953,162.975 181.619,164.475 184.5,165.5C 187.987,166.745 190.987,168.745 193.5,171.5C 195.179,174.195 197.179,176.695 199.5,179C 202.239,180.026 204.572,181.526 206.5,183.5C 206.414,184.496 206.748,185.329 207.5,186C 209.869,186.536 211.869,187.703 213.5,189.5C 213.291,190.086 212.957,190.586 212.5,191C 216.678,192.427 220.678,193.927 224.5,195.5C 226.304,198.098 228.638,200.265 231.5,202C 232.745,202.791 234.078,203.291 235.5,203.5C 235.5,204.5 235.5,205.5 235.5,206.5C 236.552,206.351 237.552,206.517 238.5,207C 240.97,209.833 243.803,212.333 247,214.5C 249.815,214.105 251.982,212.772 253.5,210.5C 257.572,208.792 260.905,206.126 263.5,202.5C 264.922,202.291 266.255,201.791 267.5,201C 275.236,194.814 282.903,188.648 290.5,182.5C 290.5,181.833 290.833,181.5 291.5,181.5C 295.02,180.647 297.687,178.647 299.5,175.5C 304.582,173.957 308.582,170.957 311.5,166.5C 313.858,166.747 315.858,166.081 317.5,164.5C 319.262,164.357 320.929,164.691 322.5,165.5C 322.313,164.183 322.98,162.85 324.5,161.5C 325.597,163.229 326.763,164.896 328,166.5C 328.931,164.541 329.764,162.541 330.5,160.5C 327.896,157.433 328.562,156.433 332.5,157.5C 335.034,150.963 339.701,146.963 346.5,145.5C 346.804,148.522 347.304,151.522 348,154.5C 348.167,183.506 348.667,212.506 349.5,241.5C 350.172,242.949 350.839,244.282 351.5,245.5C 351.5,245.833 351.5,246.167 351.5,246.5C 348.122,245.891 346.122,247.224 345.5,250.5C 344.833,250.5 344.5,250.833 344.5,251.5C 341.931,251.738 340.265,253.071 339.5,255.5C 337.77,256.026 336.436,257.026 335.5,258.5C 332.467,260.016 329.8,262.016 327.5,264.5C 325.167,265.167 322.833,265.833 320.5,266.5C 315.435,266.601 313.101,269.268 313.5,274.5C 310.89,276.568 307.89,278.068 304.5,279C 303.748,279.671 303.414,280.504 303.5,281.5C 302.188,283.479 300.521,285.145 298.5,286.5C 295.379,286.736 293.046,288.069 291.5,290.5C 289.363,293.973 286.363,296.306 282.5,297.5C 278.623,298.711 275.623,301.044 273.5,304.5C 272.094,304.973 271.427,305.973 271.5,307.5C 271.167,307.5 270.833,307.5 270.5,307.5C 268.821,307.285 267.821,307.952 267.5,309.5C 266.833,309.833 266.167,310.167 265.5,310.5C 261.053,313.282 256.387,315.615 251.5,317.5C 251.5,318.833 251.5,320.167 251.5,321.5C 249.833,321.5 248.167,321.5 246.5,321.5C 245.256,317.588 242.589,315.588 238.5,315.5C 237.415,313.413 235.749,312.08 233.5,311.5C 232.026,308.751 230.026,306.418 227.5,304.5C 226.311,303.571 224.978,303.238 223.5,303.5C 223.196,302.85 222.863,302.183 222.5,301.5C 219.577,300.552 216.911,299.219 214.5,297.5C 213.625,294.459 211.625,292.625 208.5,292C 206.741,289.618 204.741,287.452 202.5,285.5C 198.06,283.217 194.06,280.384 190.5,277C 189.207,276.51 187.873,276.343 186.5,276.5C 185.738,274.738 184.404,273.738 182.5,273.5C 178.571,267.564 173.237,263.564 166.5,261.5C 166.027,260.094 165.027,259.427 163.5,259.5C 163.616,256.09 161.95,254.756 158.5,255.5C 157.415,253.413 155.749,252.08 153.5,251.5C 153.027,250.094 152.027,249.427 150.5,249.5C 149.855,247.174 148.522,245.507 146.5,244.5C 145.84,208.818 146.507,173.484 148.5,138.5 Z"/></g>
<g><path style="opacity:1" fill="#f4bb20" d="M 426.5,121.5 C 427.167,121.833 427.833,122.167 428.5,122.5C 429.419,125.089 431.086,127.089 433.5,128.5C 433.676,131.727 434.343,134.727 435.5,137.5C 436.775,152.647 436.775,167.647 435.5,182.5C 435.039,166.473 434.205,150.473 433,134.5C 431.364,131.266 429.364,128.266 427,125.5C 426.51,124.207 426.343,122.873 426.5,121.5 Z"/></g>
<g><path style="opacity:1" fill="#d3625f" d="M 332.5,150.5 C 330.363,153.973 327.363,156.306 323.5,157.5C 326.208,154.791 329.208,152.458 332.5,150.5 Z"/></g>
<g><path style="opacity:1" fill="#ea4539" d="M 350.5,136.5 C 350.833,136.5 351.167,136.5 351.5,136.5C 351.5,136.833 351.5,137.167 351.5,137.5C 350.522,139.532 349.022,141.198 347,142.5C 346.517,143.448 346.351,144.448 346.5,145.5C 339.701,146.963 335.034,150.963 332.5,157.5C 328.562,156.433 327.896,157.433 330.5,160.5C 329.764,162.541 328.931,164.541 328,166.5C 326.763,164.896 325.597,163.229 324.5,161.5C 322.98,162.85 322.313,164.183 322.5,165.5C 320.929,164.691 319.262,164.357 317.5,164.5C 317.733,162.938 318.4,161.605 319.5,160.5C 320.262,158.738 321.596,157.738 323.5,157.5C 327.363,156.306 330.363,153.973 332.5,150.5C 336.392,148.938 339.725,146.605 342.5,143.5C 344.749,142.92 346.415,141.587 347.5,139.5C 348.167,138.167 349.167,137.167 350.5,136.5 Z"/></g>
<g><path style="opacity:0.656" fill="#f4d56b" d="M 435.5,137.5 C 436.167,138.167 436.833,138.833 437.5,139.5C 437.816,154.578 437.483,169.578 436.5,184.5C 436.167,184.5 435.833,184.5 435.5,184.5C 435.5,184.167 435.5,183.833 435.5,183.5C 435.5,183.167 435.5,182.833 435.5,182.5C 436.775,167.647 436.775,152.647 435.5,137.5 Z"/></g>
<g><path style="opacity:1" fill="#ad2c26" d="M 62.5,142.5 C 62.1858,155.913 62.5192,169.246 63.5,182.5C 62.8333,182.5 62.1667,182.5 61.5,182.5C 61.1711,168.99 61.5044,155.656 62.5,142.5 Z"/></g>
<g><path style="opacity:1" fill="#df4e41" d="M 169.5,153.5 C 174.722,157.271 179.722,161.271 184.5,165.5C 181.619,164.475 178.953,162.975 176.5,161C 175.207,160.51 173.873,160.343 172.5,160.5C 171.523,158.179 170.523,155.846 169.5,153.5 Z"/></g>
<g><path style="opacity:1" fill="#db594f" d="M 319.5,160.5 C 318.4,161.605 317.733,162.938 317.5,164.5C 315.858,166.081 313.858,166.747 311.5,166.5C 313.8,164.016 316.467,162.016 319.5,160.5 Z"/></g>
<g><path style="opacity:0.988" fill="#d25c54" d="M 311.5,166.5 C 308.582,170.957 304.582,173.957 299.5,175.5C 303.491,172.503 307.491,169.503 311.5,166.5 Z"/></g>
<g><path style="opacity:0.922" fill="#d46960" d="M 299.5,175.5 C 297.687,178.647 295.02,180.647 291.5,181.5C 293.878,179.122 296.545,177.122 299.5,175.5 Z"/></g>
<g><path style="opacity:0.188" fill="#fccfc7" d="M 333.5,148.5 C 333.167,149.167 332.833,149.833 332.5,150.5C 329.208,152.458 326.208,154.791 323.5,157.5C 321.596,157.738 320.262,158.738 319.5,160.5C 316.467,162.016 313.8,164.016 311.5,166.5C 307.491,169.503 303.491,172.503 299.5,175.5C 296.545,177.122 293.878,179.122 291.5,181.5C 290.833,181.5 290.5,181.833 290.5,182.5C 284.5,186.5 278.5,190.5 272.5,194.5C 273.625,192.871 274.959,191.371 276.5,190C 294.704,177.396 312.371,164.062 329.5,150C 330.745,149.209 332.078,148.709 333.5,148.5 Z"/></g>
<g><path style="opacity:1" fill="#d6574c" d="M 193.5,171.5 C 199.81,175.815 205.81,180.482 211.5,185.5C 209.716,185.107 208.05,184.441 206.5,183.5C 204.572,181.526 202.239,180.026 199.5,179C 197.179,176.695 195.179,174.195 193.5,171.5 Z"/></g>
<g><path style="opacity:1" fill="#a05f78" d="M 61.5,182.5 C 62.1667,182.5 62.8333,182.5 63.5,182.5C 63.5,183.167 63.5,183.833 63.5,184.5C 62.1667,184.5 61.5,183.833 61.5,182.5 Z"/></g>
<g><path style="opacity:1" fill="#e1c32e" d="M 435.5,183.5 C 435.5,183.833 435.5,184.167 435.5,184.5C 434.833,184.5 434.5,184.833 434.5,185.5C 432.628,186.511 430.628,187.345 428.5,188C 427.748,188.671 427.414,189.504 427.5,190.5C 426.609,191.11 425.609,191.443 424.5,191.5C 424.167,191.5 423.833,191.5 423.5,191.5C 426.555,187.57 430.555,184.904 435.5,183.5 Z"/></g>
<g><path style="opacity:1" fill="#a53f58" d="M 63.5,184.5 C 65.099,184.232 66.4324,184.566 67.5,185.5C 68.1667,186.5 68.8333,187.5 69.5,188.5C 67.2228,187.551 65.2228,186.218 63.5,184.5 Z"/></g>
<g><path style="opacity:1" fill="#b03136" d="M 67.5,185.5 C 70.9653,186.902 73.632,189.236 75.5,192.5C 73.2228,191.551 71.2228,190.218 69.5,188.5C 68.8333,187.5 68.1667,186.5 67.5,185.5 Z"/></g>
<g><path style="opacity:1" fill="#a4ba36" d="M 434.5,185.5 C 432.589,187.702 430.255,189.369 427.5,190.5C 427.414,189.504 427.748,188.671 428.5,188C 430.628,187.345 432.628,186.511 434.5,185.5 Z"/></g>
<g><path style="opacity:1" fill="#a4a9de" d="M 60.5,141.5 C 60.171,155.344 60.5043,169.01 61.5,182.5C 61.5,183.833 62.1667,184.5 63.5,184.5C 65.2228,186.218 67.2228,187.551 69.5,188.5C 71.2228,190.218 73.2228,191.551 75.5,192.5C 75.5,192.833 75.5,193.167 75.5,193.5C 75.9731,194.906 76.9731,195.573 78.5,195.5C 79.5,195.833 80.1667,196.5 80.5,197.5C 80.9731,198.906 81.9731,199.573 83.5,199.5C 84.8333,200.167 85.8333,201.167 86.5,202.5C 84.2543,201.545 81.921,200.878 79.5,200.5C 79.719,199.325 79.3857,198.325 78.5,197.5C 73.1695,194.474 68.1695,191.141 63.5,187.5C 63.44,186.957 63.1067,186.624 62.5,186.5C 61.5,248.83 61.1667,311.163 61.5,373.5C 61.1667,373.5 60.8333,373.5 60.5,373.5C 59.1714,296.039 59.1714,218.706 60.5,141.5 Z"/></g>
<g><path style="opacity:1" fill="#e24a40" d="M 206.5,183.5 C 208.05,184.441 209.716,185.107 211.5,185.5C 216.383,188.109 220.716,191.443 224.5,195.5C 220.678,193.927 216.678,192.427 212.5,191C 212.957,190.586 213.291,190.086 213.5,189.5C 211.869,187.703 209.869,186.536 207.5,186C 206.748,185.329 206.414,184.496 206.5,183.5 Z"/></g>
<g><path style="opacity:1" fill="#a9557a" d="M 75.5,193.5 C 77.0269,193.427 78.0269,194.094 78.5,195.5C 76.9731,195.573 75.9731,194.906 75.5,193.5 Z"/></g>
<g><path style="opacity:1" fill="#bf2523" d="M 95.5,207.5 C 93.9731,207.573 92.9731,206.906 92.5,205.5C 91.7377,203.738 90.4044,202.738 88.5,202.5C 87.0892,200.086 85.0892,198.419 82.5,197.5C 81.8333,197.5 81.1667,197.5 80.5,197.5C 80.1667,196.5 79.5,195.833 78.5,195.5C 78.0269,194.094 77.0269,193.427 75.5,193.5C 75.5,193.167 75.5,192.833 75.5,192.5C 79.466,193.487 83.2993,194.82 87,196.5C 88.2798,196.387 89.1131,195.72 89.5,194.5C 88.5,193.667 87.5,192.833 86.5,192C 88.9357,191.876 91.269,192.376 93.5,193.5C 93.5,194.833 93.5,196.167 93.5,197.5C 91.8333,197.5 90.1667,197.5 88.5,197.5C 88.5,198.5 88.5,199.5 88.5,200.5C 89.8333,200.5 91.1667,200.5 92.5,200.5C 92.5,201.5 92.5,202.5 92.5,203.5C 93.5,203.5 94.5,203.5 95.5,203.5C 95.5,204.833 95.5,206.167 95.5,207.5 Z"/></g>
<g><path style="opacity:1" fill="#d4625b" d="M 290.5,182.5 C 282.903,188.648 275.236,194.814 267.5,201C 266.255,201.791 264.922,202.291 263.5,202.5C 266.5,199.833 269.5,197.167 272.5,194.5C 278.5,190.5 284.5,186.5 290.5,182.5 Z"/></g>
<g><path style="opacity:1" fill="#cbc741" d="M 422.5,191.5 C 422.833,191.5 423.167,191.5 423.5,191.5C 423.833,191.5 424.167,191.5 424.5,191.5C 423.5,192.833 422.5,194.167 421.5,195.5C 417.208,198.162 412.874,200.829 408.5,203.5C 413.543,199.973 418.209,195.973 422.5,191.5 Z"/></g>
<g><path style="opacity:1" fill="#5ca140" d="M 435.5,184.5 C 435.833,184.5 436.167,184.5 436.5,184.5C 436.5,184.833 436.5,185.167 436.5,185.5C 435.662,185.842 435.328,186.508 435.5,187.5C 431.501,188.984 428.167,191.484 425.5,195C 424.207,195.49 422.873,195.657 421.5,195.5C 422.5,194.167 423.5,192.833 424.5,191.5C 425.609,191.443 426.609,191.11 427.5,190.5C 430.255,189.369 432.589,187.702 434.5,185.5C 434.5,184.833 434.833,184.5 435.5,184.5 Z"/></g>
<g><path style="opacity:1" fill="#a6384c" d="M 82.5,197.5 C 85.0892,198.419 87.0892,200.086 88.5,202.5C 87.8333,202.5 87.1667,202.5 86.5,202.5C 85.8333,201.167 84.8333,200.167 83.5,199.5C 83.1667,198.833 82.8333,198.167 82.5,197.5 Z"/></g>
<g><path style="opacity:1" fill="#9d698d" d="M 80.5,197.5 C 81.1667,197.5 81.8333,197.5 82.5,197.5C 82.8333,198.167 83.1667,198.833 83.5,199.5C 81.9731,199.573 80.9731,198.906 80.5,197.5 Z"/></g>
<g><path style="opacity:1" fill="#d55d4f" d="M 224.5,195.5 C 228.736,197.445 232.403,200.112 235.5,203.5C 234.078,203.291 232.745,202.791 231.5,202C 228.638,200.265 226.304,198.098 224.5,195.5 Z"/></g>
<g><path style="opacity:1" fill="#4385f6" d="M 63.5,187.5 C 68.1695,191.141 73.1695,194.474 78.5,197.5C 79.3857,198.325 79.719,199.325 79.5,200.5C 81.921,200.878 84.2543,201.545 86.5,202.5C 89.6218,206.615 93.6218,209.615 98.5,211.5C 98.9731,212.906 99.9731,213.573 101.5,213.5C 101.821,215.048 102.821,215.715 104.5,215.5C 104.738,217.404 105.738,218.738 107.5,219.5C 106.756,222.95 108.09,224.616 111.5,224.5C 111.5,225.5 111.5,226.5 111.5,227.5C 114.528,227.339 117.361,228.006 120,229.5C 121.876,230.619 122.709,232.286 122.5,234.5C 124.167,234.5 125.833,234.5 127.5,234.5C 127.937,236.074 128.937,237.241 130.5,238C 134.251,239.291 137.584,241.125 140.5,243.5C 141.694,244.272 142.694,245.272 143.5,246.5C 144.809,294.528 144.809,342.528 143.5,390.5C 122.164,390.667 100.831,390.5 79.5,390C 80.5,389.167 81.5,388.333 82.5,387.5C 82.2907,386.914 81.9574,386.414 81.5,386C 78.9238,385.394 76.5904,385.894 74.5,387.5C 72.5726,385.707 70.2393,384.707 67.5,384.5C 67.5,384.167 67.5,383.833 67.5,383.5C 67.7409,380.966 66.7409,379.3 64.5,378.5C 64.0046,376.518 63.5046,374.518 63,372.5C 62.168,310.665 62.3347,248.999 63.5,187.5 Z"/></g>
<g><path style="opacity:1" fill="#a34366" d="M 88.5,202.5 C 90.4044,202.738 91.7377,203.738 92.5,205.5C 90.5956,205.262 89.2623,204.262 88.5,202.5 Z"/></g>
<g><path style="opacity:0.38" fill="#f8c9c1" d="M 93.5,109.5 C 103.425,107.651 112.758,109.484 121.5,115C 163.5,146.667 205.5,178.333 247.5,210C 249.289,210.52 250.956,210.187 252.5,209C 258.695,203.413 265.361,198.58 272.5,194.5C 269.5,197.167 266.5,199.833 263.5,202.5C 259.793,204.688 256.46,207.355 253.5,210.5C 251.689,211.822 249.689,212.322 247.5,212C 243.617,208.902 239.617,206.068 235.5,203.5C 232.403,200.112 228.736,197.445 224.5,195.5C 220.716,191.443 216.383,188.109 211.5,185.5C 205.81,180.482 199.81,175.815 193.5,171.5C 190.987,168.745 187.987,166.745 184.5,165.5C 179.722,161.271 174.722,157.271 169.5,153.5C 169.167,153.5 168.833,153.5 168.5,153.5C 162.423,147.762 155.756,142.762 148.5,138.5C 147.421,136.457 145.754,135.124 143.5,134.5C 140.373,131.102 136.707,128.435 132.5,126.5C 129.81,123.815 126.81,121.482 123.5,119.5C 117.924,114.192 111.258,111.192 103.5,110.5C 100.375,109.521 97.0419,109.187 93.5,109.5 Z"/></g>
<g><path style="opacity:1" fill="#d1615a" d="M 263.5,202.5 C 260.905,206.126 257.572,208.792 253.5,210.5C 256.46,207.355 259.793,204.688 263.5,202.5 Z"/></g>
<g><path style="opacity:1" fill="#8877b9" d="M 86.5,202.5 C 87.1667,202.5 87.8333,202.5 88.5,202.5C 89.2623,204.262 90.5956,205.262 92.5,205.5C 92.9731,206.906 93.9731,207.573 95.5,207.5C 96.5,208.833 97.5,210.167 98.5,211.5C 93.6218,209.615 89.6218,206.615 86.5,202.5 Z"/></g>
<g><path style="opacity:1" fill="#66a23d" d="M 421.5,195.5 C 419.195,198.527 416.529,201.36 413.5,204C 412.167,204.333 410.833,204.667 409.5,205C 406.197,209.481 402.197,212.981 397.5,215.5C 396.609,216.11 395.609,216.443 394.5,216.5C 395.604,214.611 396.937,212.945 398.5,211.5C 398.833,211.5 399.167,211.5 399.5,211.5C 402.109,210.557 404.109,208.89 405.5,206.5C 406.833,205.833 407.833,204.833 408.5,203.5C 412.874,200.829 417.208,198.162 421.5,195.5 Z"/></g>
<g><path style="opacity:1" fill="#bbbe43" d="M 405.5,206.5 C 404.109,208.89 402.109,210.557 399.5,211.5C 400.865,209.14 402.865,207.473 405.5,206.5 Z"/></g>
<g><path style="opacity:1" fill="#a83c4f" d="M 95.5,207.5 C 97.7488,208.08 99.4154,209.413 100.5,211.5C 99.8333,211.5 99.1667,211.5 98.5,211.5C 97.5,210.167 96.5,208.833 95.5,207.5 Z"/></g>
<g><path style="opacity:1" fill="#dc4e41" d="M 235.5,203.5 C 239.617,206.068 243.617,208.902 247.5,212C 249.689,212.322 251.689,211.822 253.5,210.5C 251.982,212.772 249.815,214.105 247,214.5C 243.803,212.333 240.97,209.833 238.5,207C 237.552,206.517 236.552,206.351 235.5,206.5C 235.5,205.5 235.5,204.5 235.5,203.5 Z"/></g>
<g><path style="opacity:1" fill="#9d4148" d="M 100.5,211.5 C 102.027,211.427 103.027,212.094 103.5,213.5C 102.833,213.5 102.167,213.5 101.5,213.5C 101.167,212.833 100.833,212.167 100.5,211.5 Z"/></g>
<g><path style="opacity:1" fill="#a07ead" d="M 98.5,211.5 C 99.1667,211.5 99.8333,211.5 100.5,211.5C 100.833,212.167 101.167,212.833 101.5,213.5C 99.9731,213.573 98.9731,212.906 98.5,211.5 Z"/></g>
<g><path style="opacity:1" fill="#e64a24" d="M 351.5,137.5 C 351.5,173.167 351.5,208.833 351.5,244.5C 351.5,244.833 351.5,245.167 351.5,245.5C 350.839,244.282 350.172,242.949 349.5,241.5C 348.667,212.506 348.167,183.506 348,154.5C 347.304,151.522 346.804,148.522 346.5,145.5C 346.351,144.448 346.517,143.448 347,142.5C 349.022,141.198 350.522,139.532 351.5,137.5 Z"/></g>
<g><path style="opacity:1" fill="#8975a6" d="M 101.5,213.5 C 102.167,213.5 102.833,213.5 103.5,213.5C 103.833,214.167 104.167,214.833 104.5,215.5C 102.821,215.715 101.821,215.048 101.5,213.5 Z"/></g>
<g><path style="opacity:1" fill="#fdac1e" d="M 351.5,137.5 C 351.833,137.5 352.167,137.5 352.5,137.5C 353.522,168.478 354.855,199.478 356.5,230.5C 355.2,233.321 355.533,235.988 357.5,238.5C 356.675,239.386 355.675,239.719 354.5,239.5C 354.5,240.5 354.5,241.5 354.5,242.5C 354.027,243.906 353.027,244.573 351.5,244.5C 351.5,208.833 351.5,173.167 351.5,137.5 Z"/></g>
<g><path style="opacity:1" fill="#b7bd3d" d="M 398.5,211.5 C 396.937,212.945 395.604,214.611 394.5,216.5C 393.391,216.557 392.391,216.89 391.5,217.5C 393.234,214.763 395.568,212.763 398.5,211.5 Z"/></g>
<g><path style="opacity:1" fill="#a13e50" d="M 103.5,213.5 C 105.749,214.08 107.415,215.413 108.5,217.5C 106.938,217.267 105.605,216.6 104.5,215.5C 104.167,214.833 103.833,214.167 103.5,213.5 Z"/></g>
<g><path style="opacity:1" fill="#31a950" d="M 434.5,367.5 C 434.664,370.187 434.497,372.854 434,375.5C 432.589,377.65 431.755,379.984 431.5,382.5C 429.5,382.5 427.5,382.5 425.5,382.5C 425.762,383.978 425.429,385.311 424.5,386.5C 422.37,387.467 420.37,388.634 418.5,390C 399.503,390.5 380.503,390.667 361.5,390.5C 360.754,388.657 359.421,387.324 357.5,386.5C 358.098,385.205 358.598,383.872 359,382.5C 359.477,350.775 359.31,319.109 358.5,287.5C 357.5,287.5 356.5,287.5 355.5,287.5C 355.5,278.5 355.5,269.5 355.5,260.5C 356.833,260.5 358.167,260.5 359.5,260.5C 359.753,258.173 359.086,256.173 357.5,254.5C 361.079,252.84 361.412,250.673 358.5,248C 357.552,247.517 356.552,247.351 355.5,247.5C 354.508,247.672 353.842,247.338 353.5,246.5C 358.534,244.304 363.201,241.471 367.5,238C 369.041,236.629 370.375,235.129 371.5,233.5C 375.798,230.537 379.798,227.203 383.5,223.5C 384.167,223.167 384.833,222.833 385.5,222.5C 388.089,221.581 390.089,219.914 391.5,217.5C 392.391,216.89 393.391,216.557 394.5,216.5C 395.609,216.443 396.609,216.11 397.5,215.5C 399.017,215.511 400.184,216.177 401,217.5C 404.935,213.152 406.102,213.652 404.5,219C 405.5,219.333 406.5,219.667 407.5,220C 405.096,220.196 403.429,221.362 402.5,223.5C 403.325,224.386 404.325,224.719 405.5,224.5C 405.5,229.5 405.5,234.5 405.5,239.5C 404.127,239.343 402.793,239.51 401.5,240C 403.283,241.067 403.783,242.567 403,244.5C 401.758,246.541 399.925,247.707 397.5,248C 398.64,249.973 399.973,251.807 401.5,253.5C 401.291,254.086 400.957,254.586 400.5,255C 404.302,255.917 407.968,256.083 411.5,255.5C 411.5,254.167 411.5,252.833 411.5,251.5C 412.978,251.762 414.311,251.429 415.5,250.5C 412.569,247.367 413.235,245.2 417.5,244C 416.692,243.692 416.025,243.192 415.5,242.5C 417.216,242.003 418.883,241.669 420.5,241.5C 421.348,239.591 421.682,237.591 421.5,235.5C 419.5,235.5 417.5,235.5 415.5,235.5C 414.629,232.938 414.629,230.272 415.5,227.5C 418.707,227.876 421.373,226.876 423.5,224.5C 420.276,223.674 417.109,222.674 414,221.5C 412.674,221.755 411.674,222.422 411,223.5C 411.115,220.657 412.282,218.157 414.5,216C 418.152,215.501 421.818,215.335 425.5,215.5C 425.819,219.3 426.819,219.466 428.5,216C 429.793,215.51 431.127,215.343 432.5,215.5C 432.66,218.884 432.327,222.217 431.5,225.5C 429.851,228.651 427.851,231.485 425.5,234C 427.1,235.748 429.1,236.915 431.5,237.5C 432,238.5 432.5,239.5 433,240.5C 433.333,240.167 433.667,239.833 434,239.5C 434.5,282.165 434.667,324.832 434.5,367.5 Z"/></g>
<g><path style="opacity:1" fill="#8679b1" d="M 104.5,215.5 C 105.605,216.6 106.938,217.267 108.5,217.5C 108.833,218.167 109.167,218.833 109.5,219.5C 108.833,219.5 108.167,219.5 107.5,219.5C 105.738,218.738 104.738,217.404 104.5,215.5 Z"/></g>
<g><path style="opacity:1" fill="#9e3747" d="M 108.5,217.5 C 110.027,217.427 111.027,218.094 111.5,219.5C 111.167,219.5 110.833,219.5 110.5,219.5C 110.167,219.5 109.833,219.5 109.5,219.5C 109.167,218.833 108.833,218.167 108.5,217.5 Z"/></g>
<g><path style="opacity:1" fill="#32a751" d="M 435.5,187.5 C 435.832,247.669 435.499,307.669 434.5,367.5C 434.667,324.832 434.5,282.165 434,239.5C 433.667,239.833 433.333,240.167 433,240.5C 432.5,239.5 432,238.5 431.5,237.5C 429.1,236.915 427.1,235.748 425.5,234C 427.851,231.485 429.851,228.651 431.5,225.5C 432.327,222.217 432.66,218.884 432.5,215.5C 431.127,215.343 429.793,215.51 428.5,216C 426.819,219.466 425.819,219.3 425.5,215.5C 421.818,215.335 418.152,215.501 414.5,216C 412.282,218.157 411.115,220.657 411,223.5C 411.674,222.422 412.674,221.755 414,221.5C 417.109,222.674 420.276,223.674 423.5,224.5C 421.373,226.876 418.707,227.876 415.5,227.5C 414.629,230.272 414.629,232.938 415.5,235.5C 417.5,235.5 419.5,235.5 421.5,235.5C 421.682,237.591 421.348,239.591 420.5,241.5C 418.883,241.669 417.216,242.003 415.5,242.5C 416.025,243.192 416.692,243.692 417.5,244C 413.235,245.2 412.569,247.367 415.5,250.5C 414.311,251.429 412.978,251.762 411.5,251.5C 411.5,252.833 411.5,254.167 411.5,255.5C 407.968,256.083 404.302,255.917 400.5,255C 400.957,254.586 401.291,254.086 401.5,253.5C 399.973,251.807 398.64,249.973 397.5,248C 399.925,247.707 401.758,246.541 403,244.5C 403.783,242.567 403.283,241.067 401.5,240C 402.793,239.51 404.127,239.343 405.5,239.5C 405.5,234.5 405.5,229.5 405.5,224.5C 404.325,224.719 403.325,224.386 402.5,223.5C 403.429,221.362 405.096,220.196 407.5,220C 406.5,219.667 405.5,219.333 404.5,219C 406.102,213.652 404.935,213.152 401,217.5C 400.184,216.177 399.017,215.511 397.5,215.5C 402.197,212.981 406.197,209.481 409.5,205C 410.833,204.667 412.167,204.333 413.5,204C 416.529,201.36 419.195,198.527 421.5,195.5C 422.873,195.657 424.207,195.49 425.5,195C 428.167,191.484 431.501,188.984 435.5,187.5 Z"/></g>
<g><path style="opacity:1" fill="#83ae3f" d="M 391.5,217.5 C 390.089,219.914 388.089,221.581 385.5,222.5C 385.833,221.833 386.167,221.167 386.5,220.5C 387.922,219.075 389.589,218.075 391.5,217.5 Z"/></g>
<g><path style="opacity:1" fill="#9a73a6" d="M 110.5,219.5 C 110.833,219.5 111.167,219.5 111.5,219.5C 111.5,220.167 111.833,220.5 112.5,220.5C 113.167,221.5 113.833,222.5 114.5,223.5C 112.167,223.167 110.833,221.833 110.5,219.5 Z"/></g>
<g><path style="opacity:1" fill="#a44b63" d="M 112.5,220.5 C 114.404,220.738 115.738,221.738 116.5,223.5C 116.167,223.5 115.833,223.5 115.5,223.5C 115.167,223.5 114.833,223.5 114.5,223.5C 113.833,222.5 113.167,221.5 112.5,220.5 Z"/></g>
<g><path style="opacity:1" fill="#f3bf0f" d="M 422.5,191.5 C 418.209,195.973 413.543,199.973 408.5,203.5C 407.833,204.833 406.833,205.833 405.5,206.5C 402.865,207.473 400.865,209.14 399.5,211.5C 399.167,211.5 398.833,211.5 398.5,211.5C 395.568,212.763 393.234,214.763 391.5,217.5C 389.589,218.075 387.922,219.075 386.5,220.5C 384.034,221.298 382.034,222.631 380.5,224.5C 378.167,226.5 375.833,228.5 373.5,230.5C 371.517,231.471 369.517,232.471 367.5,233.5C 367.157,231.517 367.824,230.183 369.5,229.5C 370.833,229.5 372.167,229.5 373.5,229.5C 373.447,226.86 372.78,224.36 371.5,222C 371.625,220.373 372.125,218.873 373,217.5C 374.085,215.343 375.251,215.176 376.5,217C 375.446,218.388 375.28,219.888 376,221.5C 379.267,219.899 382.767,219.066 386.5,219C 387.427,216.03 389.427,214.197 392.5,213.5C 391.675,212.614 390.675,212.281 389.5,212.5C 389.5,211.5 389.5,210.5 389.5,209.5C 391.167,209.5 392.833,209.5 394.5,209.5C 394.5,207.833 394.5,206.167 394.5,204.5C 397.11,205.502 399.776,205.335 402.5,204C 403.264,201.931 403.764,199.764 404,197.5C 404.414,197.043 404.914,196.709 405.5,196.5C 406.695,198.297 408.362,199.297 410.5,199.5C 410.687,197.436 411.187,195.436 412,193.5C 413.324,192.12 414.657,191.786 416,192.5C 416.333,191.167 416.667,189.833 417,188.5C 418.462,190.148 420.295,191.148 422.5,191.5 Z"/></g>
<g><path style="opacity:1" fill="#cfca35" d="M 386.5,220.5 C 386.167,221.167 385.833,221.833 385.5,222.5C 384.833,222.833 384.167,223.167 383.5,223.5C 382.391,223.557 381.391,223.89 380.5,224.5C 382.034,222.631 384.034,221.298 386.5,220.5 Z"/></g>
<g><path style="opacity:1" fill="#5d7fdf" d="M 107.5,219.5 C 108.167,219.5 108.833,219.5 109.5,219.5C 109.833,219.5 110.167,219.5 110.5,219.5C 110.833,221.833 112.167,223.167 114.5,223.5C 114.833,223.5 115.167,223.5 115.5,223.5C 115.488,226.142 116.821,227.475 119.5,227.5C 120.167,227.5 120.833,227.5 121.5,227.5C 122.911,229.914 124.911,231.581 127.5,232.5C 127.5,232.833 127.5,233.167 127.5,233.5C 127.5,233.833 127.5,234.167 127.5,234.5C 125.833,234.5 124.167,234.5 122.5,234.5C 122.709,232.286 121.876,230.619 120,229.5C 117.361,228.006 114.528,227.339 111.5,227.5C 111.5,226.5 111.5,225.5 111.5,224.5C 108.09,224.616 106.756,222.95 107.5,219.5 Z"/></g>
<g><path style="opacity:1" fill="#8a73ba" d="M 115.5,223.5 C 115.833,223.5 116.167,223.5 116.5,223.5C 117.5,224.833 118.5,226.167 119.5,227.5C 116.821,227.475 115.488,226.142 115.5,223.5 Z"/></g>
<g><path style="opacity:1" fill="#a14564" d="M 116.5,223.5 C 118.749,224.08 120.415,225.413 121.5,227.5C 120.833,227.5 120.167,227.5 119.5,227.5C 118.5,226.167 117.5,224.833 116.5,223.5 Z"/></g>
<g><path style="opacity:1" fill="#a35174" d="M 121.5,227.5 C 123.411,228.075 125.078,229.075 126.5,230.5C 126.833,231.167 127.167,231.833 127.5,232.5C 124.911,231.581 122.911,229.914 121.5,227.5 Z"/></g>
<g><path style="opacity:1" fill="#a83441" d="M 126.5,230.5 C 128.434,231.11 130.101,232.11 131.5,233.5C 130.833,233.5 130.167,233.5 129.5,233.5C 128.833,233.5 128.167,233.5 127.5,233.5C 127.5,233.167 127.5,232.833 127.5,232.5C 127.167,231.833 126.833,231.167 126.5,230.5 Z"/></g>
<g><path style="opacity:1" fill="#7baa42" d="M 383.5,223.5 C 379.798,227.203 375.798,230.537 371.5,233.5C 372.167,232.5 372.833,231.5 373.5,230.5C 375.833,228.5 378.167,226.5 380.5,224.5C 381.391,223.89 382.391,223.557 383.5,223.5 Z"/></g>
<g><path style="opacity:1" fill="#a55471" d="M 129.5,233.5 C 130.167,233.5 130.833,233.5 131.5,233.5C 132.167,234.833 133.167,235.833 134.5,236.5C 134.5,236.833 134.5,237.167 134.5,237.5C 132.251,236.92 130.585,235.587 129.5,233.5 Z"/></g>
<g><path style="opacity:1" fill="#d1c430" d="M 373.5,230.5 C 372.833,231.5 372.167,232.5 371.5,233.5C 367.823,236.34 363.823,238.673 359.5,240.5C 360.941,236.723 363.608,234.39 367.5,233.5C 369.517,232.471 371.517,231.471 373.5,230.5 Z"/></g>
<g><path style="opacity:1" fill="#797ac7" d="M 127.5,233.5 C 128.167,233.5 128.833,233.5 129.5,233.5C 130.585,235.587 132.251,236.92 134.5,237.5C 136.833,239.167 138.833,241.167 140.5,243.5C 137.584,241.125 134.251,239.291 130.5,238C 128.937,237.241 127.937,236.074 127.5,234.5C 127.5,234.167 127.5,233.833 127.5,233.5 Z"/></g>
<g><path style="opacity:1" fill="#68a740" d="M 371.5,233.5 C 370.375,235.129 369.041,236.629 367.5,238C 363.201,241.471 358.534,244.304 353.5,246.5C 355.194,244.139 357.194,242.139 359.5,240.5C 363.823,238.673 367.823,236.34 371.5,233.5 Z"/></g>
<g><path style="opacity:1" fill="#b83d43" d="M 134.5,237.5 C 134.5,237.167 134.5,236.833 134.5,236.5C 139.071,238.254 143.071,240.921 146.5,244.5C 148.522,245.507 149.855,247.174 150.5,249.5C 148.973,249.573 147.973,248.906 147.5,247.5C 146.652,245.907 145.319,244.74 143.5,244C 142.552,243.517 141.552,243.351 140.5,243.5C 138.833,241.167 136.833,239.167 134.5,237.5 Z"/></g>
<g><path style="opacity:1" fill="#a36fa5" d="M 140.5,243.5 C 141.552,243.351 142.552,243.517 143.5,244C 145.319,244.74 146.652,245.907 147.5,247.5C 147.167,247.5 146.833,247.5 146.5,247.5C 146.167,247.5 145.833,247.5 145.5,247.5C 144.833,247.167 144.167,246.833 143.5,246.5C 142.694,245.272 141.694,244.272 140.5,243.5 Z"/></g>
<g><path style="opacity:1" fill="#d1be45" d="M 359.5,240.5 C 357.194,242.139 355.194,244.139 353.5,246.5C 353.167,246.5 352.833,246.5 352.5,246.5C 352.167,246.5 351.833,246.5 351.5,246.5C 351.5,246.167 351.5,245.833 351.5,245.5C 351.5,245.167 351.5,244.833 351.5,244.5C 353.027,244.573 354.027,243.906 354.5,242.5C 355.82,241.058 357.486,240.392 359.5,240.5 Z"/></g>
<g><path style="opacity:1" fill="#d6554e" d="M 351.5,246.5 C 351.5,246.833 351.5,247.167 351.5,247.5C 350.833,247.833 350.167,248.167 349.5,248.5C 347.938,248.733 346.605,249.4 345.5,250.5C 346.122,247.224 348.122,245.891 351.5,246.5 Z"/></g>
<g><path style="opacity:0.831" fill="#df776f" d="M 150.5,249.5 C 152.027,249.427 153.027,250.094 153.5,251.5C 152.833,251.5 152.167,251.5 151.5,251.5C 151.167,250.833 150.833,250.167 150.5,249.5 Z"/></g>
<g><path style="opacity:1" fill="#d26a5c" d="M 153.5,251.5 C 155.749,252.08 157.415,253.413 158.5,255.5C 156.251,254.92 154.585,253.587 153.5,251.5 Z"/></g>
<g><path style="opacity:0.98" fill="#d45d54" d="M 344.5,251.5 C 343.421,253.543 341.754,254.876 339.5,255.5C 340.265,253.071 341.931,251.738 344.5,251.5 Z"/></g>
<g><path style="opacity:0.165" fill="#fdd7d5" d="M 151.5,251.5 C 152.167,251.5 152.833,251.5 153.5,251.5C 154.585,253.587 156.251,254.92 158.5,255.5C 159.945,257.063 161.611,258.396 163.5,259.5C 163.833,260.167 164.167,260.833 164.5,261.5C 159.591,258.926 155.258,255.592 151.5,251.5 Z"/></g>
<g><path style="opacity:0.349" fill="#f8bbb3" d="M 349.5,248.5 C 349.167,249.167 348.833,249.833 348.5,250.5C 343.786,254.546 338.786,258.212 333.5,261.5C 334.167,260.5 334.833,259.5 335.5,258.5C 336.436,257.026 337.77,256.026 339.5,255.5C 341.754,254.876 343.421,253.543 344.5,251.5C 344.5,250.833 344.833,250.5 345.5,250.5C 346.605,249.4 347.938,248.733 349.5,248.5 Z"/></g>
<g><path style="opacity:1" fill="#419f5c" d="M 436.5,185.5 C 436.5,248.167 436.5,310.833 436.5,373.5C 435.087,376.661 433.42,379.661 431.5,382.5C 431.755,379.984 432.589,377.65 434,375.5C 434.497,372.854 434.664,370.187 434.5,367.5C 435.499,307.669 435.832,247.669 435.5,187.5C 435.328,186.508 435.662,185.842 436.5,185.5 Z"/></g>
<g><path style="opacity:1" fill="#d95d58" d="M 158.5,255.5 C 161.95,254.756 163.616,256.09 163.5,259.5C 161.611,258.396 159.945,257.063 158.5,255.5 Z"/></g>
<g><path style="opacity:0.835" fill="#db7b6b" d="M 163.5,259.5 C 165.027,259.427 166.027,260.094 166.5,261.5C 165.833,261.5 165.167,261.5 164.5,261.5C 164.167,260.833 163.833,260.167 163.5,259.5 Z"/></g>
<g><path style="opacity:0.482" fill="#e8968b" d="M 335.5,258.5 C 334.833,259.5 334.167,260.5 333.5,261.5C 333.5,262.167 333.167,262.5 332.5,262.5C 330.973,262.427 329.973,263.094 329.5,264.5C 329.5,265.167 329.167,265.5 328.5,265.5C 328.167,265.5 327.833,265.5 327.5,265.5C 327.5,265.167 327.5,264.833 327.5,264.5C 329.8,262.016 332.467,260.016 335.5,258.5 Z"/></g>
<g><path style="opacity:0.384" fill="#fad3c2" d="M 164.5,261.5 C 165.167,261.5 165.833,261.5 166.5,261.5C 167.167,262.5 167.833,263.5 168.5,264.5C 166.596,264.262 165.262,263.262 164.5,261.5 Z"/></g>
<g><path style="opacity:1" fill="#d76154" d="M 166.5,261.5 C 173.237,263.564 178.571,267.564 182.5,273.5C 181.833,273.5 181.167,273.5 180.5,273.5C 179.738,271.738 178.404,270.738 176.5,270.5C 175.738,268.738 174.404,267.738 172.5,267.5C 171.738,265.738 170.404,264.738 168.5,264.5C 167.833,263.5 167.167,262.5 166.5,261.5 Z"/></g>
<g><path style="opacity:0.012" fill="#ffede5" d="M 332.5,262.5 C 332.027,263.906 331.027,264.573 329.5,264.5C 329.973,263.094 330.973,262.427 332.5,262.5 Z"/></g>
<g><path style="opacity:0.267" fill="#fddbcb" d="M 168.5,264.5 C 170.404,264.738 171.738,265.738 172.5,267.5C 170.596,267.262 169.262,266.262 168.5,264.5 Z"/></g>
<g><path style="opacity:1" fill="#e1493a" d="M 320.5,266.5 C 320.167,267.833 319.833,269.167 319.5,270.5C 317.795,272.192 315.795,273.525 313.5,274.5C 313.101,269.268 315.435,266.601 320.5,266.5 Z"/></g>
<g><path style="opacity:1" fill="#d55e50" d="M 327.5,264.5 C 327.5,264.833 327.5,265.167 327.5,265.5C 325.174,266.145 323.507,267.478 322.5,269.5C 321.391,269.557 320.391,269.89 319.5,270.5C 319.833,269.167 320.167,267.833 320.5,266.5C 322.833,265.833 325.167,265.167 327.5,264.5 Z"/></g>
<g><path style="opacity:0.263" fill="#f9cbbe" d="M 327.5,265.5 C 327.833,265.5 328.167,265.5 328.5,265.5C 326.853,267.326 324.853,268.66 322.5,269.5C 323.507,267.478 325.174,266.145 327.5,265.5 Z"/></g>
<g><path style="opacity:0.188" fill="#ffe1db" d="M 172.5,267.5 C 174.404,267.738 175.738,268.738 176.5,270.5C 174.596,270.262 173.262,269.262 172.5,267.5 Z"/></g>
<g><path style="opacity:0.051" fill="#e7fbfd" d="M 146.5,247.5 C 146.833,247.5 147.167,247.5 147.5,247.5C 147.973,248.906 148.973,249.573 150.5,249.5C 150.833,250.167 151.167,250.833 151.5,251.5C 150.417,251.461 149.417,251.127 148.5,250.5C 147.833,297.998 147.167,345.332 146.5,392.5C 146.5,344.167 146.5,295.833 146.5,247.5 Z"/></g>
<g><path style="opacity:0.384" fill="#f5c3bf" d="M 176.5,270.5 C 178.404,270.738 179.738,271.738 180.5,273.5C 178.596,273.262 177.262,272.262 176.5,270.5 Z"/></g>
<g><path style="opacity:0.914" fill="#e27b76" d="M 182.5,273.5 C 184.404,273.738 185.738,274.738 186.5,276.5C 185.833,276.5 185.167,276.5 184.5,276.5C 183.833,275.5 183.167,274.5 182.5,273.5 Z"/></g>
<g><path style="opacity:0.251" fill="#fed6d3" d="M 180.5,273.5 C 181.167,273.5 181.833,273.5 182.5,273.5C 183.167,274.5 183.833,275.5 184.5,276.5C 182.596,276.262 181.262,275.262 180.5,273.5 Z"/></g>
<g><path style="opacity:0.078" fill="#f9c6bf" d="M 322.5,269.5 C 315.354,276.647 307.354,282.647 298.5,287.5C 298.5,287.167 298.5,286.833 298.5,286.5C 300.521,285.145 302.188,283.479 303.5,281.5C 307.833,280.609 311.166,278.276 313.5,274.5C 315.795,273.525 317.795,272.192 319.5,270.5C 320.391,269.89 321.391,269.557 322.5,269.5 Z"/></g>
<g><path style="opacity:0.337" fill="#f7ccc1" d="M 184.5,276.5 C 185.167,276.5 185.833,276.5 186.5,276.5C 187.167,277.5 187.833,278.5 188.5,279.5C 186.596,279.262 185.262,278.262 184.5,276.5 Z"/></g>
<g><path style="opacity:1" fill="#5082dd" d="M 63.5,187.5 C 62.3347,248.999 62.168,310.665 63,372.5C 63.5046,374.518 64.0046,376.518 64.5,378.5C 63.0652,377.087 62.0652,375.42 61.5,373.5C 61.1667,311.163 61.5,248.83 62.5,186.5C 63.1067,186.624 63.44,186.957 63.5,187.5 Z"/></g>
<g><path style="opacity:1" fill="#dc5850" d="M 313.5,274.5 C 311.166,278.276 307.833,280.609 303.5,281.5C 303.414,280.504 303.748,279.671 304.5,279C 307.89,278.068 310.89,276.568 313.5,274.5 Z"/></g>
<g><path style="opacity:0.204" fill="#ffe0db" d="M 188.5,279.5 C 190.404,279.738 191.738,280.738 192.5,282.5C 190.596,282.262 189.262,281.262 188.5,279.5 Z"/></g>
<g><path style="opacity:0.369" fill="#fecaca" d="M 192.5,282.5 C 194.404,282.738 195.738,283.738 196.5,285.5C 194.596,285.262 193.262,284.262 192.5,282.5 Z"/></g>
<g><path style="opacity:1" fill="#df5c50" d="M 186.5,276.5 C 187.873,276.343 189.207,276.51 190.5,277C 194.06,280.384 198.06,283.217 202.5,285.5C 204.741,287.452 206.741,289.618 208.5,292C 211.625,292.625 213.625,294.459 214.5,297.5C 213.833,297.5 213.167,297.5 212.5,297.5C 212.027,296.094 211.027,295.427 209.5,295.5C 208.415,293.413 206.749,292.08 204.5,291.5C 203.738,289.738 202.404,288.738 200.5,288.5C 199.738,286.738 198.404,285.738 196.5,285.5C 195.738,283.738 194.404,282.738 192.5,282.5C 191.738,280.738 190.404,279.738 188.5,279.5C 187.833,278.5 187.167,277.5 186.5,276.5 Z"/></g>
<g><path style="opacity:0.078" fill="#dbfee6" d="M 351.5,247.5 C 351.5,295.833 351.5,344.167 351.5,392.5C 351.5,392.833 351.5,393.167 351.5,393.5C 351.165,345.658 350.165,297.991 348.5,250.5C 348.833,249.833 349.167,249.167 349.5,248.5C 350.167,248.167 350.833,247.833 351.5,247.5 Z"/></g>
<g><path style="opacity:0.388" fill="#fecdc9" d="M 196.5,285.5 C 198.404,285.738 199.738,286.738 200.5,288.5C 198.596,288.262 197.262,287.262 196.5,285.5 Z"/></g>
<g><path style="opacity:0.996" fill="#d56653" d="M 298.5,286.5 C 298.5,286.833 298.5,287.167 298.5,287.5C 298.5,288.167 298.167,288.5 297.5,288.5C 295.5,289.167 293.5,289.833 291.5,290.5C 293.046,288.069 295.379,286.736 298.5,286.5 Z"/></g>
<g><path style="opacity:0.286" fill="#ffd7d3" d="M 200.5,288.5 C 202.404,288.738 203.738,289.738 204.5,291.5C 202.596,291.262 201.262,290.262 200.5,288.5 Z"/></g>
<g><path style="opacity:0.282" fill="#fcd3c7" d="M 204.5,291.5 C 206.749,292.08 208.415,293.413 209.5,295.5C 207.251,294.92 205.585,293.587 204.5,291.5 Z"/></g>
<g><path style="opacity:0.094" fill="#fedace" d="M 209.5,295.5 C 211.027,295.427 212.027,296.094 212.5,297.5C 210.973,297.573 209.973,296.906 209.5,295.5 Z"/></g>
<g><path style="opacity:0.267" fill="#ffd4d3" d="M 212.5,297.5 C 213.167,297.5 213.833,297.5 214.5,297.5C 215.5,298.833 216.5,300.167 217.5,301.5C 215.251,300.92 213.585,299.587 212.5,297.5 Z"/></g>
<g><path style="opacity:0.216" fill="#f8c0b8" d="M 297.5,288.5 C 289.475,295.186 281.141,301.519 272.5,307.5C 272.167,307.5 271.833,307.5 271.5,307.5C 271.427,305.973 272.094,304.973 273.5,304.5C 277.082,302.88 280.082,300.547 282.5,297.5C 286.363,296.306 289.363,293.973 291.5,290.5C 293.5,289.833 295.5,289.167 297.5,288.5 Z"/></g>
<g><path style="opacity:0.826" fill="#66aa79" d="M 351.5,246.5 C 351.833,246.5 352.167,246.5 352.5,246.5C 352.172,295.239 352.505,343.905 353.5,392.5C 352.833,392.5 352.167,392.5 351.5,392.5C 351.5,344.167 351.5,295.833 351.5,247.5C 351.5,247.167 351.5,246.833 351.5,246.5 Z"/></g>
<g><path style="opacity:0.925" fill="#d15649" d="M 282.5,297.5 C 280.082,300.547 277.082,302.88 273.5,304.5C 275.623,301.044 278.623,298.711 282.5,297.5 Z"/></g>
<g><path style="opacity:1" fill="#d6635a" d="M 214.5,297.5 C 216.911,299.219 219.577,300.552 222.5,301.5C 222.863,302.183 223.196,302.85 223.5,303.5C 221.5,302.833 219.5,302.167 217.5,301.5C 216.5,300.167 215.5,298.833 214.5,297.5 Z"/></g>
<g><path style="opacity:0.125" fill="#fddbd6" d="M 217.5,301.5 C 219.5,302.167 221.5,302.833 223.5,303.5C 223.5,303.833 223.5,304.167 223.5,304.5C 224.167,305.5 224.833,306.5 225.5,307.5C 222.545,305.878 219.878,303.878 217.5,301.5 Z"/></g>
<g><path style="opacity:0.957" fill="#db7d7a" d="M 223.5,304.5 C 225.404,304.738 226.738,305.738 227.5,307.5C 226.833,307.5 226.167,307.5 225.5,307.5C 224.833,306.5 224.167,305.5 223.5,304.5 Z"/></g>
<g><path style="opacity:1" fill="#d95a51" d="M 223.5,304.5 C 223.5,304.167 223.5,303.833 223.5,303.5C 224.978,303.238 226.311,303.571 227.5,304.5C 230.026,306.418 232.026,308.751 233.5,311.5C 231.833,310.833 230.167,310.167 228.5,309.5C 228.167,308.833 227.833,308.167 227.5,307.5C 226.738,305.738 225.404,304.738 223.5,304.5 Z"/></g>
<g><path style="opacity:0.898" fill="#db7269" d="M 270.5,307.5 C 270.167,308.167 269.833,308.833 269.5,309.5C 268.833,309.5 268.167,309.5 267.5,309.5C 267.821,307.952 268.821,307.285 270.5,307.5 Z"/></g>
<g><path style="opacity:0.114" fill="#fee0da" d="M 225.5,307.5 C 226.167,307.5 226.833,307.5 227.5,307.5C 227.833,308.167 228.167,308.833 228.5,309.5C 226.973,309.573 225.973,308.906 225.5,307.5 Z"/></g>
<g><path style="opacity:0.012" fill="#ffe8e8" d="M 270.5,307.5 C 270.833,307.5 271.167,307.5 271.5,307.5C 271.833,307.5 272.167,307.5 272.5,307.5C 272.027,308.906 271.027,309.573 269.5,309.5C 269.833,308.833 270.167,308.167 270.5,307.5 Z"/></g>
<g><path style="opacity:0.039" fill="#fbd8ce" d="M 228.5,309.5 C 230.167,310.167 231.833,310.833 233.5,311.5C 234.5,312.833 235.5,314.167 236.5,315.5C 233.467,313.984 230.8,311.984 228.5,309.5 Z"/></g>
<g><path style="opacity:0.82" fill="#d87e6c" d="M 233.5,311.5 C 235.749,312.08 237.415,313.413 238.5,315.5C 237.833,315.5 237.167,315.5 236.5,315.5C 235.5,314.167 234.5,312.833 233.5,311.5 Z"/></g>
<g><path style="opacity:0.412" fill="#fad2c9" d="M 236.5,315.5 C 237.167,315.5 237.833,315.5 238.5,315.5C 239.5,316.833 240.5,318.167 241.5,319.5C 239.251,318.92 237.585,317.587 236.5,315.5 Z"/></g>
<g><path style="opacity:1" fill="#d76158" d="M 238.5,315.5 C 242.589,315.588 245.256,317.588 246.5,321.5C 245.833,321.5 245.167,321.5 244.5,321.5C 244.179,319.952 243.179,319.285 241.5,319.5C 240.5,318.167 239.5,316.833 238.5,315.5 Z"/></g>
<g><path style="opacity:1" fill="#d45b4b" d="M 265.5,310.5 C 261.833,313.833 258.167,317.167 254.5,320.5C 253.391,320.557 252.391,320.89 251.5,321.5C 251.5,320.167 251.5,318.833 251.5,317.5C 256.387,315.615 261.053,313.282 265.5,310.5 Z"/></g>
<g><path style="opacity:0.251" fill="#f8cabd" d="M 267.5,309.5 C 268.167,309.5 268.833,309.5 269.5,309.5C 264.786,313.546 259.786,317.212 254.5,320.5C 258.167,317.167 261.833,313.833 265.5,310.5C 266.167,310.167 266.833,309.833 267.5,309.5 Z"/></g>
<g><path style="opacity:1" fill="#42a15d" d="M 352.5,246.5 C 352.833,246.5 353.167,246.5 353.5,246.5C 353.842,247.338 354.508,247.672 355.5,247.5C 355.436,251.22 354.936,254.886 354,258.5C 353.5,302.499 353.333,346.499 353.5,390.5C 356.167,390.5 358.833,390.5 361.5,390.5C 380.503,390.667 399.503,390.5 418.5,390C 420.37,388.634 422.37,387.467 424.5,386.5C 425.429,385.311 425.762,383.978 425.5,382.5C 427.5,382.5 429.5,382.5 431.5,382.5C 428.079,387.386 423.412,390.553 417.5,392C 396.169,392.5 374.836,392.667 353.5,392.5C 352.505,343.905 352.172,295.239 352.5,246.5 Z"/></g>
<g><path style="opacity:0.647" fill="#a1d1aa" d="M 437.5,139.5 C 438.831,217.402 438.831,295.402 437.5,373.5C 437.167,373.5 436.833,373.5 436.5,373.5C 436.5,310.833 436.5,248.167 436.5,185.5C 436.5,185.167 436.5,184.833 436.5,184.5C 437.483,169.578 437.816,154.578 437.5,139.5 Z"/></g>
<g><path style="opacity:0.078" fill="#fed8d9" d="M 241.5,319.5 C 243.179,319.285 244.179,319.952 244.5,321.5C 242.973,321.573 241.973,320.906 241.5,319.5 Z"/></g>
<g><path style="opacity:1" fill="#31a856" d="M 355.5,247.5 C 356.552,247.351 357.552,247.517 358.5,248C 361.412,250.673 361.079,252.84 357.5,254.5C 359.086,256.173 359.753,258.173 359.5,260.5C 358.167,260.5 356.833,260.5 355.5,260.5C 355.5,269.5 355.5,278.5 355.5,287.5C 356.5,287.5 357.5,287.5 358.5,287.5C 359.31,319.109 359.477,350.775 359,382.5C 358.598,383.872 358.098,385.205 357.5,386.5C 359.421,387.324 360.754,388.657 361.5,390.5C 358.833,390.5 356.167,390.5 353.5,390.5C 353.333,346.499 353.5,302.499 354,258.5C 354.936,254.886 355.436,251.22 355.5,247.5 Z"/></g>
<g><path style="opacity:0.957" fill="#db7b79" d="M 246.5,321.5 C 248.167,321.5 249.833,321.5 251.5,321.5C 251.167,322.167 250.833,322.833 250.5,323.5C 249.5,324.833 248.5,324.833 247.5,323.5C 247.167,322.833 246.833,322.167 246.5,321.5 Z"/></g>
<g><path style="opacity:0.09" fill="#fccdcb" d="M 254.5,320.5 C 253.738,322.262 252.404,323.262 250.5,323.5C 250.833,322.833 251.167,322.167 251.5,321.5C 252.391,320.89 253.391,320.557 254.5,320.5 Z"/></g>
<g><path style="opacity:0.294" fill="#f9bec6" d="M 244.5,321.5 C 245.167,321.5 245.833,321.5 246.5,321.5C 246.833,322.167 247.167,322.833 247.5,323.5C 245.973,323.573 244.973,322.906 244.5,321.5 Z"/></g>
<g><path style="opacity:1" fill="#4f80d5" d="M 143.5,246.5 C 144.167,246.833 144.833,247.167 145.5,247.5C 145.667,294.835 145.5,342.168 145,389.5C 144.617,390.056 144.117,390.389 143.5,390.5C 144.809,342.528 144.809,294.528 143.5,246.5 Z"/></g>
<g><path style="opacity:0.153" fill="#c7e1f9" d="M 60.5,373.5 C 60.8333,373.5 61.1667,373.5 61.5,373.5C 62.0652,375.42 63.0652,377.087 64.5,378.5C 64.5,379.5 64.5,380.5 64.5,381.5C 62.127,379.421 60.7936,376.754 60.5,373.5 Z"/></g>
<g><path style="opacity:1" fill="#5e88d8" d="M 64.5,378.5 C 66.7409,379.3 67.7409,380.966 67.5,383.5C 66.5,382.833 65.5,382.167 64.5,381.5C 64.5,380.5 64.5,379.5 64.5,378.5 Z"/></g>
<g><path style="opacity:0.106" fill="#c8defc" d="M 64.5,381.5 C 65.5,382.167 66.5,382.833 67.5,383.5C 67.5,383.833 67.5,384.167 67.5,384.5C 67.5,384.833 67.5,385.167 67.5,385.5C 65.7376,384.738 64.7376,383.404 64.5,381.5 Z"/></g>
<g><path style="opacity:0.192" fill="#d0f0d6" d="M 436.5,373.5 C 436.833,373.5 437.167,373.5 437.5,373.5C 435.164,383.338 429.164,389.838 419.5,393C 396.934,394.523 374.267,394.689 351.5,393.5C 351.5,393.167 351.5,392.833 351.5,392.5C 352.167,392.5 352.833,392.5 353.5,392.5C 374.836,392.667 396.169,392.5 417.5,392C 423.412,390.553 428.079,387.386 431.5,382.5C 433.42,379.661 435.087,376.661 436.5,373.5 Z"/></g>
<g><path style="opacity:1" fill="#4b85eb" d="M 67.5,385.5 C 67.5,385.167 67.5,384.833 67.5,384.5C 70.2393,384.707 72.5726,385.707 74.5,387.5C 76.5904,385.894 78.9238,385.394 81.5,386C 81.9574,386.414 82.2907,386.914 82.5,387.5C 81.5,388.333 80.5,389.167 79.5,390C 100.831,390.5 122.164,390.667 143.5,390.5C 122.673,391.497 101.673,391.831 80.5,391.5C 75.9279,389.872 71.5946,387.872 67.5,385.5 Z"/></g>
<g><path style="opacity:0.907" fill="#678fcf" d="M 145.5,247.5 C 145.833,247.5 146.167,247.5 146.5,247.5C 146.5,295.833 146.5,344.167 146.5,392.5C 124.327,392.831 102.327,392.497 80.5,391.5C 101.673,391.831 122.673,391.497 143.5,390.5C 144.117,390.389 144.617,390.056 145,389.5C 145.5,342.168 145.667,294.835 145.5,247.5 Z"/></g>
<g><path style="opacity:0.276" fill="#bad7fd" d="M 67.5,385.5 C 71.5946,387.872 75.9279,389.872 80.5,391.5C 102.327,392.497 124.327,392.831 146.5,392.5C 124.337,393.663 102.004,393.83 79.5,393C 74.626,391.738 70.626,389.238 67.5,385.5 Z"/></g>
</svg>
