<?xml version="1.0" encoding="UTF-8"?>
<!DOCTYPE svg PUBLIC "-//W3C//DTD SVG 1.1//EN" "http://www.w3.org/Graphics/SVG/1.1/DTD/svg11.dtd">
<svg xmlns="http://www.w3.org/2000/svg" version="1.1" width="500px" height="500px" style="shape-rendering:geometricPrecision; text-rendering:geometricPrecision; image-rendering:optimizeQuality; fill-rule:evenodd; clip-rule:evenodd" xmlns:xlink="http://www.w3.org/1999/xlink">
<g><path style="opacity:0.825" fill="#d98d8d" d="M 110.5,109.5 C 110.5,109.833 110.5,110.167 110.5,110.5C 103.465,110.326 96.4648,110.659 89.5,111.5C 89.5,111.167 89.5,110.833 89.5,110.5C 93.3911,108.993 97.5578,108.326 102,108.5C 105.021,108.502 107.854,108.836 110.5,109.5 Z"/></g>
<g><path style="opacity:1" fill="#b53630" d="M 110.5,110.5 C 113.682,110.948 116.349,112.282 118.5,114.5C 112.838,112.728 107.005,111.728 101,111.5C 94.3037,112.272 87.8037,113.606 81.5,115.5C 83.7886,113.613 86.4553,112.279 89.5,111.5C 96.4648,110.659 103.465,110.326 110.5,110.5 Z"/></g>
<g><path style="opacity:0.18" fill="#fff2bf" d="M 428.5,124.5 C 424.289,120.123 419.622,116.29 414.5,113C 412.26,112.023 409.927,111.523 407.5,111.5C 406.833,111.5 406.167,111.5 405.5,111.5C 402.913,110.184 399.913,109.517 396.5,109.5C 393.5,109.667 390.5,109.833 387.5,110C 380.353,113.071 373.686,116.904 367.5,121.5C 384.507,104.67 402.84,103.17 422.5,117C 425.118,119.106 427.118,121.606 428.5,124.5 Z"/></g>
<g><path style="opacity:0.459" fill="#f7c9c2" d="M 89.5,110.5 C 89.5,110.833 89.5,111.167 89.5,111.5C 86.4553,112.279 83.7886,113.613 81.5,115.5C 80.8333,115.5 80.1667,115.5 79.5,115.5C 81.9826,112.259 85.3159,110.592 89.5,110.5 Z"/></g>
<g><path style="opacity:1" fill="#c5211a" d="M 118.5,114.5 C 123.645,117.24 128.645,120.24 133.5,123.5C 137.913,128.21 142.913,132.21 148.5,135.5C 147.846,170.627 147.18,205.627 146.5,240.5C 144.299,237.681 141.299,236.015 137.5,235.5C 135.716,235.107 134.05,234.441 132.5,233.5C 129.5,230.833 126.5,228.167 123.5,225.5C 123.586,224.504 123.252,223.671 122.5,223C 120.372,222.345 118.372,221.511 116.5,220.5C 115.089,218.086 113.089,216.419 110.5,215.5C 108.973,215.573 107.973,214.906 107.5,213.5C 106.055,211.867 104.721,210.034 103.5,208C 102.207,207.51 100.873,207.343 99.5,207.5C 99.631,206.761 99.4643,206.094 99,205.5C 97.02,204.251 95.1867,202.918 93.5,201.5C 91.86,198.851 90.1933,196.184 88.5,193.5C 86.2984,194.78 84.1317,194.78 82,193.5C 81.3632,191.697 80.1965,190.364 78.5,189.5C 79.4279,188.232 79.5946,186.899 79,185.5C 76.0337,188.265 73.367,187.932 71,184.5C 70.6258,183.584 70.1258,182.75 69.5,182C 76.1517,178.769 75.485,177.269 67.5,177.5C 67.543,165.791 67.543,154.291 67.5,143C 68.8678,141.66 70.2011,140.326 71.5,139C 70.5176,137.946 69.3509,137.446 68,137.5C 67.5172,136.552 67.3505,135.552 67.5,134.5C 67.5,133.167 67.5,131.833 67.5,130.5C 68.8195,129.058 70.4862,128.392 72.5,128.5C 72.6079,126.217 73.4412,124.217 75,122.5C 77.3722,120.297 79.5389,117.963 81.5,115.5C 87.8037,113.606 94.3037,112.272 101,111.5C 107.005,111.728 112.838,112.728 118.5,114.5 Z"/></g>
<g><path style="opacity:1" fill="#f3c441" d="M 407.5,111.5 C 409.927,111.523 412.26,112.023 414.5,113C 419.622,116.29 424.289,120.123 428.5,124.5C 430.262,125.262 431.262,126.596 431.5,128.5C 431.5,129.167 431.5,129.833 431.5,130.5C 429.5,128.5 427.5,126.5 425.5,124.5C 421.323,119.571 415.99,116.404 409.5,115C 408.177,114.184 407.511,113.017 407.5,111.5 Z"/></g>
<g><path style="opacity:1" fill="#feba02" d="M 405.5,111.5 C 406.167,111.5 406.833,111.5 407.5,111.5C 407.511,113.017 408.177,114.184 409.5,115C 415.99,116.404 421.323,119.571 425.5,124.5C 426.15,126.435 426.483,128.435 426.5,130.5C 429.488,130.155 430.821,131.488 430.5,134.5C 430.333,135.5 430.167,136.5 430,137.5C 428.333,134.833 426.667,134.833 425,137.5C 424.485,144.144 426.652,145.144 431.5,140.5C 432.791,154.859 432.791,167.193 431.5,177.5C 429.856,177.714 428.356,177.38 427,176.5C 426.667,179.5 426.333,182.5 426,185.5C 424.229,186.304 422.729,187.471 421.5,189C 417.843,188.892 414.177,188.892 410.5,189C 408.911,190.745 406.911,191.912 404.5,192.5C 406.045,193.452 407.712,193.785 409.5,193.5C 409.67,194.822 409.337,195.989 408.5,197C 405.413,198.993 403.246,198.493 402,195.5C 398.766,197.459 398.933,199.293 402.5,201C 402.167,201.333 401.833,201.667 401.5,202C 398.948,201.304 396.281,200.471 393.5,199.5C 390.729,199.082 388.729,200.082 387.5,202.5C 386.264,203.246 384.93,203.579 383.5,203.5C 383.854,205.541 383.854,207.374 383.5,209C 384.357,209.689 385.023,210.522 385.5,211.5C 384.471,211.296 383.471,211.796 382.5,213C 383.517,214.049 383.684,215.216 383,216.5C 381.901,213.961 380.234,213.295 378,214.5C 377.316,215.784 377.483,216.951 378.5,218C 376.924,217.848 375.591,217.015 374.5,215.5C 372.76,216.836 371.093,218.17 369.5,219.5C 370.767,221.371 370.767,223.204 369.5,225C 371.119,225.236 372.119,226.069 372.5,227.5C 372.167,227.5 371.833,227.5 371.5,227.5C 369.236,226.781 366.903,226.448 364.5,226.5C 365.502,229.786 364.502,232.619 361.5,235C 358.301,235.401 355.301,236.234 352.5,237.5C 352.768,239.099 352.434,240.432 351.5,241.5C 352.16,206.151 351.493,171.151 349.5,136.5C 354.936,131.399 360.936,127.066 367.5,123.5C 368.833,123.5 370.167,123.5 371.5,123.5C 371.33,122.178 371.663,121.011 372.5,120C 376.86,117.622 381.193,115.289 385.5,113C 392.092,111.671 398.759,111.171 405.5,111.5 Z"/></g>
<g><path style="opacity:1" fill="#f0c23c" d="M 405.5,111.5 C 398.759,111.171 392.092,111.671 385.5,113C 381.193,115.289 376.86,117.622 372.5,120C 371.663,121.011 371.33,122.178 371.5,123.5C 370.167,123.5 368.833,123.5 367.5,123.5C 367.5,122.833 367.5,122.167 367.5,121.5C 373.686,116.904 380.353,113.071 387.5,110C 390.5,109.833 393.5,109.667 396.5,109.5C 399.913,109.517 402.913,110.184 405.5,111.5 Z"/></g>
<g><path style="opacity:0.243" fill="#f7caca" d="M 110.5,110.5 C 110.5,110.167 110.5,109.833 110.5,109.5C 119.694,111.701 127.361,116.368 133.5,123.5C 128.645,120.24 123.645,117.24 118.5,114.5C 116.349,112.282 113.682,110.948 110.5,110.5 Z"/></g>
<g><path style="opacity:0.141" fill="#fbd7d2" d="M 79.5,115.5 C 77.4985,118.334 74.9985,120.667 72,122.5C 70.2226,125.059 68.7226,127.726 67.5,130.5C 65.9748,133.079 64.6414,135.746 63.5,138.5C 65.1715,128.117 70.5049,120.45 79.5,115.5 Z"/></g>
<g><path style="opacity:1" fill="#bd3f3a" d="M 79.5,115.5 C 80.1667,115.5 80.8333,115.5 81.5,115.5C 79.5389,117.963 77.3722,120.297 75,122.5C 73.4412,124.217 72.6079,126.217 72.5,128.5C 70.4862,128.392 68.8195,129.058 67.5,130.5C 68.7226,127.726 70.2226,125.059 72,122.5C 74.9985,120.667 77.4985,118.334 79.5,115.5 Z"/></g>
<g><path style="opacity:0.318" fill="#fdeeb5" d="M 367.5,121.5 C 367.5,122.167 367.5,122.833 367.5,123.5C 360.936,127.066 354.936,131.399 349.5,136.5C 349.167,136.5 348.833,136.5 348.5,136.5C 348.5,136.167 348.5,135.833 348.5,135.5C 354.266,130.069 360.599,125.402 367.5,121.5 Z"/></g>
<g><path style="opacity:0.286" fill="#faccc9" d="M 133.5,123.5 C 137.262,125.413 140.929,127.579 144.5,130C 149.987,134.576 155.653,138.909 161.5,143C 162.252,143.671 162.586,144.504 162.5,145.5C 157.573,142.58 152.906,139.246 148.5,135.5C 142.913,132.21 137.913,128.21 133.5,123.5 Z"/></g>
<g><path style="opacity:1" fill="#bd2622" d="M 67.5,134.5 C 67.3505,135.552 67.5172,136.552 68,137.5C 69.3509,137.446 70.5176,137.946 71.5,139C 70.2011,140.326 68.8678,141.66 67.5,143C 67.543,154.291 67.543,165.791 67.5,177.5C 75.485,177.269 76.1517,178.769 69.5,182C 70.1258,182.75 70.6258,183.584 71,184.5C 73.367,187.932 76.0337,188.265 79,185.5C 79.5946,186.899 79.4279,188.232 78.5,189.5C 80.1965,190.364 81.3632,191.697 82,193.5C 84.1317,194.78 86.2984,194.78 88.5,193.5C 90.1933,196.184 91.86,198.851 93.5,201.5C 92.8333,201.5 92.1667,201.5 91.5,201.5C 90.8333,201.5 90.1667,201.5 89.5,201.5C 89.1667,200.833 88.8333,200.167 88.5,199.5C 87.4154,197.413 85.7488,196.08 83.5,195.5C 81.1838,194.194 78.8505,192.861 76.5,191.5C 73.5271,189.194 70.8605,186.527 68.5,183.5C 67.713,181.896 66.3797,181.229 64.5,181.5C 64.3334,167.496 64.5001,153.496 65,139.5C 65.3736,137.509 66.207,135.842 67.5,134.5 Z"/></g>
<g><path style="opacity:0.267" fill="#fcd1ca" d="M 348.5,135.5 C 348.5,135.833 348.5,136.167 348.5,136.5C 333.762,147.911 318.762,158.911 303.5,169.5C 317.953,157.44 332.953,146.107 348.5,135.5 Z"/></g>
<g><path style="opacity:0.877" fill="#ba4e4c" d="M 67.5,130.5 C 67.5,131.833 67.5,133.167 67.5,134.5C 66.207,135.842 65.3736,137.509 65,139.5C 64.5001,153.496 64.3334,167.496 64.5,181.5C 66.3797,181.229 67.713,181.896 68.5,183.5C 66.8828,182.962 65.2161,182.629 63.5,182.5C 63.5,182.167 63.5,181.833 63.5,181.5C 63.5,167.167 63.5,152.833 63.5,138.5C 64.6414,135.746 65.9748,133.079 67.5,130.5 Z"/></g>
<g><path style="opacity:0.31" fill="#f4cfce" d="M 63.5,138.5 C 63.5,152.833 63.5,167.167 63.5,181.5C 62.5489,180.081 62.2155,178.415 62.5,176.5C 61.515,169.214 61.1817,162.047 61.5,155C 61.8458,149.313 62.5125,143.813 63.5,138.5 Z"/></g>
<g><path style="opacity:0.705" fill="#fadb72" d="M 433.5,136.5 C 434.268,137.263 434.768,138.263 435,139.5C 435.5,153.829 435.667,168.163 435.5,182.5C 435.167,182.5 434.833,182.5 434.5,182.5C 434.769,167.138 434.436,151.805 433.5,136.5 Z"/></g>
<g><path style="opacity:0.157" fill="#f3f6d1" d="M 431.5,128.5 C 433.656,131.437 435.156,134.771 436,138.5C 436.832,215.001 436.666,291.334 435.5,367.5C 435.5,305.833 435.5,244.167 435.5,182.5C 435.667,168.163 435.5,153.829 435,139.5C 434.768,138.263 434.268,137.263 433.5,136.5C 432.833,134.5 432.167,132.5 431.5,130.5C 431.5,129.833 431.5,129.167 431.5,128.5 Z"/></g>
<g><path style="opacity:1" fill="#e05045" d="M 348.5,136.5 C 348.833,136.5 349.167,136.5 349.5,136.5C 349.071,139.147 347.738,141.147 345.5,142.5C 342.113,145.211 338.446,147.544 334.5,149.5C 332.933,152.966 331.1,156.299 329,159.5C 327.915,158.707 326.748,158.04 325.5,157.5C 320.36,159.772 316.027,163.105 312.5,167.5C 309.788,169.523 306.788,171.023 303.5,172C 301.167,175 298.5,177.667 295.5,180C 287.492,184.38 279.825,189.213 272.5,194.5C 279.982,187.928 287.649,181.595 295.5,175.5C 298.891,174.471 301.557,172.471 303.5,169.5C 318.762,158.911 333.762,147.911 348.5,136.5 Z"/></g>
<g><path style="opacity:1" fill="#ed4131" d="M 148.5,135.5 C 152.906,139.246 157.573,142.58 162.5,145.5C 165.312,148.401 168.312,151.068 171.5,153.5C 172.455,156.456 174.455,158.456 177.5,159.5C 178.386,160.325 178.719,161.325 178.5,162.5C 181.594,163.213 184.594,164.213 187.5,165.5C 187.5,166.5 187.5,167.5 187.5,168.5C 188.552,168.351 189.552,168.517 190.5,169C 195.422,173.283 200.756,176.783 206.5,179.5C 206.014,181.807 206.014,183.973 206.5,186C 208.035,185.339 209.702,185.006 211.5,185C 214.141,187.304 216.808,189.638 219.5,192C 223.372,194.435 227.372,196.602 231.5,198.5C 235.538,201.512 239.538,204.512 243.5,207.5C 244.117,209.229 245.117,210.729 246.5,212C 250.111,212.13 253.611,212.297 257,212.5C 257.333,211.167 257.667,209.833 258,208.5C 263.39,204.275 268.223,199.608 272.5,194.5C 279.825,189.213 287.492,184.38 295.5,180C 298.5,177.667 301.167,175 303.5,172C 306.788,171.023 309.788,169.523 312.5,167.5C 316.027,163.105 320.36,159.772 325.5,157.5C 326.748,158.04 327.915,158.707 329,159.5C 331.1,156.299 332.933,152.966 334.5,149.5C 338.446,147.544 342.113,145.211 345.5,142.5C 346.504,143.683 347.338,145.016 348,146.5C 348.174,178.905 348.674,211.238 349.5,243.5C 348.211,244.637 347.211,245.97 346.5,247.5C 343.029,250.111 339.363,252.611 335.5,255C 334.748,255.671 334.414,256.504 334.5,257.5C 329.687,260.766 324.687,263.766 319.5,266.5C 317.692,266.491 316.025,266.991 314.5,268C 310.822,273.01 306.156,276.843 300.5,279.5C 299.873,280.417 299.539,281.417 299.5,282.5C 290.619,288.446 282.286,295.112 274.5,302.5C 272.692,302.491 271.025,302.991 269.5,304C 266.957,305.382 264.957,307.215 263.5,309.5C 258.294,310.298 253.627,312.298 249.5,315.5C 244.8,314.132 240.467,312.132 236.5,309.5C 233.044,307.217 229.71,304.717 226.5,302C 225.207,301.51 223.873,301.343 222.5,301.5C 221.5,300.167 220.5,298.833 219.5,297.5C 215.854,293.188 211.854,289.188 207.5,285.5C 204.72,284.543 202.053,283.376 199.5,282C 197.46,279.815 196.126,277.315 195.5,274.5C 191.818,274.409 188.651,273.076 186,270.5C 185.837,268.613 186.671,267.113 188.5,266C 186.487,264.226 184.487,264.393 182.5,266.5C 181.833,266.167 181.167,265.833 180.5,265.5C 184.434,261.402 183.434,260.402 177.5,262.5C 174.674,261.015 171.674,260.015 168.5,259.5C 168.167,258.5 167.5,257.833 166.5,257.5C 165.85,255.565 165.517,253.565 165.5,251.5C 159.038,251.691 155.371,248.691 154.5,242.5C 151.72,241.151 149.054,240.484 146.5,240.5C 147.18,205.627 147.846,170.627 148.5,135.5 Z"/></g>
<g><path style="opacity:1" fill="#da5249" d="M 171.5,153.5 C 177.23,157.025 182.563,161.025 187.5,165.5C 184.594,164.213 181.594,163.213 178.5,162.5C 178.719,161.325 178.386,160.325 177.5,159.5C 174.455,158.456 172.455,156.456 171.5,153.5 Z"/></g>
<g><path style="opacity:1" fill="#d4564a" d="M 187.5,165.5 C 193.857,170.198 200.19,174.865 206.5,179.5C 200.756,176.783 195.422,173.283 190.5,169C 189.552,168.517 188.552,168.351 187.5,168.5C 187.5,167.5 187.5,166.5 187.5,165.5 Z"/></g>
<g><path style="opacity:0.22" fill="#facbc8" d="M 303.5,169.5 C 301.557,172.471 298.891,174.471 295.5,175.5C 297.8,173.016 300.467,171.016 303.5,169.5 Z"/></g>
<g><path style="opacity:0.325" fill="#fbcec5" d="M 162.5,145.5 C 167.527,147.683 172.193,150.517 176.5,154C 200.474,172.985 224.807,191.485 249.5,209.5C 264.589,197.732 279.922,186.399 295.5,175.5C 287.649,181.595 279.982,187.928 272.5,194.5C 265.115,199.039 258.115,204.205 251.5,210C 250.167,210.667 248.833,210.667 247.5,210C 246.529,208.519 245.196,207.685 243.5,207.5C 239.538,204.512 235.538,201.512 231.5,198.5C 223.475,191.814 215.141,185.481 206.5,179.5C 200.19,174.865 193.857,170.198 187.5,165.5C 182.563,161.025 177.23,157.025 171.5,153.5C 168.312,151.068 165.312,148.401 162.5,145.5 Z"/></g>
<g><path style="opacity:1" fill="#dd4d42" d="M 206.5,179.5 C 215.141,185.481 223.475,191.814 231.5,198.5C 227.372,196.602 223.372,194.435 219.5,192C 216.808,189.638 214.141,187.304 211.5,185C 209.702,185.006 208.035,185.339 206.5,186C 206.014,183.973 206.014,181.807 206.5,179.5 Z"/></g>
<g><path style="opacity:1" fill="#e75d1d" d="M 349.5,136.5 C 351.493,171.151 352.16,206.151 351.5,241.5C 351.5,241.833 351.5,242.167 351.5,242.5C 350.833,242.833 350.167,243.167 349.5,243.5C 348.674,211.238 348.174,178.905 348,146.5C 347.338,145.016 346.504,143.683 345.5,142.5C 347.738,141.147 349.071,139.147 349.5,136.5 Z"/></g>
<g><path style="opacity:1" fill="#aabd41" d="M 428.5,186.5 C 423.838,191.99 418.171,196.157 411.5,199C 408.312,201.432 405.312,204.099 402.5,207C 401.552,207.483 400.552,207.649 399.5,207.5C 402.974,204.198 406.641,201.032 410.5,198C 412.025,196.991 413.692,196.491 415.5,196.5C 415.281,195.325 415.614,194.325 416.5,193.5C 420.514,191.144 424.514,188.811 428.5,186.5 Z"/></g>
<g><path style="opacity:1" fill="#717dc6" d="M 76.5,191.5 C 78.8505,192.861 81.1838,194.194 83.5,195.5C 84.5846,197.587 86.2512,198.92 88.5,199.5C 88.8333,200.167 89.1667,200.833 89.5,201.5C 86.646,201.076 83.9793,200.076 81.5,198.5C 80.1474,195.834 78.4807,193.501 76.5,191.5 Z"/></g>
<g><path style="opacity:1" fill="#a74c6a" d="M 83.5,195.5 C 85.7488,196.08 87.4154,197.413 88.5,199.5C 86.2512,198.92 84.5846,197.587 83.5,195.5 Z"/></g>
<g><path style="opacity:1" fill="#f8bd0d" d="M 425.5,124.5 C 427.5,126.5 429.5,128.5 431.5,130.5C 432.167,132.5 432.833,134.5 433.5,136.5C 434.436,151.805 434.769,167.138 434.5,182.5C 432.246,183.415 430.246,184.748 428.5,186.5C 424.514,188.811 420.514,191.144 416.5,193.5C 415.614,194.325 415.281,195.325 415.5,196.5C 413.692,196.491 412.025,196.991 410.5,198C 406.641,201.032 402.974,204.198 399.5,207.5C 398.564,208.974 397.23,209.974 395.5,210.5C 391.158,212.328 387.491,215.161 384.5,219C 383.167,219.333 381.833,219.667 380.5,220C 378.075,222.721 375.408,225.221 372.5,227.5C 372.119,226.069 371.119,225.236 369.5,225C 370.767,223.204 370.767,221.371 369.5,219.5C 371.093,218.17 372.76,216.836 374.5,215.5C 375.591,217.015 376.924,217.848 378.5,218C 377.483,216.951 377.316,215.784 378,214.5C 380.234,213.295 381.901,213.961 383,216.5C 383.684,215.216 383.517,214.049 382.5,213C 383.471,211.796 384.471,211.296 385.5,211.5C 385.023,210.522 384.357,209.689 383.5,209C 383.854,207.374 383.854,205.541 383.5,203.5C 384.93,203.579 386.264,203.246 387.5,202.5C 388.729,200.082 390.729,199.082 393.5,199.5C 396.281,200.471 398.948,201.304 401.5,202C 401.833,201.667 402.167,201.333 402.5,201C 398.933,199.293 398.766,197.459 402,195.5C 403.246,198.493 405.413,198.993 408.5,197C 409.337,195.989 409.67,194.822 409.5,193.5C 407.712,193.785 406.045,193.452 404.5,192.5C 406.911,191.912 408.911,190.745 410.5,189C 414.177,188.892 417.843,188.892 421.5,189C 422.729,187.471 424.229,186.304 426,185.5C 426.333,182.5 426.667,179.5 427,176.5C 428.356,177.38 429.856,177.714 431.5,177.5C 432.791,167.193 432.791,154.859 431.5,140.5C 426.652,145.144 424.485,144.144 425,137.5C 426.667,134.833 428.333,134.833 430,137.5C 430.167,136.5 430.333,135.5 430.5,134.5C 430.821,131.488 429.488,130.155 426.5,130.5C 426.483,128.435 426.15,126.435 425.5,124.5 Z"/></g>
<g><path style="opacity:1" fill="#4385f6" d="M 76.5,191.5 C 78.4807,193.501 80.1474,195.834 81.5,198.5C 83.9793,200.076 86.646,201.076 89.5,201.5C 90.1667,201.5 90.8333,201.5 91.5,201.5C 92.8333,203.167 94.1667,204.833 95.5,206.5C 97.6537,210.454 100.987,213.287 105.5,215C 107.902,219.853 111.569,222.019 116.5,221.5C 118.228,223.226 120.228,224.559 122.5,225.5C 122.511,227.017 123.177,228.184 124.5,229C 127.059,230.777 129.726,232.277 132.5,233.5C 135.633,236.144 138.299,239.311 140.5,243C 142.676,243.163 144.509,243.996 146,245.5C 146.667,292.167 146.667,338.833 146,385.5C 145.25,386.126 144.416,386.626 143.5,387C 123.836,387.5 104.169,387.667 84.5,387.5C 80.6953,386.426 77.0286,385.092 73.5,383.5C 69.9134,378.665 67.08,373.332 65,367.5C 64.5,306.834 64.3333,246.168 64.5,185.5C 68.5,187.5 72.5,189.5 76.5,191.5 Z"/></g>
<g><path style="opacity:1" fill="#a73b52" d="M 91.5,201.5 C 92.1667,201.5 92.8333,201.5 93.5,201.5C 95.1867,202.918 97.02,204.251 99,205.5C 99.4643,206.094 99.631,206.761 99.5,207.5C 98.1667,207.167 96.8333,206.833 95.5,206.5C 94.1667,204.833 92.8333,203.167 91.5,201.5 Z"/></g>
<g><path style="opacity:1" fill="#e04f45" d="M 272.5,194.5 C 268.223,199.608 263.39,204.275 258,208.5C 257.667,209.833 257.333,211.167 257,212.5C 253.611,212.297 250.111,212.13 246.5,212C 245.117,210.729 244.117,209.229 243.5,207.5C 245.196,207.685 246.529,208.519 247.5,210C 248.833,210.667 250.167,210.667 251.5,210C 258.115,204.205 265.115,199.039 272.5,194.5 Z"/></g>
<g><path style="opacity:1" fill="#a93944" d="M 99.5,207.5 C 100.873,207.343 102.207,207.51 103.5,208C 104.721,210.034 106.055,211.867 107.5,213.5C 104.434,212.04 101.768,210.04 99.5,207.5 Z"/></g>
<g><path style="opacity:1" fill="#717dc9" d="M 95.5,206.5 C 96.8333,206.833 98.1667,207.167 99.5,207.5C 101.768,210.04 104.434,212.04 107.5,213.5C 107.973,214.906 108.973,215.573 110.5,215.5C 111.911,217.914 113.911,219.581 116.5,220.5C 116.5,220.833 116.5,221.167 116.5,221.5C 111.569,222.019 107.902,219.853 105.5,215C 100.987,213.287 97.6537,210.454 95.5,206.5 Z"/></g>
<g><path style="opacity:1" fill="#32a951" d="M 434.5,182.5 C 434.5,182.833 434.5,183.167 434.5,183.5C 433.667,245.665 433.167,307.999 433,370.5C 431.252,372.135 430.085,374.135 429.5,376.5C 425.852,377.473 424.186,379.807 424.5,383.5C 424.167,383.5 423.833,383.5 423.5,383.5C 421.076,384.03 418.743,384.864 416.5,386C 395.809,386.787 375.142,386.62 354.5,385.5C 354.5,341.833 354.5,298.167 354.5,254.5C 355.5,254.5 356.5,254.5 357.5,254.5C 357.753,252.173 357.086,250.173 355.5,248.5C 356.5,247.167 357.5,245.833 358.5,244.5C 357.603,244.331 356.603,243.998 355.5,243.5C 357.188,242.479 358.521,241.145 359.5,239.5C 363.091,235.701 367.091,232.367 371.5,229.5C 380.267,224.119 388.267,217.786 395.5,210.5C 397.23,209.974 398.564,208.974 399.5,207.5C 400.552,207.649 401.552,207.483 402.5,207C 405.312,204.099 408.312,201.432 411.5,199C 418.171,196.157 423.838,191.99 428.5,186.5C 430.246,184.748 432.246,183.415 434.5,182.5 Z"/></g>
<g><path style="opacity:1" fill="#a44760" d="M 110.5,215.5 C 113.089,216.419 115.089,218.086 116.5,220.5C 113.911,219.581 111.911,217.914 110.5,215.5 Z"/></g>
<g><path style="opacity:1" fill="#a84965" d="M 116.5,221.5 C 116.5,221.167 116.5,220.833 116.5,220.5C 118.372,221.511 120.372,222.345 122.5,223C 123.252,223.671 123.586,224.504 123.5,225.5C 123.167,225.5 122.833,225.5 122.5,225.5C 120.228,224.559 118.228,223.226 116.5,221.5 Z"/></g>
<g><path style="opacity:1" fill="#b5c141" d="M 395.5,210.5 C 388.267,217.786 380.267,224.119 371.5,229.5C 371.5,228.833 371.5,228.167 371.5,227.5C 371.833,227.5 372.167,227.5 372.5,227.5C 375.408,225.221 378.075,222.721 380.5,220C 381.833,219.667 383.167,219.333 384.5,219C 387.491,215.161 391.158,212.328 395.5,210.5 Z"/></g>
<g><path style="opacity:0.047" fill="#dfdfdf" d="M 1.5,223.5 C 0.833333,226.167 0.166667,228.833 -0.5,231.5C -0.5,228.167 -0.5,224.833 -0.5,221.5C 0.221579,221.082 0.721579,220.416 1,219.5C 1.49001,220.793 1.65668,222.127 1.5,223.5 Z"/></g>
<g><path style="opacity:0.05" fill="#dfdfdf" d="M 499.5,221.5 C 499.5,224.833 499.5,228.167 499.5,231.5C 498.549,230.081 498.216,228.415 498.5,226.5C 498.324,223.273 497.657,220.273 496.5,217.5C 496.34,215.801 496.506,214.134 497,212.5C 497.973,215.579 498.806,218.579 499.5,221.5 Z"/></g>
<g><path style="opacity:1" fill="#9375b3" d="M 122.5,225.5 C 122.833,225.5 123.167,225.5 123.5,225.5C 126.5,228.167 129.5,230.833 132.5,233.5C 129.726,232.277 127.059,230.777 124.5,229C 123.177,228.184 122.511,227.017 122.5,225.5 Z"/></g>
<g><path style="opacity:0.999" fill="#151515" d="M 498.5,226.5 C 498.216,228.415 498.549,230.081 499.5,231.5C 499.5,242.167 499.5,252.833 499.5,263.5C 498.527,265.948 498.194,268.615 498.5,271.5C 497.167,256.5 497.167,241.5 498.5,226.5 Z"/></g>
<g><path style="opacity:1" fill="#459a5d" d="M 434.5,183.5 C 434.667,246.168 434.5,308.834 434,371.5C 432.878,373.407 432.045,375.407 431.5,377.5C 429.167,379.5 426.833,381.5 424.5,383.5C 424.186,379.807 425.852,377.473 429.5,376.5C 430.085,374.135 431.252,372.135 433,370.5C 433.167,307.999 433.667,245.665 434.5,183.5 Z"/></g>
<g><path style="opacity:1" fill="#e3c227" d="M 371.5,227.5 C 371.5,228.167 371.5,228.833 371.5,229.5C 367.091,232.367 363.091,235.701 359.5,239.5C 356.86,240.82 354.193,242.153 351.5,243.5C 351.5,243.167 351.5,242.833 351.5,242.5C 351.5,242.167 351.5,241.833 351.5,241.5C 352.434,240.432 352.768,239.099 352.5,237.5C 355.301,236.234 358.301,235.401 361.5,235C 364.502,232.619 365.502,229.786 364.5,226.5C 366.903,226.448 369.236,226.781 371.5,227.5 Z"/></g>
<g><path style="opacity:0.312" fill="#c7d8fe" d="M 62.5,176.5 C 62.2155,178.415 62.5489,180.081 63.5,181.5C 63.5,181.833 63.5,182.167 63.5,182.5C 63.3333,244.501 63.5,306.501 64,368.5C 65.8191,374.145 68.6524,379.145 72.5,383.5C 67.7125,380.519 64.5459,376.186 63,370.5C 62.8206,360.256 62.3206,350.09 61.5,340C 62.3078,285.236 62.6412,230.736 62.5,176.5 Z"/></g>
<g><path style="opacity:1" fill="#d84c40" d="M 137.5,235.5 C 141.299,236.015 144.299,237.681 146.5,240.5C 149.054,240.484 151.72,241.151 154.5,242.5C 155.371,248.691 159.038,251.691 165.5,251.5C 165.517,253.565 165.85,255.565 166.5,257.5C 165.167,257.167 163.833,256.833 162.5,256.5C 161.415,254.413 159.749,253.08 157.5,252.5C 157.027,251.094 156.027,250.427 154.5,250.5C 152.704,248.1 150.37,246.433 147.5,245.5C 146.918,244.069 146.085,242.736 145,241.5C 141.852,240.289 139.352,238.289 137.5,235.5 Z"/></g>
<g><path style="opacity:0.541" fill="#d68c71" d="M 351.5,242.5 C 351.5,242.833 351.5,243.167 351.5,243.5C 351.5,243.833 351.5,244.167 351.5,244.5C 350.833,244.5 350.5,244.833 350.5,245.5C 349.167,246.167 347.833,246.833 346.5,247.5C 347.211,245.97 348.211,244.637 349.5,243.5C 350.167,243.167 350.833,242.833 351.5,242.5 Z"/></g>
<g><path style="opacity:0.882" fill="#303030" d="M 496.5,217.5 C 497.657,220.273 498.324,223.273 498.5,226.5C 497.167,241.5 497.167,256.5 498.5,271.5C 498.069,275.337 497.402,279.003 496.5,282.5C 496.5,260.833 496.5,239.167 496.5,217.5 Z"/></g>
<g><path style="opacity:0.22" fill="#f6c3c0" d="M 346.5,247.5 C 346.167,248.167 345.833,248.833 345.5,249.5C 342.399,252.933 338.732,255.6 334.5,257.5C 334.414,256.504 334.748,255.671 335.5,255C 339.363,252.611 343.029,250.111 346.5,247.5 Z"/></g>
<g><path style="opacity:0.286" fill="#fdd1c3" d="M 154.5,250.5 C 156.027,250.427 157.027,251.094 157.5,252.5C 155.973,252.573 154.973,251.906 154.5,250.5 Z"/></g>
<g><path style="opacity:0.936" fill="#252525" d="M 1.5,223.5 C 1.5,240.5 1.5,257.5 1.5,274.5C 0.833333,270.833 0.166667,267.167 -0.5,263.5C -0.5,252.833 -0.5,242.167 -0.5,231.5C 0.166667,228.833 0.833333,226.167 1.5,223.5 Z"/></g>
<g><path style="opacity:0.384" fill="#ffc8c3" d="M 157.5,252.5 C 159.749,253.08 161.415,254.413 162.5,256.5C 160.251,255.92 158.585,254.587 157.5,252.5 Z"/></g>
<g><path style="opacity:1" fill="#39a75c" d="M 359.5,239.5 C 358.521,241.145 357.188,242.479 355.5,243.5C 356.603,243.998 357.603,244.331 358.5,244.5C 357.5,245.833 356.5,247.167 355.5,248.5C 357.086,250.173 357.753,252.173 357.5,254.5C 356.5,254.5 355.5,254.5 354.5,254.5C 354.5,298.167 354.5,341.833 354.5,385.5C 375.142,386.62 395.809,386.787 416.5,386C 418.743,384.864 421.076,384.03 423.5,383.5C 421.421,385.873 418.754,387.206 415.5,387.5C 394.167,387.5 372.833,387.5 351.5,387.5C 351.5,339.833 351.5,292.167 351.5,244.5C 351.5,244.167 351.5,243.833 351.5,243.5C 354.193,242.153 356.86,240.82 359.5,239.5 Z"/></g>
<g><path style="opacity:0.161" fill="#faccc7" d="M 162.5,256.5 C 163.833,256.833 165.167,257.167 166.5,257.5C 167.5,257.833 168.167,258.5 168.5,259.5C 173.795,263.46 178.795,267.793 183.5,272.5C 175.952,267.892 168.952,262.559 162.5,256.5 Z"/></g>
<g><path style="opacity:0.708" fill="#70b285" d="M 351.5,244.5 C 351.5,292.167 351.5,339.833 351.5,387.5C 372.833,387.5 394.167,387.5 415.5,387.5C 394.006,388.497 372.34,388.831 350.5,388.5C 350.5,340.833 350.5,293.167 350.5,245.5C 350.5,244.833 350.833,244.5 351.5,244.5 Z"/></g>
<g><path style="opacity:0.584" fill="#8fc89f" d="M 434.5,182.5 C 434.833,182.5 435.167,182.5 435.5,182.5C 435.5,244.167 435.5,305.833 435.5,367.5C 435.794,371.567 434.46,374.9 431.5,377.5C 432.045,375.407 432.878,373.407 434,371.5C 434.5,308.834 434.667,246.168 434.5,183.5C 434.5,183.167 434.5,182.833 434.5,182.5 Z"/></g>
<g><path style="opacity:0.059" fill="#d1d1d1" d="M -0.5,263.5 C 0.166667,267.167 0.833333,270.833 1.5,274.5C 1.65668,275.873 1.49001,277.207 1,278.5C 0.76791,277.263 0.26791,276.263 -0.5,275.5C -0.5,271.5 -0.5,267.5 -0.5,263.5 Z"/></g>
<g><path style="opacity:0.05" fill="#d2d2d2" d="M 499.5,263.5 C 499.5,268.167 499.5,272.833 499.5,277.5C 498.806,280.421 497.973,283.421 497,286.5C 496.51,285.207 496.343,283.873 496.5,282.5C 497.402,279.003 498.069,275.337 498.5,271.5C 498.194,268.615 498.527,265.948 499.5,263.5 Z"/></g>
<g><path style="opacity:0.259" fill="#ffcec8" d="M 183.5,272.5 C 186.198,272.845 188.198,274.178 189.5,276.5C 187.147,275.66 185.147,274.326 183.5,272.5 Z"/></g>
<g><path style="opacity:0.431" fill="#fbcbc8" d="M 189.5,276.5 C 191.749,277.08 193.415,278.413 194.5,280.5C 192.251,279.92 190.585,278.587 189.5,276.5 Z"/></g>
<g><path style="opacity:0.973" fill="#d55a4f" d="M 319.5,266.5 C 313.642,272.773 306.975,278.106 299.5,282.5C 299.539,281.417 299.873,280.417 300.5,279.5C 306.156,276.843 310.822,273.01 314.5,268C 316.025,266.991 317.692,266.491 319.5,266.5 Z"/></g>
<g><path style="opacity:0.118" fill="#f9cac3" d="M 334.5,257.5 C 332.098,260.215 329.432,262.715 326.5,265C 309.27,277.743 291.937,290.243 274.5,302.5C 282.286,295.112 290.619,288.446 299.5,282.5C 306.975,278.106 313.642,272.773 319.5,266.5C 324.687,263.766 329.687,260.766 334.5,257.5 Z"/></g>
<g><path style="opacity:0.872" fill="#6991e0" d="M 63.5,182.5 C 65.2161,182.629 66.8828,182.962 68.5,183.5C 70.8605,186.527 73.5271,189.194 76.5,191.5C 72.5,189.5 68.5,187.5 64.5,185.5C 64.3333,246.168 64.5,306.834 65,367.5C 67.08,373.332 69.9134,378.665 73.5,383.5C 73.1667,383.5 72.8333,383.5 72.5,383.5C 68.6524,379.145 65.8191,374.145 64,368.5C 63.5,306.501 63.3333,244.501 63.5,182.5 Z"/></g>
<g><path style="opacity:0.137" fill="#ffdddc" d="M 194.5,280.5 C 196.749,281.08 198.415,282.413 199.5,284.5C 197.251,283.92 195.585,282.587 194.5,280.5 Z"/></g>
<g><path style="opacity:0.243" fill="#f9ccc1" d="M 199.5,284.5 C 204.1,285.959 207.766,288.625 210.5,292.5C 206.268,290.6 202.601,287.933 199.5,284.5 Z"/></g>
<g><path style="opacity:1" fill="#de5a4c" d="M 168.5,259.5 C 171.674,260.015 174.674,261.015 177.5,262.5C 183.434,260.402 184.434,261.402 180.5,265.5C 181.167,265.833 181.833,266.167 182.5,266.5C 184.487,264.393 186.487,264.226 188.5,266C 186.671,267.113 185.837,268.613 186,270.5C 188.651,273.076 191.818,274.409 195.5,274.5C 196.126,277.315 197.46,279.815 199.5,282C 202.053,283.376 204.72,284.543 207.5,285.5C 211.854,289.188 215.854,293.188 219.5,297.5C 218.833,297.5 218.167,297.5 217.5,297.5C 216.508,297.672 215.842,297.338 215.5,296.5C 214.415,294.413 212.749,293.08 210.5,292.5C 207.766,288.625 204.1,285.959 199.5,284.5C 198.415,282.413 196.749,281.08 194.5,280.5C 193.415,278.413 191.749,277.08 189.5,276.5C 188.198,274.178 186.198,272.845 183.5,272.5C 178.795,267.793 173.795,263.46 168.5,259.5 Z"/></g>
<g><path style="opacity:0.275" fill="#fed6d1" d="M 210.5,292.5 C 212.749,293.08 214.415,294.413 215.5,296.5C 213.251,295.92 211.585,294.587 210.5,292.5 Z"/></g>
<g><path style="opacity:0.18" fill="#fdd8cf" d="M 217.5,297.5 C 218.167,297.5 218.833,297.5 219.5,297.5C 220.5,298.833 221.5,300.167 222.5,301.5C 220.251,300.92 218.585,299.587 217.5,297.5 Z"/></g>
<g><path style="opacity:1" fill="#eda49b" d="M 222.5,301.5 C 223.873,301.343 225.207,301.51 226.5,302C 229.71,304.717 233.044,307.217 236.5,309.5C 238.545,311.841 240.545,314.174 242.5,316.5C 235.467,311.984 228.8,306.984 222.5,301.5 Z"/></g>
<g><path style="opacity:1" fill="#da5143" d="M 236.5,309.5 C 240.467,312.132 244.8,314.132 249.5,315.5C 253.627,312.298 258.294,310.298 263.5,309.5C 259.502,311.841 255.836,314.674 252.5,318C 249.015,318.326 245.682,317.826 242.5,316.5C 240.545,314.174 238.545,311.841 236.5,309.5 Z"/></g>
<g><path style="opacity:0.106" fill="#f1aea7" d="M 274.5,302.5 C 266.493,309.162 258.16,315.495 249.5,321.5C 246.57,320.547 244.237,318.88 242.5,316.5C 245.682,317.826 249.015,318.326 252.5,318C 255.836,314.674 259.502,311.841 263.5,309.5C 264.957,307.215 266.957,305.382 269.5,304C 271.025,302.991 272.692,302.491 274.5,302.5 Z"/></g>
<g><path style="opacity:0.1" fill="#dafeea" d="M 350.5,245.5 C 350.5,293.167 350.5,340.833 350.5,388.5C 349.667,342.335 349.167,296.002 349,249.5C 348.014,248.829 346.847,248.829 345.5,249.5C 345.833,248.833 346.167,248.167 346.5,247.5C 347.833,246.833 349.167,246.167 350.5,245.5 Z"/></g>
<g><path style="opacity:0.251" fill="#cae4fe" d="M 147.5,245.5 C 150.37,246.433 152.704,248.1 154.5,250.5C 152.574,249.758 150.741,248.758 149,247.5C 148.5,294.832 148.333,342.165 148.5,389.5C 126.66,389.831 104.994,389.497 83.5,388.5C 83.8333,388.5 84.1667,388.5 84.5,388.5C 105.5,388.5 126.5,388.5 147.5,388.5C 147.5,340.833 147.5,293.167 147.5,245.5 Z"/></g>
<g><path style="opacity:0.963" fill="#5c80c6" d="M 132.5,233.5 C 134.05,234.441 135.716,235.107 137.5,235.5C 139.352,238.289 141.852,240.289 145,241.5C 146.085,242.736 146.918,244.069 147.5,245.5C 147.5,293.167 147.5,340.833 147.5,388.5C 126.5,388.5 105.5,388.5 84.5,388.5C 84.5,388.167 84.5,387.833 84.5,387.5C 104.169,387.667 123.836,387.5 143.5,387C 144.416,386.626 145.25,386.126 146,385.5C 146.667,338.833 146.667,292.167 146,245.5C 144.509,243.996 142.676,243.163 140.5,243C 138.299,239.311 135.633,236.144 132.5,233.5 Z"/></g>
<g><path style="opacity:0.894" fill="#a7c5f2" d="M 72.5,383.5 C 72.8333,383.5 73.1667,383.5 73.5,383.5C 77.0286,385.092 80.6953,386.426 84.5,387.5C 84.5,387.833 84.5,388.167 84.5,388.5C 84.1667,388.5 83.8333,388.5 83.5,388.5C 79.164,388.163 75.4974,386.496 72.5,383.5 Z"/></g>
<g><path style="opacity:0.11" fill="#d2fce1" d="M 431.5,377.5 C 428.443,383.708 423.443,387.541 416.5,389C 394.329,389.83 372.329,389.663 350.5,388.5C 372.34,388.831 394.006,388.497 415.5,387.5C 418.754,387.206 421.421,385.873 423.5,383.5C 423.833,383.5 424.167,383.5 424.5,383.5C 426.833,381.5 429.167,379.5 431.5,377.5 Z"/></g>
<g><path style="opacity:0.894" fill="#525252" d="M 217.5,496.5 C 239.167,496.5 260.833,496.5 282.5,496.5C 280.5,497.167 278.5,497.833 276.5,498.5C 275.833,498.5 275.5,498.833 275.5,499.5C 270.833,499.5 266.167,499.5 261.5,499.5C 264.977,498.677 268.644,498.177 272.5,498C 257.167,497.333 241.833,497.333 226.5,498C 229.036,498.186 231.369,498.686 233.5,499.5C 229.5,499.5 225.5,499.5 221.5,499.5C 221.5,498.833 221.167,498.5 220.5,498.5C 219.5,497.833 218.5,497.167 217.5,496.5 Z"/></g>
<g><path style="opacity:0.073" fill="#d7d7d7" d="M 217.5,496.5 C 218.5,497.167 219.5,497.833 220.5,498.5C 217.68,498.752 215.014,498.252 212.5,497C 214.134,496.506 215.801,496.34 217.5,496.5 Z"/></g>
<g><path style="opacity:1" fill="#101010" d="M 261.5,499.5 C 252.167,499.5 242.833,499.5 233.5,499.5C 231.369,498.686 229.036,498.186 226.5,498C 241.833,497.333 257.167,497.333 272.5,498C 268.644,498.177 264.977,498.677 261.5,499.5 Z"/></g>
<g><path style="opacity:0.092" fill="#dbdbdb" d="M 282.5,496.5 C 283.873,496.343 285.207,496.51 286.5,497C 283.312,498.316 279.978,498.816 276.5,498.5C 278.5,497.833 280.5,497.167 282.5,496.5 Z"/></g>
</svg>
