<?xml version="1.0" encoding="UTF-8"?>
<!DOCTYPE svg PUBLIC "-//W3C//DTD SVG 1.1//EN" "http://www.w3.org/Graphics/SVG/1.1/DTD/svg11.dtd">
<svg xmlns="http://www.w3.org/2000/svg" version="1.1" width="538px" height="538px" style="shape-rendering:geometricPrecision; text-rendering:geometricPrecision; image-rendering:optimizeQuality; fill-rule:evenodd; clip-rule:evenodd" xmlns:xlink="http://www.w3.org/1999/xlink">
<g><path style="opacity:0.998" fill="#fe4500" d="M 245.5,-0.5 C 260.833,-0.5 276.167,-0.5 291.5,-0.5C 379.035,9.33215 447.202,50.6655 496,123.5C 519.54,161.288 533.373,202.288 537.5,246.5C 537.5,261.167 537.5,275.833 537.5,290.5C 526.712,386.294 479.712,458.127 396.5,506C 366.44,522.187 334.44,532.02 300.5,535.5C 279.167,535.5 257.833,535.5 236.5,535.5C 161.97,525.997 101.47,491.997 55,433.5C 24.9537,394.218 7.1204,349.885 1.5,300.5C 1.5,279.167 1.5,257.833 1.5,236.5C 12.6685,152.612 53.3351,87.4456 123.5,41C 161.004,17.6658 201.671,3.83244 245.5,-0.5 Z"/></g>
<g><path style="opacity:1" fill="#eb6929" d="M 373.5,72.5 C 364.49,72.017 355.824,73.3503 347.5,76.5C 347.511,74.9826 348.177,73.8159 349.5,73C 357.642,71.5494 365.642,71.3827 373.5,72.5 Z"/></g>
<g><path style="opacity:1" fill="#fcfcfb" d="M 373.5,72.5 C 375.993,73.7736 378.659,74.4403 381.5,74.5C 386.929,76.7174 391.929,79.7174 396.5,83.5C 400.245,85.9179 402.912,89.2512 404.5,93.5C 406.301,98.4494 408.134,103.449 410,108.5C 410.546,115.184 410.38,121.851 409.5,128.5C 409.737,129.791 409.404,130.791 408.5,131.5C 407.363,132.789 406.03,133.789 404.5,134.5C 403.737,133.732 402.737,133.232 401.5,133C 402.604,131.869 402.271,131.035 400.5,130.5C 392.415,133.473 384.248,136.14 376,138.5C 374.016,138.259 372.183,137.592 370.5,136.5C 367.7,137.732 364.7,138.399 361.5,138.5C 357.638,138.7 353.971,138.034 350.5,136.5C 348.591,137.348 346.591,137.682 344.5,137.5C 344.5,135.833 344.5,134.167 344.5,132.5C 339.631,132.628 336.964,130.295 336.5,125.5C 337.5,124.167 338.5,122.833 339.5,121.5C 339.5,121.167 339.5,120.833 339.5,120.5C 341.919,114.737 340.253,110.57 334.5,108C 330.848,107.501 327.182,107.335 323.5,107.5C 323.733,104.458 324.733,101.792 326.5,99.5C 328.41,98.0254 329.576,96.0254 330,93.5C 332.609,90.6371 335.442,87.9704 338.5,85.5C 339.386,84.675 339.719,83.675 339.5,82.5C 341.313,79.3528 343.98,77.3528 347.5,76.5C 355.824,73.3503 364.49,72.017 373.5,72.5 Z"/></g>
<g><path style="opacity:1" fill="#ef602d" d="M 381.5,74.5 C 386.012,75.0459 390.345,76.0459 394.5,77.5C 394.704,79.6854 395.37,81.6854 396.5,83.5C 391.929,79.7174 386.929,76.7174 381.5,74.5 Z"/></g>
<g><path style="opacity:1" fill="#fddec5" d="M 339.5,82.5 C 339.719,83.675 339.386,84.675 338.5,85.5C 335.442,87.9704 332.609,90.6371 330,93.5C 329.576,96.0254 328.41,98.0254 326.5,99.5C 328.676,92.1315 333.009,86.4648 339.5,82.5 Z"/></g>
<g><path style="opacity:1" fill="#192726" d="M 322.5,107.5 C 322.833,107.5 323.167,107.5 323.5,107.5C 327.182,107.335 330.848,107.501 334.5,108C 340.253,110.57 341.919,114.737 339.5,120.5C 339.5,118.167 339.5,115.833 339.5,113.5C 331.311,112.791 323.144,112.791 315,113.5C 313.319,113.392 312.152,112.725 311.5,111.5C 315.406,110.9 319.073,109.567 322.5,107.5 Z"/></g>
<g><path style="opacity:1" fill="#4d2b16" d="M 322.5,107.5 C 319.073,109.567 315.406,110.9 311.5,111.5C 307.753,112.379 304.087,113.379 300.5,114.5C 302.783,112.414 305.45,110.914 308.5,110C 313.238,109.481 317.905,108.648 322.5,107.5 Z"/></g>
<g><path style="opacity:1" fill="#f8bea6" d="M 404.5,93.5 C 407.7,97.5613 409.867,102.228 411,107.5C 411.667,113.5 411.667,119.5 411,125.5C 410.768,126.737 410.268,127.737 409.5,128.5C 410.38,121.851 410.546,115.184 410,108.5C 408.134,103.449 406.301,98.4494 404.5,93.5 Z"/></g>
<g><path style="opacity:1" fill="#84391b" d="M 291.5,118.5 C 286.859,122.805 282.193,127.139 277.5,131.5C 280.885,125.781 285.552,121.448 291.5,118.5 Z"/></g>
<g><path style="opacity:1" fill="#2a393c" d="M 339.5,121.5 C 338.5,122.833 337.5,124.167 336.5,125.5C 332.232,126.373 327.898,126.706 323.5,126.5C 318.198,127.8 312.864,129.3 307.5,131C 305.907,131.949 304.574,133.115 303.5,134.5C 300.796,134.67 299.129,136.003 298.5,138.5C 295.911,139.419 293.911,141.086 292.5,143.5C 290.203,145.294 288.037,147.294 286,149.5C 284.186,154.098 282.686,158.764 281.5,163.5C 281.5,164.167 281.167,164.5 280.5,164.5C 278.558,169.327 277.891,174.327 278.5,179.5C 277.32,182.098 275.32,183.764 272.5,184.5C 272.577,183.25 273.244,182.417 274.5,182C 273.361,176.584 273.194,171.084 274,165.5C 275.708,160.643 276.875,155.643 277.5,150.5C 278.5,150 279.5,149.5 280.5,149C 283.061,145.455 285.561,141.955 288,138.5C 292.528,135.983 296.362,132.65 299.5,128.5C 303.423,127.402 307.423,126.735 311.5,126.5C 311.5,125.5 311.5,124.5 311.5,123.5C 316.651,122.77 321.817,122.104 327,121.5C 329.621,121.763 332.121,122.43 334.5,123.5C 336.373,123.518 336.706,123.018 335.5,122C 336.793,121.51 338.127,121.343 339.5,121.5 Z"/></g>
<g><path style="opacity:1" fill="#c04e1d" d="M 323.5,126.5 C 323.5,126.833 323.5,127.167 323.5,127.5C 324.363,129.421 325.029,131.421 325.5,133.5C 324.163,132.685 323.163,131.518 322.5,130C 321.5,129.833 320.5,129.667 319.5,129.5C 313.789,130.271 308.456,131.937 303.5,134.5C 304.574,133.115 305.907,131.949 307.5,131C 312.864,129.3 318.198,127.8 323.5,126.5 Z"/></g>
<g><path style="opacity:1" fill="#9c4725" d="M 303.5,134.5 C 302.055,136.063 300.389,137.396 298.5,138.5C 299.129,136.003 300.796,134.67 303.5,134.5 Z"/></g>
<g><path style="opacity:1" fill="#e4edf1" d="M 336.5,125.5 C 336.964,130.295 339.631,132.628 344.5,132.5C 344.5,134.167 344.5,135.833 344.5,137.5C 346.591,137.682 348.591,137.348 350.5,136.5C 353.971,138.034 357.638,138.7 361.5,138.5C 364.7,138.399 367.7,137.732 370.5,136.5C 372.183,137.592 374.016,138.259 376,138.5C 384.248,136.14 392.415,133.473 400.5,130.5C 402.271,131.035 402.604,131.869 401.5,133C 402.737,133.232 403.737,133.732 404.5,134.5C 403.078,134.75 402.078,135.583 401.5,137C 397.781,137.388 394.114,138.055 390.5,139C 388.963,140.11 388.297,141.61 388.5,143.5C 379.102,144.488 369.769,144.822 360.5,144.5C 354.404,143.073 348.404,141.573 342.5,140C 339.93,139.277 337.597,138.11 335.5,136.5C 333.833,137.5 332.5,138.833 331.5,140.5C 329.161,136.735 327.327,132.735 326,128.5C 325.329,127.748 324.496,127.414 323.5,127.5C 323.5,127.167 323.5,126.833 323.5,126.5C 327.898,126.706 332.232,126.373 336.5,125.5 Z"/></g>
<g><path style="opacity:1" fill="#b3481c" d="M 273.5,134.5 C 270.977,138.739 268.644,143.073 266.5,147.5C 267.141,142.233 269.475,137.899 273.5,134.5 Z"/></g>
<g><path style="opacity:1" fill="#0e1717" d="M 311.5,111.5 C 312.152,112.725 313.319,113.392 315,113.5C 323.144,112.791 331.311,112.791 339.5,113.5C 339.5,115.833 339.5,118.167 339.5,120.5C 339.5,120.833 339.5,121.167 339.5,121.5C 338.127,121.343 336.793,121.51 335.5,122C 336.706,123.018 336.373,123.518 334.5,123.5C 332.121,122.43 329.621,121.763 327,121.5C 321.817,122.104 316.651,122.77 311.5,123.5C 311.5,124.5 311.5,125.5 311.5,126.5C 307.423,126.735 303.423,127.402 299.5,128.5C 296.362,132.65 292.528,135.983 288,138.5C 285.561,141.955 283.061,145.455 280.5,149C 279.5,149.5 278.5,150 277.5,150.5C 276.875,155.643 275.708,160.643 274,165.5C 273.194,171.084 273.361,176.584 274.5,182C 273.244,182.417 272.577,183.25 272.5,184.5C 268.727,184.737 265.06,184.237 261.5,183C 260.177,182.184 259.511,181.017 259.5,179.5C 259.5,175.5 259.5,171.5 259.5,167.5C 261.456,160.629 263.789,153.963 266.5,147.5C 268.644,143.073 270.977,138.739 273.5,134.5C 274.833,133.5 276.167,132.5 277.5,131.5C 282.193,127.139 286.859,122.805 291.5,118.5C 294.116,116.36 297.116,115.026 300.5,114.5C 304.087,113.379 307.753,112.379 311.5,111.5 Z"/></g>
<g><path style="opacity:1" fill="#ad4d1f" d="M 298.5,138.5 C 297.089,140.914 295.089,142.581 292.5,143.5C 293.911,141.086 295.911,139.419 298.5,138.5 Z"/></g>
<g><path style="opacity:1" fill="#d3dadf" d="M 323.5,127.5 C 324.496,127.414 325.329,127.748 326,128.5C 327.327,132.735 329.161,136.735 331.5,140.5C 332.5,138.833 333.833,137.5 335.5,136.5C 337.597,138.11 339.93,139.277 342.5,140C 348.404,141.573 354.404,143.073 360.5,144.5C 369.769,144.822 379.102,144.488 388.5,143.5C 388.297,141.61 388.963,140.11 390.5,139C 394.114,138.055 397.781,137.388 401.5,137C 402.078,135.583 403.078,134.75 404.5,134.5C 406.03,133.789 407.363,132.789 408.5,131.5C 406.092,139.564 401.425,145.897 394.5,150.5C 393.791,149.596 392.791,149.263 391.5,149.5C 391.703,151.39 391.037,152.89 389.5,154C 376.226,159.06 362.559,159.893 348.5,156.5C 337.802,151.802 330.135,144.135 325.5,133.5C 325.029,131.421 324.363,129.421 323.5,127.5 Z"/></g>
<g><path style="opacity:1" fill="#bf4b22" d="M 292.5,143.5 C 288.456,149.974 284.789,156.64 281.5,163.5C 282.686,158.764 284.186,154.098 286,149.5C 288.037,147.294 290.203,145.294 292.5,143.5 Z"/></g>
<g><path style="opacity:1" fill="#ebc9bf" d="M 394.5,150.5 C 393.375,152.129 392.041,153.629 390.5,155C 380.866,159.38 370.866,161.38 360.5,161C 356.083,160.301 352.083,158.801 348.5,156.5C 362.559,159.893 376.226,159.06 389.5,154C 391.037,152.89 391.703,151.39 391.5,149.5C 392.791,149.263 393.791,149.596 394.5,150.5 Z"/></g>
<g><path style="opacity:1" fill="#a84f26" d="M 259.5,167.5 C 259.5,171.5 259.5,175.5 259.5,179.5C 257.833,179.5 256.167,179.5 254.5,179.5C 255.568,178.566 256.901,178.232 258.5,178.5C 258.185,174.629 258.518,170.962 259.5,167.5 Z"/></g>
<g><path style="opacity:1" fill="#d2592d" d="M 280.5,164.5 C 280.017,169.098 280.017,173.598 280.5,178C 287.724,178.176 294.724,179.009 301.5,180.5C 294.167,180.167 286.833,179.833 279.5,179.5C 279.167,179.5 278.833,179.5 278.5,179.5C 277.891,174.327 278.558,169.327 280.5,164.5 Z"/></g>
<g><path style="opacity:1" fill="#fdd2b2" d="M 252.5,179.5 C 252.389,180.117 252.056,180.617 251.5,181C 242.126,181.508 232.793,182.341 223.5,183.5C 232.893,181.156 242.56,179.823 252.5,179.5 Z"/></g>
<g><path style="opacity:1" fill="#fefdfd" d="M 252.5,179.5 C 253.167,179.5 253.833,179.5 254.5,179.5C 256.167,179.5 257.833,179.5 259.5,179.5C 259.511,181.017 260.177,182.184 261.5,183C 265.06,184.237 268.727,184.737 272.5,184.5C 275.32,183.764 277.32,182.098 278.5,179.5C 278.833,179.5 279.167,179.5 279.5,179.5C 279.918,180.222 280.584,180.722 281.5,181C 294.729,182.565 308.729,184.065 323.5,185.5C 332.019,187.203 340.352,189.536 348.5,192.5C 359.819,197.745 370.986,203.078 382,208.5C 406.89,192.698 432.057,192.532 457.5,208C 464.365,213.265 470.199,219.431 475,226.5C 477.066,229.961 478.566,233.627 479.5,237.5C 481.159,244.378 481.825,251.378 481.5,258.5C 480.115,259.574 478.949,260.907 478,262.5C 477.667,260.5 477.333,258.5 477,256.5C 474.081,259.878 471.581,263.544 469.5,267.5C 466.199,267.864 463.199,269.031 460.5,271C 461.167,271.333 461.833,271.667 462.5,272C 459.628,272.315 456.795,272.815 454,273.5C 453.228,273.355 452.561,273.022 452,272.5C 449.262,273.91 446.429,275.244 443.5,276.5C 443.03,287.673 441.697,298.34 439.5,308.5C 438.5,308.5 437.5,308.5 436.5,308.5C 437.594,302.095 434.927,299.762 428.5,301.5C 428.756,303.792 428.423,305.959 427.5,308C 423.401,308.526 419.401,309.359 415.5,310.5C 415.5,312.5 415.5,314.5 415.5,316.5C 411.952,315.298 408.285,314.631 404.5,314.5C 404.192,318.009 402.192,319.676 398.5,319.5C 398.5,321.833 398.5,324.167 398.5,326.5C 394.223,325.348 389.889,324.348 385.5,323.5C 384.394,325.284 384.394,327.118 385.5,329C 384.349,330.823 383.182,332.656 382,334.5C 379.281,335.444 376.448,335.777 373.5,335.5C 373.318,330.206 372.818,330.206 372,335.5C 368.959,333.071 365.459,332.071 361.5,332.5C 361.67,333.822 361.337,334.989 360.5,336C 351.586,337.236 342.753,338.736 334,340.5C 332.159,339.875 330.326,339.708 328.5,340C 327.166,342.087 325.333,343.587 323,344.5C 322.517,345.448 322.351,346.448 322.5,347.5C 286.512,345.006 250.512,345.006 214.5,347.5C 214.5,346.167 214.5,344.833 214.5,343.5C 213.167,343.5 211.833,343.5 210.5,343.5C 210.5,342.167 210.5,340.833 210.5,339.5C 209.167,339.5 207.833,339.5 206.5,339.5C 205.786,334.315 203.286,333.315 199,336.5C 197.378,336.046 196.212,335.046 195.5,333.5C 188.524,332.669 181.524,332.169 174.5,332C 173.944,331.617 173.611,331.117 173.5,330.5C 180.296,331.774 186.963,331.774 193.5,330.5C 197.787,330.524 201.453,329.19 204.5,326.5C 205.167,325.5 205.833,324.5 206.5,323.5C 208.017,323.489 209.184,322.823 210,321.5C 211.131,319.395 212.297,317.395 213.5,315.5C 215.266,313.229 217.266,311.063 219.5,309C 219,308.5 218.5,308 218,307.5C 217.827,301.652 217.327,295.985 216.5,290.5C 215.612,285.927 214.279,281.594 212.5,277.5C 208.706,268.703 202.372,262.703 193.5,259.5C 188.684,258.35 183.684,258.184 178.5,259C 177.058,259.377 176.058,260.21 175.5,261.5C 174.833,261.5 174.167,261.5 173.5,261.5C 160.123,269.573 153.456,281.573 153.5,297.5C 153.379,302.093 154.046,306.426 155.5,310.5C 155.833,312.5 156.167,314.5 156.5,316.5C 156.279,319.097 155.779,319.097 155,316.5C 153.379,318.493 151.713,320.493 150,322.5C 149.493,323.996 149.993,325.163 151.5,326C 150.451,326.492 149.451,326.326 148.5,325.5C 147.526,323.257 147.192,320.924 147.5,318.5C 146.167,318.5 144.833,318.5 143.5,318.5C 143.5,317.167 143.5,315.833 143.5,314.5C 140.833,314.5 138.167,314.5 135.5,314.5C 135.853,316.635 135.02,317.968 133,318.5C 130.019,316.592 126.852,315.092 123.5,314C 123.047,311.307 121.547,309.473 119,308.5C 118.829,303.467 118.329,298.467 117.5,293.5C 115.929,292.691 114.262,292.357 112.5,292.5C 112.5,290.167 112.5,287.833 112.5,285.5C 109.482,285.665 106.482,285.498 103.5,285C 103.19,281.607 101.524,279.107 98.5,277.5C 94.513,274.672 90.1797,272.672 85.5,271.5C 84.5002,268.329 82.8336,265.496 80.5,263C 77.9925,262.907 75.8259,262.074 74,260.5C 73.3333,261.167 72.6667,261.833 72,262.5C 69.6921,261.359 67.8587,259.692 66.5,257.5C 65.3112,256.571 63.9778,256.238 62.5,256.5C 62.313,254.436 61.813,252.436 61,250.5C 61.1631,254.832 61.6631,259.166 62.5,263.5C 66.7754,264.442 69.4421,267.108 70.5,271.5C 75.9563,273.066 81.2896,274.899 86.5,277C 88.5286,279.963 91.1953,282.129 94.5,283.5C 93.7542,284.736 93.4208,286.07 93.5,287.5C 90.8722,283.696 87.2055,281.529 82.5,281C 79.6855,279.169 76.8522,277.335 74,275.5C 73.4387,276.022 72.772,276.355 72,276.5C 69.9094,275.744 68.076,274.577 66.5,273C 64.1902,272.503 61.8568,272.337 59.5,272.5C 60.0129,276.546 60.8462,280.546 62,284.5C 62.3826,285.056 62.8826,285.389 63.5,285.5C 63.5,286.833 63.5,288.167 63.5,289.5C 60.0448,282.801 57.3781,275.801 55.5,268.5C 54.6709,257.184 56.0043,246.184 59.5,235.5C 61.7601,229.967 64.7601,224.967 68.5,220.5C 71.4518,218.215 74.1185,215.548 76.5,212.5C 91.7092,199.075 109.376,194.075 129.5,197.5C 138.203,199.907 146.536,203.407 154.5,208C 156.881,208.738 158.881,208.238 160.5,206.5C 168.372,201.651 176.705,197.651 185.5,194.5C 189.915,194.139 193.915,192.806 197.5,190.5C 203.563,189.809 209.229,188.142 214.5,185.5C 217.37,184.366 220.37,183.7 223.5,183.5C 232.793,182.341 242.126,181.508 251.5,181C 252.056,180.617 252.389,180.117 252.5,179.5 Z"/></g>
<g><path style="opacity:1" fill="#fde3d2" d="M 279.5,179.5 C 286.833,179.833 294.167,180.167 301.5,180.5C 301.833,180.5 302.167,180.5 302.5,180.5C 309.482,182.259 316.482,183.926 323.5,185.5C 308.729,184.065 294.729,182.565 281.5,181C 280.584,180.722 279.918,180.222 279.5,179.5 Z"/></g>
<g><path style="opacity:1" fill="#ee551d" d="M 302.5,180.5 C 308.184,180.743 313.851,181.243 319.5,182C 328.673,185.055 338.006,187.722 347.5,190C 348.252,190.671 348.586,191.504 348.5,192.5C 340.352,189.536 332.019,187.203 323.5,185.5C 316.482,183.926 309.482,182.259 302.5,180.5 Z"/></g>
<g><path style="opacity:1" fill="#fbcbaa" d="M 214.5,185.5 C 209.229,188.142 203.563,189.809 197.5,190.5C 202.885,188.265 208.552,186.598 214.5,185.5 Z"/></g>
<g><path style="opacity:1" fill="#f8b594" d="M 197.5,190.5 C 193.915,192.806 189.915,194.139 185.5,194.5C 189.085,192.194 193.085,190.861 197.5,190.5 Z"/></g>
<g><path style="opacity:1" fill="#f35e25" d="M 129.5,197.5 C 136.016,197.687 142.016,199.353 147.5,202.5C 149.768,201.456 152.101,201.289 154.5,202C 152.74,202.965 152.406,204.132 153.5,205.5C 155.747,206.374 158.08,206.708 160.5,206.5C 158.881,208.238 156.881,208.738 154.5,208C 146.536,203.407 138.203,199.907 129.5,197.5 Z"/></g>
<g><path style="opacity:1" fill="#f5b69b" d="M 76.5,212.5 C 74.1185,215.548 71.4518,218.215 68.5,220.5C 70.1667,216.833 72.8333,214.167 76.5,212.5 Z"/></g>
<g><path style="opacity:0.779" fill="#000000" d="M 1.5,236.5 C 1.5,257.833 1.5,279.167 1.5,300.5C 0.833333,297.167 0.166667,293.833 -0.5,290.5C -0.5,275.833 -0.5,261.167 -0.5,246.5C 0.166667,243.167 0.833333,239.833 1.5,236.5 Z"/></g>
<g><path style="opacity:1" fill="#e77440" d="M 59.5,235.5 C 56.0043,246.184 54.6709,257.184 55.5,268.5C 54.0933,259.255 54.4267,249.922 56.5,240.5C 57.0014,238.345 58.0014,236.678 59.5,235.5 Z"/></g>
<g><path style="opacity:1" fill="#a8757c" d="M 193.5,259.5 C 187.346,259.1 181.346,259.767 175.5,261.5C 176.058,260.21 177.058,259.377 178.5,259C 183.684,258.184 188.684,258.35 193.5,259.5 Z"/></g>
<g><path style="opacity:1" fill="#fad0b6" d="M 479.5,237.5 C 484.651,251.294 484.818,265.294 480,279.5C 478.96,282.823 477.46,285.823 475.5,288.5C 476.686,282.665 478.353,276.998 480.5,271.5C 481.492,267.217 481.826,262.884 481.5,258.5C 481.825,251.378 481.159,244.378 479.5,237.5 Z"/></g>
<g><path style="opacity:1" fill="#914848" d="M 361.5,260.5 C 355.642,260.178 349.975,260.511 344.5,261.5C 339.83,264.505 335.164,267.505 330.5,270.5C 335.42,262.368 342.753,258.368 352.5,258.5C 355.814,258.343 358.814,259.009 361.5,260.5 Z"/></g>
<g><path style="opacity:1" fill="#902922" d="M 193.5,259.5 C 202.372,262.703 208.706,268.703 212.5,277.5C 209.608,275.269 207.274,272.436 205.5,269C 203.559,267.097 201.226,266.264 198.5,266.5C 197.942,265.21 196.942,264.377 195.5,264C 187.029,262.669 179.029,263.836 171.5,267.5C 171.253,265.142 171.919,263.142 173.5,261.5C 174.167,261.5 174.833,261.5 175.5,261.5C 181.346,259.767 187.346,259.1 193.5,259.5 Z"/></g>
<g><path style="opacity:1" fill="#b53326" d="M 344.5,261.5 C 349.875,261.172 355.208,261.505 360.5,262.5C 362.394,263.945 364.06,265.612 365.5,267.5C 357.455,264.794 349.122,263.96 340.5,265C 334.482,269.841 329.816,275.674 326.5,282.5C 322.989,289.293 321.656,296.626 322.5,304.5C 321.837,302.359 321.503,300.025 321.5,297.5C 321.45,287.357 324.45,278.357 330.5,270.5C 335.164,267.505 339.83,264.505 344.5,261.5 Z"/></g>
<g><path style="opacity:1" fill="#f04309" d="M 198.5,266.5 C 202.565,268.941 204.898,272.608 205.5,277.5C 206.833,277.5 208.167,277.5 209.5,277.5C 209.335,280.518 209.502,283.518 210,286.5C 211.067,287.191 212.234,287.691 213.5,288C 214.252,288.671 214.586,289.504 214.5,290.5C 210.343,290.599 208.176,288.599 208,284.5C 207.101,288.57 204.601,290.57 200.5,290.5C 205.297,287.357 206.63,283.024 204.5,277.5C 199.832,273.22 195.999,273.887 193,279.5C 192.318,283.069 192.818,286.402 194.5,289.5C 195.791,289.263 196.791,289.596 197.5,290.5C 195.735,291.461 193.735,291.795 191.5,291.5C 191.827,286.456 191.494,281.456 190.5,276.5C 188.804,278.546 187.471,280.879 186.5,283.5C 185.502,279.458 183.168,278.124 179.5,279.5C 176.592,281.903 174.259,284.737 172.5,288C 171.216,288.684 170.049,288.517 169,287.5C 168.746,290.195 168.579,292.695 168.5,295C 169.494,296.329 170.494,297.662 171.5,299C 169.546,300.741 168.546,302.908 168.5,305.5C 167.414,305.62 166.747,306.287 166.5,307.5C 164.394,313.146 165.394,317.979 169.5,322C 175.325,323.002 181.159,323.835 187,324.5C 192.412,325.032 197.245,323.699 201.5,320.5C 201.5,321.833 201.5,323.167 201.5,324.5C 203.216,324.371 204.883,324.038 206.5,323.5C 205.833,324.5 205.167,325.5 204.5,326.5C 200.569,327.389 196.902,328.722 193.5,330.5C 185.704,330.925 178.037,330.258 170.5,328.5C 168.596,328.262 167.262,327.262 166.5,325.5C 165.246,322.907 163.58,320.573 161.5,318.5C 158.058,307.605 157.891,296.605 161,285.5C 167.843,281.157 173.343,275.49 177.5,268.5C 184.452,267.529 191.452,266.862 198.5,266.5 Z"/></g>
<g><path style="opacity:1" fill="#ce301d" d="M 198.5,266.5 C 191.452,266.862 184.452,267.529 177.5,268.5C 173.343,275.49 167.843,281.157 161,285.5C 157.891,296.605 158.058,307.605 161.5,318.5C 160.442,317.4 159.608,316.066 159,314.5C 158.353,309.347 157.853,304.181 157.5,299C 158.238,291.416 159.238,283.916 160.5,276.5C 163.808,273.205 167.474,270.205 171.5,267.5C 179.029,263.836 187.029,262.669 195.5,264C 196.942,264.377 197.942,265.21 198.5,266.5 Z"/></g>
<g><path style="opacity:1" fill="#ffbe93" d="M 200.5,290.5 C 199.5,290.5 198.5,290.5 197.5,290.5C 196.791,289.596 195.791,289.263 194.5,289.5C 192.818,286.402 192.318,283.069 193,279.5C 195.999,273.887 199.832,273.22 204.5,277.5C 206.63,283.024 205.297,287.357 200.5,290.5 Z"/></g>
<g><path style="opacity:1" fill="#febe92" d="M 370.5,284.5 C 368.384,289.261 364.717,290.761 359.5,289C 357.271,285.866 356.271,282.366 356.5,278.5C 357.833,277.5 359.167,276.5 360.5,275.5C 367.757,273.827 371.09,276.827 370.5,284.5 Z"/></g>
<g><path style="opacity:1" fill="#d9341c" d="M 365.5,267.5 C 368.365,269.509 371.032,271.842 373.5,274.5C 375.927,279.021 378.093,283.688 380,288.5C 380.949,298.297 380.449,307.964 378.5,317.5C 378.167,317.5 377.833,317.5 377.5,317.5C 378.455,309.186 378.622,300.852 378,292.5C 376.989,291.663 375.822,291.33 374.5,291.5C 374.326,289.139 373.993,286.806 373.5,284.5C 372.5,284.5 371.5,284.5 370.5,284.5C 371.09,276.827 367.757,273.827 360.5,275.5C 360.784,273.123 360.784,270.956 360.5,269C 355.115,268.786 349.781,268.286 344.5,267.5C 342.176,267.877 341.509,268.877 342.5,270.5C 336.829,271.98 332.829,275.313 330.5,280.5C 329.423,281.705 328.09,282.372 326.5,282.5C 329.816,275.674 334.482,269.841 340.5,265C 349.122,263.96 357.455,264.794 365.5,267.5 Z"/></g>
<g><path style="opacity:1" fill="#892a27" d="M 344.5,261.5 C 349.975,260.511 355.642,260.178 361.5,260.5C 374.21,265.713 382.044,275.046 385,288.5C 385.856,296.232 385.523,303.898 384,311.5C 381.411,318.92 376.577,324.253 369.5,327.5C 369.5,327.167 369.5,326.833 369.5,326.5C 373.152,324.349 375.819,321.349 377.5,317.5C 377.833,317.5 378.167,317.5 378.5,317.5C 379.74,314.976 380.907,312.309 382,309.5C 382.667,302.5 382.667,295.5 382,288.5C 380.427,283.013 377.594,278.346 373.5,274.5C 371.032,271.842 368.365,269.509 365.5,267.5C 364.06,265.612 362.394,263.945 360.5,262.5C 355.208,261.505 349.875,261.172 344.5,261.5 Z"/></g>
<g><path style="opacity:1" fill="#7e2f2d" d="M 173.5,261.5 C 171.919,263.142 171.253,265.142 171.5,267.5C 167.474,270.205 163.808,273.205 160.5,276.5C 155.924,287.222 154.258,298.555 155.5,310.5C 154.046,306.426 153.379,302.093 153.5,297.5C 153.456,281.573 160.123,269.573 173.5,261.5 Z"/></g>
<g><path style="opacity:1" fill="#fb4502" d="M 356.5,278.5 C 356.271,282.366 357.271,285.866 359.5,289C 364.717,290.761 368.384,289.261 370.5,284.5C 371.5,284.5 372.5,284.5 373.5,284.5C 373.993,286.806 374.326,289.139 374.5,291.5C 375.822,291.33 376.989,291.663 378,292.5C 378.622,300.852 378.455,309.186 377.5,317.5C 375.819,321.349 373.152,324.349 369.5,326.5C 366.833,326.833 364.167,327.167 361.5,327.5C 361.281,326.325 361.614,325.325 362.5,324.5C 370.417,320.997 373.25,314.997 371,306.5C 368.303,301.564 364.136,298.73 358.5,298C 341.702,295.456 333.869,302.622 335,319.5C 337.964,320.805 337.798,322.139 334.5,323.5C 332.823,322.813 331.156,322.146 329.5,321.5C 329.5,320.5 329.5,319.5 329.5,318.5C 330.5,318.5 331.5,318.5 332.5,318.5C 332.665,315.15 332.498,311.817 332,308.5C 331.311,309.357 330.478,310.023 329.5,310.5C 327.369,306.506 325.702,302.339 324.5,298C 326.84,294.495 328.507,290.662 329.5,286.5C 331.739,282.592 335.073,280.259 339.5,279.5C 340.128,277.742 341.128,276.242 342.5,275C 346.373,274.73 350.206,274.23 354,273.5C 356.157,274.385 356.99,276.052 356.5,278.5 Z"/></g>
<g><path style="opacity:1" fill="#d83f1f" d="M 198.5,266.5 C 201.226,266.264 203.559,267.097 205.5,269C 207.274,272.436 209.608,275.269 212.5,277.5C 214.279,281.594 215.612,285.927 216.5,290.5C 216.83,297.2 216.497,303.866 215.5,310.5C 214.824,311.602 214.158,312.602 213.5,313.5C 214.358,305.868 214.691,298.201 214.5,290.5C 214.586,289.504 214.252,288.671 213.5,288C 212.234,287.691 211.067,287.191 210,286.5C 209.502,283.518 209.335,280.518 209.5,277.5C 208.167,277.5 206.833,277.5 205.5,277.5C 204.898,272.608 202.565,268.941 198.5,266.5 Z"/></g>
<g><path style="opacity:1" fill="#8f281d" d="M 160.5,276.5 C 159.238,283.916 158.238,291.416 157.5,299C 157.853,304.181 158.353,309.347 159,314.5C 159.608,316.066 160.442,317.4 161.5,318.5C 163.58,320.573 165.246,322.907 166.5,325.5C 165.078,325.291 163.745,324.791 162.5,324C 160.636,321.312 158.636,318.812 156.5,316.5C 156.167,314.5 155.833,312.5 155.5,310.5C 154.258,298.555 155.924,287.222 160.5,276.5 Z"/></g>
<g><path style="opacity:1" fill="#fd4602" d="M 197.5,290.5 C 198.5,290.5 199.5,290.5 200.5,290.5C 204.601,290.57 207.101,288.57 208,284.5C 208.176,288.599 210.343,290.599 214.5,290.5C 214.691,298.201 214.358,305.868 213.5,313.5C 213.5,314.167 213.5,314.833 213.5,315.5C 212.297,317.395 211.131,319.395 210,321.5C 209.184,322.823 208.017,323.489 206.5,323.5C 204.883,324.038 203.216,324.371 201.5,324.5C 201.5,323.167 201.5,321.833 201.5,320.5C 204.856,318.02 206.022,314.687 205,310.5C 199.915,298.871 191.082,294.871 178.5,298.5C 174.645,300.011 171.312,302.344 168.5,305.5C 168.546,302.908 169.546,300.741 171.5,299C 170.494,297.662 169.494,296.329 168.5,295C 168.579,292.695 168.746,290.195 169,287.5C 170.049,288.517 171.216,288.684 172.5,288C 174.259,284.737 176.592,281.903 179.5,279.5C 183.168,278.124 185.502,279.458 186.5,283.5C 187.471,280.879 188.804,278.546 190.5,276.5C 191.494,281.456 191.827,286.456 191.5,291.5C 193.735,291.795 195.735,291.461 197.5,290.5 Z"/></g>
<g><path style="opacity:1" fill="#ed3d0b" d="M 360.5,275.5 C 359.167,276.5 357.833,277.5 356.5,278.5C 356.99,276.052 356.157,274.385 354,273.5C 350.206,274.23 346.373,274.73 342.5,275C 341.128,276.242 340.128,277.742 339.5,279.5C 335.073,280.259 331.739,282.592 329.5,286.5C 328.507,290.662 326.84,294.495 324.5,298C 325.702,302.339 327.369,306.506 329.5,310.5C 330.478,310.023 331.311,309.357 332,308.5C 332.498,311.817 332.665,315.15 332.5,318.5C 331.5,318.5 330.5,318.5 329.5,318.5C 329.5,319.5 329.5,320.5 329.5,321.5C 324.883,316.848 322.55,311.182 322.5,304.5C 321.656,296.626 322.989,289.293 326.5,282.5C 328.09,282.372 329.423,281.705 330.5,280.5C 332.829,275.313 336.829,271.98 342.5,270.5C 341.509,268.877 342.176,267.877 344.5,267.5C 349.781,268.286 355.115,268.786 360.5,269C 360.784,270.956 360.784,273.123 360.5,275.5 Z"/></g>
<g><path style="opacity:1" fill="#d4d9df" d="M 91.5,315.5 C 86.2415,313.871 81.5749,311.204 77.5,307.5C 71.687,302.358 67.0203,296.358 63.5,289.5C 63.5,288.167 63.5,286.833 63.5,285.5C 65.6934,284.203 68.0268,284.203 70.5,285.5C 76.0339,288.68 80.8673,292.68 85,297.5C 86.9562,297.216 89.1229,297.216 91.5,297.5C 91.1497,303.602 91.1497,309.602 91.5,315.5 Z"/></g>
<g><path style="opacity:1" fill="#a92617" d="M 373.5,274.5 C 377.594,278.346 380.427,283.013 382,288.5C 382.667,295.5 382.667,302.5 382,309.5C 380.907,312.309 379.74,314.976 378.5,317.5C 380.449,307.964 380.949,298.297 380,288.5C 378.093,283.688 375.927,279.021 373.5,274.5 Z"/></g>
<g><path style="opacity:1" fill="#d3d9de" d="M 471.5,293.5 C 471.649,294.552 471.483,295.552 471,296.5C 466.438,300.725 462.271,305.225 458.5,310C 457.099,310.41 455.766,310.91 454.5,311.5C 452.167,312.167 449.833,312.833 447.5,313.5C 447.805,308.238 447.471,303.072 446.5,298C 447.293,296.915 447.96,295.748 448.5,294.5C 455.552,291.719 462.719,289.386 470,287.5C 470.21,288.803 470.043,290.136 469.5,291.5C 469.747,292.713 470.414,293.38 471.5,293.5 Z"/></g>
<g><path style="opacity:1" fill="#fd5e01" d="M 369.5,326.5 C 369.5,326.833 369.5,327.167 369.5,327.5C 356.881,332.159 344.547,331.326 332.5,325C 331.29,323.961 330.29,322.794 329.5,321.5C 331.156,322.146 332.823,322.813 334.5,323.5C 337.798,322.139 337.964,320.805 335,319.5C 333.869,302.622 341.702,295.456 358.5,298C 364.136,298.73 368.303,301.564 371,306.5C 373.25,314.997 370.417,320.997 362.5,324.5C 361.614,325.325 361.281,326.325 361.5,327.5C 364.167,327.167 366.833,326.833 369.5,326.5 Z"/></g>
<g><path style="opacity:1" fill="#fe5f01" d="M 201.5,320.5 C 197.245,323.699 192.412,325.032 187,324.5C 181.159,323.835 175.325,323.002 169.5,322C 165.394,317.979 164.394,313.146 166.5,307.5C 166.747,306.287 167.414,305.62 168.5,305.5C 171.312,302.344 174.645,300.011 178.5,298.5C 191.082,294.871 199.915,298.871 205,310.5C 206.022,314.687 204.856,318.02 201.5,320.5 Z"/></g>
<g><path style="opacity:1" fill="#f2f6fa" d="M 481.5,258.5 C 481.826,262.884 481.492,267.217 480.5,271.5C 478.353,276.998 476.686,282.665 475.5,288.5C 474.513,290.551 473.18,292.218 471.5,293.5C 470.414,293.38 469.747,292.713 469.5,291.5C 470.043,290.136 470.21,288.803 470,287.5C 462.719,289.386 455.552,291.719 448.5,294.5C 447.96,295.748 447.293,296.915 446.5,298C 447.471,303.072 447.805,308.238 447.5,313.5C 449.833,312.833 452.167,312.167 454.5,311.5C 452.343,313.412 450.009,315.079 447.5,316.5C 446.649,322.34 445.982,328.34 445.5,334.5C 444.699,336.042 444.366,337.708 444.5,339.5C 443.5,341.5 442.5,343.5 441.5,345.5C 439.807,346.475 438.307,347.808 437,349.5C 435.873,346.623 435.206,343.623 435,340.5C 432.853,341.113 430.686,341.779 428.5,342.5C 428.931,343.293 429.265,344.127 429.5,345C 428.054,348.283 426.387,351.449 424.5,354.5C 423.614,353.675 423.281,352.675 423.5,351.5C 421.5,351.5 419.5,351.5 417.5,351.5C 417.5,352.5 417.5,353.5 417.5,354.5C 412.122,357.183 406.455,359.183 400.5,360.5C 400.5,361.5 400.5,362.5 400.5,363.5C 397.068,363.757 393.734,364.424 390.5,365.5C 390.5,366.5 390.5,367.5 390.5,368.5C 391.978,368.238 393.311,368.571 394.5,369.5C 392.029,371.071 389.363,372.071 386.5,372.5C 386.5,371.167 386.5,369.833 386.5,368.5C 383.833,368.5 381.167,368.5 378.5,368.5C 378.64,370.124 377.973,371.29 376.5,372C 373.733,372.056 371.067,372.222 368.5,372.5C 367.532,371.511 366.365,370.844 365,370.5C 357.143,375.847 348.309,378.514 338.5,378.5C 335.854,380.132 334.521,382.465 334.5,385.5C 332.833,385.5 331.167,385.5 329.5,385.5C 329.993,380.117 328.16,378.783 324,381.5C 325.225,378.682 326.391,375.682 327.5,372.5C 330.162,367.531 332.828,362.531 335.5,357.5C 336.8,354.976 336.8,352.309 335.5,349.5C 331.339,347.815 327.006,347.148 322.5,347.5C 322.351,346.448 322.517,345.448 323,344.5C 325.333,343.587 327.166,342.087 328.5,340C 330.326,339.708 332.159,339.875 334,340.5C 342.753,338.736 351.586,337.236 360.5,336C 361.337,334.989 361.67,333.822 361.5,332.5C 365.459,332.071 368.959,333.071 372,335.5C 372.818,330.206 373.318,330.206 373.5,335.5C 376.448,335.777 379.281,335.444 382,334.5C 383.182,332.656 384.349,330.823 385.5,329C 384.394,327.118 384.394,325.284 385.5,323.5C 389.889,324.348 394.223,325.348 398.5,326.5C 398.5,324.167 398.5,321.833 398.5,319.5C 402.192,319.676 404.192,318.009 404.5,314.5C 408.285,314.631 411.952,315.298 415.5,316.5C 415.5,314.5 415.5,312.5 415.5,310.5C 419.401,309.359 423.401,308.526 427.5,308C 428.423,305.959 428.756,303.792 428.5,301.5C 434.927,299.762 437.594,302.095 436.5,308.5C 437.5,308.5 438.5,308.5 439.5,308.5C 441.697,298.34 443.03,287.673 443.5,276.5C 446.429,275.244 449.262,273.91 452,272.5C 452.561,273.022 453.228,273.355 454,273.5C 456.795,272.815 459.628,272.315 462.5,272C 461.833,271.667 461.167,271.333 460.5,271C 463.199,269.031 466.199,267.864 469.5,267.5C 471.581,263.544 474.081,259.878 477,256.5C 477.333,258.5 477.667,260.5 478,262.5C 478.949,260.907 480.115,259.574 481.5,258.5 Z"/></g>
<g><path style="opacity:1" fill="#f3c9b7" d="M 216.5,290.5 C 217.327,295.985 217.827,301.652 218,307.5C 218.5,308 219,308.5 219.5,309C 217.266,311.063 215.266,313.229 213.5,315.5C 213.5,314.833 213.5,314.167 213.5,313.5C 214.158,312.602 214.824,311.602 215.5,310.5C 216.497,303.866 216.83,297.2 216.5,290.5 Z"/></g>
<g><path style="opacity:1" fill="#ed551b" d="M 77.5,307.5 C 81.5749,311.204 86.2415,313.871 91.5,315.5C 91.2011,322.289 91.8678,328.956 93.5,335.5C 92.7677,334.192 91.9344,332.858 91,331.5C 90.501,327.179 90.3343,322.846 90.5,318.5C 89.0222,318.762 87.6888,318.429 86.5,317.5C 86.7093,316.914 87.0426,316.414 87.5,316C 85.9559,315.71 84.6226,315.044 83.5,314C 81.5,314 79.5,314 77.5,314C 78.4137,312.1 78.4137,309.934 77.5,307.5 Z"/></g>
<g><path style="opacity:1" fill="#eff2f6" d="M 93.5,287.5 C 93.8212,289.048 94.8212,289.715 96.5,289.5C 96.5782,296.515 96.9115,303.515 97.5,310.5C 101.026,310.939 104.693,311.106 108.5,311C 110.192,312.401 110.859,314.234 110.5,316.5C 121.087,316.864 121.087,317.864 110.5,319.5C 115.38,320.177 119.88,321.844 124,324.5C 125.698,322.967 127.531,321.634 129.5,320.5C 131.334,321.754 133.334,322.421 135.5,322.5C 135.5,323.833 135.5,325.167 135.5,326.5C 134.127,326.343 132.793,326.51 131.5,327C 134.817,327.498 138.15,327.665 141.5,327.5C 141.5,330.167 141.5,332.833 141.5,335.5C 142.833,335.5 144.167,335.5 145.5,335.5C 145.5,336.833 145.5,338.167 145.5,339.5C 149.833,339.5 154.167,339.5 158.5,339.5C 158.5,340.833 158.5,342.167 158.5,343.5C 159.833,343.5 161.167,343.5 162.5,343.5C 162.5,344.5 162.5,345.5 162.5,346.5C 174.489,347.315 186.489,348.149 198.5,349C 199.43,350.395 199.43,351.895 198.5,353.5C 198.868,355.175 199.868,356.175 201.5,356.5C 202.167,356.833 202.833,357.167 203.5,357.5C 206.395,364.292 210.062,370.625 214.5,376.5C 214.414,377.496 214.748,378.329 215.5,379C 213.512,379.18 211.512,379.014 209.5,378.5C 209.5,379.5 209.5,380.5 209.5,381.5C 207.833,381.5 206.167,381.5 204.5,381.5C 204.5,379.833 204.5,378.167 204.5,376.5C 203.167,376.5 201.833,376.5 200.5,376.5C 200.5,375.5 200.5,374.5 200.5,373.5C 195.5,373.5 190.5,373.5 185.5,373.5C 185.52,371.857 184.853,370.524 183.5,369.5C 178.88,368.507 174.214,368.173 169.5,368.5C 169.5,367.167 169.5,365.833 169.5,364.5C 161.698,363.984 154.364,361.984 147.5,358.5C 146.614,357.675 146.281,356.675 146.5,355.5C 145.167,355.5 143.833,355.5 142.5,355.5C 142.5,353.167 142.5,350.833 142.5,348.5C 140.167,348.5 137.833,348.5 135.5,348.5C 135.5,349.5 135.5,350.5 135.5,351.5C 132.833,351.5 130.167,351.5 127.5,351.5C 127.5,350.167 127.5,348.833 127.5,347.5C 124.5,347.5 121.5,347.5 118.5,347.5C 118.5,344.833 118.5,342.167 118.5,339.5C 112.415,337.056 106.081,335.056 99.5,333.5C 100.401,336.872 100.401,340.205 99.5,343.5C 98.1936,342.088 97.3603,340.421 97,338.5C 96.3292,337.748 95.4959,337.414 94.5,337.5C 94.6716,336.508 94.3382,335.842 93.5,335.5C 91.8678,328.956 91.2011,322.289 91.5,315.5C 91.1497,309.602 91.1497,303.602 91.5,297.5C 89.1229,297.216 86.9562,297.216 85,297.5C 80.8673,292.68 76.0339,288.68 70.5,285.5C 68.0268,284.203 65.6934,284.203 63.5,285.5C 62.8826,285.389 62.3826,285.056 62,284.5C 60.8462,280.546 60.0129,276.546 59.5,272.5C 61.8568,272.337 64.1902,272.503 66.5,273C 68.076,274.577 69.9094,275.744 72,276.5C 72.772,276.355 73.4387,276.022 74,275.5C 76.8522,277.335 79.6855,279.169 82.5,281C 87.2055,281.529 90.8722,283.696 93.5,287.5 Z"/></g>
<g><path style="opacity:1" fill="#f7fafe" d="M 156.5,316.5 C 158.636,318.812 160.636,321.312 162.5,324C 163.745,324.791 165.078,325.291 166.5,325.5C 167.262,327.262 168.596,328.262 170.5,328.5C 170.973,329.906 171.973,330.573 173.5,330.5C 173.611,331.117 173.944,331.617 174.5,332C 181.524,332.169 188.524,332.669 195.5,333.5C 196.212,335.046 197.378,336.046 199,336.5C 203.286,333.315 205.786,334.315 206.5,339.5C 207.833,339.5 209.167,339.5 210.5,339.5C 210.5,340.833 210.5,342.167 210.5,343.5C 211.833,343.5 213.167,343.5 214.5,343.5C 214.5,344.833 214.5,346.167 214.5,347.5C 209.771,347.413 205.605,348.746 202,351.5C 201.506,353.134 201.34,354.801 201.5,356.5C 199.868,356.175 198.868,355.175 198.5,353.5C 199.43,351.895 199.43,350.395 198.5,349C 186.489,348.149 174.489,347.315 162.5,346.5C 162.5,345.5 162.5,344.5 162.5,343.5C 161.167,343.5 159.833,343.5 158.5,343.5C 158.5,342.167 158.5,340.833 158.5,339.5C 154.167,339.5 149.833,339.5 145.5,339.5C 145.5,338.167 145.5,336.833 145.5,335.5C 144.167,335.5 142.833,335.5 141.5,335.5C 141.5,332.833 141.5,330.167 141.5,327.5C 138.15,327.665 134.817,327.498 131.5,327C 132.793,326.51 134.127,326.343 135.5,326.5C 135.5,325.167 135.5,323.833 135.5,322.5C 133.334,322.421 131.334,321.754 129.5,320.5C 127.531,321.634 125.698,322.967 124,324.5C 119.88,321.844 115.38,320.177 110.5,319.5C 121.087,317.864 121.087,316.864 110.5,316.5C 110.859,314.234 110.192,312.401 108.5,311C 104.693,311.106 101.026,310.939 97.5,310.5C 96.9115,303.515 96.5782,296.515 96.5,289.5C 94.8212,289.715 93.8212,289.048 93.5,287.5C 93.4208,286.07 93.7542,284.736 94.5,283.5C 91.1953,282.129 88.5286,279.963 86.5,277C 81.2896,274.899 75.9563,273.066 70.5,271.5C 69.4421,267.108 66.7754,264.442 62.5,263.5C 61.6631,259.166 61.1631,254.832 61,250.5C 61.813,252.436 62.313,254.436 62.5,256.5C 63.9778,256.238 65.3112,256.571 66.5,257.5C 67.8587,259.692 69.6921,261.359 72,262.5C 72.6667,261.833 73.3333,261.167 74,260.5C 75.8259,262.074 77.9925,262.907 80.5,263C 82.8336,265.496 84.5002,268.329 85.5,271.5C 90.1797,272.672 94.513,274.672 98.5,277.5C 101.524,279.107 103.19,281.607 103.5,285C 106.482,285.498 109.482,285.665 112.5,285.5C 112.5,287.833 112.5,290.167 112.5,292.5C 114.262,292.357 115.929,292.691 117.5,293.5C 118.329,298.467 118.829,303.467 119,308.5C 121.547,309.473 123.047,311.307 123.5,314C 126.852,315.092 130.019,316.592 133,318.5C 135.02,317.968 135.853,316.635 135.5,314.5C 138.167,314.5 140.833,314.5 143.5,314.5C 143.5,315.833 143.5,317.167 143.5,318.5C 144.833,318.5 146.167,318.5 147.5,318.5C 147.192,320.924 147.526,323.257 148.5,325.5C 149.451,326.326 150.451,326.492 151.5,326C 149.993,325.163 149.493,323.996 150,322.5C 151.713,320.493 153.379,318.493 155,316.5C 155.779,319.097 156.279,319.097 156.5,316.5 Z"/></g>
<g><path style="opacity:1" fill="#f7caa4" d="M 204.5,326.5 C 201.453,329.19 197.787,330.524 193.5,330.5C 196.902,328.722 200.569,327.389 204.5,326.5 Z"/></g>
<g><path style="opacity:1" fill="#ecb89a" d="M 170.5,328.5 C 178.037,330.258 185.704,330.925 193.5,330.5C 186.963,331.774 180.296,331.774 173.5,330.5C 171.973,330.573 170.973,329.906 170.5,328.5 Z"/></g>
<g><path style="opacity:1" fill="#ef845a" d="M 447.5,316.5 C 447.666,321.511 447.499,326.511 447,331.5C 446.768,332.737 446.268,333.737 445.5,334.5C 445.982,328.34 446.649,322.34 447.5,316.5 Z"/></g>
<g><path style="opacity:1" fill="#e8612e" d="M 444.5,339.5 C 443.854,347.442 441.188,354.442 436.5,360.5C 438.453,355.594 440.12,350.594 441.5,345.5C 442.5,343.5 443.5,341.5 444.5,339.5 Z"/></g>
<g><path style="opacity:1" fill="#e87f4e" d="M 99.5,353.5 C 101.832,358.158 104.165,362.825 106.5,367.5C 102.607,363.715 100.274,359.048 99.5,353.5 Z"/></g>
<g><path style="opacity:1" fill="#e7c8bf" d="M 431.5,368.5 C 429.329,372.844 426.663,376.844 423.5,380.5C 421.413,381.585 420.08,383.251 419.5,385.5C 416.122,389.174 412.789,392.841 409.5,396.5C 408.833,396.5 408.167,396.5 407.5,396.5C 408.794,394.672 409.794,392.672 410.5,390.5C 412.903,390.607 414.736,389.607 416,387.5C 416.727,385.047 417.727,382.714 419,380.5C 419.333,380.833 419.667,381.167 420,381.5C 420.49,380.207 420.657,378.873 420.5,377.5C 421.833,377.5 423.167,377.5 424.5,377.5C 424.433,376.041 424.766,374.708 425.5,373.5C 427.183,371.486 429.183,369.82 431.5,368.5 Z"/></g>
<g><path style="opacity:1" fill="#dc8354" d="M 423.5,380.5 C 422.92,382.749 421.587,384.415 419.5,385.5C 420.08,383.251 421.413,381.585 423.5,380.5 Z"/></g>
<g><path style="opacity:1" fill="#e2eaee" d="M 214.5,376.5 C 218.167,379.833 221.833,383.167 225.5,386.5C 247.602,402.567 271.602,405.733 297.5,396C 303.604,393.033 309.271,389.533 314.5,385.5C 319.194,381.473 323.527,377.14 327.5,372.5C 326.391,375.682 325.225,378.682 324,381.5C 328.16,378.783 329.993,380.117 329.5,385.5C 331.167,385.5 332.833,385.5 334.5,385.5C 334.521,382.465 335.854,380.132 338.5,378.5C 348.309,378.514 357.143,375.847 365,370.5C 366.365,370.844 367.532,371.511 368.5,372.5C 371.067,372.222 373.733,372.056 376.5,372C 377.973,371.29 378.64,370.124 378.5,368.5C 381.167,368.5 383.833,368.5 386.5,368.5C 386.5,369.833 386.5,371.167 386.5,372.5C 389.363,372.071 392.029,371.071 394.5,369.5C 393.311,368.571 391.978,368.238 390.5,368.5C 390.5,367.5 390.5,366.5 390.5,365.5C 393.734,364.424 397.068,363.757 400.5,363.5C 400.5,362.5 400.5,361.5 400.5,360.5C 406.455,359.183 412.122,357.183 417.5,354.5C 417.5,353.5 417.5,352.5 417.5,351.5C 419.5,351.5 421.5,351.5 423.5,351.5C 423.281,352.675 423.614,353.675 424.5,354.5C 426.387,351.449 428.054,348.283 429.5,345C 429.265,344.127 428.931,343.293 428.5,342.5C 430.686,341.779 432.853,341.113 435,340.5C 435.206,343.623 435.873,346.623 437,349.5C 438.307,347.808 439.807,346.475 441.5,345.5C 440.12,350.594 438.453,355.594 436.5,360.5C 434.833,363.167 433.167,365.833 431.5,368.5C 429.183,369.82 427.183,371.486 425.5,373.5C 424.167,373.5 422.833,373.5 421.5,373.5C 421.5,372.5 421.5,371.5 421.5,370.5C 420.167,370.5 418.833,370.5 417.5,370.5C 417.33,369.178 417.663,368.011 418.5,367C 415.989,366.418 413.989,367.251 412.5,369.5C 404.8,371.087 397.467,373.587 390.5,377C 389.027,377.71 388.36,378.876 388.5,380.5C 383.472,381.414 378.472,381.581 373.5,381C 371.043,382.512 371.043,383.846 373.5,385C 366.181,386.404 358.848,387.737 351.5,389C 354.668,389.582 355.001,390.582 352.5,392C 349.905,392.226 347.405,392.726 345,393.5C 344.667,392.833 344.333,392.167 344,391.5C 334.577,393.116 325.077,394.449 315.5,395.5C 315.719,396.675 315.386,397.675 314.5,398.5C 310.14,397.554 305.974,397.554 302,398.5C 300.72,398.613 299.887,399.28 299.5,400.5C 297.257,401.474 294.924,401.808 292.5,401.5C 292.5,402.5 292.5,403.5 292.5,404.5C 273.029,406.97 254.029,405.137 235.5,399C 222.526,397.688 209.526,396.855 196.5,396.5C 196.5,395.5 196.5,394.5 196.5,393.5C 194.833,393.5 193.167,393.5 191.5,393.5C 191.5,392.5 191.5,391.5 191.5,390.5C 189.549,390.773 188.049,390.107 187,388.5C 185.769,389.108 184.436,389.441 183,389.5C 177.848,388.862 172.681,388.362 167.5,388C 166.833,387.333 166.167,386.667 165.5,386C 159.087,385.953 153.421,383.953 148.5,380C 146.19,379.503 143.857,379.337 141.5,379.5C 141.762,378.022 141.429,376.689 140.5,375.5C 140.511,376.441 140.011,377.108 139,377.5C 135.283,376.131 131.45,375.464 127.5,375.5C 127.5,374.5 127.5,373.5 127.5,372.5C 122.926,372.185 118.926,371.685 115.5,371C 115.167,371.333 114.833,371.667 114.5,372C 118.466,374.358 118.466,376.525 114.5,378.5C 111.601,375.048 108.934,371.382 106.5,367.5C 104.165,362.825 101.832,358.158 99.5,353.5C 96.7347,348.605 95.0681,343.271 94.5,337.5C 95.4959,337.414 96.3292,337.748 97,338.5C 97.3603,340.421 98.1936,342.088 99.5,343.5C 100.401,340.205 100.401,336.872 99.5,333.5C 106.081,335.056 112.415,337.056 118.5,339.5C 118.5,342.167 118.5,344.833 118.5,347.5C 121.5,347.5 124.5,347.5 127.5,347.5C 127.5,348.833 127.5,350.167 127.5,351.5C 130.167,351.5 132.833,351.5 135.5,351.5C 135.5,350.5 135.5,349.5 135.5,348.5C 137.833,348.5 140.167,348.5 142.5,348.5C 142.5,350.833 142.5,353.167 142.5,355.5C 143.833,355.5 145.167,355.5 146.5,355.5C 146.281,356.675 146.614,357.675 147.5,358.5C 154.364,361.984 161.698,363.984 169.5,364.5C 169.5,365.833 169.5,367.167 169.5,368.5C 174.214,368.173 178.88,368.507 183.5,369.5C 184.853,370.524 185.52,371.857 185.5,373.5C 190.5,373.5 195.5,373.5 200.5,373.5C 200.5,374.5 200.5,375.5 200.5,376.5C 201.833,376.5 203.167,376.5 204.5,376.5C 204.5,378.167 204.5,379.833 204.5,381.5C 206.167,381.5 207.833,381.5 209.5,381.5C 209.5,380.5 209.5,379.5 209.5,378.5C 211.512,379.014 213.512,379.18 215.5,379C 214.748,378.329 214.414,377.496 214.5,376.5 Z"/></g>
<g><path style="opacity:1" fill="#020a0a" d="M 321.5,350.5 C 325.182,350.335 328.848,350.501 332.5,351C 334.919,352.509 335.919,354.675 335.5,357.5C 332.828,362.531 330.162,367.531 327.5,372.5C 323.527,377.14 319.194,381.473 314.5,385.5C 308.915,385.607 303.249,385.274 297.5,384.5C 295.311,380.783 292.644,378.283 289.5,377C 285.984,376.211 282.651,376.711 279.5,378.5C 277.109,377.809 277.109,376.809 279.5,375.5C 277.833,373.833 276.167,372.167 274.5,370.5C 273.158,372.005 271.492,372.672 269.5,372.5C 269.5,373.5 269.5,374.5 269.5,375.5C 265.029,375.672 264.696,376.506 268.5,378C 267.667,378.167 266.833,378.333 266,378.5C 263.418,376.258 260.418,374.925 257,374.5C 254.113,375.104 251.28,375.771 248.5,376.5C 248.821,380.853 246.821,383.519 242.5,384.5C 239.679,385.971 237.179,385.637 235,383.5C 232.258,385.558 229.091,386.558 225.5,386.5C 221.833,383.167 218.167,379.833 214.5,376.5C 210.062,370.625 206.395,364.292 203.5,357.5C 203.366,355.708 203.699,354.042 204.5,352.5C 216.597,350.857 228.763,349.857 241,349.5C 244.603,349.55 247.936,350.217 251,351.5C 263.341,350.594 275.841,349.927 288.5,349.5C 299.504,349.778 310.504,350.111 321.5,350.5 Z"/></g>
<g><path style="opacity:1" fill="#c1c5c7" d="M 322.5,347.5 C 327.006,347.148 331.339,347.815 335.5,349.5C 336.8,352.309 336.8,354.976 335.5,357.5C 335.919,354.675 334.919,352.509 332.5,351C 328.848,350.501 325.182,350.335 321.5,350.5C 318.359,349.679 315.025,349.179 311.5,349C 282.5,348.333 253.5,348.333 224.5,349C 218.473,349.427 212.473,350.093 206.5,351C 205.584,351.278 204.918,351.778 204.5,352.5C 203.699,354.042 203.366,355.708 203.5,357.5C 202.833,357.167 202.167,356.833 201.5,356.5C 201.34,354.801 201.506,353.134 202,351.5C 205.605,348.746 209.771,347.413 214.5,347.5C 250.512,345.006 286.512,345.006 322.5,347.5 Z"/></g>
<g><path style="opacity:1" fill="#1c2020" d="M 321.5,350.5 C 310.504,350.111 299.504,349.778 288.5,349.5C 275.841,349.927 263.341,350.594 251,351.5C 247.936,350.217 244.603,349.55 241,349.5C 228.763,349.857 216.597,350.857 204.5,352.5C 204.918,351.778 205.584,351.278 206.5,351C 212.473,350.093 218.473,349.427 224.5,349C 253.5,348.333 282.5,348.333 311.5,349C 315.025,349.179 318.359,349.679 321.5,350.5 Z"/></g>
<g><path style="opacity:1" fill="#ced7de" d="M 116.5,381.5 C 120.059,382.817 123.725,383.817 127.5,384.5C 128.262,385.628 128.929,386.795 129.5,388C 134,387.834 136.167,390 136,394.5C 136.414,394.043 136.914,393.709 137.5,393.5C 140.766,396.045 144.432,396.878 148.5,396C 146.831,394.331 144.831,393.498 142.5,393.5C 142.5,391.833 142.5,390.167 142.5,388.5C 144.869,388.851 147.203,389.018 149.5,389C 150.135,384.881 151.802,384.547 154.5,388C 157.117,388.822 159.784,389.322 162.5,389.5C 162.577,392.012 161.577,394.012 159.5,395.5C 158.158,393.995 156.492,393.328 154.5,393.5C 154.5,394.5 154.5,395.5 154.5,396.5C 156.821,396.229 158.821,396.896 160.5,398.5C 161.325,402.122 161.825,405.789 162,409.5C 162.71,408.027 163.876,407.36 165.5,407.5C 165.343,408.873 165.51,410.207 166,411.5C 167.032,407.137 168.199,402.804 169.5,398.5C 174.78,397.382 180.113,397.216 185.5,398C 186.167,399 186.833,400 187.5,401C 191.161,401.582 194.328,403.082 197,405.5C 198.333,402.833 199.667,402.833 201,405.5C 209.391,405.689 217.891,405.355 226.5,404.5C 228.833,404.667 231.167,404.833 233.5,405C 229.459,405.173 225.459,405.673 221.5,406.5C 229.837,407.876 238.17,408.21 246.5,407.5C 247,406.5 247.5,405.5 248,404.5C 248.519,405.516 249.353,406.182 250.5,406.5C 253.541,406.982 256.541,407.649 259.5,408.5C 260.853,409.524 261.52,410.857 261.5,412.5C 264.085,413.71 272.085,414.043 285.5,413.5C 285.5,412.167 285.5,410.833 285.5,409.5C 307.095,407.213 328.761,406.213 350.5,406.5C 350.286,402.743 351.286,402.076 353.5,404.5C 357.217,402.656 361.217,401.989 365.5,402.5C 366.833,399.5 368.167,396.5 369.5,393.5C 371.527,393.662 373.527,393.495 375.5,393C 376.337,391.989 376.67,390.822 376.5,389.5C 377.5,389.5 378.5,389.5 379.5,389.5C 379.5,390.5 379.5,391.5 379.5,392.5C 383.179,392.724 386.846,393.058 390.5,393.5C 390.579,394.93 390.246,396.264 389.5,397.5C 390.955,398.745 392.289,398.578 393.5,397C 392.663,395.989 392.33,394.822 392.5,393.5C 397.203,393.563 401.87,393.229 406.5,392.5C 406.232,394.099 406.566,395.432 407.5,396.5C 404.527,398.806 401.86,401.473 399.5,404.5C 396.796,404.67 395.129,406.003 394.5,408.5C 391.296,409.383 388.629,411.05 386.5,413.5C 382.032,415.903 377.699,418.57 373.5,421.5C 370.828,422.501 368.162,423.501 365.5,424.5C 360.109,425.223 355.109,427.056 350.5,430C 346.29,430.738 342.124,430.572 338,429.5C 335.79,431.111 333.29,431.778 330.5,431.5C 330.5,430.5 330.5,429.5 330.5,428.5C 327.042,427.78 323.542,427.113 320,426.5C 314.855,427.162 310.189,428.829 306,431.5C 304.338,431.612 303.171,430.946 302.5,429.5C 297.198,428.337 291.864,428.171 286.5,429C 284.941,430.631 282.941,431.464 280.5,431.5C 271.241,429.63 261.907,429.13 252.5,430C 250.989,431.615 249.656,431.615 248.5,430C 244.167,429.667 239.833,429.333 235.5,429C 233.76,427.173 232.093,427.34 230.5,429.5C 228.679,428.272 227.679,426.606 227.5,424.5C 223.993,423.994 220.826,424.66 218,426.5C 215.617,425.234 212.95,424.568 210,424.5C 207.5,424.667 205,424.833 202.5,425C 200.752,426.87 198.585,428.037 196,428.5C 192.899,426.28 189.565,425.947 186,427.5C 183.699,426.133 181.199,425.466 178.5,425.5C 178.354,418.357 175.187,416.69 169,420.5C 167.56,419.852 166.06,419.519 164.5,419.5C 164.5,417.833 164.5,416.167 164.5,414.5C 162.266,414.38 160.099,414.713 158,415.5C 156.403,414.115 154.57,413.449 152.5,413.5C 138.57,405.17 126.57,394.504 116.5,381.5 Z"/></g>
<g><path style="opacity:1" fill="#ea8767" d="M 407.5,396.5 C 408.167,396.5 408.833,396.5 409.5,396.5C 406.461,399.54 403.127,402.206 399.5,404.5C 401.86,401.473 404.527,398.806 407.5,396.5 Z"/></g>
<g><path style="opacity:1" fill="#d2dee4" d="M 425.5,373.5 C 424.766,374.708 424.433,376.041 424.5,377.5C 423.167,377.5 421.833,377.5 420.5,377.5C 420.657,378.873 420.49,380.207 420,381.5C 419.667,381.167 419.333,380.833 419,380.5C 417.727,382.714 416.727,385.047 416,387.5C 414.736,389.607 412.903,390.607 410.5,390.5C 409.794,392.672 408.794,394.672 407.5,396.5C 406.566,395.432 406.232,394.099 406.5,392.5C 401.87,393.229 397.203,393.563 392.5,393.5C 392.33,394.822 392.663,395.989 393.5,397C 392.289,398.578 390.955,398.745 389.5,397.5C 390.246,396.264 390.579,394.93 390.5,393.5C 386.846,393.058 383.179,392.724 379.5,392.5C 379.5,391.5 379.5,390.5 379.5,389.5C 378.5,389.5 377.5,389.5 376.5,389.5C 376.67,390.822 376.337,391.989 375.5,393C 373.527,393.495 371.527,393.662 369.5,393.5C 368.167,396.5 366.833,399.5 365.5,402.5C 361.217,401.989 357.217,402.656 353.5,404.5C 351.286,402.076 350.286,402.743 350.5,406.5C 328.761,406.213 307.095,407.213 285.5,409.5C 285.5,410.833 285.5,412.167 285.5,413.5C 272.085,414.043 264.085,413.71 261.5,412.5C 261.52,410.857 260.853,409.524 259.5,408.5C 256.541,407.649 253.541,406.982 250.5,406.5C 249.353,406.182 248.519,405.516 248,404.5C 247.5,405.5 247,406.5 246.5,407.5C 238.17,408.21 229.837,407.876 221.5,406.5C 225.459,405.673 229.459,405.173 233.5,405C 231.167,404.833 228.833,404.667 226.5,404.5C 217.891,405.355 209.391,405.689 201,405.5C 199.667,402.833 198.333,402.833 197,405.5C 194.328,403.082 191.161,401.582 187.5,401C 186.833,400 186.167,399 185.5,398C 180.113,397.216 174.78,397.382 169.5,398.5C 168.199,402.804 167.032,407.137 166,411.5C 165.51,410.207 165.343,408.873 165.5,407.5C 163.876,407.36 162.71,408.027 162,409.5C 161.825,405.789 161.325,402.122 160.5,398.5C 158.821,396.896 156.821,396.229 154.5,396.5C 154.5,395.5 154.5,394.5 154.5,393.5C 156.492,393.328 158.158,393.995 159.5,395.5C 161.577,394.012 162.577,392.012 162.5,389.5C 159.784,389.322 157.117,388.822 154.5,388C 151.802,384.547 150.135,384.881 149.5,389C 147.203,389.018 144.869,388.851 142.5,388.5C 142.5,390.167 142.5,391.833 142.5,393.5C 144.831,393.498 146.831,394.331 148.5,396C 144.432,396.878 140.766,396.045 137.5,393.5C 136.914,393.709 136.414,394.043 136,394.5C 136.167,390 134,387.834 129.5,388C 128.929,386.795 128.262,385.628 127.5,384.5C 123.725,383.817 120.059,382.817 116.5,381.5C 115.833,380.5 115.167,379.5 114.5,378.5C 118.466,376.525 118.466,374.358 114.5,372C 114.833,371.667 115.167,371.333 115.5,371C 118.926,371.685 122.926,372.185 127.5,372.5C 127.5,373.5 127.5,374.5 127.5,375.5C 131.45,375.464 135.283,376.131 139,377.5C 140.011,377.108 140.511,376.441 140.5,375.5C 141.429,376.689 141.762,378.022 141.5,379.5C 143.857,379.337 146.19,379.503 148.5,380C 153.421,383.953 159.087,385.953 165.5,386C 166.167,386.667 166.833,387.333 167.5,388C 172.681,388.362 177.848,388.862 183,389.5C 184.436,389.441 185.769,389.108 187,388.5C 188.049,390.107 189.549,390.773 191.5,390.5C 191.5,391.5 191.5,392.5 191.5,393.5C 193.167,393.5 194.833,393.5 196.5,393.5C 196.5,394.5 196.5,395.5 196.5,396.5C 209.526,396.855 222.526,397.688 235.5,399C 254.029,405.137 273.029,406.97 292.5,404.5C 292.5,403.5 292.5,402.5 292.5,401.5C 294.924,401.808 297.257,401.474 299.5,400.5C 299.887,399.28 300.72,398.613 302,398.5C 305.974,397.554 310.14,397.554 314.5,398.5C 315.386,397.675 315.719,396.675 315.5,395.5C 325.077,394.449 334.577,393.116 344,391.5C 344.333,392.167 344.667,392.833 345,393.5C 347.405,392.726 349.905,392.226 352.5,392C 355.001,390.582 354.668,389.582 351.5,389C 358.848,387.737 366.181,386.404 373.5,385C 371.043,383.846 371.043,382.512 373.5,381C 378.472,381.581 383.472,381.414 388.5,380.5C 388.36,378.876 389.027,377.71 390.5,377C 397.467,373.587 404.8,371.087 412.5,369.5C 413.989,367.251 415.989,366.418 418.5,367C 417.663,368.011 417.33,369.178 417.5,370.5C 418.833,370.5 420.167,370.5 421.5,370.5C 421.5,371.5 421.5,372.5 421.5,373.5C 422.833,373.5 424.167,373.5 425.5,373.5 Z"/></g>
<g><path style="opacity:1" fill="#0c191b" d="M 314.5,385.5 C 309.271,389.533 303.604,393.033 297.5,396C 271.602,405.733 247.602,402.567 225.5,386.5C 229.091,386.558 232.258,385.558 235,383.5C 237.179,385.637 239.679,385.971 242.5,384.5C 246.821,383.519 248.821,380.853 248.5,376.5C 251.28,375.771 254.113,375.104 257,374.5C 260.418,374.925 263.418,376.258 266,378.5C 266.833,378.333 267.667,378.167 268.5,378C 264.696,376.506 265.029,375.672 269.5,375.5C 269.5,374.5 269.5,373.5 269.5,372.5C 271.492,372.672 273.158,372.005 274.5,370.5C 276.167,372.167 277.833,373.833 279.5,375.5C 277.109,376.809 277.109,377.809 279.5,378.5C 282.651,376.711 285.984,376.211 289.5,377C 292.644,378.283 295.311,380.783 297.5,384.5C 303.249,385.274 308.915,385.607 314.5,385.5 Z"/></g>
<g><path style="opacity:1" fill="#f29580" d="M 399.5,404.5 C 398.055,406.063 396.389,407.396 394.5,408.5C 395.129,406.003 396.796,404.67 399.5,404.5 Z"/></g>
<g><path style="opacity:1" fill="#ea8f71" d="M 394.5,408.5 C 392.371,410.95 389.704,412.617 386.5,413.5C 388.629,411.05 391.296,409.383 394.5,408.5 Z"/></g>
<g><path style="opacity:1" fill="#f2a181" d="M 164.5,420.5 C 168.833,422.5 173.167,424.5 177.5,426.5C 177.5,426.833 177.5,427.167 177.5,427.5C 172.432,426.41 168.099,424.076 164.5,420.5 Z"/></g>
<g><path style="opacity:1" fill="#dcdce3" d="M 152.5,413.5 C 154.57,413.449 156.403,414.115 158,415.5C 160.099,414.713 162.266,414.38 164.5,414.5C 164.5,416.167 164.5,417.833 164.5,419.5C 166.06,419.519 167.56,419.852 169,420.5C 175.187,416.69 178.354,418.357 178.5,425.5C 181.199,425.466 183.699,426.133 186,427.5C 189.565,425.947 192.899,426.28 196,428.5C 198.585,428.037 200.752,426.87 202.5,425C 205,424.833 207.5,424.667 210,424.5C 212.95,424.568 215.617,425.234 218,426.5C 220.826,424.66 223.993,423.994 227.5,424.5C 227.679,426.606 228.679,428.272 230.5,429.5C 232.093,427.34 233.76,427.173 235.5,429C 239.833,429.333 244.167,429.667 248.5,430C 249.656,431.615 250.989,431.615 252.5,430C 261.907,429.13 271.241,429.63 280.5,431.5C 282.941,431.464 284.941,430.631 286.5,429C 291.864,428.171 297.198,428.337 302.5,429.5C 303.171,430.946 304.338,431.612 306,431.5C 310.189,428.829 314.855,427.162 320,426.5C 323.542,427.113 327.042,427.78 330.5,428.5C 330.5,429.5 330.5,430.5 330.5,431.5C 333.29,431.778 335.79,431.111 338,429.5C 342.124,430.572 346.29,430.738 350.5,430C 355.109,427.056 360.109,425.223 365.5,424.5C 364.167,425.5 362.833,426.5 361.5,427.5C 353.267,431.61 344.6,434.61 335.5,436.5C 325.282,438.69 314.948,440.023 304.5,440.5C 296.528,437.889 288.528,437.889 280.5,440.5C 275.584,439.339 270.584,438.673 265.5,438.5C 261.075,438.537 256.909,439.204 253,440.5C 243.418,439.003 233.585,438.337 223.5,438.5C 223.5,437.167 223.5,435.833 223.5,434.5C 221.833,434.5 220.167,434.5 218.5,434.5C 218.5,435.5 218.5,436.5 218.5,437.5C 215.934,437.344 213.434,437.678 211,438.5C 208.453,436.823 205.62,436.156 202.5,436.5C 203.335,431.008 201.668,429.674 197.5,432.5C 190.862,430.409 184.195,428.409 177.5,426.5C 173.167,424.5 168.833,422.5 164.5,420.5C 160.003,419 156.003,416.667 152.5,413.5 Z"/></g>
<g><path style="opacity:1" fill="#f3714f" d="M 373.5,421.5 C 373.631,422.376 373.298,423.043 372.5,423.5C 368.984,425.374 365.318,426.708 361.5,427.5C 362.833,426.5 364.167,425.5 365.5,424.5C 368.162,423.501 370.828,422.501 373.5,421.5 Z"/></g>
<g><path style="opacity:1" fill="#f6ac8f" d="M 184.5,430.5 C 189.607,431.266 194.274,432.932 198.5,435.5C 193.586,434.441 188.92,432.774 184.5,430.5 Z"/></g>
<g><path style="opacity:1" fill="#f0e3ea" d="M 177.5,427.5 C 177.5,427.167 177.5,426.833 177.5,426.5C 184.195,428.409 190.862,430.409 197.5,432.5C 201.668,429.674 203.335,431.008 202.5,436.5C 205.62,436.156 208.453,436.823 211,438.5C 213.434,437.678 215.934,437.344 218.5,437.5C 218.5,436.5 218.5,435.5 218.5,434.5C 220.167,434.5 221.833,434.5 223.5,434.5C 223.5,435.833 223.5,437.167 223.5,438.5C 233.585,438.337 243.418,439.003 253,440.5C 256.909,439.204 261.075,438.537 265.5,438.5C 270.584,438.673 275.584,439.339 280.5,440.5C 288.528,437.889 296.528,437.889 304.5,440.5C 302.436,441.868 300.102,442.868 297.5,443.5C 288.833,443.833 280.167,444.167 271.5,444.5C 256.674,444.603 242.007,443.936 227.5,442.5C 220.42,441.584 213.42,440.251 206.5,438.5C 203.646,437.795 200.979,436.795 198.5,435.5C 194.274,432.932 189.607,431.266 184.5,430.5C 182.02,429.758 179.687,428.758 177.5,427.5 Z"/></g>
<g><path style="opacity:1" fill="#ef6b38" d="M 206.5,438.5 C 213.42,440.251 220.42,441.584 227.5,442.5C 230.167,443.167 232.833,443.833 235.5,444.5C 228.527,443.692 221.527,442.858 214.5,442C 211.497,441.251 208.831,440.085 206.5,438.5 Z"/></g>
<g><path style="opacity:1" fill="#ef632d" d="M 323.5,440.5 C 321.259,441.621 318.925,442.787 316.5,444C 310.485,444.424 304.485,444.924 298.5,445.5C 306.679,443.609 315.012,441.942 323.5,440.5 Z"/></g>
<g><path style="opacity:1" fill="#fdd5c9" d="M 335.5,436.5 C 331.626,437.952 327.626,439.285 323.5,440.5C 315.012,441.942 306.679,443.609 298.5,445.5C 297.167,445.5 295.833,445.5 294.5,445.5C 283.176,446.087 271.843,446.42 260.5,446.5C 252.097,446.53 243.763,445.864 235.5,444.5C 232.833,443.833 230.167,443.167 227.5,442.5C 242.007,443.936 256.674,444.603 271.5,444.5C 280.167,444.167 288.833,443.833 297.5,443.5C 300.102,442.868 302.436,441.868 304.5,440.5C 314.948,440.023 325.282,438.69 335.5,436.5 Z"/></g>
<g><path style="opacity:1" fill="#ef703b" d="M 294.5,445.5 C 287.552,446.926 280.386,447.592 273,447.5C 268.653,447.499 264.486,447.166 260.5,446.5C 271.843,446.42 283.176,446.087 294.5,445.5 Z"/></g>
<g><path style="opacity:0.788" fill="#000000" d="M 236.5,535.5 C 257.833,535.5 279.167,535.5 300.5,535.5C 297.5,536.167 294.5,536.833 291.5,537.5C 276.167,537.5 260.833,537.5 245.5,537.5C 242.5,536.833 239.5,536.167 236.5,535.5 Z"/></g>
</svg>
