<?xml version="1.0" standalone="no"?>
<!DOCTYPE svg PUBLIC "-//W3C//DTD SVG 20010904//EN"
 "http://www.w3.org/TR/2001/REC-SVG-20010904/DTD/svg10.dtd">
<svg version="1.0" xmlns="http://www.w3.org/2000/svg"
 width="1078.000000pt" height="1078.000000pt" viewBox="0 0 1078.000000 1078.000000"
 preserveAspectRatio="xMidYMid meet">

<g transform="translate(0.000000,1078.000000) scale(0.100000,-0.100000)"
fill="#000000" stroke="none">
<path d="M5005 10763 c-272 -14 -694 -85 -1005 -169 -325 -87 -893 -304 -875
-334 3 -5 37 -10 74 -10 60 0 69 2 74 20 4 17 14 20 59 22 135 5 244 3 255 -5
15 -11 151 1 159 14 3 5 38 9 79 9 48 0 77 4 82 13 12 18 134 58 147 48 6 -5
42 -12 80 -16 38 -4 75 -9 82 -12 6 -2 26 9 43 26 32 31 55 38 79 22 12 -7 12
-12 1 -29 -7 -12 -10 -24 -6 -28 10 -11 77 28 78 46 0 10 2 11 6 3 6 -17 28
-16 43 2 7 8 16 12 21 9 10 -6 99 44 99 56 0 4 25 18 55 30 31 12 59 28 63 35
9 15 137 80 191 96 22 7 48 20 57 31 10 10 26 18 37 18 21 0 127 29 142 39 6
4 44 17 85 30 41 13 84 27 95 32 19 7 -172 9 -300 2z"/>
<path d="M5505 10764 c11 -3 36 -13 55 -21 64 -28 75 -32 115 -43 43 -12 110
-37 136 -50 9 -5 44 -14 77 -20 95 -17 238 -79 288 -125 15 -14 33 -25 40 -25
8 0 14 -4 14 -10 0 -14 79 -52 96 -46 17 7 44 -3 44 -15 0 -5 -7 -9 -15 -9
-22 0 -18 -21 5 -27 11 -3 20 -9 20 -13 0 -18 50 -17 66 1 20 22 39 12 48 -26
4 -14 12 -25 19 -26 6 0 71 -2 142 -4 72 -2 146 -8 165 -14 19 -5 46 -12 60
-16 83 -21 134 -42 138 -57 3 -15 16 -18 67 -18 40 0 69 -5 77 -14 9 -8 53
-16 122 -21 81 -5 117 -12 143 -27 29 -17 49 -20 139 -19 58 1 130 -3 160 -10
39 -9 57 -9 67 -1 10 9 23 6 54 -9 24 -12 59 -20 85 -19 23 0 54 1 68 0 25 0
25 0 4 15 -12 8 -86 48 -165 89 -664 345 -1479 563 -2174 581 -99 2 -171 2
-160 -1z"/>
<path d="M5522 10472 l-23 -4 22 -19 c17 -14 25 -16 36 -8 26 22 9 38 -35 31z"/>
<path d="M5323 10455 c-10 -27 -1 -31 75 -33 49 -2 55 -25 9 -30 -16 -2 -36
-16 -49 -32 -27 -37 -38 -30 -38 22 0 34 -2 39 -15 28 -8 -6 -19 -9 -25 -5 -5
3 -10 2 -10 -3 0 -6 7 -12 15 -16 19 -7 20 -46 2 -46 -8 0 -22 -8 -32 -18 -13
-11 -29 -16 -48 -14 -22 4 -29 0 -34 -16 -7 -30 -33 -36 -58 -12 -22 21 -45
26 -45 11 0 -5 8 -12 18 -15 9 -2 0 -2 -20 1 -37 5 -53 -9 -25 -21 6 -3 3 -4
-8 -3 -11 1 -19 -3 -18 -9 1 -7 -18 -17 -42 -23 -39 -10 -49 -9 -72 6 -26 17
-27 17 -20 -1 5 -14 4 -17 -8 -12 -20 7 -20 -18 0 -34 21 -18 19 -39 -7 -62
-19 -16 -23 -17 -30 -3 -12 20 -2 36 17 28 8 -3 15 0 15 6 0 6 -9 11 -20 11
-11 0 -20 6 -20 14 0 15 -76 34 -87 22 -4 -3 2 -6 12 -6 15 0 17 -6 12 -35 -5
-30 -3 -35 14 -35 22 0 23 -4 7 -29 -10 -16 -20 -18 -63 -14 -54 6 -78 -8 -56
-30 6 -6 11 -19 11 -28 0 -14 -8 -17 -42 -16 -24 1 -43 -2 -43 -8 0 -5 5 -9
12 -7 7 2 13 -2 13 -8 0 -5 -8 -10 -19 -10 -10 0 -24 -7 -31 -15 -8 -9 -21
-13 -36 -9 -21 5 -24 3 -24 -20 0 -15 -7 -29 -15 -32 -20 -8 -19 -31 1 -42 13
-7 24 -2 45 23 16 18 29 38 29 44 0 6 10 11 23 11 13 0 28 5 34 11 8 8 13 5
18 -10 5 -16 15 -21 41 -21 23 0 38 -6 46 -20 16 -26 28 -26 28 1 0 11 5 17
10 14 6 -4 8 -10 5 -15 -3 -5 -1 -11 4 -14 5 -4 12 -2 16 4 11 17 33 11 40
-11 5 -15 10 -18 18 -10 18 18 46 13 62 -13 13 -19 14 -28 4 -50 -8 -17 -18
-25 -27 -21 -27 10 -33 -7 -10 -32 l23 -25 -35 4 c-32 3 -35 6 -36 34 -2 64
-39 76 -50 17 -4 -21 -11 -40 -15 -43 -11 -7 0 -50 13 -50 5 0 8 8 6 18 -2 11
3 17 17 17 17 0 19 -6 17 -34 -4 -39 9 -51 54 -51 19 0 34 -6 38 -15 6 -17 36
-21 36 -5 0 14 27 13 32 -2 8 -22 37 0 32 24 l-5 23 11 -23 c6 -15 14 -21 22
-15 15 9 79 33 90 33 4 0 5 -8 2 -17 -5 -14 -4 -15 4 -4 7 10 31 14 81 14 49
-1 74 4 82 14 9 10 14 11 19 2 6 -8 13 -8 29 0 12 7 43 11 69 11 26 -1 66 3
89 9 25 6 51 7 65 2 27 -10 98 -3 116 12 18 14 36 -6 38 -43 1 -23 -3 -30 -17
-30 -24 0 -32 -15 -15 -29 10 -8 16 -9 21 -1 3 6 10 8 15 5 5 -3 -7 -22 -26
-43 -19 -20 -32 -43 -29 -50 3 -8 5 -20 5 -28 0 -8 5 -14 11 -14 6 0 8 9 4 20
-5 16 -2 20 14 20 14 0 21 6 21 19 0 20 13 35 22 25 3 -2 0 -21 -7 -42 -9 -24
-21 -39 -39 -45 -31 -10 -58 6 -49 29 3 9 -7 19 -31 29 -20 8 -36 20 -36 26 0
5 -4 7 -10 4 -18 -11 -11 -42 13 -58 12 -8 18 -19 14 -23 -14 -15 -42 12 -45
45 -4 37 -36 44 -45 10 -6 -24 -34 -21 -29 3 1 9 -5 21 -13 28 -12 10 -15 9
-15 -7 0 -23 -34 -53 -60 -53 -11 0 -20 7 -20 15 0 15 -10 19 -42 16 -9 -1
-19 3 -23 9 -9 15 -25 12 -25 -5 0 -7 -8 -19 -17 -24 -16 -9 -16 -12 -3 -22
13 -9 13 -10 -1 -6 -9 3 -21 1 -26 -4 -6 -6 -17 -1 -31 11 -11 11 -26 20 -32
20 -5 0 -10 6 -10 14 0 23 -17 28 -35 10 -11 -11 -25 -14 -45 -10 -16 3 -32 1
-35 -4 -11 -18 -35 -11 -44 12 l-8 22 -12 -22 c-6 -12 -17 -22 -24 -22 -7 0
-23 -9 -37 -20 -18 -13 -28 -16 -38 -8 -9 8 -17 6 -31 -6 -18 -17 -20 -16 -26
5 -7 20 -8 20 -17 6 -13 -24 -28 -21 -25 5 1 14 -4 23 -15 26 -13 2 -18 -3
-18 -17 0 -12 4 -21 10 -21 12 0 34 -40 26 -48 -3 -3 -17 5 -31 18 -14 13 -25
18 -25 12 0 -14 -39 -16 -60 -2 -12 7 -8 11 18 16 28 6 30 8 16 19 -18 13 -12
51 5 40 15 -9 22 11 25 64 2 49 2 49 -21 34 -20 -14 -23 -14 -23 0 0 8 9 17
20 20 11 3 20 12 20 21 0 24 -36 20 -54 -6 -12 -16 -19 -19 -27 -11 -8 8 -24
8 -57 -1 -44 -10 -73 -12 -132 -7 -23 1 -24 2 -6 13 11 6 29 11 40 12 14 1 21
8 21 21 0 16 -6 20 -31 18 l-31 -3 16 35 c13 28 18 31 27 19 14 -18 30 -18 38
1 3 8 11 12 19 9 7 -2 22 5 33 17 19 22 19 22 -4 16 -14 -3 -25 0 -32 11 -8
14 -11 15 -19 3 -5 -7 -13 -11 -19 -7 -5 3 -15 -1 -22 -9 -17 -21 -47 -19 -60
4 -14 27 -13 34 6 27 12 -4 15 -2 11 9 -4 8 -2 17 4 21 6 3 8 12 5 19 -3 8 2
19 10 26 19 16 14 53 -7 57 -17 3 -49 -22 -49 -39 0 -5 7 -9 15 -9 9 0 12 -6
9 -15 -6 -14 -8 -14 -18 -1 -15 20 -70 10 -62 -11 3 -8 6 -21 6 -28 0 -8 7
-11 20 -8 18 5 19 3 9 -26 -9 -25 -15 -30 -30 -26 -12 4 -21 1 -25 -10 -6 -14
-8 -14 -20 2 -11 16 -10 20 9 35 18 14 20 19 10 29 -11 11 -13 10 -13 -4 0
-20 -16 -23 -23 -4 -3 9 -8 9 -21 -2 -9 -8 -15 -19 -12 -26 2 -6 -1 -12 -7
-13 -30 -2 -45 -9 -62 -25 -16 -17 -16 -19 9 -42 23 -21 25 -27 14 -45 -7 -11
-20 -23 -29 -25 -9 -3 -25 -15 -35 -27 -17 -19 -17 -21 -1 -15 9 4 17 2 17 -4
0 -6 -9 -13 -19 -16 -17 -4 -18 -8 -8 -24 9 -14 9 -21 -1 -31 -10 -10 -15 -10
-22 2 -5 8 -12 11 -16 8 -3 -4 1 -14 10 -23 9 -9 14 -21 11 -26 -11 -16 -25
-10 -35 15 -11 30 -40 25 -77 -12 -14 -14 -18 -22 -9 -19 21 8 22 -22 2 -49
-12 -16 -15 -16 -19 -4 -15 44 -15 45 -16 25 -1 -20 -41 -55 -41 -35 0 5 5 10
11 10 5 0 8 4 4 9 -5 10 -57 -15 -102 -49 -16 -12 -19 -20 -11 -28 6 -6 17 -8
24 -5 9 3 14 -2 14 -12 0 -9 -9 -19 -20 -22 -25 -7 -25 -12 -2 -29 16 -13 16
-15 0 -28 -10 -7 -18 -22 -18 -34 0 -11 -7 -23 -16 -26 -8 -3 -12 -10 -9 -16
11 -18 35 -11 45 14 11 31 27 40 64 38 16 -2 33 3 38 10 6 10 8 10 8 -2 -1 -8
-7 -24 -16 -35 -15 -20 -15 -20 -33 4 -17 22 -18 22 -26 5 -5 -11 -9 -28 -9
-39 -1 -15 -7 -19 -24 -18 -19 3 -22 -1 -20 -25 3 -23 -1 -27 -22 -27 -14 0
-31 4 -38 9 -17 12 -29 -1 -14 -16 16 -16 15 -28 -3 -28 -8 0 -15 9 -15 20 0
13 -7 20 -20 20 -12 0 -22 9 -26 24 -9 37 1 44 52 41 35 -3 44 -1 35 8 -18 18
-13 47 9 47 30 0 24 29 -10 48 -16 9 -30 25 -30 35 0 9 -4 17 -10 17 -5 0 -10
7 -10 15 0 8 -7 15 -15 15 -8 0 -15 -7 -15 -15 0 -8 7 -15 15 -15 8 0 15 -9
15 -19 0 -11 5 -23 10 -26 6 -3 10 -12 10 -20 0 -11 -6 -11 -32 -2 -44 16 -68
38 -68 61 0 19 -1 19 -16 -2 -9 -13 -27 -27 -40 -32 -13 -5 -24 -14 -24 -19 0
-6 6 -8 14 -5 10 4 16 -3 19 -23 l4 -28 2 28 c1 29 15 36 25 12 4 -11 16 -14
46 -10 30 4 40 2 40 -9 0 -13 -23 -29 -45 -31 -21 -2 -43 -21 -47 -40 -4 -17
-8 -15 -27 17 -24 39 -51 57 -51 33 0 -8 -5 -15 -11 -15 -27 0 -69 -42 -69
-69 0 -16 -12 -41 -30 -61 -21 -24 -30 -29 -30 -17 0 21 -14 22 -35 1 -29 -29
-76 -134 -70 -155 5 -15 2 -19 -14 -19 -16 0 -22 -8 -27 -40 -4 -22 -10 -40
-15 -40 -4 0 -14 -21 -21 -47 -10 -35 -21 -52 -41 -61 -15 -7 -27 -20 -27 -29
0 -8 -14 -31 -30 -50 -17 -19 -33 -48 -37 -64 -3 -16 -12 -29 -19 -29 -15 0
-154 -207 -154 -229 0 -5 -4 -11 -8 -13 -12 -5 -52 -65 -52 -77 0 -7 21 0 48
14 l47 27 -32 -29 c-18 -16 -33 -35 -33 -41 0 -6 -11 -19 -24 -27 -14 -9 -27
-30 -30 -50 -5 -23 -11 -32 -20 -29 -14 5 -59 -59 -62 -88 -1 -10 -15 -32 -33
-50 -21 -21 -28 -35 -21 -42 14 -14 12 -26 -5 -26 -17 0 -20 -26 -4 -36 6 -4
-1 -16 -20 -33 -35 -29 -74 -98 -60 -107 19 -11 8 -24 -16 -18 -28 7 -29 5
-14 -30 8 -17 9 -30 2 -38 -6 -7 -13 -25 -17 -40 -3 -16 -11 -28 -16 -28 -6 0
-10 -9 -10 -20 0 -11 -5 -20 -11 -20 -7 0 -8 7 -4 18 19 46 24 77 15 86 -7 7
-10 6 -10 -1 0 -6 -22 -45 -50 -87 -27 -42 -50 -81 -50 -85 0 -5 -4 -11 -8
-13 -8 -3 -92 -169 -92 -181 0 -4 -21 -48 -46 -99 -74 -150 -103 -225 -91
-237 8 -8 5 -16 -11 -27 -12 -8 -22 -26 -22 -38 0 -13 -7 -29 -15 -36 -8 -6
-17 -22 -21 -33 -4 -12 -15 -34 -25 -49 -11 -14 -19 -31 -19 -38 0 -7 -8 -24
-19 -38 -16 -24 -36 -92 -27 -92 7 0 46 71 46 83 0 12 76 97 87 97 2 0 2 -14
-2 -31 -6 -28 -5 -30 16 -27 32 4 34 -15 2 -29 -21 -10 -28 -10 -35 0 -7 11
-12 3 -9 -16 1 -4 -3 -17 -9 -27 -9 -16 -7 -20 5 -20 24 0 18 -16 -16 -42 -16
-13 -47 -39 -68 -59 -21 -20 -42 -38 -47 -40 -8 -4 -59 -69 -112 -147 -13 -18
-21 -36 -18 -41 3 -5 -2 -11 -12 -13 -10 -3 -40 -50 -71 -109 -30 -57 -64
-117 -75 -134 -23 -31 -91 -170 -118 -240 -9 -22 -27 -68 -41 -101 -23 -56
-48 -151 -75 -289 -6 -27 -17 -79 -26 -115 -26 -112 11 -356 75 -497 10 -24
19 -47 19 -53 0 -23 51 -120 92 -175 25 -33 60 -89 78 -124 19 -35 53 -84 75
-110 23 -25 60 -74 83 -108 23 -33 87 -103 142 -155 56 -51 158 -148 227 -216
69 -68 163 -153 209 -188 46 -36 84 -67 84 -68 0 -4 -108 -77 -140 -95 -38
-21 -365 -217 -410 -246 -79 -50 -191 -121 -208 -130 -10 -5 -57 -37 -105 -70
-90 -62 -170 -115 -245 -163 -24 -15 -97 -65 -162 -112 -65 -47 -144 -103
-175 -125 -62 -43 -176 -125 -213 -153 l-22 -17 81 -120 c291 -427 700 -863
1114 -1186 953 -744 2124 -1149 3325 -1149 1841 0 3563 947 4548 2501 110 174
118 190 100 203 -8 6 -30 23 -49 38 -19 15 -62 49 -96 75 -139 108 -195 153
-343 278 -85 72 -181 149 -212 173 -32 23 -110 88 -176 145 -181 157 -391 316
-564 430 -43 28 -78 54 -78 59 0 5 14 29 30 53 17 24 30 49 30 55 0 10 139
160 198 213 12 11 22 25 22 30 0 5 16 27 35 50 19 22 35 46 35 52 0 7 27 43
61 81 64 72 105 129 129 179 8 17 38 64 66 106 29 43 57 94 64 115 7 22 29 73
48 114 69 147 81 217 82 466 0 216 -3 246 -36 322 -35 80 -53 116 -127 247
-120 214 -121 214 -209 305 -138 141 -200 213 -215 250 -8 19 -30 68 -49 108
-19 41 -34 75 -34 77 0 2 -16 38 -35 79 -19 42 -35 78 -35 81 0 2 -12 30 -26
62 -62 136 -106 222 -146 285 -24 36 -66 104 -95 150 -29 46 -57 88 -62 95 -6
7 -11 14 -11 17 0 3 -11 21 -23 40 -35 51 -136 260 -143 295 -4 17 -11 34 -15
37 -5 3 -9 13 -9 23 0 10 -14 46 -31 82 -53 108 -89 189 -89 198 0 10 -42 85
-113 201 -25 41 -72 127 -104 190 -32 63 -61 117 -65 118 -5 2 -8 9 -8 15 0
11 -88 197 -116 247 -8 14 -33 59 -55 100 -81 151 -132 222 -157 218 -13 -2
-17 4 -17 27 0 37 -20 52 -41 31 -22 -23 -32 -20 -39 14 -4 16 -17 40 -31 52
-13 13 -24 31 -24 41 0 11 -18 39 -40 64 -22 25 -40 51 -40 57 0 13 -95 100
-141 129 -16 11 -29 23 -29 28 0 12 -52 64 -73 72 -9 3 -17 11 -17 17 0 6 -20
32 -45 58 -25 26 -45 50 -45 54 0 5 -8 8 -17 8 -10 0 -26 13 -37 28 -10 16
-45 45 -78 66 -32 21 -63 47 -69 57 -14 26 -59 25 -59 -1 0 -21 -16 -26 -38
-11 -10 6 -9 10 7 14 21 5 38 33 28 44 -3 3 -13 -2 -22 -11 -19 -18 -39 -11
-31 10 3 8 -1 17 -9 20 -8 4 -15 12 -15 20 0 12 -4 12 -19 2 -15 -9 -17 -15
-9 -25 8 -10 5 -13 -11 -13 -16 0 -21 6 -21 25 0 14 -7 28 -15 31 -11 5 -13
10 -5 19 13 16 0 28 -17 14 -10 -9 -13 -8 -13 0 0 8 -8 10 -20 6 -20 -6 -66 3
-57 11 3 3 -9 19 -26 35 -16 17 -33 26 -36 21 -7 -11 -81 -11 -81 0 0 4 7 8
15 8 25 0 17 19 -16 36 -31 16 -32 16 -26 -6 5 -20 4 -21 -18 -6 -14 9 -42 16
-64 16 -22 0 -52 5 -68 12 -15 6 -30 12 -33 13 -3 1 -18 7 -33 13 -16 7 -32
12 -37 12 -4 0 -10 7 -14 15 -9 23 -54 18 -77 -9 -21 -24 -22 -25 -63 -9 -22
9 -52 25 -65 34 -12 10 -38 21 -56 25 -19 3 -36 12 -39 19 -7 20 -61 28 -86
13 -18 -10 -24 -10 -27 0 -6 17 -22 15 -30 -3z m87 -125 c0 -5 -7 -7 -15 -4
-8 4 -15 8 -15 10 0 2 7 4 15 4 8 0 15 -4 15 -10z m-480 -220 c0 -5 -4 -10
-10 -10 -5 0 -10 5 -10 10 0 6 5 10 10 10 6 0 10 -4 10 -10z m-196 -65 c3 -9
0 -15 -9 -15 -8 0 -15 7 -15 15 0 8 4 15 9 15 5 0 11 -7 15 -15z m846 -64 c0
-15 -28 -33 -40 -26 -7 5 -5 12 7 21 21 16 33 18 33 5z m-132 -17 c34 -10 21
-28 -26 -37 -23 -4 -42 -12 -42 -16 0 -14 -57 -33 -79 -26 -16 5 -21 2 -21
-11 0 -13 -3 -14 -14 -5 -8 7 -17 8 -20 3 -3 -5 -18 -7 -33 -4 -25 5 -26 3
-15 -11 14 -16 9 -37 -9 -37 -5 0 -9 6 -9 14 0 7 -7 19 -15 26 -12 10 -16 9
-20 -3 -5 -11 -14 -13 -41 -7 -20 5 -34 4 -34 -2 0 -5 -9 -6 -20 -3 -24 8 -51
-11 -44 -29 6 -16 -26 -30 -39 -17 -12 12 0 31 18 31 15 0 32 46 21 58 -4 3
-9 -4 -13 -16 -6 -24 -7 -25 -40 -16 -47 13 -13 54 44 54 22 0 44 -5 51 -12 9
-9 16 -8 29 4 21 18 53 26 69 16 16 -11 54 2 54 18 0 23 29 29 44 9 11 -15 13
-15 25 -1 19 23 29 20 33 -11 4 -37 32 -42 35 -7 0 15 7 30 15 35 15 10 63 11
96 3z m1132 -18 c0 -3 -4 -8 -10 -11 -5 -3 -10 -1 -10 4 0 6 5 11 10 11 6 0
10 -2 10 -4z m-1690 -26 c0 -5 -4 -10 -10 -10 -5 0 -10 5 -10 10 0 6 5 10 10
10 6 0 10 -4 10 -10z m1801 -59 c-8 -5 -20 -7 -28 -4 -21 8 -15 13 15 13 20 0
23 -3 13 -9z m-1634 -77 c-3 -3 -12 -4 -19 -1 -8 3 -5 6 6 6 11 1 17 -2 13 -5z
m63 -9 c10 -13 9 -15 -9 -15 -12 0 -21 6 -21 15 0 8 4 15 9 15 5 0 14 -7 21
-15z m-303 -21 c-9 -9 -28 6 -21 18 4 6 10 6 17 -1 6 -6 8 -13 4 -17z m-562
-4 c3 -5 1 -10 -4 -10 -6 0 -11 5 -11 10 0 6 2 10 4 10 3 0 8 -4 11 -10z m765
0 c0 -5 -5 -10 -11 -10 -5 0 -7 5 -4 10 3 6 8 10 11 10 2 0 4 -4 4 -10z m-574
-9 c-5 -8 -56 -3 -56 5 0 2 14 4 31 4 16 0 28 -4 25 -9z m1429 -20 c3 -11 19
-22 36 -26 16 -4 27 -11 23 -16 -3 -5 6 -9 20 -9 18 0 24 -4 20 -15 -4 -8 1
-17 9 -21 9 -3 20 -19 26 -35 5 -16 16 -29 23 -29 10 0 10 2 1 8 -7 4 -9 13
-4 21 5 7 6 23 3 35 -4 17 -2 19 9 9 20 -19 89 -17 89 3 0 8 -5 12 -11 9 -5
-4 -22 -4 -36 0 -24 6 -25 7 -7 20 16 11 16 14 4 18 -8 3 -23 8 -32 11 -10 3
-18 10 -18 16 0 7 6 7 21 0 13 -7 25 -8 32 -2 10 8 146 8 152 0 1 -2 5 -16 9
-31 4 -19 3 -26 -4 -22 -6 3 -10 -3 -10 -16 0 -16 -5 -20 -20 -16 -11 3 -23 1
-26 -4 -3 -5 4 -9 14 -9 12 0 24 -11 32 -30 12 -28 46 -41 63 -24 12 12 -6 34
-29 34 -13 0 -24 5 -24 10 0 6 5 10 10 10 6 0 10 8 10 18 0 10 9 24 20 32 11
8 20 23 20 34 0 15 3 17 12 8 9 -9 9 -18 0 -37 -14 -31 -15 -46 -2 -25 8 13
11 13 22 1 8 -8 9 -15 3 -17 -26 -11 -40 -26 -27 -31 6 -2 12 -13 12 -24 0
-10 5 -19 10 -19 6 0 10 -8 10 -17 0 -15 2 -15 9 -4 8 12 14 12 41 1 17 -7 45
-13 61 -12 23 0 33 -5 42 -25 9 -21 8 -26 -6 -34 -21 -12 -22 -29 -3 -29 8 0
17 -6 19 -12 3 -7 6 -3 6 10 1 27 21 30 21 3 0 -11 6 -22 13 -24 6 -3 -7 -6
-30 -6 -31 -1 -49 5 -68 23 -17 16 -22 27 -15 31 7 4 3 14 -11 26 -32 27 -42
24 -35 -12 5 -29 4 -30 -22 -26 -15 2 -21 2 -14 0 17 -6 15 -22 -3 -29 -8 -4
-15 -12 -15 -19 0 -20 -20 -29 -33 -16 -7 7 -6 16 7 30 10 11 13 21 7 25 -5 4
-13 2 -16 -4 -5 -8 -12 -7 -22 2 -9 7 -18 12 -19 11 -2 -1 -11 0 -21 4 -9 4
-29 -1 -45 -10 -15 -9 -28 -11 -28 -6 0 6 -9 8 -20 4 -14 -5 -20 -2 -20 9 0
21 -10 20 -26 -1 -9 -14 -10 -21 -1 -32 9 -10 8 -13 -7 -10 -25 5 -41 47 -18
45 22 -1 27 30 7 50 -23 23 -43 2 -43 -44 1 -58 -9 -73 -38 -60 -29 14 -33 38
-4 31 23 -6 27 10 7 28 -11 11 -10 16 6 32 19 19 19 20 1 30 -11 6 -21 14 -24
18 -3 4 -24 12 -47 17 -32 7 -44 6 -55 -5 -11 -11 -21 -11 -42 -3 -16 6 -24
15 -20 21 4 8 9 7 15 -2 5 -9 9 -10 9 -3 0 7 -9 22 -19 35 -18 23 -20 23 -38
6 -25 -22 -30 -21 -36 3 -3 13 1 21 14 25 21 7 89 -14 89 -27 0 -4 9 1 21 13
11 11 27 18 35 15 25 -10 15 28 -11 41 -14 6 -25 7 -25 2 0 -5 -4 -9 -10 -9
-5 0 -10 7 -10 15 0 23 -52 13 -61 -11 -8 -20 -8 -20 -15 13 -3 18 2 22 36 28
22 4 40 11 40 16 0 17 19 9 25 -10z m-1505 -1 c0 -5 -4 -10 -10 -10 -5 0 -10
5 -10 10 0 6 5 10 10 10 6 0 10 -4 10 -10z m1910 -26 c0 -8 -6 -14 -14 -14 -9
0 -12 7 -9 20 6 22 23 18 23 -6z m-1890 -20 c0 -8 -4 -14 -10 -14 -5 0 -10 9
-10 21 0 11 5 17 10 14 6 -3 10 -13 10 -21z m534 4 c17 -24 13 -38 -13 -38
-22 0 -55 35 -46 49 11 18 43 12 59 -11z m1476 -9 c0 -5 -10 -9 -21 -9 -18 0
-19 2 -9 15 12 15 30 12 30 -6z m-1320 1 c0 -5 -5 -10 -11 -10 -5 0 -7 5 -4
10 3 6 8 10 11 10 2 0 4 -4 4 -10z m1437 -16 c14 -31 -1 -64 -29 -64 -10 0
-18 2 -18 4 0 2 -3 11 -6 19 -4 12 0 14 15 10 19 -5 20 -3 12 20 -16 42 7 52
26 11z m-2157 -32 c-15 -5 -41 18 -34 30 3 5 15 1 26 -9 11 -10 15 -19 8 -21z
m2014 6 c19 -20 25 -43 15 -59 -7 -12 -9 -11 -9 2 0 9 -7 22 -15 29 -14 12
-21 40 -9 40 3 0 11 -6 18 -12z m-2114 -35 c0 -11 -50 -33 -72 -33 -10 0 -18
5 -18 10 0 6 14 10 30 10 17 0 30 5 30 10 0 6 7 10 15 10 8 0 15 -3 15 -7z
m110 -3 c0 -5 -4 -10 -10 -10 -5 0 -10 5 -10 10 0 6 5 10 10 10 6 0 10 -4 10
-10z m330 -5 c0 -8 -7 -15 -15 -15 -9 0 -12 6 -9 15 4 8 10 15 15 15 5 0 9 -7
9 -15z m1985 -37 c-3 -37 -15 -49 -15 -15 0 17 -5 27 -15 27 -17 0 -17 2 -9
24 10 26 42 -2 39 -36z m-247 31 c-2 -6 -8 -10 -13 -10 -5 0 -11 4 -13 10 -2
6 4 11 13 11 9 0 15 -5 13 -11z m-648 -9 c0 -5 -5 -10 -11 -10 -5 0 -7 5 -4
10 3 6 8 10 11 10 2 0 4 -4 4 -10z m820 0 c0 -5 -4 -10 -9 -10 -6 0 -13 5 -16
10 -3 6 1 10 9 10 9 0 16 -4 16 -10z m-690 -36 c0 -2 -7 -4 -15 -4 -8 0 -15 4
-15 10 0 5 7 7 15 4 8 -4 15 -8 15 -10z m-1243 -17 c-1 -5 -14 -12 -28 -13
-13 -2 -40 -6 -59 -9 l-35 -7 29 16 c15 9 37 16 47 16 10 0 21 5 24 10 8 13
27 2 22 -13z m-164 -49 c28 5 19 -18 -13 -32 -17 -7 -27 -15 -23 -19 3 -4 -1
-7 -10 -7 -9 0 -17 -5 -17 -10 0 -6 -10 -8 -24 -4 -14 3 -29 0 -37 -9 -12 -11
-17 -12 -27 -1 -16 18 -15 34 3 34 9 0 12 -6 9 -15 -5 -11 -2 -13 10 -9 9 3
16 12 16 19 0 8 8 16 19 20 10 3 26 14 36 25 10 11 23 16 29 13 6 -4 19 -6 29
-5z m1317 2 c0 -5 -4 -10 -10 -10 -5 0 -10 5 -10 10 0 6 5 10 10 10 6 0 10 -4
10 -10z m94 -5 c3 -8 1 -15 -4 -15 -6 0 -10 7 -10 15 0 8 2 15 4 15 2 0 6 -7
10 -15z m-584 -5 c0 -5 -8 -10 -17 -10 -15 0 -16 2 -3 10 19 12 20 12 20 0z
m-722 -19 c3 -8 -1 -12 -9 -9 -7 2 -15 10 -17 17 -3 8 1 12 9 9 7 -2 15 -10
17 -17z m2019 13 c-3 -3 -12 -4 -19 -1 -8 3 -5 6 6 6 11 1 17 -2 13 -5z m-407
-24 c9 -17 8 -20 -10 -20 -13 0 -20 7 -20 20 0 11 4 20 10 20 5 0 14 -9 20
-20z m-1116 -5 c5 -13 2 -14 -17 -4 -32 17 -33 19 -10 19 12 0 23 -7 27 -15z
m51 5 c-3 -5 -12 -7 -20 -3 -21 7 -19 13 6 13 11 0 18 -4 14 -10z m72 -22
c-21 -11 -38 -2 -31 17 5 12 10 12 27 4 18 -10 19 -12 4 -21z m151 9 c2 -9 -2
-17 -9 -17 -13 0 -49 -29 -49 -39 0 -13 45 -10 60 4 8 7 31 13 51 13 21 0 47
3 58 7 14 4 32 0 48 -10 15 -10 28 -13 32 -8 19 30 98 46 88 18 -4 -8 -2 -17
4 -20 5 -4 8 -18 7 -33 -3 -23 1 -27 40 -35 45 -9 53 -20 25 -36 -14 -8 -11
-9 15 -5 26 5 32 3 32 -11 0 -31 -27 -42 -76 -31 -50 12 -55 21 -19 38 14 6
25 14 25 18 0 15 -14 19 -27 8 -10 -8 -20 -8 -40 3 -24 13 -27 12 -41 -9 -14
-22 -52 -31 -52 -12 0 6 5 10 10 10 6 0 10 5 10 10 0 6 -10 10 -21 10 -17 0
-19 3 -10 14 9 11 6 15 -19 18 -16 3 -32 3 -34 1 -8 -9 7 -43 19 -43 12 0 28
-24 20 -32 -10 -10 -204 -1 -233 11 -39 16 -48 11 -32 -19 8 -15 18 -20 31
-17 15 4 19 0 19 -19 0 -27 -12 -31 -34 -9 -8 8 -22 15 -30 15 -9 0 -16 6 -17
13 0 6 -5 1 -11 -13 l-11 -25 -11 35 c-6 19 -15 41 -19 48 -5 8 -4 19 3 27 10
12 9 15 -3 15 -16 0 -30 24 -20 34 13 12 44 5 50 -11 8 -22 23 -33 46 -33 25
0 21 19 -8 30 -27 10 -34 30 -11 30 8 0 16 7 19 14 3 8 21 18 40 21 18 4 40
15 48 26 16 22 33 20 37 -4z m1036 -9 c6 -4 7 -10 3 -15 -10 -9 -27 16 -26 37
1 13 1 13 6 0 3 -8 11 -18 17 -22z m-814 12 c0 -5 -5 -10 -11 -10 -5 0 -7 5
-4 10 3 6 8 10 11 10 2 0 4 -4 4 -10z m-1580 -21 c0 -5 -17 -9 -37 -9 -25 0
-33 3 -24 9 17 11 61 11 61 0z m2110 1 c0 -5 -4 -10 -10 -10 -5 0 -10 5 -10
10 0 6 5 10 10 10 6 0 10 -4 10 -10z m-1888 -22 c-7 -7 -12 -8 -12 -2 0 14 12
26 19 19 2 -3 -1 -11 -7 -17z m848 2 c9 -5 19 -5 26 1 8 7 14 7 18 0 4 -5 2
-12 -3 -15 -13 -8 -71 5 -71 15 0 11 11 11 30 -1z m1280 -25 c0 -12 -29 -3
-34 10 -4 13 -2 14 14 5 11 -6 20 -13 20 -15z m110 15 c0 -5 -5 -10 -11 -10
-5 0 -7 5 -4 10 3 6 8 10 11 10 2 0 4 -4 4 -10z m-2365 -10 c4 -6 -5 -10 -19
-10 -14 0 -26 5 -26 10 0 6 9 10 19 10 11 0 23 -4 26 -10z m823 1 c17 -10 -37
-35 -65 -29 -15 3 -13 7 12 20 37 20 37 20 53 9z m1323 -4 c-1 -12 -15 -9 -19
4 -3 6 1 10 8 8 6 -3 11 -8 11 -12z m-1504 -19 c-3 -8 -6 -5 -6 6 -1 11 2 17
5 13 3 -3 4 -12 1 -19z m1473 7 c0 -8 -4 -15 -10 -15 -5 0 -10 7 -10 15 0 8 5
15 10 15 6 0 10 -7 10 -15z m-1095 -4 c3 -5 1 -12 -5 -16 -5 -3 -10 1 -10 9 0
18 6 21 15 7z m-1221 -16 c-4 -8 -11 -15 -16 -15 -6 0 -5 6 2 15 7 8 14 15 16
15 2 0 1 -7 -2 -15z m1113 9 c-3 -3 -12 -4 -19 -1 -8 3 -5 6 6 6 11 1 17 -2
13 -5z m73 -20 c0 -16 -16 -19 -25 -4 -8 13 4 32 16 25 5 -4 9 -13 9 -21z
m-565 6 c3 -5 1 -10 -4 -10 -6 0 -11 5 -11 10 0 6 2 10 4 10 3 0 8 -4 11 -10z
m281 -27 c-11 -11 -17 4 -9 23 7 18 8 18 11 1 2 -10 1 -21 -2 -24z m241 21
c-3 -3 -12 -4 -19 -1 -8 3 -5 6 6 6 11 1 17 -2 13 -5z m846 -6 c12 -6 35 -12
50 -14 35 -2 43 -10 29 -27 -14 -16 -6 -28 13 -21 7 3 16 1 19 -5 4 -6 15 -2
27 10 25 25 35 19 19 -11 -9 -16 -9 -25 -1 -33 6 -6 11 -20 11 -31 -1 -20 -1
-20 -14 -3 -12 15 -18 17 -35 7 -12 -6 -25 -8 -30 -5 -5 3 -11 0 -13 -7 -3 -8
-11 -7 -28 5 -15 10 -19 17 -10 17 12 0 11 3 -2 16 -20 21 -38 10 -38 -22 0
-27 -28 -44 -40 -24 -6 9 -21 11 -54 7 -43 -6 -63 4 -32 16 15 6 26 50 19 78
-3 10 -10 16 -15 13 -6 -4 -8 2 -6 12 4 24 48 32 48 10 0 -22 17 -20 30 4 12
23 23 25 53 8z m-1119 -23 c-4 -8 -10 -13 -15 -10 -4 3 -6 12 -3 20 4 8 10 13
15 10 4 -3 6 -12 3 -20z m376 15 c0 -5 -7 -10 -15 -10 -18 0 -20 -26 -2 -33 9
-4 8 -8 -3 -16 -12 -8 -19 -6 -33 11 -18 21 -18 22 5 40 26 20 48 23 48 8z
m-799 -25 c-1 -15 -24 -12 -29 3 -3 9 2 13 12 10 10 -1 17 -7 17 -13z m590
-16 c20 -20 20 -22 4 -38 -15 -15 -17 -15 -29 2 -7 9 -18 17 -25 17 -16 0 -14
11 7 26 22 17 19 17 43 -7z m117 9 c-6 -18 -28 -21 -28 -4 0 9 7 16 16 16 9 0
14 -5 12 -12z m-243 -8 c3 -5 -1 -10 -9 -10 -9 0 -16 5 -16 10 0 6 4 10 9 10
6 0 13 -4 16 -10z m815 -5 c0 -13 -64 -67 -68 -57 -2 6 9 23 25 36 27 24 43
32 43 21z m505 -32 c2 -26 -20 -57 -34 -48 -6 3 -9 11 -6 16 4 5 -3 9 -14 9
-16 0 -21 6 -21 26 0 23 3 25 37 22 28 -3 37 -8 38 -25z m-1375 -2 c0 -17 -18
-21 -24 -6 -3 9 0 15 9 15 8 0 15 -4 15 -9z m870 -17 c0 -8 -5 -12 -10 -9 -6
4 -8 11 -5 16 9 14 15 11 15 -7z m-792 -13 c-13 -21 -28 -19 -28 5 0 8 9 14
20 14 17 0 19 -3 8 -19z m681 5 c8 -10 9 -16 1 -21 -13 -8 -30 3 -30 21 0 18
14 18 29 0z m726 4 c3 -5 -3 -10 -14 -10 -10 0 -27 -3 -37 -7 -16 -6 -17 -5
-4 10 17 18 46 22 55 7z m-1195 -10 c12 -8 9 -10 -13 -10 -16 0 -26 4 -22 10
8 12 16 12 35 0z m-400 -10 c0 -5 -2 -10 -4 -10 -3 0 -8 5 -11 10 -3 6 -1 10
4 10 6 0 11 -4 11 -10z m826 -6 c18 -15 18 -15 -6 -10 -14 3 -42 6 -62 6 -21
0 -38 5 -38 10 0 16 84 12 106 -6z m194 6 c0 -5 -7 -10 -15 -10 -8 0 -15 5
-15 10 0 6 7 10 15 10 8 0 15 -4 15 -10z m-2080 -27 c0 -9 6 -13 14 -10 8 3
16 1 18 -5 2 -6 16 -10 31 -10 15 0 27 -4 27 -8 0 -8 -37 -27 -67 -33 -19 -4
-23 -1 -23 19 0 13 -4 24 -10 24 -5 0 -10 12 -10 26 0 14 4 23 10 19 6 -3 10
-13 10 -22z m-56 1 c9 -24 7 -28 -9 -14 -17 14 -20 30 -6 30 5 0 12 -7 15 -16z
m1900 -15 c-3 -5 -10 -7 -15 -3 -5 3 -7 10 -3 15 3 5 10 7 15 3 5 -3 7 -10 3
-15z m101 1 c-3 -5 -13 -10 -21 -10 -8 0 -14 5 -14 10 0 6 9 10 21 10 11 0 17
-4 14 -10z m-171 -46 c3 -8 2 -12 -4 -9 -6 3 -10 10 -10 16 0 14 7 11 14 -7z
m-1648 -49 c-13 -35 -42 1 -30 37 6 19 6 19 21 -2 8 -11 12 -27 9 -35z m-226
10 c0 -41 -2 -42 -35 -13 -30 26 -31 35 -7 41 37 10 42 7 42 -28z m1754 -16
c-3 -5 -10 -7 -15 -3 -5 3 -7 10 -3 15 3 5 10 7 15 3 5 -3 7 -10 3 -15z m-47
-31 c-3 -8 -6 -5 -6 6 -1 11 2 17 5 13 3 -3 4 -12 1 -19z m-2077 -586 c0 -5
-9 -17 -20 -27 -11 -10 -20 -24 -20 -31 0 -8 -13 -20 -29 -29 -16 -8 -31 -20
-34 -27 -4 -8 -6 -7 -6 4 -1 9 20 40 47 67 46 49 62 60 62 43z m-120 -136 c0
-2 -7 -9 -15 -16 -12 -10 -15 -10 -15 4 0 9 7 16 15 16 8 0 15 -2 15 -4z m-20
-570 c0 -19 -28 -28 -51 -15 -26 14 -15 29 22 29 18 0 29 -5 29 -14z m-330
-50 c0 -3 -4 -8 -10 -11 -5 -3 -10 -1 -10 4 0 6 5 11 10 11 6 0 10 -2 10 -4z
m196 -32 c-9 -8 -20 -12 -26 -9 -15 9 -2 25 21 25 19 0 19 -1 5 -16z m1710
-41 c-10 -10 -19 5 -10 18 6 11 8 11 12 0 2 -7 1 -15 -2 -18z m-97 -28 c3 -17
2 -17 -13 -3 -19 20 -21 31 -3 26 6 -3 14 -13 16 -23z m-1772 -41 c-3 -3 -12
-4 -19 -1 -8 3 -5 6 6 6 11 1 17 -2 13 -5z m1379 -49 c-4 -11 -12 -15 -22 -11
-9 4 -22 2 -28 -3 -19 -16 -52 -17 -79 -2 -24 13 -29 12 -45 -2 -25 -23 -50
-23 -31 -1 11 14 9 15 -24 9 -29 -6 -38 -4 -43 9 -10 26 0 29 80 30 61 1 77
-2 88 -16 19 -27 53 -22 67 9 11 24 13 25 28 10 9 -9 13 -23 9 -32z m53 19
c-17 -21 -31 -17 -19 6 6 11 15 18 21 14 6 -4 6 -11 -2 -20z m-365 0 c20 -8
20 -28 1 -44 -12 -10 -21 -10 -40 -2 -27 12 -36 46 -10 36 8 -4 15 -1 15 5 0
12 11 14 34 5z m596 -13 c0 -18 -18 -21 -30 -6 -10 13 -9 15 9 15 11 0 21 -4
21 -9z m-135 -11 c16 -7 11 -9 -20 -9 -29 -1 -36 2 -25 9 17 11 19 11 45 0z
m-550 -9 c10 -18 -15 -22 -37 -7 l-22 16 26 0 c15 0 29 -4 33 -9z m-1050 -11
c3 -5 -1 -10 -10 -10 -9 0 -13 5 -10 10 3 6 8 10 10 10 2 0 7 -4 10 -10z
m1650 0 c3 -5 -1 -10 -9 -10 -9 0 -16 5 -16 10 0 6 4 10 9 10 6 0 13 -4 16
-10z m-816 -36 c-6 -8 -15 -14 -20 -14 -14 0 -11 28 4 33 20 7 29 -4 16 -19z
m-39 -25 c0 -15 -47 -40 -63 -34 -8 4 -18 1 -22 -4 -9 -16 -73 -41 -101 -41
-21 0 -23 3 -17 33 7 41 9 42 27 28 12 -10 16 -8 21 9 4 12 11 17 18 13 18
-11 71 -3 80 13 6 10 13 11 32 2 14 -6 25 -15 25 -19z m-840 -2 c0 -7 -9 -18
-21 -25 -14 -9 -19 -20 -16 -33 3 -12 -3 -26 -19 -38 -28 -22 -30 -31 -8 -31
10 0 14 -7 12 -17 -2 -10 -10 -17 -16 -15 -22 4 -52 -18 -52 -38 0 -13 -5 -18
-15 -14 -8 4 -15 1 -15 -5 0 -6 -17 -29 -37 -50 -46 -48 -81 -93 -89 -115 -3
-9 -12 -16 -19 -16 -7 0 -15 -9 -18 -20 -5 -20 -37 -29 -37 -10 0 6 3 10 8 10
4 0 27 30 52 68 25 37 57 82 72 100 16 18 28 38 28 45 1 7 12 26 25 42 21 25
27 28 36 15 8 -12 9 -8 7 15 -3 39 7 54 33 48 18 -5 20 -2 17 28 -2 25 1 34
12 34 8 0 18 8 22 18 8 20 38 23 38 4z m2778 -64 c-10 -2 -28 -2 -40 0 -13 2
-5 4 17 4 22 1 32 -1 23 -4z m172 3 c0 -11 -19 -15 -25 -6 -3 5 1 10 9 10 9 0
16 -2 16 -4z m-2400 -16 c0 -5 -4 -10 -10 -10 -5 0 -10 5 -10 10 0 6 5 10 10
10 6 0 10 -4 10 -10z m2626 -9 c-3 -5 -15 -7 -26 -4 -28 7 -25 13 6 13 14 0
23 -4 20 -9z m-2781 -31 c3 -5 1 -10 -4 -10 -6 0 -11 5 -11 10 0 6 2 10 4 10
3 0 8 -4 11 -10z m1413 -12 c18 -15 15 -28 -7 -28 -10 0 -22 -8 -26 -17 -6
-16 -8 -15 -16 5 -7 19 -12 21 -28 13 -15 -9 -20 -7 -24 11 -4 14 -11 19 -21
15 -9 -4 -16 -2 -16 3 0 21 112 19 138 -2z m-1318 -8 c0 -5 -2 -10 -4 -10 -3
0 -8 5 -11 10 -3 6 -1 10 4 10 6 0 11 -4 11 -10z m1177 -32 c-3 -8 -6 -5 -6 6
-1 11 2 17 5 13 3 -3 4 -12 1 -19z m2152 11 c34 -12 37 -36 5 -31 -10 1 -35 4
-54 6 -19 3 -51 7 -70 11 -19 4 -43 7 -52 7 -10 -1 -18 3 -18 9 0 13 150 11
189 -2z m69 -30 c-2 -6 -8 -10 -13 -10 -5 0 -11 4 -13 10 -2 6 4 11 13 11 9 0
15 -5 13 -11z m142 -10 c28 -6 49 -14 45 -17 -8 -8 -48 -11 -60 -4 -10 7 -16
8 -47 10 -21 2 -24 22 -3 22 7 0 37 -5 65 -11z m240 -43 c0 -10 -9 -14 -27
-12 -39 4 -42 26 -4 26 20 0 31 -5 31 -14z m-257 -13 c-7 -2 -19 -2 -25 0 -7
3 -2 5 12 5 14 0 19 -2 13 -5z m353 -2 c5 -5 20 -11 34 -13 l25 -4 -28 -14
c-24 -12 -30 -12 -37 1 -5 8 -19 14 -31 14 -12 0 -24 6 -26 13 -5 14 48 17 63
3z m104 -32 c0 -6 -4 -7 -10 -4 -5 3 -10 11 -10 16 0 6 5 7 10 4 6 -3 10 -11
10 -16z m61 -8 c-12 -8 -51 -4 -51 5 0 2 15 4 33 4 22 0 28 -3 18 -9z m-3786
-40 c3 -5 1 -13 -5 -16 -15 -9 -43 3 -35 15 8 13 32 13 40 1z m-55 -10 c0 -12
-29 -21 -74 -26 -18 -1 -42 -8 -54 -14 -26 -14 -70 -15 -56 -2 5 6 29 15 54
21 25 6 59 15 75 20 42 11 55 11 55 1z m4287 -67 c-9 -9 -28 6 -21 18 4 6 10
6 17 -1 6 -6 8 -13 4 -17z m-4542 -18 c-28 -23 -45 -25 -45 -7 0 10 39 29 60
30 9 1 3 -9 -15 -23z m417 -38 c-7 -7 -12 -8 -12 -2 0 14 12 26 19 19 2 -3 -1
-11 -7 -17z m-1202 8 c0 -3 -4 -8 -10 -11 -5 -3 -10 -1 -10 4 0 6 5 11 10 11
6 0 10 -2 10 -4z m170 -6 c0 -5 -7 -10 -15 -10 -7 0 -19 -8 -24 -17 -10 -17
-10 -17 -11 0 0 14 20 29 48 36 1 1 2 -3 2 -9z m1060 -41 c0 -11 -27 -12 -34
0 -3 4 -3 11 0 14 8 8 34 -3 34 -14z m-837 -166 c4 -3 0 -15 -9 -25 -16 -17
-18 -17 -30 0 -9 13 -9 19 -1 24 15 10 32 10 40 1z"/>
<path d="M5910 9600 c0 -21 8 -24 34 -14 25 10 19 34 -9 34 -18 0 -25 -5 -25
-20z"/>
<path d="M6155 9600 c3 -5 -1 -10 -9 -10 -10 0 -13 -6 -10 -15 8 -19 31 -19
50 0 18 18 10 35 -17 35 -11 0 -17 -4 -14 -10z"/>
<path d="M6100 9560 c-20 -12 -10 -19 14 -10 11 3 15 9 10 13 -6 3 -16 2 -24
-3z"/>
<path d="M6159 9537 c-29 -22 -29 -42 0 -42 21 0 26 5 27 28 1 30 -3 32 -27
14z"/>
<path d="M5620 9370 c0 -5 -7 -16 -16 -25 -24 -23 -4 -39 24 -19 25 18 29 39
7 48 -8 3 -15 1 -15 -4z"/>
<path d="M5291 9344 c-1 -20 26 -41 37 -29 3 3 0 5 -7 5 -6 0 -16 10 -21 23
-9 22 -9 22 -9 1z"/>
<path d="M5460 9340 c0 -5 5 -10 10 -10 6 0 10 5 10 10 0 6 -4 10 -10 10 -5 0
-10 -4 -10 -10z"/>
<path d="M5360 9320 c-13 -9 -13 -11 -1 -19 18 -12 41 -3 41 15 0 16 -18 18
-40 4z"/>
<path d="M5420 9280 c0 -5 9 -10 20 -10 11 0 20 5 20 10 0 6 -9 10 -20 10 -11
0 -20 -4 -20 -10z"/>
<path d="M5850 9214 c0 -8 5 -12 10 -9 6 4 8 11 5 16 -9 14 -15 11 -15 -7z"/>
<path d="M5660 10431 c0 -11 26 -22 34 -14 3 3 3 10 0 14 -7 12 -34 11 -34 0z"/>
<path d="M5600 10404 c0 -8 5 -12 10 -9 6 4 18 1 26 -6 17 -14 29 -6 21 16 -8
20 -57 20 -57 -1z"/>
<path d="M6456 10306 c7 -19 38 -22 32 -3 -3 6 -12 13 -21 15 -12 2 -15 -1
-11 -12z"/>
<path d="M4936 10245 c-3 -8 -1 -15 4 -15 6 0 10 5 10 11 0 6 9 8 20 4 11 -4
20 -2 20 4 0 17 -47 13 -54 -4z"/>
<path d="M4705 10167 c-8 -19 12 -50 26 -41 13 7 11 17 -5 40 -14 18 -15 18
-21 1z"/>
<path d="M6335 10170 c4 -6 11 -8 16 -5 14 9 11 15 -7 15 -8 0 -12 -5 -9 -10z"/>
<path d="M4631 10154 c0 -11 3 -14 6 -6 3 7 2 16 -1 19 -3 4 -6 -2 -5 -13z"/>
<path d="M4620 10110 c0 -5 5 -10 10 -10 6 0 10 5 10 10 0 6 -4 10 -10 10 -5
0 -10 -4 -10 -10z"/>
<path d="M4560 10099 c0 -5 5 -7 10 -4 6 3 10 8 10 11 0 2 -4 4 -10 4 -5 0
-10 -5 -10 -11z"/>
<path d="M4760 10100 c0 -5 5 -10 11 -10 5 0 7 5 4 10 -3 6 -8 10 -11 10 -2 0
-4 -4 -4 -10z"/>
<path d="M4590 10080 c0 -5 5 -10 11 -10 5 0 7 5 4 10 -3 6 -8 10 -11 10 -2 0
-4 -4 -4 -10z"/>
<path d="M4500 9980 c0 -5 5 -10 10 -10 6 0 10 5 10 10 0 6 -4 10 -10 10 -5 0
-10 -4 -10 -10z"/>
<path d="M4580 9905 c0 -9 5 -15 11 -13 6 2 11 8 11 13 0 5 -5 11 -11 13 -6 2
-11 -4 -11 -13z"/>
<path d="M4620 9880 c0 -5 5 -10 10 -10 6 0 10 5 10 10 0 6 -4 10 -10 10 -5 0
-10 -4 -10 -10z"/>
<path d="M4736 9851 c-4 -5 -2 -12 3 -15 5 -4 12 -2 15 3 4 5 2 12 -3 15 -5 4
-12 2 -15 -3z"/>
<path d="M4618 9824 c3 -17 8 -22 15 -15 11 11 3 41 -11 41 -5 0 -7 -12 -4
-26z"/>
<path d="M4870 9820 c0 -5 5 -10 10 -10 6 0 10 5 10 10 0 6 -4 10 -10 10 -5 0
-10 -4 -10 -10z"/>
<path d="M4760 9795 c0 -8 5 -15 10 -15 6 0 10 7 10 15 0 8 -4 15 -10 15 -5 0
-10 -7 -10 -15z"/>
<path d="M4627 9783 c-11 -10 -8 -33 3 -33 6 0 10 6 10 14 0 8 6 17 13 19 8 4
6 6 -4 6 -9 1 -19 -2 -22 -6z"/>
<path d="M4698 9778 c17 -8 26 -8 34 0 9 9 4 12 -22 11 -33 0 -34 -1 -12 -11z"/>
<path d="M4716 9742 c-8 -7 -13 -8 -60 -10 -22 -2 -27 -5 -19 -13 12 -12 103
-2 103 12 0 12 -16 20 -24 11z"/>
<path d="M4613 9710 c2 -20 8 -26 35 -28 18 -2 32 1 32 7 0 6 -13 11 -29 11
-20 0 -31 6 -35 18 -3 10 -4 6 -3 -8z"/>
<path d="M4175 9710 c-3 -5 -1 -10 4 -10 6 0 11 5 11 10 0 6 -2 10 -4 10 -3 0
-8 -4 -11 -10z"/>
<path d="M4035 9700 c3 -5 12 -7 20 -3 21 7 19 13 -6 13 -11 0 -18 -4 -14 -10z"/>
<path d="M4540 9670 c0 -5 5 -10 10 -10 6 0 10 5 10 10 0 6 -4 10 -10 10 -5 0
-10 -4 -10 -10z"/>
<path d="M3972 9648 c6 -18 28 -21 28 -4 0 9 -7 16 -16 16 -9 0 -14 -5 -12
-12z"/>
<path d="M5595 9580 c-18 -20 -18 -21 5 -12 13 5 26 14 28 20 6 19 -13 14 -33
-8z"/>
<path d="M4923 9573 c-13 -5 -19 -33 -7 -33 7 0 34 27 34 34 0 7 -10 7 -27 -1z"/>
<path d="M4970 9570 c0 -5 5 -10 10 -10 6 0 10 5 10 10 0 6 -4 10 -10 10 -5 0
-10 -4 -10 -10z"/>
<path d="M5021 9566 c-14 -17 -1 -28 19 -16 8 5 19 5 26 -1 12 -10 44 -2 44
11 0 20 -73 25 -89 6z"/>
<path d="M4830 9561 c0 -17 18 -21 24 -6 3 9 0 15 -9 15 -8 0 -15 -4 -15 -9z"/>
<path d="M3920 9539 c0 -11 4 -18 10 -14 5 3 7 12 3 20 -7 21 -13 19 -13 -6z"/>
<path d="M5420 9549 c0 -5 5 -7 10 -4 6 3 10 8 10 11 0 2 -4 4 -10 4 -5 0 -10
-5 -10 -11z"/>
<path d="M5620 9549 c0 -5 5 -7 10 -4 6 3 10 8 10 11 0 2 -4 4 -10 4 -5 0 -10
-5 -10 -11z"/>
<path d="M3870 9530 c0 -5 7 -7 15 -4 8 4 15 8 15 10 0 2 -7 4 -15 4 -8 0 -15
-4 -15 -10z"/>
<path d="M4822 9520 c0 -14 2 -19 5 -12 2 6 2 18 0 25 -3 6 -5 1 -5 -13z"/>
<path d="M5211 9524 c0 -11 3 -14 6 -6 3 7 2 16 -1 19 -3 4 -6 -2 -5 -13z"/>
<path d="M3823 9474 c-3 -8 -14 -14 -25 -14 -23 0 -16 -16 11 -23 12 -3 27 4
39 18 20 23 20 23 1 28 -12 3 -22 0 -26 -9z"/>
<path d="M3717 9424 c-8 -8 1 -24 14 -24 5 0 9 7 9 15 0 15 -12 20 -23 9z"/>
<path d="M3800 9360 c0 -11 5 -20 10 -20 6 0 10 9 10 20 0 11 -4 20 -10 20 -5
0 -10 -9 -10 -20z"/>
<path d="M3791 9164 c0 -11 3 -14 6 -6 3 7 2 16 -1 19 -3 4 -6 -2 -5 -13z"/>
</g>
</svg>
