<?xml version="1.0" encoding="UTF-8"?>
<!DOCTYPE svg PUBLIC "-//W3C//DTD SVG 1.1//EN" "http://www.w3.org/Graphics/SVG/1.1/DTD/svg11.dtd">
<svg xmlns="http://www.w3.org/2000/svg" version="1.1" width="538px" height="538px" style="shape-rendering:geometricPrecision; text-rendering:geometricPrecision; image-rendering:optimizeQuality; fill-rule:evenodd; clip-rule:evenodd" xmlns:xlink="http://www.w3.org/1999/xlink">
<g><path style="opacity:0.995" fill="#000000" d="M 245.5,-0.5 C 260.833,-0.5 276.167,-0.5 291.5,-0.5C 379.035,9.33215 447.202,50.6655 496,123.5C 519.54,161.288 533.373,202.288 537.5,246.5C 537.5,261.167 537.5,275.833 537.5,290.5C 525.71,391.628 474.71,465.461 384.5,512C 354.797,525.673 323.797,534.173 291.5,537.5C 276.167,537.5 260.833,537.5 245.5,537.5C 157.958,527.665 89.7912,486.332 41,413.5C 17.4599,375.712 3.6266,334.712 -0.5,290.5C -0.5,275.833 -0.5,261.167 -0.5,246.5C 11.2901,145.372 62.2901,71.5388 152.5,25C 182.21,11.3254 213.21,2.82542 245.5,-0.5 Z"/></g>
<g><path style="opacity:1" fill="#fbfbfb" d="M 418.5,403.5 C 388.005,404.498 357.338,404.831 326.5,404.5C 302.994,372.836 278.994,341.503 254.5,310.5C 226.8,341.532 199.467,372.865 172.5,404.5C 157.496,404.667 142.496,404.5 127.5,404C 128.252,403.329 128.586,402.496 128.5,401.5C 141.608,386.271 154.942,371.271 168.5,356.5C 170.587,355.415 171.92,353.749 172.5,351.5C 192.678,328.489 212.678,305.322 232.5,282C 195.231,232.393 157.564,183.06 119.5,134C 151.5,133.333 183.5,133.333 215.5,134C 236.622,162.95 258.289,191.45 280.5,219.5C 305.824,191.403 330.824,162.903 355.5,134C 370.833,133.333 386.167,133.333 401.5,134C 368.285,172.26 334.951,210.427 301.5,248.5C 340.909,299.902 379.909,351.568 418.5,403.5 Z"/></g>
<g><path style="opacity:1" fill="#060606" d="M 363.5,374.5 C 363.5,374.833 363.5,375.167 363.5,375.5C 355.684,376.492 347.684,376.826 339.5,376.5C 284.024,304.89 229.024,232.89 174.5,160.5C 183.727,159.183 192.893,159.183 202,160.5C 255.281,232.277 309.115,303.61 363.5,374.5 Z"/></g>
<g><path style="opacity:1" fill="#9d9e9d" d="M 172.5,351.5 C 171.92,353.749 170.587,355.415 168.5,356.5C 169.08,354.251 170.413,352.585 172.5,351.5 Z"/></g>
<g><path style="opacity:1" fill="#464646" d="M 363.5,375.5 C 364.043,375.56 364.376,375.893 364.5,376.5C 356.193,377.498 347.86,377.831 339.5,377.5C 339.5,377.167 339.5,376.833 339.5,376.5C 347.684,376.826 355.684,376.492 363.5,375.5 Z"/></g>
<g><path style="opacity:1" fill="#c9c8c9" d="M 363.5,375.5 C 363.5,375.167 363.5,374.833 363.5,374.5C 365.176,375.183 365.843,376.517 365.5,378.5C 356.651,378.826 347.984,378.493 339.5,377.5C 347.86,377.831 356.193,377.498 364.5,376.5C 364.376,375.893 364.043,375.56 363.5,375.5 Z"/></g>
<g><path style="opacity:1" fill="#7d7b7d" d="M 128.5,401.5 C 128.586,402.496 128.252,403.329 127.5,404C 142.496,404.5 157.496,404.667 172.5,404.5C 157.342,405.496 142.009,405.83 126.5,405.5C 126.229,403.62 126.896,402.287 128.5,401.5 Z"/></g>
<g><path style="opacity:1" fill="#7c7c7c" d="M 418.5,403.5 C 419.043,403.56 419.376,403.893 419.5,404.5C 388.336,405.83 357.336,405.83 326.5,404.5C 357.338,404.831 388.005,404.498 418.5,403.5 Z"/></g>
</svg>
