<?xml version="1.0" encoding="UTF-8"?>
<!DOCTYPE svg PUBLIC "-//W3C//DTD SVG 1.1//EN" "http://www.w3.org/Graphics/SVG/1.1/DTD/svg11.dtd">
<svg xmlns="http://www.w3.org/2000/svg" version="1.1" width="500px" height="500px" style="shape-rendering:geometricPrecision; text-rendering:geometricPrecision; image-rendering:optimizeQuality; fill-rule:evenodd; clip-rule:evenodd" xmlns:xlink="http://www.w3.org/1999/xlink">
<g><path style="opacity:0.243" fill="#fda5a6" d="M 189.5,89.5 C 232.675,88.2196 276.008,88.2196 319.5,89.5C 319.5,89.8333 319.5,90.1667 319.5,90.5C 312.833,90.5 306.167,90.5 299.5,90.5C 263.004,89.5015 226.337,89.1682 189.5,89.5 Z"/></g>
<g><path style="opacity:0.651" fill="#e96a68" d="M 189.5,89.5 C 226.337,89.1682 263.004,89.5015 299.5,90.5C 252.16,90.2635 204.826,90.5968 157.5,91.5C 157.5,91.1667 157.5,90.8333 157.5,90.5C 168.085,89.5242 178.752,89.1909 189.5,89.5 Z"/></g>
<g><path style="opacity:0.139" fill="#fdb7b7" d="M 319.5,90.5 C 319.5,90.1667 319.5,89.8333 319.5,89.5C 333.024,89.4452 346.357,90.1118 359.5,91.5C 353.833,91.5 348.167,91.5 342.5,91.5C 334.854,90.793 327.187,90.4597 319.5,90.5 Z"/></g>
<g><path style="opacity:0.365" fill="#f99294" d="M 157.5,90.5 C 157.5,90.8333 157.5,91.1667 157.5,91.5C 152.637,91.1805 147.97,91.5139 143.5,92.5C 135.833,92.5 128.167,92.5 120.5,92.5C 132.643,91.1414 144.976,90.4747 157.5,90.5 Z"/></g>
<g><path style="opacity:1" fill="#e71510" d="M 299.5,90.5 C 306.167,90.5 312.833,90.5 319.5,90.5C 327.187,90.4597 334.854,90.793 342.5,91.5C 342.5,91.8333 342.5,92.1667 342.5,92.5C 268.556,91.2386 194.556,91.9053 120.5,94.5C 128.167,93.8333 135.833,93.1667 143.5,92.5C 147.97,91.5139 152.637,91.1805 157.5,91.5C 204.826,90.5968 252.16,90.2635 299.5,90.5 Z"/></g>
<g><path style="opacity:1" fill="#fd0000" d="M 342.5,92.5 C 356.158,93.115 369.825,93.4484 383.5,93.5C 386.023,94.3844 388.69,95.2177 391.5,96C 403.144,97.2674 414.811,98.4341 426.5,99.5C 431.004,101.5 435.671,103.167 440.5,104.5C 442.115,108.09 444.781,110.424 448.5,111.5C 449.167,111.5 449.833,111.5 450.5,111.5C 452.094,114.764 454.427,117.431 457.5,119.5C 457.427,121.027 458.094,122.027 459.5,122.5C 458.916,125.285 459.916,126.952 462.5,127.5C 462.584,130.327 463.25,132.994 464.5,135.5C 466.006,146.215 467.839,156.882 470,167.5C 470.907,182.999 471.741,198.499 472.5,214C 472.371,215.981 471.704,217.647 470.5,219C 471.448,219.483 472.448,219.649 473.5,219.5C 473.244,244.409 473.244,269.076 473.5,293.5C 473.5,294.5 473.5,295.5 473.5,296.5C 471.693,307.943 470.526,319.609 470,331.5C 468.908,334.044 468.241,336.711 468,339.5C 467.08,339.93 466.247,340.264 465.5,340.5C 466.095,342.44 466.428,344.44 466.5,346.5C 465.167,353.551 463.834,360.551 462.5,367.5C 459.763,367.37 457.763,368.536 456.5,371C 456.101,373.337 456.101,375.837 456.5,378.5C 455.713,380.104 454.38,380.771 452.5,380.5C 452.5,382.167 452.5,383.833 452.5,385.5C 450.596,385.738 449.262,386.738 448.5,388.5C 444.79,388.266 442.456,389.933 441.5,393.5C 438.515,394.326 435.849,395.659 433.5,397.5C 429.845,396.925 426.845,397.925 424.5,400.5C 413.181,401.689 401.848,402.689 390.5,403.5C 377.46,403.711 364.46,404.544 351.5,406C 338.171,406.5 324.837,406.667 311.5,406.5C 264.5,406.5 217.5,406.5 170.5,406.5C 144.238,404.731 117.904,403.731 91.5,403.5C 84.7179,401.471 77.7179,399.971 70.5,399C 63.0734,395.376 56.0734,391.209 49.5,386.5C 48.8333,386.5 48.1667,386.5 47.5,386.5C 45.8333,385.5 44.5,384.167 43.5,382.5C 42.8333,380.833 42.1667,379.167 41.5,377.5C 39.7782,374.004 38.4448,370.337 37.5,366.5C 36.7174,364.712 35.3841,363.712 33.5,363.5C 33.573,361.973 32.9063,360.973 31.5,360.5C 31.5,360.167 31.5,359.833 31.5,359.5C 28.6736,343.033 26.6736,326.366 25.5,309.5C 24.8096,303.19 24.4763,296.857 24.5,290.5C 24.5,266.833 24.5,243.167 24.5,219.5C 25.675,219.719 26.675,219.386 27.5,218.5C 26.5757,204.431 26.2424,190.098 26.5,175.5C 28.7349,167.774 30.2349,159.774 31,151.5C 33.182,143.436 35.682,135.436 38.5,127.5C 40.083,126.064 41.583,124.398 43,122.5C 43.3333,123.167 43.6667,123.833 44,124.5C 44.4652,123.069 45.2986,121.903 46.5,121C 45.8333,120.667 45.1667,120.333 44.5,120C 45.3366,118.989 45.67,117.822 45.5,116.5C 47.8056,116.007 50.139,115.674 52.5,115.5C 52.6399,113.876 51.9733,112.71 50.5,112C 52.9962,110.669 54.9962,108.836 56.5,106.5C 57.9002,105.9 58.9002,104.9 59.5,103.5C 65.0932,101.534 70.7599,99.8673 76.5,98.5C 82.7628,98.214 88.7628,97.214 94.5,95.5C 94.8333,95.5 95.1667,95.5 95.5,95.5C 103.848,95.4574 112.181,95.124 120.5,94.5C 194.556,91.9053 268.556,91.2386 342.5,92.5 Z M 205.5,183.5 C 207.336,185.588 209.669,186.921 212.5,187.5C 212.973,188.906 213.973,189.573 215.5,189.5C 216.514,190.674 217.847,191.34 219.5,191.5C 219.973,192.906 220.973,193.573 222.5,193.5C 224.181,195.008 226.181,196.008 228.5,196.5C 228.973,197.906 229.973,198.573 231.5,198.5C 237.838,202.671 244.504,206.337 251.5,209.5C 251.973,210.906 252.973,211.573 254.5,211.5C 255.514,212.674 256.847,213.34 258.5,213.5C 260.336,215.588 262.669,216.921 265.5,217.5C 267.336,219.588 269.669,220.921 272.5,221.5C 272.973,222.906 273.973,223.573 275.5,223.5C 276.514,224.674 277.847,225.34 279.5,225.5C 279.973,226.906 280.973,227.573 282.5,227.5C 285.678,230.258 289.345,232.258 293.5,233.5C 293.973,234.906 294.973,235.573 296.5,235.5C 297.514,236.674 298.847,237.34 300.5,237.5C 300.973,238.906 301.973,239.573 303.5,239.5C 304.514,240.674 305.847,241.34 307.5,241.5C 309.566,243.199 311.9,244.532 314.5,245.5C 315.514,246.674 316.847,247.34 318.5,247.5C 319.471,248.962 319.138,250.295 317.5,251.5C 315.973,251.427 314.973,252.094 314.5,253.5C 310.345,254.742 306.678,256.742 303.5,259.5C 299.345,260.742 295.678,262.742 292.5,265.5C 288.164,267.332 284.164,269.665 280.5,272.5C 279.508,272.328 278.842,272.662 278.5,273.5C 276.973,273.427 275.973,274.094 275.5,275.5C 273.847,275.66 272.514,276.326 271.5,277.5C 267.164,279.332 263.164,281.665 259.5,284.5C 256.008,285.41 253.008,287.076 250.5,289.5C 247.669,290.079 245.336,291.412 243.5,293.5C 241.847,293.66 240.514,294.326 239.5,295.5C 235.827,297 232.494,299 229.5,301.5C 226.669,302.079 224.336,303.412 222.5,305.5C 219.669,306.079 217.336,307.412 215.5,309.5C 211.495,310.498 208.161,312.498 205.5,315.5C 204.167,293.844 203.5,271.844 203.5,249.5C 203.5,227.156 204.167,205.156 205.5,183.5 Z"/></g>
<g><path style="opacity:0.631" fill="#e76865" d="M 342.5,92.5 C 342.5,92.1667 342.5,91.8333 342.5,91.5C 348.167,91.5 353.833,91.5 359.5,91.5C 367.529,91.3437 375.529,91.677 383.5,92.5C 383.5,92.8333 383.5,93.1667 383.5,93.5C 369.825,93.4484 356.158,93.115 342.5,92.5 Z"/></g>
<g><path style="opacity:0.91" fill="#e75b52" d="M 120.5,92.5 C 128.167,92.5 135.833,92.5 143.5,92.5C 135.833,93.1667 128.167,93.8333 120.5,94.5C 112.181,95.124 103.848,95.4574 95.5,95.5C 95.5,95.1667 95.5,94.8333 95.5,94.5C 103.616,92.9569 111.95,92.2902 120.5,92.5 Z"/></g>
<g><path style="opacity:0.502" fill="#fa9999" d="M 95.5,94.5 C 95.5,94.8333 95.5,95.1667 95.5,95.5C 95.1667,95.5 94.8333,95.5 94.5,95.5C 89.8592,96.1266 85.1925,96.4599 80.5,96.5C 85.2895,95.2751 90.2895,94.6084 95.5,94.5 Z"/></g>
<g><path style="opacity:1" fill="#df2624" d="M 383.5,93.5 C 396.516,94.687 409.516,96.0203 422.5,97.5C 422.833,97.5 423.167,97.5 423.5,97.5C 424.5,98.1667 425.5,98.8333 426.5,99.5C 414.811,98.4341 403.144,97.2674 391.5,96C 388.69,95.2177 386.023,94.3844 383.5,93.5 Z"/></g>
<g><path style="opacity:0.282" fill="#fba2a2" d="M 383.5,93.5 C 383.5,93.1667 383.5,92.8333 383.5,92.5C 396.793,92.9529 409.793,94.6195 422.5,97.5C 409.516,96.0203 396.516,94.687 383.5,93.5 Z"/></g>
<g><path style="opacity:0.867" fill="#dc3834" d="M 94.5,95.5 C 88.7628,97.214 82.7628,98.214 76.5,98.5C 77.5,97.8333 78.5,97.1667 79.5,96.5C 79.8333,96.5 80.1667,96.5 80.5,96.5C 85.1925,96.4599 89.8592,96.1266 94.5,95.5 Z"/></g>
<g><path style="opacity:0.58" fill="#f48b8a" d="M 79.5,96.5 C 78.5,97.1667 77.5,97.8333 76.5,98.5C 70.7599,99.8673 65.0932,101.534 59.5,103.5C 65.495,99.6108 72.1616,97.2775 79.5,96.5 Z"/></g>
<g><path style="opacity:0.973" fill="#f28680" d="M 423.5,97.5 C 427.693,97.9526 431.693,99.1192 435.5,101C 437.584,101.697 439.251,102.864 440.5,104.5C 435.671,103.167 431.004,101.5 426.5,99.5C 425.5,98.8333 424.5,98.1667 423.5,97.5 Z"/></g>
<g><path style="opacity:0.412" fill="#f0847b" d="M 59.5,103.5 C 58.9002,104.9 57.9002,105.9 56.5,106.5C 55.8333,106.5 55.1667,106.5 54.5,106.5C 55.6594,104.75 57.326,103.75 59.5,103.5 Z"/></g>
<g><path style="opacity:1" fill="#df4236" d="M 440.5,104.5 C 442.674,104.75 444.341,105.75 445.5,107.5C 446.211,109.03 447.211,110.363 448.5,111.5C 444.781,110.424 442.115,108.09 440.5,104.5 Z"/></g>
<g><path style="opacity:0.353" fill="#f1948d" d="M 445.5,107.5 C 447.754,108.124 449.421,109.457 450.5,111.5C 449.833,111.5 449.167,111.5 448.5,111.5C 447.211,110.363 446.211,109.03 445.5,107.5 Z"/></g>
<g><path style="opacity:0.259" fill="#faa29b" d="M 54.5,106.5 C 49.1667,111.167 44.1667,116.167 39.5,121.5C 42.8333,114.833 47.8333,109.833 54.5,106.5 Z"/></g>
<g><path style="opacity:1" fill="#ea1613" d="M 54.5,106.5 C 55.1667,106.5 55.8333,106.5 56.5,106.5C 54.9962,108.836 52.9962,110.669 50.5,112C 51.9733,112.71 52.6399,113.876 52.5,115.5C 50.139,115.674 47.8056,116.007 45.5,116.5C 45.67,117.822 45.3366,118.989 44.5,120C 45.1667,120.333 45.8333,120.667 46.5,121C 45.2986,121.903 44.4652,123.069 44,124.5C 43.6667,123.833 43.3333,123.167 43,122.5C 41.583,124.398 40.083,126.064 38.5,127.5C 39.1495,125.565 39.4828,123.565 39.5,121.5C 44.1667,116.167 49.1667,111.167 54.5,106.5 Z"/></g>
<g><path style="opacity:0.647" fill="#f48983" d="M 450.5,111.5 C 453.573,113.569 455.906,116.236 457.5,119.5C 454.427,117.431 452.094,114.764 450.5,111.5 Z"/></g>
<g><path style="opacity:0.247" fill="#fa9a8a" d="M 457.5,119.5 C 458.906,119.973 459.573,120.973 459.5,122.5C 458.094,122.027 457.427,121.027 457.5,119.5 Z"/></g>
<g><path style="opacity:0.816" fill="#ea685b" d="M 459.5,122.5 C 461.25,123.659 462.25,125.326 462.5,127.5C 459.916,126.952 458.916,125.285 459.5,122.5 Z"/></g>
<g><path style="opacity:0.871" fill="#df5c51" d="M 39.5,121.5 C 39.4828,123.565 39.1495,125.565 38.5,127.5C 36.5879,129.657 34.9213,131.991 33.5,134.5C 33.5,133.833 33.5,133.167 33.5,132.5C 34.7417,128.345 36.7417,124.678 39.5,121.5 Z"/></g>
<g><path style="opacity:0.855" fill="#f17873" d="M 462.5,127.5 C 465.668,132.667 467.668,138.334 468.5,144.5C 467.167,141.5 465.833,138.5 464.5,135.5C 463.25,132.994 462.584,130.327 462.5,127.5 Z"/></g>
<g><path style="opacity:0.69" fill="#f28988" d="M 33.5,132.5 C 33.5,133.167 33.5,133.833 33.5,134.5C 29.9859,147.917 27.6526,161.583 26.5,175.5C 26.1667,175.5 25.8333,175.5 25.5,175.5C 25.9529,160.626 28.6195,146.292 33.5,132.5 Z"/></g>
<g><path style="opacity:1" fill="#e01717" d="M 38.5,127.5 C 35.682,135.436 33.182,143.436 31,151.5C 30.2349,159.774 28.7349,167.774 26.5,175.5C 27.6526,161.583 29.9859,147.917 33.5,134.5C 34.9213,131.991 36.5879,129.657 38.5,127.5 Z"/></g>
<g><path style="opacity:0.659" fill="#eb7670" d="M 468.5,145.5 C 470.894,153.873 472.227,162.54 472.5,171.5C 470.322,163.091 468.989,154.424 468.5,145.5 Z"/></g>
<g><path style="opacity:0.843" fill="#e25c4c" d="M 205.5,183.5 C 209.165,183.502 212.165,184.835 214.5,187.5C 213.833,187.5 213.167,187.5 212.5,187.5C 209.669,186.921 207.336,185.588 205.5,183.5 Z"/></g>
<g><path style="opacity:0.129" fill="#fdc0b6" d="M 212.5,187.5 C 213.167,187.5 213.833,187.5 214.5,187.5C 214.833,188.167 215.167,188.833 215.5,189.5C 213.973,189.573 212.973,188.906 212.5,187.5 Z"/></g>
<g><path style="opacity:0.725" fill="#e96c69" d="M 25.5,175.5 C 23.8337,207.473 23.1671,239.473 23.5,271.5C 22.5038,256.342 22.1705,241.009 22.5,225.5C 22.1093,208.769 23.1093,192.102 25.5,175.5 Z"/></g>
<g><path style="opacity:0.125" fill="#ffbab7" d="M 219.5,191.5 C 220.167,191.5 220.833,191.5 221.5,191.5C 221.833,192.167 222.167,192.833 222.5,193.5C 220.973,193.573 219.973,192.906 219.5,191.5 Z"/></g>
<g><path style="opacity:1" fill="#e84638" d="M 221.5,191.5 C 225.544,191.568 228.544,193.234 230.5,196.5C 229.833,196.5 229.167,196.5 228.5,196.5C 226.181,196.008 224.181,195.008 222.5,193.5C 222.167,192.833 221.833,192.167 221.5,191.5 Z"/></g>
<g><path style="opacity:0.165" fill="#fdaba9" d="M 228.5,196.5 C 229.167,196.5 229.833,196.5 230.5,196.5C 230.833,197.167 231.167,197.833 231.5,198.5C 229.973,198.573 228.973,197.906 228.5,196.5 Z"/></g>
<g><path style="opacity:0.757" fill="#ea5f55" d="M 231.5,198.5 C 237.647,199.205 242.981,201.705 247.5,206C 251.15,207.656 254.816,209.156 258.5,210.5C 258.5,211.5 258.5,212.5 258.5,213.5C 256.847,213.34 255.514,212.674 254.5,211.5C 254.027,210.094 253.027,209.427 251.5,209.5C 244.504,206.337 237.838,202.671 231.5,198.5 Z"/></g>
<g><path style="opacity:0.884" fill="#d52726" d="M 205.5,182.5 C 204.5,182.5 203.5,182.5 202.5,182.5C 202.5,227.167 202.5,271.833 202.5,316.5C 203.791,316.737 204.791,316.404 205.5,315.5C 208.161,312.498 211.495,310.498 215.5,309.5C 212.868,313.008 209.534,315.842 205.5,318C 204.216,318.684 203.049,318.517 202,317.5C 201.5,272.168 201.333,226.835 201.5,181.5C 203.099,181.232 204.432,181.566 205.5,182.5 Z"/></g>
<g><path style="opacity:0.149" fill="#fdafac" d="M 251.5,209.5 C 253.027,209.427 254.027,210.094 254.5,211.5C 252.973,211.573 251.973,210.906 251.5,209.5 Z"/></g>
<g><path style="opacity:0.757" fill="#eb746a" d="M 258.5,213.5 C 261.857,213.216 264.191,214.549 265.5,217.5C 262.669,216.921 260.336,215.588 258.5,213.5 Z"/></g>
<g><path style="opacity:0.063" fill="#d4d4d4" d="M 498.5,222.5 C 497.833,220.833 497.167,219.167 496.5,217.5C 496.34,215.801 496.506,214.134 497,212.5C 498.405,215.619 498.905,218.952 498.5,222.5 Z"/></g>
<g><path style="opacity:1" fill="#e35046" d="M 265.5,217.5 C 269.203,218.508 272.87,219.842 276.5,221.5C 277.826,222.642 278.826,223.976 279.5,225.5C 277.847,225.34 276.514,224.674 275.5,223.5C 275.027,222.094 274.027,221.427 272.5,221.5C 269.669,220.921 267.336,219.588 265.5,217.5 Z"/></g>
<g><path style="opacity:0.149" fill="#fba39c" d="M 272.5,221.5 C 274.027,221.427 275.027,222.094 275.5,223.5C 273.973,223.573 272.973,222.906 272.5,221.5 Z"/></g>
<g><path style="opacity:0.746" fill="#414141" d="M 496.5,217.5 C 497.167,219.167 497.833,220.833 498.5,222.5C 498.833,222.5 499.167,222.5 499.5,222.5C 499.5,226.167 499.5,229.833 499.5,233.5C 498.686,231.369 498.186,229.036 498,226.5C 497.172,241.672 497.339,256.672 498.5,271.5C 498.069,275.337 497.402,279.003 496.5,282.5C 496.5,260.833 496.5,239.167 496.5,217.5 Z"/></g>
<g><path style="opacity:0.047" fill="#dfdfdf" d="M 1.5,223.5 C 0.833333,226.167 0.166667,228.833 -0.5,231.5C -0.5,228.167 -0.5,224.833 -0.5,221.5C 0.221579,221.082 0.721579,220.416 1,219.5C 1.49001,220.793 1.65668,222.127 1.5,223.5 Z"/></g>
<g><path style="opacity:0.169" fill="#fba6a3" d="M 279.5,225.5 C 281.027,225.427 282.027,226.094 282.5,227.5C 280.973,227.573 279.973,226.906 279.5,225.5 Z"/></g>
<g><path style="opacity:0.238" fill="#fa8486" d="M 205.5,182.5 C 205.5,182.833 205.5,183.167 205.5,183.5C 204.167,205.156 203.5,227.156 203.5,249.5C 203.5,271.844 204.167,293.844 205.5,315.5C 204.791,316.404 203.791,316.737 202.5,316.5C 202.5,271.833 202.5,227.167 202.5,182.5C 203.5,182.5 204.5,182.5 205.5,182.5 Z"/></g>
<g><path style="opacity:1" fill="#ec5c4b" d="M 282.5,227.5 C 287.732,227.018 291.399,229.018 293.5,233.5C 289.345,232.258 285.678,230.258 282.5,227.5 Z"/></g>
<g><path style="opacity:0.991" fill="#151515" d="M 499.5,233.5 C 499.5,243.5 499.5,253.5 499.5,263.5C 498.527,265.948 498.194,268.615 498.5,271.5C 497.339,256.672 497.172,241.672 498,226.5C 498.186,229.036 498.686,231.369 499.5,233.5 Z"/></g>
<g><path style="opacity:1" fill="#eb2a1e" d="M 464.5,135.5 C 465.833,138.5 467.167,141.5 468.5,144.5C 468.5,144.833 468.5,145.167 468.5,145.5C 468.989,154.424 470.322,163.091 472.5,171.5C 474.458,183.609 475.458,195.942 475.5,208.5C 475.5,235.833 475.5,263.167 475.5,290.5C 475.5,291.5 475.5,292.5 475.5,293.5C 474.833,293.5 474.167,293.5 473.5,293.5C 473.244,269.076 473.244,244.409 473.5,219.5C 472.448,219.649 471.448,219.483 470.5,219C 471.704,217.647 472.371,215.981 472.5,214C 471.741,198.499 470.907,182.999 470,167.5C 467.839,156.882 466.006,146.215 464.5,135.5 Z"/></g>
<g><path style="opacity:0.153" fill="#febeac" d="M 293.5,233.5 C 295.027,233.427 296.027,234.094 296.5,235.5C 294.973,235.573 293.973,234.906 293.5,233.5 Z"/></g>
<g><path style="opacity:0.161" fill="#ffb4b5" d="M 300.5,237.5 C 302.027,237.427 303.027,238.094 303.5,239.5C 301.973,239.573 300.973,238.906 300.5,237.5 Z"/></g>
<g><path style="opacity:1" fill="#e51110" d="M 25.5,175.5 C 25.8333,175.5 26.1667,175.5 26.5,175.5C 26.2424,190.098 26.5757,204.431 27.5,218.5C 26.675,219.386 25.675,219.719 24.5,219.5C 24.5,243.167 24.5,266.833 24.5,290.5C 24.1667,290.5 23.8333,290.5 23.5,290.5C 23.5,284.167 23.5,277.833 23.5,271.5C 23.1671,239.473 23.8337,207.473 25.5,175.5 Z"/></g>
<g><path style="opacity:0.147" fill="#f79ea1" d="M 22.5,225.5 C 22.1705,241.009 22.5038,256.342 23.5,271.5C 23.5,277.833 23.5,284.167 23.5,290.5C 23.5,292.5 23.5,294.5 23.5,296.5C 22.8162,290.099 22.1495,283.599 21.5,277C 21.2127,259.784 21.5461,242.617 22.5,225.5 Z"/></g>
<g><path style="opacity:0.373" fill="#f78394" d="M 307.5,241.5 C 310.546,241.725 312.879,243.058 314.5,245.5C 311.9,244.532 309.566,243.199 307.5,241.5 Z"/></g>
<g><path style="opacity:0.812" fill="#252525" d="M 1.5,223.5 C 1.5,240.5 1.5,257.5 1.5,274.5C 0.833333,270.833 0.166667,267.167 -0.5,263.5C -0.5,252.833 -0.5,242.167 -0.5,231.5C 0.166667,228.833 0.833333,226.167 1.5,223.5 Z"/></g>
<g><path style="opacity:0.184" fill="#fba28d" d="M 318.5,247.5 C 319.497,247.47 320.164,247.97 320.5,249C 320.252,250.749 319.252,251.582 317.5,251.5C 319.138,250.295 319.471,248.962 318.5,247.5 Z"/></g>
<g><path style="opacity:0.918" fill="#e35150" d="M 314.5,253.5 C 312.669,255.776 310.336,257.609 307.5,259C 306.207,259.49 304.873,259.657 303.5,259.5C 306.678,256.742 310.345,254.742 314.5,253.5 Z"/></g>
<g><path style="opacity:0.812" fill="#e56b63" d="M 303.5,259.5 C 303.631,260.376 303.298,261.043 302.5,261.5C 299.268,263.223 295.935,264.556 292.5,265.5C 295.678,262.742 299.345,260.742 303.5,259.5 Z"/></g>
<g><path style="opacity:1" fill="#ee1a12" d="M 296.5,235.5 C 302.498,238.142 308.832,240.308 315.5,242C 316.337,243.011 316.67,244.178 316.5,245.5C 318.467,245.261 320.301,245.594 322,246.5C 322.254,249.195 322.421,251.695 322.5,254C 320.1,254.186 317.766,254.686 315.5,255.5C 314.167,256.5 314.167,257.5 315.5,258.5C 313.565,259.563 311.899,260.897 310.5,262.5C 309.031,263.064 307.365,263.064 305.5,262.5C 303.5,263.5 301.5,264.5 299.5,265.5C 300.506,266.396 300.506,267.062 299.5,267.5C 296.42,266.034 294.086,266.867 292.5,270C 290.866,270.494 289.199,270.66 287.5,270.5C 289.79,269.51 291.456,267.843 292.5,265.5C 295.935,264.556 299.268,263.223 302.5,261.5C 303.298,261.043 303.631,260.376 303.5,259.5C 304.873,259.657 306.207,259.49 307.5,259C 310.336,257.609 312.669,255.776 314.5,253.5C 314.973,252.094 315.973,251.427 317.5,251.5C 319.252,251.582 320.252,250.749 320.5,249C 320.164,247.97 319.497,247.47 318.5,247.5C 316.847,247.34 315.514,246.674 314.5,245.5C 312.879,243.058 310.546,241.725 307.5,241.5C 305.847,241.34 304.514,240.674 303.5,239.5C 303.027,238.094 302.027,237.427 300.5,237.5C 298.847,237.34 297.514,236.674 296.5,235.5 Z"/></g>
<g><path style="opacity:0.82" fill="#ec6f68" d="M 292.5,265.5 C 291.456,267.843 289.79,269.51 287.5,270.5C 286.391,270.557 285.391,270.89 284.5,271.5C 283.167,271.833 281.833,272.167 280.5,272.5C 284.164,269.665 288.164,267.332 292.5,265.5 Z"/></g>
<g><path style="opacity:0.059" fill="#cecece" d="M -0.5,263.5 C 0.166667,267.167 0.833333,270.833 1.5,274.5C 1.65668,275.873 1.49001,277.207 1,278.5C 0.76791,277.263 0.26791,276.263 -0.5,275.5C -0.5,271.5 -0.5,267.5 -0.5,263.5 Z"/></g>
<g><path style="opacity:0.05" fill="#d3d3d3" d="M 499.5,263.5 C 499.5,268.167 499.5,272.833 499.5,277.5C 498.686,279.631 498.186,281.964 498,284.5C 497.667,284.833 497.333,285.167 497,285.5C 496.517,284.552 496.351,283.552 496.5,282.5C 497.402,279.003 498.069,275.337 498.5,271.5C 498.194,268.615 498.527,265.948 499.5,263.5 Z"/></g>
<g><path style="opacity:0.439" fill="#f19387" d="M 278.5,273.5 C 278.027,274.906 277.027,275.573 275.5,275.5C 275.973,274.094 276.973,273.427 278.5,273.5 Z"/></g>
<g><path style="opacity:1" fill="#df241b" d="M 284.5,271.5 C 279.807,275.738 274.474,279.071 268.5,281.5C 269.5,280.167 270.5,278.833 271.5,277.5C 272.514,276.326 273.847,275.66 275.5,275.5C 277.027,275.573 278.027,274.906 278.5,273.5C 278.842,272.662 279.508,272.328 280.5,272.5C 281.833,272.167 283.167,271.833 284.5,271.5 Z"/></g>
<g><path style="opacity:0.066" fill="#f6afad" d="M 475.5,208.5 C 478.019,235.836 478.019,263.169 475.5,290.5C 475.5,263.167 475.5,235.833 475.5,208.5 Z"/></g>
<g><path style="opacity:0.82" fill="#eb6f64" d="M 271.5,277.5 C 270.5,278.833 269.5,280.167 268.5,281.5C 265.574,282.698 262.574,283.698 259.5,284.5C 263.164,281.665 267.164,279.332 271.5,277.5 Z"/></g>
<g><path style="opacity:0.784" fill="#eb706f" d="M 259.5,284.5 C 257.349,287.415 254.349,289.082 250.5,289.5C 253.008,287.076 256.008,285.41 259.5,284.5 Z"/></g>
<g><path style="opacity:0.937" fill="#e96155" d="M 250.5,289.5 C 249.191,292.451 246.857,293.784 243.5,293.5C 245.336,291.412 247.669,290.079 250.5,289.5 Z"/></g>
<g><path style="opacity:0.306" fill="#ed615a" d="M 23.5,290.5 C 23.8333,290.5 24.1667,290.5 24.5,290.5C 24.4763,296.857 24.8096,303.19 25.5,309.5C 24.8333,308.167 24.1667,306.833 23.5,305.5C 23.5,302.5 23.5,299.5 23.5,296.5C 23.5,294.5 23.5,292.5 23.5,290.5 Z"/></g>
<g><path style="opacity:0.816" fill="#ee776d" d="M 239.5,295.5 C 237.127,299.023 233.794,301.023 229.5,301.5C 232.494,299 235.827,297 239.5,295.5 Z"/></g>
<g><path style="opacity:0.71" fill="#e88179" d="M 473.5,293.5 C 474.167,293.5 474.833,293.5 475.5,293.5C 475.311,302.352 474.645,311.019 473.5,319.5C 473.5,311.833 473.5,304.167 473.5,296.5C 473.5,295.5 473.5,294.5 473.5,293.5 Z"/></g>
<g><path style="opacity:0.898" fill="#e0604d" d="M 229.5,301.5 C 228.191,304.451 225.857,305.784 222.5,305.5C 224.336,303.412 226.669,302.079 229.5,301.5 Z"/></g>
<g><path style="opacity:0.914" fill="#e85b4f" d="M 222.5,305.5 C 221.191,308.451 218.857,309.784 215.5,309.5C 217.336,307.412 219.669,306.079 222.5,305.5 Z"/></g>
<g><path style="opacity:0.345" fill="#f28b87" d="M 23.5,305.5 C 24.1667,306.833 24.8333,308.167 25.5,309.5C 26.6736,326.366 28.6736,343.033 31.5,359.5C 26.9072,341.928 24.2405,323.928 23.5,305.5 Z"/></g>
<g><path style="opacity:0.212" fill="#f59190" d="M 472.5,328.5 C 472.104,335.544 471.271,342.544 470,349.5C 469.221,355.624 467.388,361.291 464.5,366.5C 467.825,353.851 470.492,341.185 472.5,328.5 Z"/></g>
<g><path style="opacity:0.424" fill="#f19092" d="M 31.5,360.5 C 32.9063,360.973 33.573,361.973 33.5,363.5C 33.5,364.5 33.5,365.5 33.5,366.5C 32.2616,364.786 31.595,362.786 31.5,360.5 Z"/></g>
<g><path style="opacity:1" fill="#e82d1f" d="M 33.5,363.5 C 35.3841,363.712 36.7174,364.712 37.5,366.5C 38.4448,370.337 39.7782,374.004 41.5,377.5C 40.8333,377.5 40.1667,377.5 39.5,377.5C 38.6618,377.158 38.3284,376.492 38.5,375.5C 37.5903,372.008 35.9236,369.008 33.5,366.5C 33.5,365.5 33.5,364.5 33.5,363.5 Z"/></g>
<g><path style="opacity:1" fill="#eb261c" d="M 473.5,296.5 C 473.5,304.167 473.5,311.833 473.5,319.5C 473.81,322.713 473.477,325.713 472.5,328.5C 470.492,341.185 467.825,353.851 464.5,366.5C 462.25,369.999 460.25,373.665 458.5,377.5C 457.833,377.833 457.167,378.167 456.5,378.5C 456.101,375.837 456.101,373.337 456.5,371C 457.763,368.536 459.763,367.37 462.5,367.5C 463.834,360.551 465.167,353.551 466.5,346.5C 466.428,344.44 466.095,342.44 465.5,340.5C 466.247,340.264 467.08,339.93 468,339.5C 468.241,336.711 468.908,334.044 470,331.5C 470.526,319.609 471.693,307.943 473.5,296.5 Z"/></g>
<g><path style="opacity:0.161" fill="#f9a99a" d="M 33.5,366.5 C 35.9236,369.008 37.5903,372.008 38.5,375.5C 36.0764,372.992 34.4097,369.992 33.5,366.5 Z"/></g>
<g><path style="opacity:0.161" fill="#f89897" d="M 464.5,366.5 C 463.786,370.933 461.786,374.6 458.5,377.5C 460.25,373.665 462.25,369.999 464.5,366.5 Z"/></g>
<g><path style="opacity:0.227" fill="#faa49e" d="M 39.5,377.5 C 40.1667,377.5 40.8333,377.5 41.5,377.5C 42.1667,379.167 42.8333,380.833 43.5,382.5C 41.457,381.421 40.1237,379.754 39.5,377.5 Z"/></g>
<g><path style="opacity:0.961" fill="#f07567" d="M 458.5,377.5 C 456.878,380.455 454.878,383.122 452.5,385.5C 452.5,383.833 452.5,382.167 452.5,380.5C 454.38,380.771 455.713,380.104 456.5,378.5C 457.167,378.167 457.833,377.833 458.5,377.5 Z"/></g>
<g><path style="opacity:0.486" fill="#f5968b" d="M 47.5,386.5 C 48.1667,386.5 48.8333,386.5 49.5,386.5C 50.5,387.833 51.5,389.167 52.5,390.5C 50.2512,389.92 48.5846,388.587 47.5,386.5 Z"/></g>
<g><path style="opacity:0.071" fill="#ffc5ad" d="M 452.5,385.5 C 451.738,387.262 450.404,388.262 448.5,388.5C 449.262,386.738 450.596,385.738 452.5,385.5 Z"/></g>
<g><path style="opacity:0.925" fill="#e9685d" d="M 448.5,388.5 C 446.704,390.9 444.37,392.567 441.5,393.5C 442.456,389.933 444.79,388.266 448.5,388.5 Z"/></g>
<g><path style="opacity:0.851" fill="#e96a62" d="M 49.5,386.5 C 56.0734,391.209 63.0734,395.376 70.5,399C 77.7179,399.971 84.7179,401.471 91.5,403.5C 76.8734,403.604 63.8734,399.271 52.5,390.5C 51.5,389.167 50.5,387.833 49.5,386.5 Z"/></g>
<g><path style="opacity:0.141" fill="#fb9798" d="M 441.5,393.5 C 439.421,395.873 436.754,397.206 433.5,397.5C 435.849,395.659 438.515,394.326 441.5,393.5 Z"/></g>
<g><path style="opacity:0.875" fill="#eb746a" d="M 433.5,397.5 C 430.916,399.472 427.916,400.472 424.5,400.5C 426.845,397.925 429.845,396.925 433.5,397.5 Z"/></g>
<g><path style="opacity:0.216" fill="#f38e8c" d="M 424.5,400.5 C 412.181,403.736 399.514,405.403 386.5,405.5C 385.5,405.5 384.5,405.5 383.5,405.5C 385.833,404.833 388.167,404.167 390.5,403.5C 401.848,402.689 413.181,401.689 424.5,400.5 Z"/></g>
<g><path style="opacity:1" fill="#ec675c" d="M 91.5,403.5 C 117.904,403.731 144.238,404.731 170.5,406.5C 213.327,407.841 256.327,408.508 299.5,408.5C 306.167,408.5 312.833,408.5 319.5,408.5C 261.306,410.777 202.973,410.444 144.5,407.5C 133.689,406.217 122.689,405.55 111.5,405.5C 104.604,405.706 97.9373,405.039 91.5,403.5 Z"/></g>
<g><path style="opacity:0.965" fill="#e1483d" d="M 390.5,403.5 C 388.167,404.167 385.833,404.833 383.5,405.5C 372.971,405.47 362.638,406.137 352.5,407.5C 341.551,408.455 330.551,408.789 319.5,408.5C 312.833,408.5 306.167,408.5 299.5,408.5C 303.5,407.833 307.5,407.167 311.5,406.5C 324.837,406.667 338.171,406.5 351.5,406C 364.46,404.544 377.46,403.711 390.5,403.5 Z"/></g>
<g><path style="opacity:0.243" fill="#fcabb1" d="M 111.5,405.5 C 122.689,405.55 133.689,406.217 144.5,407.5C 133.302,407.601 122.302,406.934 111.5,405.5 Z"/></g>
<g><path style="opacity:1" fill="#e30b09" d="M 170.5,406.5 C 217.5,406.5 264.5,406.5 311.5,406.5C 307.5,407.167 303.5,407.833 299.5,408.5C 256.327,408.508 213.327,407.841 170.5,406.5 Z"/></g>
<g><path style="opacity:0.031" fill="#fdbfba" d="M 383.5,405.5 C 384.5,405.5 385.5,405.5 386.5,405.5C 375.366,406.964 364.032,407.631 352.5,407.5C 362.638,406.137 372.971,405.47 383.5,405.5 Z"/></g>
<g><path style="opacity:0.769" fill="#4c4c4c" d="M 217.5,496.5 C 238.833,496.5 260.167,496.5 281.5,496.5C 279.833,497.167 278.167,497.833 276.5,498.5C 275.833,498.5 275.5,498.833 275.5,499.5C 270.833,499.5 266.167,499.5 261.5,499.5C 264.977,498.677 268.644,498.177 272.5,498C 257.167,497.333 241.833,497.333 226.5,498C 229.036,498.186 231.369,498.686 233.5,499.5C 230.5,499.5 227.5,499.5 224.5,499.5C 224.5,498.833 224.167,498.5 223.5,498.5C 221.5,497.833 219.5,497.167 217.5,496.5 Z"/></g>
<g><path style="opacity:0.073" fill="#c5c5c5" d="M 217.5,496.5 C 219.5,497.167 221.5,497.833 223.5,498.5C 220.022,498.816 216.688,498.316 213.5,497C 214.793,496.51 216.127,496.343 217.5,496.5 Z"/></g>
<g><path style="opacity:0.997" fill="#101010" d="M 261.5,499.5 C 252.167,499.5 242.833,499.5 233.5,499.5C 231.369,498.686 229.036,498.186 226.5,498C 241.833,497.333 257.167,497.333 272.5,498C 268.644,498.177 264.977,498.677 261.5,499.5 Z"/></g>
<g><path style="opacity:0.092" fill="#d4d4d4" d="M 281.5,496.5 C 282.873,496.343 284.207,496.51 285.5,497C 282.722,498.392 279.722,498.892 276.5,498.5C 278.167,497.833 279.833,497.167 281.5,496.5 Z"/></g>
</svg>
